<svg width="116" height="24" viewBox="0 0 116 24" fill="none" xmlns="http://www.w3.org/2000/svg">
<g clip-path="url(#clip0_4538_67)">
<path d="M8.26758 0.5V4.83398C10.8421 5.39822 12.6736 7.33078 12.8613 9.9668H9.99023C9.7168 8.23828 8.38867 7.10547 6.66992 7.10547C4.44336 7.10547 3.00781 8.9707 3.00781 11.9395C3.00781 14.9473 4.42383 16.8027 6.67969 16.8027C8.42773 16.8027 9.6875 15.7773 10 14.1074H12.8711C12.593 16.7411 10.8557 18.5587 8.26758 19.0801V23.5L5.26758 24V19.1172C1.99162 18.5534 0 15.9563 0 11.9492C0 7.95285 2.00441 5.34856 5.26758 4.78125V0L8.26758 0.5Z" fill="#111827"/>
<path d="M14.7988 19V8.53125H17.5527V10.416H17.6113C17.9824 9.08789 18.8711 8.36523 20.1016 8.36523C20.4336 8.36523 20.7168 8.41406 20.9121 8.47266V10.9824C20.6777 10.8848 20.2871 10.8164 19.877 10.8164C18.4707 10.8164 17.6504 11.6758 17.6504 13.1504V19H14.7988ZM26.5371 19.2246C23.373 19.2246 21.3516 17.1934 21.3516 13.7559C21.3516 10.3672 23.4023 8.30664 26.5371 8.30664C29.6719 8.30664 31.7227 10.3574 31.7227 13.7559C31.7227 17.2031 29.7012 19.2246 26.5371 19.2246ZM26.5371 17.0469C27.9336 17.0469 28.8223 15.8652 28.8223 13.7656C28.8223 11.6855 27.9238 10.4844 26.5371 10.4844C25.1504 10.4844 24.2422 11.6855 24.2422 13.7656C24.2422 15.8652 25.1309 17.0469 26.5371 17.0469ZM47.7871 8.53125L45.0137 19H41.9766L40.082 11.5977H40.0234L38.1387 19H35.1406L32.3574 8.53125H35.2285L36.8105 16.2949H36.8691L38.7246 8.53125H41.459L43.3242 16.2949H43.3828L44.9746 8.53125H47.7871ZM52.6309 19.166C50.0137 19.166 48.3633 17.0957 48.3633 13.7461C48.3633 10.4258 50.0234 8.36523 52.6504 8.36523C54.1641 8.36523 55.3359 9.16602 55.8438 10.3281H55.9023V4.9082H58.7539V19H55.9414V17.2031H55.8926C55.3848 18.3555 54.1738 19.166 52.6309 19.166ZM53.5977 10.6504C52.1621 10.6504 51.2832 11.8516 51.2832 13.7656C51.2832 15.6895 52.1621 16.8711 53.5977 16.8711C55.0137 16.8711 55.9219 15.6797 55.9219 13.7656C55.9219 11.8613 55.0137 10.6504 53.5977 10.6504ZM67.1426 19H60.9023V4.9082H67.0352C69.6816 4.9082 71.3418 6.26562 71.3418 8.42383C71.3418 9.9668 70.1895 11.2559 68.6953 11.4805V11.5586C70.6094 11.7051 72.0156 13.1016 72.0156 14.9668C72.0156 17.4473 70.1504 19 67.1426 19ZM63.8516 7.10547V10.7676H65.9707C67.543 10.7676 68.4414 10.0742 68.4414 8.88281C68.4414 7.75 67.6504 7.10547 66.2734 7.10547H63.8516ZM63.8516 16.8027H66.3906C68.0898 16.8027 69.0078 16.0801 69.0078 14.7324C69.0078 13.4141 68.0605 12.7109 66.3223 12.7109H63.8516V16.8027ZM83.1191 8.53125V19H80.3652V17.1152H80.3066C79.7891 18.4336 78.7539 19.1953 77.1719 19.1953C74.9062 19.1953 73.4023 17.7207 73.4023 15.2793V8.53125H76.2539V14.6836C76.2539 16.0801 76.9473 16.8223 78.207 16.8223C79.4766 16.8223 80.2676 15.9141 80.2676 14.5273V8.53125H83.1191ZM94.4863 12.4277H91.8398C91.6738 11.3242 90.9414 10.543 89.7695 10.543C88.3633 10.543 87.4844 11.7344 87.4844 13.7559C87.4844 15.8164 88.3633 16.9883 89.7793 16.9883C90.9219 16.9883 91.6641 16.3047 91.8398 15.1621H94.4961C94.3496 17.6328 92.5039 19.2246 89.75 19.2246C86.5957 19.2246 84.5938 17.1738 84.5938 13.7559C84.5938 10.3965 86.5957 8.30664 89.7305 8.30664C92.5625 8.30664 94.3594 10.0547 94.4863 12.4277ZM98.832 12.7305L102.387 8.53125H105.619L101.625 13.0234L105.814 19H102.533L99.5352 14.7422L98.793 15.543V19H95.9414V4.9082H98.793V12.7305H98.832ZM106.264 11.6074C106.264 9.61523 107.982 8.30664 110.648 8.30664C113.334 8.30664 114.994 9.68359 115.053 11.7344H112.426C112.338 10.8848 111.703 10.3086 110.648 10.3086C109.662 10.3086 109.008 10.7578 109.008 11.4512C109.008 11.9883 109.398 12.3496 110.453 12.5742L112.24 12.9551C114.428 13.4141 115.326 14.2734 115.326 15.8066C115.326 17.8672 113.441 19.2246 110.746 19.2246C107.855 19.2246 106.186 17.877 106 15.8164H108.783C108.959 16.7344 109.613 17.2227 110.746 17.2227C111.82 17.2227 112.484 16.7832 112.484 16.0996C112.484 15.543 112.123 15.2305 111.098 14.9961L109.311 14.625C107.289 14.1953 106.264 13.1797 106.264 11.6074Z" fill="#2A9D8F"/>
</g>
<defs>
<clipPath id="clip0_4538_67">
<rect width="115.871" height="24" fill="white"/>
</clipPath>
</defs>
</svg>
