<svg width="206" height="176" viewBox="0 0 206 176" fill="none" xmlns="http://www.w3.org/2000/svg">
<path d="M30.1728 160.306C70.3983 181.231 135.612 181.231 175.833 160.306C216.053 139.38 216.058 105.455 175.833 84.5296C135.607 63.6039 70.3983 63.6039 30.1728 84.5296C-10.0528 105.455 -10.0624 139.38 30.1728 160.306Z" fill="#F5F5F5"/>
<path d="M62.4084 71.4971L59.3359 71.196V3.81018L62.4084 4.10659V71.4971Z" fill="#E0E0E0"/>
<path d="M51.1857 27.8529L39.5006 55.6821L31.8194 49.5004C31.5447 49.2801 31.1935 49.177 30.8426 49.2137C30.4918 49.2504 30.1698 49.424 29.9471 49.6965C29.8795 49.784 29.8215 49.8786 29.7743 49.9785L12.4531 87.8236V92.9199C12.4531 93.5319 12.8852 93.7805 13.4133 93.4745L20.1968 89.5733L58.3772 67.6246C58.656 67.4417 58.8881 67.1965 59.0548 66.9085C59.2215 66.6204 59.3183 66.2975 59.3374 65.9656V35.9898L53.5092 27.6138C53.3092 27.3249 53.0022 27.1269 52.6556 27.0632C52.3091 26.9996 51.9513 27.0755 51.6609 27.2744C51.4485 27.4161 51.2831 27.6174 51.1857 27.8529Z" fill="#E0E0E0"/>
<path d="M16.0586 32.9062V45.9818C17.5324 46.5172 19.4191 46.2639 21.4691 45.083C26.1978 42.3627 30.0336 35.7508 30.0336 30.3102C30.0336 27.7955 29.2175 25.9788 27.8685 25.0131L17.0187 31.2281C16.7363 31.4117 16.5019 31.6597 16.3349 31.9516C16.1679 32.2434 16.0732 32.5707 16.0586 32.9062Z" fill="#E0E0E0"/>
<path d="M56.6181 29.2154L53.0703 27.2075V31.2568L56.6181 29.2154Z" fill="#E0E0E0"/>
<path d="M35.2285 51.4033L31.6279 49.3714L31.5703 53.3969L35.2285 51.4033Z" fill="#E0E0E0"/>
<path d="M64.7359 2.68663C64.7409 2.64695 64.7409 2.60679 64.7359 2.56711C64.6824 2.28669 64.5729 2.01985 64.4137 1.78248C64.2545 1.54512 64.049 1.34208 63.8094 1.18545L62.1195 0.229284C61.8221 0.078564 61.4931 0 61.1594 0C60.8256 0 60.4966 0.078564 60.1992 0.229284L11.6251 28.135C11.3397 28.3132 11.1037 28.5597 10.9386 28.8521C10.7649 29.1417 10.669 29.471 10.6602 29.8083V102.233C10.6792 102.565 10.776 102.888 10.9427 103.176C11.1094 103.464 11.3415 103.709 11.6203 103.892L13.3006 104.848C13.5618 104.98 13.8475 105.057 14.1398 105.074C14.4322 105.091 14.725 105.049 15 104.949L15.0673 104.925L15.2257 104.848L36.5891 92.6044L63.8046 76.9616C64.0839 76.7793 64.3164 76.5342 64.4831 76.246C64.6499 75.9579 64.7464 75.6347 64.7647 75.3026V2.83962C64.7468 2.79053 64.7371 2.73885 64.7359 2.68663ZM62.4075 68.3178C62.3885 68.6498 62.2917 68.9726 62.125 69.2607C61.9583 69.5487 61.7262 69.794 61.4474 69.9768L36.6131 84.2619L17.0164 95.5255C16.4883 95.8315 16.0562 95.5829 16.0562 94.971V32.9062C16.0753 32.5743 16.1721 32.2514 16.3388 31.9634C16.5055 31.6754 16.7375 31.4301 17.0164 31.2473L61.4426 5.69855C61.9755 5.3878 62.4027 5.6364 62.4027 6.24835L62.4075 68.3178Z" fill="#F5F5F5"/>
<path d="M36.6149 84.2619C36.6149 87.1926 36.5861 89.9989 36.5716 92.5806L15.2179 104.867L15.0594 104.944L14.9922 104.968C14.7172 105.068 14.4244 105.111 14.132 105.093C13.8397 105.076 13.554 104.999 13.2928 104.867L11.6125 103.911C11.3337 103.728 11.1016 103.483 10.9349 103.195C10.7682 102.907 10.6714 102.584 10.6523 102.252V29.8083C10.6612 29.471 10.7571 29.1417 10.9308 28.8521L14.5362 30.9318L16.346 31.9692C16.1684 32.2574 16.0707 32.5873 16.0628 32.9254V94.9949C16.0628 95.6068 16.4949 95.8554 17.023 95.5494L36.6149 84.2619Z" fill="#E0E0E0"/>
<path d="M54.792 29.8895L43.107 57.7044L35.4258 51.5228C35.2895 51.4126 35.1328 51.3303 34.9645 51.2808C34.7962 51.2312 34.6197 51.2153 34.4452 51.2339C34.2707 51.2526 34.1017 51.3055 33.9478 51.3895C33.7939 51.4736 33.6583 51.5871 33.5487 51.7236C33.48 51.8087 33.422 51.9018 33.3758 52.0009L16.0547 89.8555V99.7757C16.0547 100.383 16.4868 100.631 17.0148 100.325L23.7983 96.4291L61.4507 74.772C61.7295 74.5891 61.9616 74.3439 62.1283 74.0558C62.295 73.7678 62.3917 73.4449 62.4108 73.113V38.3181L57.13 29.6457C56.9313 29.3542 56.6245 29.1532 56.277 29.0868C55.9295 29.0205 55.5698 29.0943 55.2769 29.2919C55.0603 29.4399 54.8918 29.6476 54.792 29.8895Z" fill="#F5F5F5"/>
<path d="M64.7378 2.6866C64.7428 2.64692 64.7428 2.60676 64.7378 2.56708C64.6226 2.16549 64.2577 2.03162 63.8113 2.28979L15.218 30.2146C14.9356 30.3937 14.7009 30.6381 14.5337 30.9269C14.3665 31.2157 14.2719 31.5405 14.2578 31.8736V104.303C14.2578 104.824 14.5747 105.082 14.9923 104.958H15.0595L15.218 104.882L36.5909 92.6044L63.8065 76.9615C64.0858 76.7793 64.3183 76.5342 64.485 76.246C64.6518 75.9578 64.7483 75.6347 64.7666 75.3026V2.83959C64.7487 2.7905 64.7389 2.73882 64.7378 2.6866ZM62.4094 73.0986C62.3903 73.4305 62.2936 73.7534 62.1269 74.0415C61.9602 74.3295 61.7281 74.5747 61.4493 74.7576L36.615 89.0427L17.0182 100.306C16.4902 100.612 16.0581 100.364 16.0581 99.7518V32.9062C16.0772 32.5743 16.174 32.2514 16.3407 31.9634C16.5074 31.6753 16.7394 31.4301 17.0182 31.2473L61.4445 5.69852C61.9774 5.38777 62.4046 5.63637 62.4046 6.24832L62.4094 73.0986Z" fill="#F0F0F0"/>
<path d="M75.0412 78.7543L71.9688 78.4531V11.0674L75.0412 11.3638V78.7543Z" fill="#E0E0E0"/>
<path d="M63.8146 35.1102L52.1295 62.9633L44.4483 56.7817C44.173 56.5618 43.8214 56.4595 43.4705 56.4971C43.1196 56.5348 42.798 56.7093 42.576 56.9825C42.5084 57.0683 42.4505 57.1613 42.4032 57.2597L25.082 95.0761V100.172C25.082 100.784 25.5141 101.033 26.0422 100.727L32.8257 96.8259L71.0061 74.8771C71.2855 74.6948 71.5179 74.4497 71.6847 74.1616C71.8515 73.8734 71.9479 73.5502 71.9663 73.2181V43.2424L66.1381 34.8663C66.0025 34.6702 65.8162 34.5141 65.5989 34.4145C65.3817 34.3149 65.1414 34.2755 64.9036 34.3005C64.6657 34.3254 64.439 34.4138 64.2474 34.5563C64.0557 34.6988 63.9062 34.8902 63.8146 35.1102Z" fill="#E0E0E0"/>
<path d="M28.6875 40.1635V53.2391C30.1613 53.7746 32.048 53.5212 34.098 52.3403C38.8123 49.62 42.6529 43.0081 42.6529 37.5675C42.6529 35.0528 41.8368 33.2361 40.4878 32.2704L29.638 38.4855C29.3582 38.671 29.1263 38.9196 28.9611 39.2112C28.7959 39.5028 28.7022 39.8291 28.6875 40.1635Z" fill="#E0E0E0"/>
<path d="M69.2509 36.4727L65.7031 34.4648V38.5141L69.2509 36.4727Z" fill="#E0E0E0"/>
<path d="M47.8574 58.6605L44.2568 56.6287L44.1992 60.6541L47.8574 58.6605Z" fill="#E0E0E0"/>
<path d="M77.3639 9.94389C77.3689 9.9042 77.3689 9.86405 77.3639 9.82437C77.3071 9.54773 77.196 9.28498 77.037 9.05117C76.878 8.81737 76.6742 8.61709 76.4374 8.46183L74.7475 7.50567C74.4501 7.35495 74.1211 7.27638 73.7874 7.27638C73.4536 7.27638 73.1246 7.35495 72.8272 7.50567L24.2579 35.3922C23.9735 35.5717 23.7378 35.8179 23.5714 36.1094C23.3991 36.3996 23.3033 36.7285 23.293 37.0655V109.49C23.3113 109.822 23.4078 110.146 23.5745 110.434C23.7413 110.722 23.9738 110.967 24.2531 111.149L25.9334 112.105C26.1943 112.238 26.48 112.316 26.7725 112.333C27.0651 112.35 27.358 112.307 27.6329 112.206L27.7001 112.182L27.8585 112.105L49.2219 99.8378L76.4374 84.1949C76.7167 84.0126 76.9492 83.7675 77.116 83.4794C77.2827 83.1912 77.3792 82.8681 77.3975 82.536V10.0969C77.378 10.0481 77.3666 9.99638 77.3639 9.94389ZM75.0404 75.5751C75.022 75.9072 74.9256 76.2303 74.7588 76.5185C74.592 76.8067 74.3596 77.0518 74.0802 77.234L49.2459 91.5192L29.6492 102.783C29.1211 103.089 28.689 102.84 28.689 102.228V40.1635C28.7085 39.8317 28.8054 39.5089 28.9721 39.2209C29.1388 38.933 29.3706 38.6877 29.6492 38.5046L74.0754 12.9558C74.6083 12.6451 75.0356 12.8937 75.0356 13.5056L75.0404 75.5751Z" fill="#F5F5F5"/>
<path d="M49.2438 91.5192C49.2438 94.4498 49.215 97.2562 49.2006 99.8378L27.8468 112.125L27.6883 112.201L27.6211 112.225C27.3463 112.326 27.0534 112.37 26.7608 112.352C26.4683 112.335 26.1825 112.258 25.9217 112.125L24.2414 111.168C23.962 110.986 23.7296 110.741 23.5628 110.453C23.396 110.165 23.2996 109.842 23.2812 109.509V37.0656C23.2916 36.7285 23.3874 36.3996 23.5597 36.1094L27.1651 38.1843L28.975 39.2217C28.799 39.5106 28.7014 39.8401 28.6917 40.1779V102.228C28.6917 102.84 29.1238 103.089 29.6519 102.783L49.2438 91.5192Z" fill="#E0E0E0"/>
<path d="M67.4209 37.1468L55.7359 64.976L48.0547 58.7944C47.7785 58.5743 47.4262 58.4718 47.0745 58.5095C46.7229 58.5471 46.4004 58.7217 46.1776 58.9952C46.111 59.0818 46.0531 59.1747 46.0047 59.2725L28.6836 97.1127V107.009C28.6836 107.616 29.1157 107.865 29.6437 107.559L36.4128 103.662L74.0652 82.0053C74.3445 81.823 74.577 81.5779 74.7438 81.2898C74.9105 81.0016 75.007 80.6785 75.0253 80.3464V45.5754L69.7445 36.903C69.545 36.6122 69.2379 36.4122 68.8904 36.3467C68.543 36.2813 68.1837 36.3558 67.8914 36.554C67.6814 36.7033 67.5183 36.9088 67.4209 37.1468Z" fill="#F5F5F5"/>
<path d="M77.3619 9.94389C77.3669 9.90421 77.3669 9.86406 77.3619 9.82437C77.2467 9.42278 76.8818 9.28892 76.4354 9.54708L27.8469 37.4719C27.5654 37.6519 27.3313 37.8964 27.1642 38.1851C26.9971 38.4737 26.902 38.798 26.8867 39.1308V111.56C26.8867 112.082 27.2036 112.34 27.6212 112.215H27.6884L27.8469 112.139L49.2199 99.8617L76.4354 84.2188C76.7147 84.0366 76.9472 83.7915 77.1139 83.5033C77.2807 83.2151 77.3772 82.892 77.3955 82.5599V10.0969C77.3759 10.0481 77.3646 9.99638 77.3619 9.94389ZM75.0383 80.3559C75.02 80.688 74.9235 81.0112 74.7568 81.2993C74.59 81.5875 74.3576 81.8326 74.0782 82.0149L49.2439 96.3L29.6472 107.564C29.1191 107.87 28.687 107.621 28.687 107.009V40.1635C28.7065 39.8317 28.8034 39.5089 28.9701 39.221C29.1367 38.933 29.3686 38.6877 29.6472 38.5046L74.0734 12.9558C74.6063 12.6451 75.0335 12.8937 75.0335 13.5056L75.0383 80.3559Z" fill="#F0F0F0"/>
<path d="M87.674 86.0069L84.6016 85.7058V18.32L87.674 18.6164V86.0069Z" fill="#63696C"/>
<path d="M76.4513 42.3627L64.7662 70.1919L57.085 64.0103C56.8103 63.7899 56.4591 63.6868 56.1082 63.7236C55.7574 63.7603 55.4354 63.9339 55.2127 64.2063C55.1451 64.2939 55.0871 64.3885 55.0399 64.4884L37.7188 102.329V107.425C37.7188 108.037 38.1508 108.286 38.6789 107.98L45.4624 104.078L83.6428 82.1297C83.9222 81.9474 84.1546 81.7023 84.3214 81.4141C84.4882 81.126 84.5846 80.8028 84.603 80.4707V50.4949L78.7749 42.1189C78.6392 41.9227 78.4529 41.7666 78.2356 41.6671C78.0184 41.5675 77.7782 41.5281 77.5403 41.553C77.3024 41.578 77.0757 41.6664 76.8841 41.8089C76.6924 41.9514 76.5429 42.1427 76.4513 42.3627Z" fill="#CDCDCD"/>
<path d="M41.3242 47.416V60.4916C42.7981 61.027 44.6848 60.7737 46.7347 59.5928C51.4634 56.8725 55.2992 50.2606 55.2992 44.82C55.2992 42.3053 54.4831 40.4886 53.1341 39.5229L42.2844 45.7379C42.0022 45.9218 41.768 46.1699 41.601 46.4616C41.4341 46.7534 41.3392 47.0805 41.3242 47.416Z" fill="#CDCDCD"/>
<path opacity="0.5" d="M76.4513 42.3627L64.7662 70.1919L57.085 64.0103C56.8103 63.7899 56.4591 63.6868 56.1082 63.7236C55.7574 63.7603 55.4354 63.9339 55.2127 64.2063C55.1451 64.2939 55.0871 64.3885 55.0399 64.4884L37.7188 102.329V107.425C37.7188 108.037 38.1508 108.286 38.6789 107.98L45.4624 104.078L83.6428 82.1297C83.9222 81.9474 84.1546 81.7023 84.3214 81.4141C84.4882 81.126 84.5846 80.8028 84.603 80.4707V50.4949L78.7749 42.1189C78.6392 41.9227 78.4529 41.7666 78.2356 41.6671C78.0184 41.5675 77.7782 41.5281 77.5403 41.553C77.3024 41.578 77.0757 41.6664 76.8841 41.8089C76.6924 41.9514 76.5429 42.1427 76.4513 42.3627Z" fill="white"/>
<path d="M81.8837 43.7252L78.3359 41.7173V45.7666L81.8837 43.7252Z" fill="#CDCDCD"/>
<path d="M60.4941 65.913L56.8936 63.8812L56.8359 67.9066L60.4941 65.913Z" fill="#CDCDCD"/>
<path opacity="0.5" d="M81.8837 43.7252L78.3359 41.7173V45.7666L81.8837 43.7252Z" fill="white"/>
<path opacity="0.5" d="M60.4941 65.913L56.8936 63.8812L56.8359 67.9066L60.4941 65.913Z" fill="white"/>
<path d="M90.0006 17.1965C90.0057 17.1568 90.0057 17.1166 90.0006 17.077C89.9461 16.7969 89.8361 16.5305 89.677 16.2932C89.518 16.056 89.313 15.8527 89.0741 15.6953L87.3842 14.7391C87.0868 14.5884 86.7578 14.5099 86.4241 14.5099C86.0904 14.5099 85.7614 14.5884 85.4639 14.7391L36.8946 42.6448C36.6092 42.823 36.3732 43.0696 36.2081 43.362C36.0352 43.6519 35.9394 43.981 35.9297 44.3181V116.743C35.948 117.075 36.0445 117.398 36.2113 117.686C36.378 117.974 36.6105 118.22 36.8898 118.402L38.5701 119.358C38.8313 119.49 39.117 119.567 39.4094 119.584C39.7017 119.601 39.9945 119.559 40.2696 119.458L40.3368 119.435L40.4952 119.358L61.8586 107.09L89.0741 91.4475C89.3535 91.2653 89.5859 91.0202 89.7527 90.732C89.9195 90.4438 90.0159 90.1207 90.0342 89.7886V17.3495C90.0147 17.3007 90.0033 17.249 90.0006 17.1965ZM87.6771 82.8277C87.6587 83.1598 87.5623 83.4829 87.3955 83.7711C87.2287 84.0593 86.9963 84.3044 86.7169 84.4866L61.8826 98.7718L42.2859 110.035C41.7578 110.341 41.3257 110.093 41.3257 109.481V47.4161C41.3448 47.0842 41.4416 46.7613 41.6083 46.4733C41.775 46.1852 42.0071 45.94 42.2859 45.7572L86.7121 20.2084C87.245 19.8977 87.6723 20.1463 87.6723 20.7582L87.6771 82.8277Z" fill="#5A6164"/>
<path d="M61.8805 98.7717C61.8805 101.702 61.8517 104.509 61.8373 107.09L40.4835 119.377L40.3251 119.454H40.2579C39.9828 119.554 39.69 119.596 39.3976 119.579C39.1053 119.562 38.8196 119.485 38.5584 119.353L36.8781 118.397C36.5988 118.215 36.3663 117.97 36.1995 117.681C36.0328 117.393 35.9363 117.07 35.918 116.738V44.318C35.9277 43.9809 36.0235 43.6519 36.1964 43.3619L39.8018 45.4368L41.6117 46.4742C41.434 46.7624 41.3363 47.0923 41.3284 47.4304V109.481C41.3284 110.093 41.7605 110.341 42.2886 110.035L61.8805 98.7717Z" fill="#63696C"/>
<path opacity="0.7" d="M41.3242 47.416V60.4916C42.7981 61.027 44.6848 60.7737 46.7347 59.5928C51.4634 56.8725 55.2992 50.2606 55.2992 44.82C55.2992 42.3053 54.4831 40.4886 53.1341 39.5229L42.2844 45.7379C42.0022 45.9218 41.768 46.1699 41.601 46.4616C41.4341 46.7534 41.3392 47.0805 41.3242 47.416Z" fill="white"/>
<path d="M80.0576 44.3992L68.3726 72.2284L60.6914 66.0468C60.5549 65.9372 60.3981 65.8555 60.2299 65.8063C60.0617 65.757 59.8854 65.7413 59.7111 65.7599C59.5367 65.7786 59.3678 65.8313 59.2139 65.9149C59.0601 65.9986 58.9243 66.1117 58.8143 66.2476C58.7467 66.3335 58.6887 66.4265 58.6415 66.5249L41.3203 104.365V114.261C41.3203 114.869 41.7524 115.117 42.2805 114.811L49.0639 110.915L86.7163 89.2577C86.9951 89.0749 87.2272 88.8297 87.3939 88.5416C87.5606 88.2536 87.6574 87.9307 87.6764 87.5988V52.8278L82.3956 44.1554C82.2599 43.957 82.0728 43.7988 81.8541 43.6978C81.6354 43.5968 81.3932 43.5566 81.1535 43.5816C80.9137 43.6066 80.6852 43.6959 80.4922 43.8398C80.2993 43.9838 80.1491 44.1771 80.0576 44.3992Z" fill="#CDCDCD"/>
<path d="M89.9986 17.1964C90.0036 17.1568 90.0036 17.1166 89.9986 17.0769C89.8834 16.6753 89.5186 16.5415 89.0721 16.7996L40.4836 44.7245C40.2018 44.9041 39.9675 45.1486 39.8004 45.4373C39.6333 45.726 39.5383 46.0505 39.5234 46.3834V118.813C39.5234 119.334 39.8403 119.592 40.258 119.468L40.3252 119.444L40.4836 119.368L61.8566 107.09L89.0721 91.4475C89.3514 91.2652 89.5839 91.0201 89.7507 90.7319C89.9174 90.4438 90.0139 90.1206 90.0322 89.7885V17.3494C90.0127 17.3006 90.0013 17.2489 89.9986 17.1964ZM87.6751 87.6085C87.6567 87.9406 87.5603 88.2637 87.3935 88.5519C87.2267 88.84 86.9943 89.0852 86.7149 89.2674L61.8806 103.553L42.2839 114.816C41.7558 115.122 41.3237 114.874 41.3237 114.262V47.4161C41.3428 47.0841 41.4396 46.7613 41.6063 46.4732C41.773 46.1852 42.005 45.9399 42.2839 45.7571L86.7101 20.2084C87.243 19.8976 87.6703 20.1462 87.6703 20.7582L87.6751 87.6085Z" fill="#545C61"/>
<path d="M52.7342 133.61V164.795C52.7342 165.584 53.2142 165.947 53.8815 165.703C53.475 165.863 53.0391 165.936 52.6024 165.917C52.1656 165.898 51.7378 165.788 51.3467 165.593L50.2186 164.943C49.816 164.681 49.4811 164.327 49.2409 163.912C49.0007 163.497 48.862 163.031 48.8359 162.553V131.367C48.8547 130.887 48.9933 130.419 49.2392 130.005L53.1422 132.247C52.8906 132.659 52.75 133.128 52.7342 133.61Z" fill="#63696C"/>
<path d="M105.927 96.9311C106.356 96.7144 106.83 96.6014 107.312 96.6014C107.793 96.6014 108.267 96.7144 108.697 96.9311L109.83 97.5813C110.195 97.8211 110.505 98.1349 110.74 98.5024C110.975 98.8698 111.129 99.2826 111.193 99.7135C111.083 99.0251 110.511 98.7813 109.83 99.1733L54.0975 131.205C53.6955 131.461 53.3652 131.815 53.1374 132.233L49.2344 129.991C49.4651 129.575 49.7948 129.222 50.1945 128.963L105.927 96.9311Z" fill="#5A6164"/>
<path d="M52.7344 133.61V164.795C52.7344 165.675 53.3537 166.033 54.1218 165.593L109.854 133.562C110.256 133.299 110.591 132.946 110.831 132.531C111.072 132.116 111.21 131.65 111.236 131.171V99.9717C111.236 99.092 110.617 98.7382 109.854 99.1781L54.1218 131.21C53.7163 131.472 53.379 131.826 53.1378 132.243C52.8966 132.66 52.7583 133.129 52.7344 133.61Z" fill="#545C61"/>
<path d="M102.581 104.839C103.061 104.571 103.411 104.786 103.411 105.317V134.795C103.396 135.083 103.313 135.362 103.169 135.611C103.024 135.861 102.823 136.072 102.581 136.229L61.3422 159.942C60.8622 160.205 60.5117 159.99 60.5117 159.464V129.981C60.5269 129.694 60.6101 129.414 60.7544 129.165C60.8987 128.915 61.1002 128.704 61.3422 128.547L102.581 104.839Z" fill="#F5F5F5"/>
<path d="M54.8242 147.991C54.8338 147.823 54.8821 147.66 54.9653 147.514C55.0486 147.368 55.1646 147.243 55.3043 147.149C55.5731 146.996 55.7844 147.12 55.7844 147.431C55.7748 147.599 55.7265 147.762 55.6432 147.908C55.56 148.054 55.444 148.179 55.3043 148.273C55.0451 148.426 54.8242 148.301 54.8242 147.991Z" fill="#63696C"/>
<path d="M105.395 118.899C105.426 118.23 105.616 117.577 105.95 116.996C106.284 116.414 106.752 115.919 107.315 115.552C108.376 114.94 109.235 115.438 109.235 116.662C109.199 117.326 109.006 117.972 108.672 118.549C108.339 119.125 107.874 119.615 107.315 119.979C106.254 120.634 105.395 120.137 105.395 118.899Z" fill="#63696C"/>
<path d="M56.8086 141.555C56.8251 141.22 56.9206 140.892 57.0874 140.6C57.2542 140.308 57.4876 140.058 57.7687 139.872C58.3064 139.562 58.7289 139.815 58.7289 140.432C58.7124 140.768 58.6169 141.095 58.4501 141.387C58.2833 141.679 58.0499 141.929 57.7687 142.115C57.2455 142.425 56.8086 142.172 56.8086 141.555Z" fill="#63696C"/>
<path d="M57.8248 143.716C58.18 143.506 58.4729 143.716 58.4729 144.137V151.514C58.4631 151.746 58.3995 151.972 58.287 152.175C58.1746 152.379 58.0164 152.553 57.8248 152.685C57.4647 152.891 57.1719 152.685 57.1719 152.26V144.888C57.1792 144.655 57.2422 144.427 57.3558 144.223C57.4693 144.019 57.6301 143.846 57.8248 143.716Z" fill="#63696C"/>
<path d="M60.5117 129.981V136.368C61.4047 136.99 62.6913 136.966 64.1219 136.139C66.8151 134.594 68.9995 130.827 68.9995 127.729C68.9995 126.367 68.5722 125.339 67.8713 124.794L61.3422 128.547C61.0999 128.703 60.8983 128.915 60.7539 129.164C60.6095 129.414 60.5265 129.693 60.5117 129.981Z" fill="#CDCDCD"/>
<path opacity="0.7" d="M60.5117 129.981V136.368C61.4047 136.99 62.6913 136.966 64.1219 136.139C66.8151 134.594 68.9995 130.827 68.9995 127.729C68.9995 126.367 68.5722 125.339 67.8713 124.794L61.3422 128.547C61.0999 128.703 60.8983 128.915 60.7539 129.164C60.6095 129.414 60.5265 129.693 60.5117 129.981Z" fill="white"/>
<path d="M103.411 124.263L96.3782 115.758C96.3321 115.678 96.2705 115.608 96.1969 115.553C96.1233 115.497 96.0393 115.457 95.9498 115.434C95.8603 115.411 95.7671 115.407 95.6758 115.421C95.5845 115.434 95.4968 115.466 95.418 115.514C95.2634 115.606 95.1499 115.753 95.1012 115.925L85.8597 136.139L77.1464 131.133C76.8618 130.976 76.5293 130.928 76.2117 130.998C75.8941 131.069 75.6134 131.253 75.4229 131.516L60.5117 152.943V159.459C60.5117 159.99 60.8814 160.205 61.3422 159.938L102.581 136.225C102.823 136.068 103.024 135.856 103.169 135.607C103.313 135.357 103.396 135.078 103.411 134.79V124.273V124.263Z" fill="#CDCDCD"/>
<path d="M63.2383 135.02V130.535L67.1365 128.293" stroke="white" stroke-width="1.5" stroke-linecap="round" stroke-linejoin="round"/>
<path d="M63.2383 151.6V156.084L67.1365 153.842" stroke="white" stroke-width="1.5" stroke-linecap="round" stroke-linejoin="round"/>
<path d="M96.8828 111.297L100.781 109.055V113.54" stroke="white" stroke-width="1.5" stroke-linecap="round" stroke-linejoin="round"/>
<path d="M100.781 130.072V134.556L96.8828 136.798" stroke="white" stroke-width="1.5" stroke-linecap="round" stroke-linejoin="round"/>
<path d="M121.067 56.9491C121.067 63.1068 116.746 70.5888 111.379 73.682C109.152 74.9632 107.106 75.2788 105.474 74.7672C104.207 73.615 103.453 71.6836 103.453 69.1211C103.453 62.9729 107.774 55.4861 113.146 52.3882C115.369 51.1117 117.419 50.7961 119.056 51.3077C120.318 52.4694 121.067 54.3913 121.067 56.9491Z" fill="#CDCDCD"/>
<path d="M122.826 57.9674C122.826 64.1203 118.505 71.5975 113.138 74.6764C110.498 76.1919 108.107 76.3592 106.359 75.3983L106.215 75.317C105.947 75.1537 105.696 74.9631 105.466 74.7481C104.199 73.5959 103.445 71.6644 103.445 69.1019C103.445 62.9538 107.766 55.467 113.138 52.369C115.361 51.0925 117.411 50.777 119.048 51.2886C119.321 51.37 119.584 51.4789 119.835 51.6137L119.878 51.6376L120.152 51.7953C121.818 52.8662 122.826 54.9841 122.826 57.9674Z" fill="#CDCDCD"/>
<path d="M118.363 50.7866L118.07 50.6192C116.337 49.7109 113.98 49.8926 111.387 51.3842C106.025 54.4582 101.704 61.9402 101.704 68.0932C101.69 69.1174 101.833 70.1377 102.126 71.1194C102.437 72.1818 103.041 73.136 103.869 73.8732C104.055 74.0315 104.254 74.1739 104.464 74.2987H104.498L104.541 74.3274L104.704 74.4182L106.222 75.2931C105.953 75.1298 105.702 74.9392 105.473 74.7242C104.205 73.572 103.452 71.6405 103.452 69.078C103.452 62.9299 107.772 55.4431 113.144 52.3451C115.367 51.0686 117.417 50.7531 119.054 51.2647C119.327 51.3461 119.591 51.455 119.841 51.5898L118.363 50.7866Z" fill="#5A6164"/>
<path d="M103.857 73.8732C104.043 74.0315 104.242 74.1739 104.453 74.2987L101.02 72.3242H100.982C99.2581 71.3059 98.1875 69.1545 98.1875 66.1091C98.1875 59.961 102.508 52.4742 107.875 49.3762C109.176 48.5702 110.665 48.1169 112.196 48.0615C113.081 48.0494 113.954 48.2704 114.726 48.7021L118.087 50.6144C116.354 49.7061 113.996 49.8878 111.404 51.3794C106.022 54.4582 101.702 61.9402 101.702 68.0931C101.688 69.1174 101.83 70.1377 102.124 71.1194C102.425 72.1838 103.026 73.1397 103.857 73.8732Z" fill="#63696C"/>
<path d="M133.386 64.0438C133.386 70.1968 129.065 77.674 123.698 80.7767C122.398 81.5843 120.908 82.0391 119.377 82.0962C118.499 82.1053 117.634 81.8862 116.866 81.4604L106.367 75.3935L106.223 75.3123C105.954 75.149 105.703 74.9583 105.474 74.7433C104.207 73.5912 103.453 71.6597 103.453 69.0972C103.453 62.949 107.774 55.4623 113.146 52.3643C115.369 51.0878 117.419 50.7723 119.056 51.2838C119.328 51.3652 119.592 51.4742 119.843 51.6089L119.886 51.6328L120.16 51.7906L130.553 57.7618C132.31 58.7945 133.386 60.9602 133.386 64.0438Z" fill="#63696C"/>
<path d="M127.696 96.63C125.622 97.5001 122.704 97.3901 120.836 96.3192L114.254 92.5376C113.161 91.8274 112.252 90.8708 111.6 89.7453C110.948 88.6198 110.571 87.3571 110.5 86.0596V68.3705C110.503 67.9051 110.56 67.4416 110.668 66.9888C110.702 66.8311 110.745 66.6781 110.793 66.5108V66.4677C110.836 66.3243 110.884 66.1857 110.937 66.0422C110.99 65.8988 111.081 65.6741 111.163 65.4924L111.34 65.1195L111.542 64.7562L111.585 64.6702L125.68 72.7976C125.002 73.912 124.621 75.1811 124.576 76.4836V94.1726C124.59 96.2905 125.934 97.2897 127.696 96.63Z" fill="#63696C"/>
<path d="M163.35 54.181V71.8701C163.281 73.1681 162.905 74.4315 162.253 75.5573C161.601 76.6831 160.69 77.6393 159.596 78.3481L128.353 96.3144L128.271 96.3575C128.21 96.3957 128.146 96.4292 128.079 96.4579L127.868 96.5583L127.7 96.6252C125.938 97.2849 124.594 96.2858 124.594 94.1583V76.4692C124.667 75.1717 125.045 73.9094 125.698 72.7842C126.351 71.6589 127.26 70.7022 128.353 69.9912C130.126 68.9334 131.642 67.4972 132.791 65.7859C133.94 64.0747 134.693 62.131 134.997 60.0949C135.115 59.443 135.355 58.8187 135.703 58.2543C136.033 57.6931 136.492 57.218 137.042 56.8678L143.854 52.9475C144.056 52.8087 144.291 52.7254 144.536 52.7061C144.78 52.6868 145.025 52.7322 145.247 52.8376L145.381 52.9141C145.746 53.1794 146.033 53.5378 146.212 53.9515C146.487 54.5019 146.868 54.9929 147.334 55.3965C147.799 55.8001 148.34 56.1083 148.926 56.3037C149.511 56.499 150.129 56.5776 150.745 56.535C151.361 56.4923 151.962 56.3292 152.515 56.0551L152.769 55.9164L159.591 52.0009C161.569 50.8631 163.187 51.6854 163.336 53.832C163.345 53.9659 163.35 54.0758 163.35 54.181Z" fill="#545C61"/>
<path d="M128.104 53.9133L121.595 50.1699C121.244 50.7334 121.005 51.358 120.889 52.0105C120.582 54.0424 119.827 55.9813 118.678 57.6882C117.529 59.3951 116.015 60.8276 114.245 61.8829C113.136 62.572 112.222 63.5313 111.59 64.6701L125.685 72.7975C126.313 71.6545 127.228 70.6927 128.34 70.0055C130.116 68.947 131.635 67.509 132.785 65.7951C133.936 64.0812 134.69 62.1343 134.994 60.0949C135.112 59.443 135.351 58.8187 135.699 58.2543L128.104 53.9133Z" fill="#545C61"/>
<path d="M159.593 47.703L153.011 43.9213C151.848 43.3319 150.562 43.0247 149.257 43.0247C147.952 43.0247 146.666 43.3319 145.503 43.9213L138.666 47.8321C138.264 48.0663 137.829 48.2388 137.375 48.3436L137.581 48.4583L145.224 52.8567L145.359 52.9332C145.724 53.1986 146.011 53.5569 146.189 53.9706C146.464 54.521 146.846 55.012 147.311 55.4156C147.777 55.8192 148.318 56.1275 148.903 56.3228C149.489 56.5182 150.107 56.5967 150.723 56.5541C151.339 56.5114 151.94 56.3484 152.493 56.0742L152.747 55.9356L159.569 52.0201C161.547 50.8822 163.165 51.7045 163.314 53.8511C163.199 52.6133 162.805 51.4172 162.161 50.3525C161.516 49.2878 160.639 48.382 159.593 47.703Z" fill="#545C61"/>
<path d="M137.602 48.4583L137.395 48.3436L131.269 44.8201L131.149 44.7532C130.929 44.6477 130.684 44.6023 130.441 44.6216C130.197 44.641 129.963 44.7243 129.762 44.8631L122.945 48.7786C122.393 49.1293 121.934 49.6063 121.605 50.1699L128.106 53.9133L135.686 58.2734C136.016 57.7122 136.475 57.2371 137.026 56.8869L143.838 52.9666C144.04 52.8278 144.275 52.7446 144.519 52.7252C144.764 52.7059 145.009 52.7513 145.23 52.8567L137.602 48.4583Z" fill="#5A6164"/>
<path d="M138.335 58.1539L143.501 55.185C144.019 54.8838 144.461 55.1276 144.461 55.7205V58.6272C144.442 58.9538 144.344 59.2712 144.177 59.5531C144.011 59.8349 143.779 60.0731 143.501 60.2479L138.335 63.2168C137.817 63.518 137.375 63.2742 137.375 62.6813V59.7746C137.396 59.4484 137.494 59.1317 137.661 58.8502C137.828 58.5687 138.059 58.3301 138.335 58.1539Z" fill="#E0E0E0"/>
<path d="M118.87 63.2837C118.14 63.6996 118.222 64.4263 119.047 64.9044L121.328 66.2143C121.757 66.4521 122.236 66.5855 122.726 66.6038C123.217 66.6221 123.705 66.5247 124.15 66.3195C124.885 65.9036 124.803 65.1769 123.973 64.6988L121.692 63.3841C121.263 63.1482 120.783 63.0162 120.293 62.9987C119.803 62.9813 119.315 63.0789 118.87 63.2837Z" fill="#63696C"/>
<path d="M118.87 62.7435C118.14 63.1594 118.222 63.8909 119.047 64.3642L121.328 65.6789C121.757 65.9148 122.237 66.0468 122.727 66.0642C123.217 66.0817 123.705 65.9841 124.15 65.7793C124.885 65.3634 124.803 64.6367 123.973 64.1586L121.692 62.8486C121.264 62.6109 120.784 62.4774 120.294 62.4592C119.803 62.4409 119.315 62.5383 118.87 62.7435Z" fill="#5A6164"/>
<path d="M149.863 51.7571L149.186 51.585L147.631 50.691C147.307 50.5134 146.947 50.4136 146.577 50.3994C146.208 50.3853 145.841 50.4573 145.504 50.6097H145.475L145.125 50.5189V51.1404C145.146 51.2877 145.204 51.4274 145.293 51.5461C145.383 51.6649 145.502 51.7589 145.639 51.8193L147.357 52.8041C147.682 52.9804 148.044 53.0794 148.414 53.0935C148.783 53.1076 149.151 53.0364 149.489 52.8854C149.593 52.8379 149.683 52.763 149.748 52.6687C149.813 52.5744 149.851 52.4642 149.859 52.3499V51.7571H149.863Z" fill="#63696C"/>
<path d="M145.503 50.0121C144.95 50.3324 145.023 50.8774 145.637 51.2359L147.356 52.2256C147.68 52.4043 148.042 52.5048 148.412 52.5189C148.782 52.533 149.15 52.4604 149.487 52.3069C150.035 51.9913 149.967 51.4415 149.348 51.083L147.629 50.0933C147.306 49.9157 146.945 49.8159 146.576 49.8018C146.206 49.7877 145.839 49.8597 145.503 50.0121Z" fill="#5A6164"/>
<path d="M155.889 46.6321C154.924 46.1512 153.859 45.9008 152.78 45.9008C151.701 45.9008 150.637 46.1512 149.672 46.6321H148.352V48.444C148.352 49.099 148.784 49.7491 149.648 50.2464C150.619 50.7365 151.692 50.9919 152.78 50.9919C153.869 50.9919 154.942 50.7365 155.913 50.2464C156.777 49.7683 157.209 49.099 157.209 48.444V46.6321H155.889Z" fill="#63696C"/>
<path d="M149.648 44.8345C147.919 45.8289 147.919 47.4401 149.648 48.4345C150.619 48.9246 151.692 49.1801 152.78 49.1801C153.869 49.1801 154.942 48.9246 155.913 48.4345C157.641 47.4401 157.641 45.8289 155.913 44.8345C154.942 44.3444 153.869 44.0889 152.78 44.0889C151.692 44.0889 150.619 44.3444 149.648 44.8345Z" fill="#5A6164"/>
<path d="M143.059 48.8505C142.794 48.723 142.503 48.6568 142.209 48.6568C141.915 48.6568 141.624 48.723 141.359 48.8505H140.961V49.367C140.97 49.477 141.009 49.5825 141.073 49.6725C141.137 49.7625 141.225 49.8337 141.326 49.8787C141.599 50.0154 141.901 50.0866 142.207 50.0866C142.513 50.0866 142.814 50.0154 143.088 49.8787C143.189 49.8345 143.276 49.7641 143.34 49.675C143.404 49.5858 143.443 49.4811 143.453 49.3717V48.8505H143.059Z" fill="#63696C"/>
<path d="M146.98 47.3446V46.8233H146.586C146.321 46.6958 146.031 46.6296 145.736 46.6296C145.442 46.6296 145.152 46.6958 144.887 46.8233H144.488V47.3446C144.497 47.4541 144.536 47.559 144.6 47.6483C144.665 47.7375 144.752 47.8078 144.853 47.8515C145.127 47.9882 145.428 48.0594 145.734 48.0594C146.04 48.0594 146.342 47.9882 146.615 47.8515C146.716 47.8078 146.804 47.7375 146.868 47.6483C146.932 47.559 146.971 47.4541 146.98 47.3446Z" fill="#63696C"/>
<path d="M141.329 48.3436C141.223 48.3797 141.131 48.448 141.065 48.5389C141 48.6298 140.965 48.7388 140.965 48.8506C140.965 48.9623 141 49.0713 141.065 49.1622C141.131 49.2531 141.223 49.3214 141.329 49.3575C141.602 49.4942 141.904 49.5654 142.21 49.5654C142.516 49.5654 142.817 49.4942 143.091 49.3575C143.197 49.3214 143.289 49.2531 143.354 49.1622C143.42 49.0713 143.455 48.9623 143.455 48.8506C143.455 48.7388 143.42 48.6298 143.354 48.5389C143.289 48.448 143.197 48.3797 143.091 48.3436C142.818 48.2036 142.516 48.1305 142.21 48.1305C141.903 48.1305 141.601 48.2036 141.329 48.3436Z" fill="#5A6164"/>
<path d="M144.852 46.3166C144.746 46.3527 144.654 46.421 144.589 46.5119C144.523 46.6028 144.488 46.7118 144.488 46.8235C144.488 46.9353 144.523 47.0443 144.589 47.1352C144.654 47.2261 144.746 47.2944 144.852 47.3305C145.126 47.4672 145.427 47.5384 145.733 47.5384C146.039 47.5384 146.341 47.4672 146.614 47.3305C146.72 47.2944 146.813 47.2261 146.878 47.1352C146.943 47.0443 146.978 46.9353 146.978 46.8235C146.978 46.7118 146.943 46.6028 146.878 46.5119C146.813 46.421 146.72 46.3527 146.614 46.3166C146.341 46.1799 146.039 46.1087 145.733 46.1087C145.427 46.1087 145.126 46.1799 144.852 46.3166Z" fill="#5A6164"/>
<path d="M158.619 67.4909C158.95 66.8906 159.133 66.2202 159.152 65.5355C159.17 65.276 159.131 65.0156 159.037 64.7727C158.944 64.5299 158.798 64.3104 158.609 64.1299L160.05 61.663C160.698 62.1411 161.053 63.0256 161.053 64.1969C161.007 65.6127 160.612 66.9954 159.901 68.2223L158.619 67.4909Z" fill="#63696C"/>
<path d="M154.893 72.176C154.601 72.1784 154.312 72.1214 154.043 72.0087L155.483 69.5466C155.629 69.5942 155.781 69.6185 155.934 69.6183C156.302 69.6071 156.659 69.4999 156.971 69.3075C157.558 68.9484 158.051 68.4571 158.412 67.8733L159.679 68.6048C158.967 69.8308 157.963 70.8635 156.755 71.6119C156.195 71.9588 155.552 72.1533 154.893 72.176Z" fill="#63696C"/>
<path d="M153.671 71.7936C153.023 71.3155 152.668 70.431 152.668 69.2645C152.714 67.8467 153.112 66.4622 153.825 65.2343L155.097 65.9658C154.762 66.5665 154.578 67.2389 154.559 67.9259C154.541 68.1854 154.58 68.4458 154.674 68.6887C154.768 68.9315 154.914 69.151 155.102 69.3315L153.671 71.7936Z" fill="#63696C"/>
<path d="M158.741 65.6501C158.705 66.2996 158.516 66.9316 158.189 67.4948C157.862 68.0579 157.406 68.5364 156.859 68.8915C156.679 69.0507 156.453 69.1495 156.214 69.1739C155.974 69.1984 155.733 69.1473 155.525 69.0278C155.316 68.9083 155.15 68.7266 155.051 68.5082C154.952 68.2898 154.924 68.046 154.972 67.811C155.01 67.1609 155.201 66.5287 155.528 65.965C155.856 65.4013 156.312 64.9218 156.859 64.5649C157.039 64.407 157.265 64.3095 157.504 64.2861C157.743 64.2626 157.983 64.3145 158.191 64.4344C158.399 64.5543 158.564 64.7361 158.662 64.9542C158.761 65.1723 158.788 65.4157 158.741 65.6501Z" fill="#63696C"/>
<path d="M154.031 64.8757C154.741 63.6478 155.745 62.6145 156.955 61.8686C157.515 61.5217 158.154 61.3242 158.813 61.2949C159.103 61.2907 159.391 61.3477 159.658 61.4622L158.218 63.9291C158.074 63.8775 157.923 63.8516 157.771 63.8526C157.403 63.8648 157.046 63.9737 156.734 64.1681C156.144 64.522 155.649 65.0144 155.294 65.6024L154.031 64.8757Z" fill="#63696C"/>
<path d="M152.824 75.7856L153.837 75.2071C154.043 75.0876 154.211 75.1832 154.211 75.4222V76.584C154.204 76.714 154.167 76.8405 154.102 76.9535C154.037 77.0664 153.946 77.1625 153.837 77.2342L152.824 77.8127C152.617 77.9322 152.449 77.8366 152.449 77.5975V76.4358C152.456 76.3058 152.494 76.1792 152.559 76.0663C152.624 75.9534 152.715 75.8572 152.824 75.7856Z" fill="#63696C"/>
<path d="M159.874 71.7362L160.887 71.1529C160.924 71.125 160.969 71.1087 161.015 71.1061C161.062 71.1035 161.108 71.1147 161.148 71.1382C161.188 71.1618 161.22 71.1966 161.24 71.2384C161.26 71.2801 161.268 71.3269 161.261 71.3728V72.525C161.254 72.6543 161.217 72.7802 161.152 72.8924C161.087 73.0045 160.996 73.0998 160.887 73.1704L159.874 73.7537C159.838 73.7837 159.793 73.8019 159.746 73.8059C159.699 73.8099 159.652 73.7994 159.611 73.776C159.571 73.7525 159.538 73.7172 159.518 73.6748C159.498 73.6323 159.491 73.5848 159.499 73.5385V72.3816C159.506 72.2522 159.544 72.1264 159.609 72.0142C159.674 71.902 159.765 71.8068 159.874 71.7362Z" fill="#63696C"/>
<path d="M152.824 59.5881L153.837 59.0048C153.873 58.9748 153.917 58.9566 153.964 58.9526C154.011 58.9486 154.058 58.9591 154.099 58.9825C154.14 59.0059 154.173 59.0413 154.193 59.0837C154.213 59.1262 154.219 59.1737 154.211 59.22V60.3817C154.204 60.5117 154.167 60.6382 154.102 60.7512C154.037 60.8641 153.946 60.9603 153.837 61.0319L152.824 61.6104C152.617 61.7347 152.449 61.6343 152.449 61.3952V60.2335C152.456 60.1041 152.494 59.9783 152.559 59.8661C152.624 59.7539 152.715 59.6587 152.824 59.5881Z" fill="#63696C"/>
<path d="M159.874 55.534L160.887 54.9555C161.094 54.836 161.262 54.9316 161.262 55.1706V56.3324C161.255 56.4624 161.217 56.5889 161.152 56.7018C161.087 56.8148 160.997 56.9109 160.887 56.9826L159.874 57.561C159.668 57.6806 159.5 57.5849 159.5 57.3459V56.1842C159.507 56.0542 159.544 55.9276 159.61 55.8147C159.675 55.7018 159.765 55.6056 159.874 55.534Z" fill="#63696C"/>
<path d="M149.26 63.3124V78.9505C149.239 79.3403 149.126 79.7197 148.929 80.0578C148.733 80.3959 148.46 80.6832 148.132 80.8962L129.245 91.7535C128.621 92.1121 128.117 91.8204 128.117 91.1081V75.4652C128.138 75.076 128.251 74.6973 128.447 74.36C128.644 74.0226 128.917 73.7362 129.245 73.5242L148.132 62.6622C148.751 62.3084 149.26 62.5952 149.26 63.3124Z" fill="#F0F0F0"/>
<path d="M130.292 78.9504C131.159 78.3875 131.881 77.6287 132.398 76.7356C132.915 75.8426 133.213 74.8405 133.268 73.811C133.268 72.7688 132.865 72.0708 132.222 71.8079L129.245 73.5242C128.917 73.7362 128.644 74.0226 128.447 74.3599C128.251 74.6973 128.138 75.076 128.117 75.4652V79.1082C128.66 79.4668 129.433 79.4429 130.292 78.9504Z" fill="#CDCDCD"/>
<path opacity="0.7" d="M130.292 78.9504C131.159 78.3875 131.881 77.6287 132.398 76.7356C132.915 75.8426 133.213 74.8405 133.268 73.811C133.268 72.7688 132.865 72.0708 132.222 71.8079L129.245 73.5242C128.917 73.7362 128.644 74.0226 128.447 74.3599C128.251 74.6973 128.138 75.076 128.117 75.4652V79.1082C128.66 79.4668 129.433 79.4429 130.292 78.9504Z" fill="white"/>
<path d="M146.238 69.8095C146.193 69.7273 146.126 69.6598 146.043 69.6154C145.961 69.571 145.867 69.5517 145.773 69.5598C145.68 69.568 145.591 69.6032 145.517 69.6612C145.444 69.7191 145.389 69.7973 145.359 69.886L140.448 80.2461L136.128 77.6549C135.932 77.5382 135.699 77.5028 135.478 77.5565C135.257 77.6102 135.066 77.7487 134.947 77.9417L128.105 89.3631V91.1081C128.105 91.8205 128.61 92.1121 129.234 91.7535L148.12 80.8963C148.446 80.6823 148.718 80.3954 148.914 80.0585C149.11 79.7216 149.224 79.3438 149.248 78.9553V74.0071L146.238 69.8095Z" fill="#CDCDCD"/>
<path d="M131.641 74.1697L129.879 75.1832V77.2103" stroke="white" stroke-linecap="round" stroke-linejoin="round"/>
<path d="M129.879 87.3361V89.3631L131.641 88.3496" stroke="white" stroke-linecap="round" stroke-linejoin="round"/>
<path d="M145.734 66.0661L147.496 65.0526V67.0797" stroke="white" stroke-linecap="round" stroke-linejoin="round"/>
<path d="M147.496 77.2102V79.2325L145.734 80.246" stroke="white" stroke-linecap="round" stroke-linejoin="round"/>
<path d="M158.947 67.6867C159.279 67.0851 159.462 66.413 159.48 65.7266C159.498 65.4671 159.459 65.2067 159.365 64.9638C159.272 64.721 159.126 64.5015 158.938 64.321L160.378 61.8589C161.026 62.337 161.381 63.2214 161.381 64.388C161.334 65.805 160.938 67.1889 160.229 68.4182L158.947 67.6867Z" fill="#5A6164"/>
<path d="M155.22 72.3673C154.93 72.3708 154.643 72.3154 154.375 72.2048L155.815 69.7378C155.959 69.7872 156.11 69.813 156.262 69.8143C156.631 69.8044 156.991 69.6954 157.303 69.4988C157.89 69.1397 158.383 68.6484 158.744 68.0646L160.016 68.796C159.306 70.0239 158.302 71.0572 157.092 71.8032C156.527 72.149 155.882 72.3433 155.22 72.3673Z" fill="#5A6164"/>
<path d="M153.999 71.9895C153.35 71.5115 153 70.6222 153 69.4557C153.046 68.0399 153.441 66.6572 154.152 65.4302L155.424 66.1569C155.089 66.7577 154.905 67.4301 154.887 68.1171C154.868 68.3766 154.907 68.637 155.001 68.8798C155.095 69.1227 155.241 69.3421 155.429 69.5226L153.999 71.9895Z" fill="#5A6164"/>
<path d="M159.065 65.8318C159.029 66.482 158.84 67.1147 158.513 67.6786C158.186 68.2425 157.73 68.7219 157.183 69.078C156.954 69.2775 156.655 69.3784 156.352 69.3587C156.049 69.339 155.766 69.2002 155.565 68.9729C155.451 68.844 155.368 68.6909 155.322 68.5252C155.276 68.3595 155.269 68.1856 155.301 68.0167C155.324 67.3647 155.514 66.7295 155.853 66.1713C156.167 65.5986 156.625 65.1174 157.183 64.7753C157.363 64.6181 157.588 64.5209 157.826 64.4975C158.065 64.4741 158.305 64.5256 158.512 64.6447C158.72 64.7639 158.885 64.9447 158.984 65.1619C159.083 65.3791 159.111 65.6217 159.065 65.8557V65.8318Z" fill="#5A6164"/>
<path d="M154.371 65.0527C155.081 63.8247 156.085 62.7914 157.295 62.0455C157.855 61.7013 158.495 61.5055 159.153 61.4766C159.441 61.4727 159.727 61.528 159.993 61.6391L158.553 64.106C158.409 64.0582 158.258 64.034 158.106 64.0343C157.739 64.0455 157.381 64.1527 157.069 64.3451C156.483 64.7042 155.989 65.1955 155.629 65.7793L154.371 65.0527Z" fill="#5A6164"/>
<path d="M153.155 75.9816L154.163 75.3983C154.199 75.3684 154.244 75.3501 154.291 75.3462C154.338 75.3422 154.385 75.3526 154.426 75.376C154.467 75.3995 154.499 75.4348 154.519 75.4773C154.539 75.5197 154.546 75.5673 154.538 75.6135V76.7752C154.531 76.9052 154.493 77.0318 154.428 77.1447C154.363 77.2576 154.272 77.3538 154.163 77.4254L153.155 78.0039C153.119 78.0339 153.074 78.0521 153.027 78.0561C152.98 78.0601 152.933 78.0496 152.893 78.0262C152.852 78.0028 152.819 77.9674 152.799 77.925C152.779 77.8825 152.773 77.835 152.781 77.7888V76.627C152.788 76.4977 152.825 76.3718 152.89 76.2596C152.955 76.1475 153.046 76.0522 153.155 75.9816Z" fill="#5A6164"/>
<path d="M160.202 71.9274L161.21 71.3489C161.246 71.3189 161.291 71.3007 161.338 71.2967C161.385 71.2928 161.432 71.3032 161.472 71.3266C161.513 71.3501 161.546 71.3854 161.566 71.4278C161.586 71.4703 161.592 71.5178 161.584 71.5641V72.7258C161.577 72.8552 161.54 72.981 161.475 73.0932C161.41 73.2054 161.319 73.3006 161.21 73.3712L160.202 73.9545C160.165 73.9835 160.12 74.001 160.073 74.0045C160.027 74.0081 159.98 73.9976 159.939 73.9745C159.898 73.9514 159.865 73.9166 159.845 73.8747C159.824 73.8328 159.816 73.7857 159.822 73.7393V72.5776C159.829 72.447 159.867 72.3199 159.933 72.2068C159.999 72.0937 160.091 71.998 160.202 71.9274Z" fill="#5A6164"/>
<path d="M153.155 59.7794L154.163 59.2009C154.199 59.1709 154.244 59.1527 154.291 59.1487C154.338 59.1447 154.385 59.1551 154.426 59.1786C154.467 59.202 154.499 59.2373 154.519 59.2798C154.539 59.3222 154.546 59.3698 154.538 59.416V60.573C154.531 60.7023 154.493 60.8282 154.428 60.9404C154.363 61.0525 154.272 61.1478 154.163 61.2184L153.155 61.8017C153.119 61.8317 153.074 61.8499 153.027 61.8539C152.98 61.8578 152.933 61.8474 152.893 61.824C152.852 61.8005 152.819 61.7652 152.799 61.7228C152.779 61.6803 152.773 61.6328 152.781 61.5865V60.4296C152.788 60.2996 152.825 60.173 152.89 60.0601C152.955 59.9472 153.046 59.851 153.155 59.7794Z" fill="#5A6164"/>
<path d="M160.203 55.73L161.212 55.1467C161.418 55.0272 161.586 55.1228 161.586 55.3619V56.5236C161.579 56.6536 161.542 56.7802 161.477 56.8931C161.412 57.006 161.321 57.1022 161.212 57.1738L160.203 57.7523C159.992 57.8718 159.824 57.7762 159.824 57.5372V56.3754C159.831 56.2456 159.869 56.1192 159.935 56.007C160.001 55.8947 160.093 55.7998 160.203 55.73Z" fill="#5A6164"/>
</svg>
