<svg height="377" viewBox="0 0 374 405" fill="none" xmlns="http://www.w3.org/2000/svg">
<g opacity="0.4">
<path d="M3.0199 180.114C2.21452 186.593 2.69039 193.166 4.42057 199.462C6.19421 205.633 9.47627 211.382 14.1507 215.253C15.2914 216.215 16.5144 217.076 17.8057 217.825C19.0759 218.535 20.4107 219.122 21.7923 219.579C24.4846 220.473 27.3218 220.852 30.1549 220.696C35.7824 220.39 41.1945 218.272 46.1176 215.212C46.4077 215.021 46.7558 214.823 47.0127 214.641L47.7172 214.111C48.1813 213.731 48.6454 213.367 49.093 212.945C50.0269 212.112 50.8917 211.204 51.6789 210.232C53.4081 208.137 54.937 205.886 56.2456 203.507C59.1237 198.268 61.6166 192.827 63.7048 187.228C68.1803 175.647 72.1171 163.24 76.5429 150.741C77.648 147.614 78.7973 144.474 79.9908 141.319C81.1594 138.16 82.4274 135 83.7452 131.823C86.4038 125.206 89.5652 118.802 93.2019 112.666C94.1964 111.011 95.2656 109.423 96.5171 107.794C97.1304 106.967 97.8017 106.139 98.5145 105.362C99.2272 104.584 99.9732 103.832 100.736 103.12C103.681 100.424 106.989 98.1519 110.565 96.3703C117.353 92.9127 124.108 91.0433 130.622 89.1159C137.137 87.1886 143.527 85.4763 149.685 83.1851C155.743 81.0009 161.535 78.14 166.949 74.6568C172.215 71.2506 176.869 66.9833 180.715 62.034C184.486 57.0709 187.462 51.6281 188.796 46.0942C189.463 43.4604 189.743 40.7435 189.625 38.0292C189.488 35.5958 188.883 33.2114 187.843 31.0064C186.898 29.0569 185.561 27.3232 183.913 25.914C182.266 24.5048 180.345 23.4505 178.27 22.8173C176.162 22.1395 173.962 21.7935 171.747 21.7916C169.383 21.7831 167.025 22.0609 164.727 22.6188C164.131 22.7594 163.534 22.9331 162.937 23.1069L160.816 23.7438C159.415 24.1905 158.014 24.6537 156.672 25.1665C153.92 26.184 151.218 27.3172 148.533 28.6076C143.17 31.1719 137.816 34.3979 131.874 37.8555C125.617 41.5835 119.097 44.8513 112.364 47.6328C105.375 50.3876 98.1367 52.4625 90.7486 53.8284C89.8369 54.0186 88.9252 54.1427 88.0136 54.2999L85.5271 54.6969C84.1762 54.9203 82.8004 55.185 81.4329 55.5241C78.6867 56.1278 75.973 56.8705 73.3023 57.7492C62.6108 61.2565 52.9884 66.8482 45.6618 74.6651C41.8883 78.6572 38.6281 83.1031 35.9565 87.9C34.5395 90.4115 33.2801 93.0083 32.1854 95.6755C31.0269 98.4386 30.0144 101.26 29.152 104.129C28.3232 107.049 27.4944 110.052 26.906 113.137C26.5993 114.577 26.2844 116.446 25.9611 118.183C25.6379 119.92 25.2401 121.657 24.8257 123.37C23.1892 130.162 21.0789 136.831 18.5102 143.329C16.0238 149.757 13.123 155.927 10.2222 161.982C8.7635 165.01 7.31309 168.021 5.97043 171.081C4.58783 173.948 3.59552 176.985 3.0199 180.114ZM0.450612 179.841C0.667317 178.094 1.0503 176.371 1.59436 174.696C2.09164 173.042 2.68009 171.462 3.25196 169.882C4.41229 166.722 5.62234 163.612 6.69149 160.469C7.76065 157.325 8.74692 154.174 9.57572 150.989C10.4045 147.804 11.0427 144.587 11.5731 141.377C12.561 134.995 12.9135 128.531 12.6257 122.079C12.5677 120.483 12.4434 118.886 12.3273 117.298C12.2113 115.71 12.0041 114.246 11.8549 112.335C11.5471 108.715 11.4391 105.081 11.5317 101.449C11.6906 93.8884 12.9354 86.3895 15.2282 79.1815C17.6445 71.6533 21.3365 64.5944 26.1435 58.3117C31.0403 52.005 36.8896 46.4964 43.482 41.9831C49.9519 37.5596 56.9878 34.0235 64.401 31.4697C68.0533 30.1938 71.7819 29.1468 75.5649 28.3346C77.4546 27.9211 79.3691 27.5819 81.3168 27.2924L86.0244 26.6058C91.8177 25.7368 97.5266 24.3781 103.089 22.5444C108.864 20.5812 114.497 18.2237 119.947 15.4885C125.749 12.6761 132.139 9.43355 139.059 6.73693C142.549 5.37292 146.107 4.18849 149.718 3.18833C151.525 2.69202 153.348 2.25361 155.171 1.84829L157.915 1.29408C158.951 1.10383 159.987 0.938392 161.039 0.806043C165.337 0.237273 169.693 0.284626 173.977 0.946664C178.428 1.61401 182.728 3.05291 186.682 5.19838C190.722 7.39933 194.275 10.3931 197.125 13.9996C199.933 17.5579 201.951 21.6718 203.043 26.0682C204.064 30.2264 204.295 34.5389 203.723 38.7819C203.204 42.7363 202.116 46.5951 200.49 50.2384C197.357 56.95 193.078 63.066 187.843 68.3123C185.357 70.8785 182.699 73.2719 179.886 75.4757C177.092 77.6384 174.176 79.6379 171.151 81.4645C159.108 88.7272 145.914 92.8796 133.855 98.1405C127.821 100.73 122.011 103.666 117.444 107.297C115.304 108.99 113.419 110.982 111.85 113.212C111.494 113.741 111.162 114.271 110.855 114.808C110.549 115.346 110.275 115.875 109.985 116.463C109.422 117.637 108.874 118.944 108.327 120.301C107.3 123.022 106.396 125.992 105.559 129.027C104.722 132.063 103.902 135.173 103.073 138.317L100.661 147.854C99.8323 151.055 99.0035 154.281 98.1249 157.516C94.5445 170.428 90.3839 183.53 84.0353 196.327C80.7775 202.976 76.7437 209.218 72.0177 214.922C70.7496 216.378 69.4318 217.817 67.9814 219.207C66.5391 220.632 64.9994 221.956 63.3733 223.169C61.6916 224.447 59.9126 225.592 58.0524 226.594C57.101 227.098 56.1245 227.553 55.1267 227.958L53.6017 228.554C53.1127 228.736 52.6817 228.86 52.2176 229.017C48.5432 230.211 44.75 231.004 40.9044 231.383C37.0016 231.776 33.0622 231.601 29.21 230.862C25.3772 230.125 21.7029 228.725 18.3527 226.726C16.7129 225.771 15.1672 224.663 13.7363 223.417C12.3202 222.208 11.0139 220.877 9.83265 219.438C5.39538 213.851 2.41916 207.251 1.17167 200.231C-0.0756714 193.507 -0.318659 186.636 0.450612 179.841Z" fill="#EBEBEB"/>
<path d="M258.289 345.543C250.714 346.732 243.328 348.915 236.326 352.036C229.256 355.047 222.452 358.654 215.606 362.36C212.158 364.179 208.719 366.074 205.155 367.835C201.539 369.7 197.82 371.357 194.016 372.799C189.921 374.358 185.647 375.402 181.294 375.909C176.3 376.48 171.242 375.915 166.499 374.254C165.248 373.799 164.013 373.204 162.811 372.65C161.61 372.095 160.491 371.31 159.339 370.598C158.187 369.887 157.2 369.01 156.164 368.175C155.128 367.339 154.25 366.404 153.305 365.495C149.83 361.919 146.893 357.859 144.586 353.443C142.335 349.113 140.626 344.524 139.497 339.777C138.445 335.314 137.766 330.771 137.467 326.195C137.012 317.816 137.167 309.414 137.931 301.057L138.867 289.386C139.025 287.483 139.132 285.605 139.257 283.736L139.423 280.948L139.53 278.202C139.661 274.639 139.609 271.072 139.373 267.515C139.173 264.14 138.682 260.789 137.906 257.498C137.024 254.055 135.837 250.697 134.359 247.464C132.858 244.056 131.135 240.615 129.27 237.174C125.54 230.259 121.313 223.368 117.186 216.238L114.127 210.845C113.133 209.008 112.147 207.172 111.21 205.278C109.249 201.469 107.587 197.514 106.237 193.449C104.8 189.216 104.047 184.782 104.008 180.313C104.032 175.758 105.089 171.267 107.099 167.178C108.083 165.214 109.254 163.35 110.597 161.611L112.644 159.129C113.34 158.302 114.069 157.632 114.782 156.879C117.706 153.949 120.893 151.293 124.305 148.947C127.772 146.631 131.455 144.656 135.303 143.049C136.273 142.677 137.226 142.222 138.221 141.899L141.196 140.89C143.202 140.319 145.224 139.748 147.28 139.335C155.529 137.63 163.987 137.159 172.376 137.937C176.569 138.278 180.74 138.861 184.866 139.682C189.01 140.452 193.071 141.527 197.107 142.702C199.105 143.33 201.135 143.909 203.099 144.621L206.075 145.655L209.017 146.771C212.929 148.288 216.775 149.942 220.554 151.734C222.444 152.644 224.308 153.579 226.182 154.514C228.055 155.448 229.878 156.474 231.701 157.492C233.525 158.509 235.348 159.535 237.13 160.618C238.912 161.702 240.71 162.769 242.451 163.927L252.504 170.42C254.162 171.479 255.819 172.472 257.477 173.506L259.963 175.036L262.45 176.517C275.657 184.379 289.332 191.429 303.401 197.626C310.462 200.753 317.598 203.756 325.149 207.155C328.912 208.81 332.782 210.737 336.752 212.946C341 215.323 345.015 218.092 348.745 221.218C352.717 224.579 356.24 228.435 359.229 232.691C362.064 236.754 364.462 241.104 366.382 245.669C367.376 247.853 368.13 250.003 368.926 252.171C369.307 253.246 369.631 254.313 369.979 255.38C370.327 256.447 370.675 257.506 370.957 258.689L371.852 262.072L372.283 263.768L372.614 265.53C373.106 267.873 373.457 270.242 373.667 272.627C373.783 273.835 373.899 275.042 373.982 276.25V281.726C373.982 282.338 373.882 282.967 373.833 283.587L373.451 287.301C373.269 288.534 372.979 289.783 372.73 290.982L372.341 292.81C372.192 293.414 371.984 294.018 371.802 294.613C371.429 295.805 371.064 297.004 370.658 298.17C370.252 299.337 369.672 300.462 369.166 301.587C367.118 305.956 364.416 309.989 361.152 313.548L359.992 314.854C359.586 315.268 359.163 315.682 358.748 316.054C357.92 316.84 357.091 317.634 356.262 318.378C354.488 319.76 352.781 321.232 350.925 322.398C347.369 324.791 343.618 326.88 339.711 328.644C335.93 330.322 332.056 331.783 328.108 333.019C320.457 335.394 312.665 337.289 304.777 338.694C302.829 339.033 300.89 339.43 298.975 339.72C297.061 340.009 295.105 340.406 293.174 340.679C291.242 340.952 289.287 341.266 287.372 341.556L281.57 342.383L258.289 345.543ZM257.858 343.012C265.541 341.903 273.166 340.53 280.684 338.71L283.501 338.04L286.303 337.296C288.168 336.824 290.016 336.254 291.856 335.699C295.552 334.624 299.182 333.367 302.763 332.027C309.86 329.408 316.706 326.155 323.218 322.307C326.373 320.439 329.417 318.39 332.335 316.17C335.102 314.022 337.691 311.654 340.076 309.089C341.294 307.89 342.247 306.525 343.308 305.267L344.692 303.274C344.916 302.943 345.156 302.62 345.372 302.281L345.943 301.256C347.498 298.653 348.681 295.847 349.458 292.918C349.623 292.198 349.789 291.495 349.988 290.8L350.311 288.633C350.361 288.269 350.436 287.921 350.469 287.557L350.51 286.449C350.51 285.705 350.61 284.985 350.618 284.249L350.535 281.999C350.535 281.627 350.535 281.263 350.494 280.882L350.353 279.732L350.104 277.449L349.648 275.117C348.992 271.895 348.097 268.727 346.971 265.637C346.739 264.851 346.399 263.983 346.076 263.156C345.753 262.328 345.446 261.501 345.106 260.674C344.402 259.111 343.747 257.489 342.993 256.042C341.653 253.239 340.037 250.576 338.169 248.093C336.442 245.837 334.449 243.795 332.235 242.013C327.768 238.39 321.626 235.222 314.706 231.963C311.266 230.308 307.686 228.704 304.047 227C300.409 225.296 296.737 223.534 293.074 221.747C278.268 214.428 263.999 206.072 250.374 196.741L247.813 195.012L245.327 193.234C243.669 192.043 241.954 190.877 240.296 189.661L230.616 182.53C227.532 180.272 224.4 178.088 221.258 175.913L216.501 172.761C214.902 171.752 213.302 170.726 211.686 169.726C208.445 167.79 205.205 165.821 201.881 164.068L199.395 162.719L196.908 161.437C195.251 160.56 193.543 159.783 191.844 158.997C185.116 155.881 178.102 153.421 170.9 151.652C167.354 150.822 163.754 150.239 160.126 149.906C156.543 149.565 152.935 149.565 149.352 149.906C142.179 150.499 135.227 152.672 128.996 156.267C125.892 158.103 122.999 160.272 120.368 162.736C119.73 163.373 119.042 163.985 118.429 164.63L116.705 166.582C115.653 167.918 114.728 169.35 113.945 170.859C112.396 173.853 111.619 177.184 111.683 180.553C111.799 184.108 112.546 187.614 113.887 190.91C115.303 194.408 117.023 197.776 119.026 200.976C121.065 204.236 123.302 207.445 125.698 210.588C130.447 216.9 135.643 223.062 140.749 229.613C143.293 232.922 145.788 236.33 148.158 239.986C150.656 243.762 152.824 247.744 154.639 251.889C158.402 260.782 159.852 269.781 160.441 278.434C161.576 295.705 159.363 311.595 159.687 325.839C159.836 332.945 160.615 339.505 162.687 345.311C163.728 348.233 165.134 351.013 166.872 353.583C168.338 355.886 170.269 357.858 172.541 359.373C175.026 360.907 177.825 361.863 180.73 362.169C184.16 362.531 187.622 362.453 191.032 361.938C194.721 361.412 198.377 360.674 201.98 359.729C205.644 358.728 209.34 357.628 213.004 356.42C220.363 354.022 227.673 351.284 235.099 348.852C242.517 346.262 250.142 344.309 257.891 343.012H257.858Z" fill="#EBEBEB"/>
<path d="M222.774 55.0783C225.254 54.4577 227.774 54.0045 230.316 53.7217C231.526 53.5646 232.703 53.4736 233.888 53.366C235.073 53.2585 236.233 53.2337 237.385 53.2089C239.69 53.1262 241.936 53.2089 244.182 53.2585C253.083 53.6142 261.586 54.9708 269.991 56.2694L272.966 56.7161L274.284 56.9064L275.635 57.0139C276.538 57.0966 277.475 57.0718 278.403 57.0966C279.331 57.1214 280.293 57.0139 281.262 56.9395C282.232 56.865 283.185 56.7658 284.171 56.6086C285.158 56.4514 286.119 56.3191 287.114 56.1206C289.07 55.7235 291.075 55.2934 293.048 54.7474C301.037 52.6464 308.936 49.5196 317.754 47.5096C322.411 46.4016 327.214 46.0387 331.985 46.4343C335.865 46.8151 339.646 47.8852 343.149 49.5941C343.737 49.8836 344.342 50.1566 344.914 50.4213L346.572 51.4056C348.766 52.7661 350.84 54.3102 352.771 56.0213C353.749 56.8485 354.678 57.8907 355.622 58.8585C356.567 59.8263 357.321 60.9182 358.167 61.9687C359.012 63.0193 359.642 64.1442 360.371 65.2775C360.744 65.8399 361.034 66.4107 361.333 66.9318L362.244 68.6524L362.692 69.5292L363.065 70.406L363.794 72.1761C364.296 73.3405 364.728 74.5338 365.087 75.7496C366.562 80.4462 367.436 85.3099 367.69 90.2253C367.914 94.9709 367.653 99.7269 366.911 104.42C366.152 109.04 364.924 113.571 363.247 117.944C362.825 119.028 362.377 120.103 361.921 121.162C361.465 122.221 360.927 123.271 360.421 124.305C359.916 125.339 359.369 126.373 358.764 127.382C358.158 128.391 357.636 129.392 356.998 130.377C354.554 134.28 351.796 137.978 348.752 141.436C345.781 144.855 342.538 148.028 339.055 150.924C335.682 153.773 332.05 156.301 328.206 158.476C324.394 160.616 320.289 162.191 316.022 163.15C311.637 164.065 307.098 163.958 302.761 162.835C298.396 161.661 294.213 159.893 290.329 157.583C282.613 152.964 275.393 147.567 268.78 141.477C265.465 138.5 262.357 135.398 259.407 132.213C259.125 131.91 258.818 131.633 258.487 131.386L257.716 130.716C257.119 130.31 256.663 129.889 256.058 129.475L255.23 128.879C254.923 128.689 254.608 128.515 254.318 128.317C253.746 127.92 253.033 127.589 252.436 127.2C249.489 125.596 246.444 124.176 243.32 122.949L237.866 120.806L234.949 119.673L231.907 118.416C229.843 117.588 227.672 116.538 225.467 115.446C223.106 114.239 220.825 112.882 218.638 111.385C216.168 109.694 213.879 107.754 211.809 105.594C209.56 103.228 207.645 100.568 206.115 97.6864L205.518 96.5945L205.012 95.4778C204.689 94.7251 204.349 93.9724 204.051 93.2114C203.508 91.7132 203.06 90.1827 202.708 88.6288L202.236 86.3458L201.946 84.1289C201.768 82.6853 201.674 81.2325 201.664 79.7779C201.664 79.3974 201.664 79.1079 201.664 78.6695C201.664 78.0822 201.664 77.5115 201.739 76.9407C201.804 75.7363 201.979 74.5402 202.261 73.3673C202.319 73.0778 202.393 72.7717 202.468 72.4739L202.758 71.564C202.957 70.9685 203.181 70.3729 203.405 69.7856C203.905 68.6381 204.495 67.5317 205.17 66.4769C205.51 65.9723 205.858 65.4842 206.222 65.0045C206.405 64.7646 206.587 64.5164 206.769 64.3014L207.341 63.6644C207.714 63.2591 208.104 62.8373 208.51 62.4568C208.916 62.0763 209.281 61.7619 209.687 61.4145C210.093 61.0671 210.516 60.761 210.889 60.4633L212.057 59.6361C212.447 59.3879 212.886 59.1067 213.234 58.8916L214.37 58.263C217.04 56.885 219.86 55.8165 222.774 55.0783Z" fill="#EBEBEB"/>
<path d="M101.406 274.28C101.882 277.036 102.079 279.832 101.994 282.627C101.92 287.97 100.709 292.859 99.3917 297.632C98.0784 302.385 96.4021 307.031 94.3774 311.528C92.3159 316.044 89.7138 320.293 86.6281 324.184C83.4213 328.248 79.6833 331.865 75.5139 334.938C70.8434 338.203 65.4742 340.336 59.8329 341.166C56.8421 341.616 53.8056 341.677 50.799 341.348C47.8966 341.025 45.0602 340.263 42.3867 339.09C40.0051 338.027 37.7755 336.653 35.7562 335.004C33.9594 333.514 32.2544 331.918 30.6508 330.223C29.8227 329.317 29.0767 328.34 28.4213 327.303C27.8171 326.215 27.3016 325.081 26.8798 323.911C26.076 321.492 25.5207 318.998 25.2222 316.467C24.5049 311.228 24.4465 305.921 25.0481 300.668C25.6205 295.627 27.2621 290.765 29.8635 286.407C32.3969 282.299 35.7277 278.739 39.6599 275.935C43.5801 273.089 48.1883 271.046 52.6887 269.185C57.1891 267.324 61.6977 265.669 65.8998 263.684C70.1018 261.699 74.1878 259.499 79.3098 257.894C80.6772 257.466 82.081 257.165 83.5035 256.992C85.1558 256.773 86.8314 256.798 88.4763 257.067C90.6976 257.508 92.7673 258.514 94.4852 259.987C94.9087 260.36 95.3125 260.755 95.6952 261.17C96.0516 261.575 96.408 261.997 96.7478 262.427C97.3363 263.223 97.8654 264.06 98.3308 264.933C98.7636 265.738 99.1509 266.567 99.4911 267.415C99.7812 268.184 100.104 269.069 100.32 269.772L100.66 270.939L100.933 272.072C101.149 272.833 101.273 273.544 101.406 274.28Z" fill="#EBEBEB"/>
</g>
<path d="M196.352 339.956L199.866 340.609L200.653 344.307L201.432 340.609L204.955 339.956L201.449 339.104L200.653 335.613L199.849 339.104L196.352 339.956Z" fill="#455A64"/>
<path d="M117.68 210.022L121.194 210.675L121.981 214.373L122.769 210.675L126.283 210.022L122.785 209.17L121.981 205.671L121.186 209.17L117.68 210.022Z" fill="#455A64"/>
<path d="M334.352 208.5L337.866 209.146L338.653 212.843L339.44 209.146L342.955 208.492L339.457 207.64L338.653 204.149L337.849 207.64L334.352 208.5Z" fill="#455A64"/>
<path d="M351.043 307.532L353.007 307.896L353.446 309.964L353.886 307.896L355.85 307.532L353.894 307.061L353.446 305.108L352.999 307.061L351.043 307.532Z" fill="#455A64"/>
<path d="M324.129 67.4759L326.093 67.8398L326.532 69.9078L326.972 67.8398L328.944 67.4759L326.98 66.9961L326.532 65.0439L326.085 66.9961L324.129 67.4759Z" fill="#455A64"/>
<path d="M362.848 128.96L364.812 129.324L365.251 131.392L365.69 129.324L367.655 128.96L365.699 128.489L365.251 126.528L364.804 128.489L362.848 128.96Z" fill="#455A64"/>
<path d="M62.7773 156.687L64.7416 157.051L65.1809 159.119L65.6201 157.051L67.5927 156.687L65.6367 156.207L65.1809 154.255L64.7416 156.207L62.7773 156.687Z" fill="#455A64"/>
<path d="M32.0391 325.969L34.0033 326.333L34.4426 328.401L34.8819 326.333L36.8461 325.969L34.8901 325.489L34.4426 323.537L33.995 325.489L32.0391 325.969Z" fill="#455A64"/>
<path d="M70.6641 329.7L72.6283 330.064L73.0676 332.132L73.5069 330.064L75.4711 329.7L73.5151 329.221L73.0676 327.269L72.62 329.221L70.6641 329.7Z" fill="#455A64"/>
<path d="M139.887 75.8543L141.851 76.2183L142.29 78.2862L142.73 76.2183L144.694 75.8543L142.738 75.3828L142.29 73.4307L141.843 75.3828L139.887 75.8543Z" fill="#455A64"/>
<path d="M256.234 133.824L258.199 134.188L258.638 136.256L259.077 134.188L261.041 133.824L259.085 133.345L258.638 131.393L258.19 133.345L256.234 133.824Z" fill="#455A64"/>
<path d="M100.082 289.309L102.046 289.673L102.486 291.741L102.925 289.673L104.889 289.309L102.933 288.837L102.486 286.877L102.038 288.837L100.082 289.309Z" fill="#455A64"/>
<path d="M42.3469 352.704C42.4857 352.721 42.6135 352.788 42.7062 352.892C42.7989 352.997 42.8501 353.131 42.8501 353.271C42.8501 353.41 42.7989 353.545 42.7062 353.649C42.6135 353.754 42.4857 353.821 42.3469 353.837C42.2081 353.821 42.0803 353.754 41.9876 353.649C41.8949 353.545 41.8438 353.41 41.8438 353.271C41.8438 353.131 41.8949 352.997 41.9876 352.892C42.0803 352.788 42.2081 352.721 42.3469 352.704Z" fill="#455A64"/>
<path d="M298.9 284.048C299.052 284.048 299.197 284.108 299.304 284.215C299.412 284.322 299.472 284.467 299.472 284.619C299.472 284.77 299.412 284.915 299.304 285.022C299.197 285.129 299.052 285.189 298.9 285.189C298.748 285.189 298.603 285.129 298.496 285.022C298.388 284.915 298.328 284.77 298.328 284.619C298.328 284.467 298.388 284.322 298.496 284.215C298.603 284.108 298.748 284.048 298.9 284.048Z" fill="#455A64"/>
<path d="M304.263 202.753C304.415 202.753 304.56 202.813 304.668 202.92C304.775 203.027 304.835 203.172 304.835 203.324C304.835 203.475 304.775 203.62 304.668 203.727C304.56 203.834 304.415 203.894 304.263 203.894C304.112 203.894 303.966 203.834 303.859 203.727C303.752 203.62 303.691 203.475 303.691 203.324C303.691 203.172 303.752 203.027 303.859 202.92C303.966 202.813 304.112 202.753 304.263 202.753Z" fill="#455A64"/>
<path d="M264.421 160.839C264.56 160.856 264.688 160.923 264.78 161.027C264.873 161.131 264.924 161.266 264.924 161.405C264.924 161.545 264.873 161.68 264.78 161.784C264.688 161.888 264.56 161.955 264.421 161.972C264.282 161.955 264.155 161.888 264.062 161.784C263.969 161.68 263.918 161.545 263.918 161.405C263.918 161.266 263.969 161.131 264.062 161.027C264.155 160.923 264.282 160.856 264.421 160.839Z" fill="#455A64"/>
<path d="M88.55 360.975C88.6888 360.991 88.8166 361.058 88.9093 361.163C89.002 361.267 89.0532 361.402 89.0532 361.541C89.0532 361.681 89.002 361.815 88.9093 361.92C88.8166 362.024 88.6888 362.091 88.55 362.108C88.4113 362.091 88.2835 362.024 88.1908 361.92C88.0981 361.815 88.0469 361.681 88.0469 361.541C88.0469 361.402 88.0981 361.267 88.1908 361.163C88.2835 361.058 88.4113 360.991 88.55 360.975Z" fill="#455A64"/>
<path d="M65.1813 327.996C65.3329 327.996 65.4784 328.056 65.5856 328.163C65.6929 328.27 65.7531 328.415 65.7531 328.567C65.7531 328.718 65.6929 328.863 65.5856 328.97C65.4784 329.077 65.3329 329.138 65.1813 329.138C65.0296 329.138 64.8841 329.077 64.7769 328.97C64.6696 328.863 64.6094 328.718 64.6094 328.567C64.6094 328.415 64.6696 328.27 64.7769 328.163C64.8841 328.056 65.0296 327.996 65.1813 327.996Z" fill="#455A64"/>
<path d="M123.898 312.908C124.036 312.925 124.164 312.992 124.257 313.096C124.35 313.201 124.401 313.335 124.401 313.475C124.401 313.614 124.35 313.749 124.257 313.853C124.164 313.958 124.036 314.025 123.898 314.041C123.759 314.025 123.631 313.958 123.538 313.853C123.446 313.749 123.395 313.614 123.395 313.475C123.395 313.335 123.446 313.201 123.538 313.096C123.631 312.992 123.759 312.925 123.898 312.908Z" fill="#455A64"/>
<path d="M231.763 327.996C231.915 327.996 232.06 328.056 232.168 328.163C232.275 328.27 232.335 328.415 232.335 328.567C232.335 328.718 232.275 328.863 232.168 328.97C232.06 329.077 231.915 329.138 231.763 329.138C231.612 329.138 231.466 329.077 231.359 328.97C231.252 328.863 231.191 328.718 231.191 328.567C231.191 328.415 231.252 328.27 231.359 328.163C231.466 328.056 231.612 327.996 231.763 327.996Z" fill="#455A64"/>
<path d="M338.105 296.282C338.243 296.299 338.371 296.366 338.464 296.47C338.557 296.575 338.608 296.709 338.608 296.849C338.608 296.988 338.557 297.123 338.464 297.227C338.371 297.332 338.243 297.399 338.105 297.415C337.966 297.399 337.838 297.332 337.745 297.227C337.653 297.123 337.602 296.988 337.602 296.849C337.602 296.709 337.653 296.575 337.745 296.47C337.838 296.366 337.966 296.299 338.105 296.282Z" fill="#455A64"/>
<path d="M302.152 228.627C302.29 228.644 302.418 228.711 302.511 228.815C302.604 228.919 302.655 229.054 302.655 229.194C302.655 229.333 302.604 229.468 302.511 229.572C302.418 229.677 302.29 229.743 302.152 229.76C302.013 229.743 301.885 229.677 301.792 229.572C301.7 229.468 301.648 229.333 301.648 229.194C301.648 229.054 301.7 228.919 301.792 228.815C301.885 228.711 302.013 228.644 302.152 228.627Z" fill="#455A64"/>
<path d="M205.403 326.87C205.513 326.87 205.618 326.914 205.696 326.991C205.773 327.069 205.817 327.174 205.817 327.284C205.817 327.393 205.773 327.499 205.696 327.576C205.618 327.654 205.513 327.697 205.403 327.697C205.293 327.697 205.187 327.654 205.11 327.576C205.032 327.499 204.988 327.393 204.988 327.284C204.988 327.174 205.032 327.069 205.11 326.991C205.187 326.914 205.293 326.87 205.403 326.87Z" fill="#455A64"/>
<path d="M80.9183 77.4102C81.0282 77.4102 81.1336 77.4537 81.2113 77.5313C81.289 77.6089 81.3327 77.7141 81.3327 77.8237C81.3327 77.9334 81.289 78.0386 81.2113 78.1162C81.1336 78.1938 81.0282 78.2373 80.9183 78.2373C80.8084 78.2373 80.703 78.1938 80.6253 78.1162C80.5476 78.0386 80.5039 77.9334 80.5039 77.8237C80.5039 77.7141 80.5476 77.6089 80.6253 77.5313C80.703 77.4537 80.8084 77.4102 80.9183 77.4102Z" fill="#455A64"/>
<path d="M237.278 279.911C237.388 279.911 237.493 279.955 237.571 280.032C237.648 280.11 237.692 280.215 237.692 280.325C237.692 280.434 237.648 280.54 237.571 280.617C237.493 280.695 237.388 280.738 237.278 280.738C237.168 280.738 237.062 280.695 236.985 280.617C236.907 280.54 236.863 280.434 236.863 280.325C236.863 280.215 236.907 280.11 236.985 280.032C237.062 279.955 237.168 279.911 237.278 279.911Z" fill="#455A64"/>
<path d="M81.9144 331.726C82.0243 331.726 82.1297 331.769 82.2074 331.847C82.2851 331.924 82.3288 332.029 82.3288 332.139C82.3288 332.249 82.2851 332.354 82.2074 332.432C82.1297 332.509 82.0243 332.553 81.9144 332.553C81.8045 332.553 81.6991 332.509 81.6214 332.432C81.5437 332.354 81.5 332.249 81.5 332.139C81.5 332.029 81.5437 331.924 81.6214 331.847C81.6991 331.769 81.8045 331.726 81.9144 331.726Z" fill="#455A64"/>
<path d="M184.965 234.697C185.075 234.697 185.18 234.741 185.258 234.818C185.336 234.896 185.38 235.001 185.38 235.111C185.38 235.221 185.336 235.326 185.258 235.403C185.18 235.481 185.075 235.524 184.965 235.524C184.855 235.524 184.75 235.481 184.672 235.403C184.594 235.326 184.551 235.221 184.551 235.111C184.551 235.001 184.594 234.896 184.672 234.818C184.75 234.741 184.855 234.697 184.965 234.697Z" fill="#455A64"/>
<path d="M272.124 239.313C272.397 239.337 272.65 239.462 272.835 239.663C273.02 239.865 273.123 240.128 273.123 240.401C273.123 240.674 273.02 240.938 272.835 241.139C272.65 241.34 272.397 241.465 272.124 241.489C271.851 241.465 271.597 241.34 271.413 241.139C271.228 240.938 271.125 240.674 271.125 240.401C271.125 240.128 271.228 239.865 271.413 239.663C271.597 239.462 271.851 239.337 272.124 239.313Z" fill="#455A64"/>
<path d="M119.043 89.0814L122.565 89.7266L123.344 93.4324L124.132 89.7266L127.646 89.0814L124.148 88.2294L123.344 84.7305L122.549 88.2294L119.043 89.0814Z" fill="#455A64"/>
<path d="M154.277 47.1674L157.791 47.8126L158.579 51.5184L159.366 47.8126L162.88 47.1674L159.374 46.3071L158.579 42.8164L157.775 46.3071L154.277 47.1674Z" fill="#455A64"/>
<path d="M10.75 207.476L14.2641 208.129L15.0515 211.826L15.8388 208.129L19.353 207.476L15.8471 206.624L15.0515 203.133L14.2475 206.624L10.75 207.476Z" fill="#455A64"/>
<path d="M339.152 38.5307L342.666 39.1759L343.454 42.8734L344.241 39.1759L347.755 38.5307L344.258 37.6704L343.454 34.1797L342.658 37.6704L339.152 38.5307Z" fill="#455A64"/>
<path d="M195.844 32.2454L197.816 32.6093L198.256 34.6773L198.695 32.6093L200.659 32.2454L198.703 31.7656L198.256 29.8135L197.808 31.7656L195.844 32.2454Z" fill="#455A64"/>
<path d="M27.2305 125.071L29.1947 125.435L29.634 127.503L30.0733 125.435L32.0375 125.071L30.0816 124.591L29.634 122.639L29.1864 124.591L27.2305 125.071Z" fill="#455A64"/>
<path d="M51.1438 105.261C51.2825 105.278 51.4103 105.344 51.503 105.449C51.5957 105.553 51.6469 105.688 51.6469 105.827C51.6469 105.967 51.5957 106.102 51.503 106.206C51.4103 106.31 51.2825 106.377 51.1438 106.394C51.005 106.377 50.8772 106.31 50.7845 106.206C50.6918 106.102 50.6406 105.967 50.6406 105.827C50.6406 105.688 50.6918 105.553 50.7845 105.449C50.8772 105.344 51.005 105.278 51.1438 105.261Z" fill="#455A64"/>
<path d="M23.5367 308.351C23.6884 308.351 23.8338 308.411 23.9411 308.518C24.0483 308.625 24.1086 308.77 24.1086 308.921C24.1086 309.073 24.0483 309.218 23.9411 309.325C23.8338 309.432 23.6884 309.492 23.5367 309.492C23.385 309.492 23.2396 309.432 23.1323 309.325C23.0251 309.218 22.9648 309.073 22.9648 308.921C22.9648 308.77 23.0251 308.625 23.1323 308.518C23.2396 308.411 23.385 308.351 23.5367 308.351Z" fill="#455A64"/>
<path d="M54.5602 289.308C54.7118 289.308 54.8573 289.368 54.9645 289.475C55.0718 289.582 55.132 289.727 55.132 289.878C55.132 290.03 55.0718 290.175 54.9645 290.282C54.8573 290.389 54.7118 290.449 54.5602 290.449C54.4085 290.449 54.263 290.389 54.1558 290.282C54.0485 290.175 53.9883 290.03 53.9883 289.878C53.9883 289.727 54.0485 289.582 54.1558 289.475C54.263 289.368 54.4085 289.308 54.5602 289.308Z" fill="#455A64"/>
<path d="M8.38047 145.346C8.53214 145.346 8.6776 145.406 8.78484 145.513C8.89209 145.62 8.95234 145.765 8.95234 145.916C8.95234 146.068 8.89209 146.213 8.78484 146.32C8.6776 146.427 8.53214 146.487 8.38047 146.487C8.2288 146.487 8.08334 146.427 7.97609 146.32C7.86885 146.213 7.80859 146.068 7.80859 145.916C7.80859 145.765 7.86885 145.62 7.97609 145.513C8.08334 145.406 8.2288 145.346 8.38047 145.346Z" fill="#455A64"/>
<path d="M54.5602 59.8809C54.7118 59.8809 54.8573 59.941 54.9645 60.048C55.0718 60.1551 55.132 60.3002 55.132 60.4516C55.132 60.603 55.0718 60.7482 54.9645 60.8552C54.8573 60.9622 54.7118 61.0224 54.5602 61.0224C54.4085 61.0224 54.263 60.9622 54.1558 60.8552C54.0485 60.7482 53.9883 60.603 53.9883 60.4516C53.9883 60.3002 54.0485 60.1551 54.1558 60.048C54.263 59.941 54.4085 59.8809 54.5602 59.8809Z" fill="#455A64"/>
<path d="M330.838 145.908C330.989 145.908 331.135 145.968 331.242 146.075C331.349 146.182 331.409 146.328 331.409 146.479C331.409 146.63 331.349 146.776 331.242 146.883C331.135 146.99 330.989 147.05 330.838 147.05C330.686 147.05 330.54 146.99 330.433 146.883C330.326 146.776 330.266 146.63 330.266 146.479C330.266 146.328 330.326 146.182 330.433 146.075C330.54 145.968 330.686 145.908 330.838 145.908Z" fill="#455A64"/>
<path d="M106.27 234.003C106.38 234.003 106.485 234.047 106.563 234.124C106.641 234.202 106.684 234.307 106.684 234.417C106.684 234.526 106.641 234.631 106.563 234.709C106.485 234.787 106.38 234.83 106.27 234.83C106.16 234.83 106.055 234.787 105.977 234.709C105.899 234.631 105.855 234.526 105.855 234.417C105.855 234.307 105.899 234.202 105.977 234.124C106.055 234.047 106.16 234.003 106.27 234.003Z" fill="#455A64"/>
<path d="M105.883 337.608C105.993 337.608 106.098 337.652 106.176 337.73C106.254 337.807 106.298 337.912 106.298 338.022C106.298 338.132 106.254 338.237 106.176 338.314C106.098 338.392 105.993 338.436 105.883 338.436C105.773 338.436 105.668 338.392 105.59 338.314C105.512 338.237 105.469 338.132 105.469 338.022C105.469 337.912 105.512 337.807 105.59 337.73C105.668 337.652 105.773 337.608 105.883 337.608Z" fill="#455A64"/>
<path d="M311.742 101.241L313.706 101.604L314.146 103.672L314.585 101.604L316.549 101.241L314.593 100.761L314.146 98.8086L313.698 100.761L311.742 101.241Z" fill="#455A64"/>
<path d="M306.267 103.192C306.419 103.192 306.564 103.253 306.672 103.36C306.779 103.467 306.839 103.612 306.839 103.763C306.839 103.915 306.779 104.06 306.672 104.167C306.564 104.274 306.419 104.334 306.267 104.334C306.116 104.334 305.97 104.274 305.863 104.167C305.756 104.06 305.695 103.915 305.695 103.763C305.695 103.612 305.756 103.467 305.863 103.36C305.97 103.253 306.116 103.192 306.267 103.192Z" fill="#455A64"/>
<path d="M248.082 46.3564C248.192 46.3564 248.298 46.4 248.375 46.4776C248.453 46.5551 248.497 46.6603 248.497 46.77C248.497 46.8797 248.453 46.9849 248.375 47.0625C248.298 47.1401 248.192 47.1836 248.082 47.1836C247.972 47.1836 247.867 47.1401 247.789 47.0625C247.712 46.9849 247.668 46.8797 247.668 46.77C247.668 46.6603 247.712 46.5551 247.789 46.4776C247.867 46.4 247.972 46.3564 248.082 46.3564Z" fill="#455A64"/>
<path d="M162.364 374.931C162.474 374.931 162.579 374.974 162.657 375.052C162.734 375.129 162.778 375.235 162.778 375.344C162.778 375.454 162.734 375.559 162.657 375.637C162.579 375.714 162.474 375.758 162.364 375.758C162.254 375.758 162.148 375.714 162.071 375.637C161.993 375.559 161.949 375.454 161.949 375.344C161.949 375.235 161.993 375.129 162.071 375.052C162.148 374.974 162.254 374.931 162.364 374.931Z" fill="#455A64"/>
<path d="M346.969 112.82C347.079 112.82 347.184 112.864 347.262 112.941C347.34 113.019 347.383 113.124 347.383 113.234C347.383 113.344 347.34 113.449 347.262 113.526C347.184 113.604 347.079 113.647 346.969 113.647C346.859 113.647 346.754 113.604 346.676 113.526C346.598 113.449 346.555 113.344 346.555 113.234C346.555 113.124 346.598 113.019 346.676 112.941C346.754 112.864 346.859 112.82 346.969 112.82Z" fill="#455A64"/>
<path d="M265.895 93.0264C266.005 93.0264 266.11 93.0699 266.188 93.1475C266.266 93.2251 266.309 93.3303 266.309 93.44C266.309 93.5496 266.266 93.6548 266.188 93.7324C266.11 93.81 266.005 93.8535 265.895 93.8535C265.785 93.8535 265.68 93.81 265.602 93.7324C265.524 93.6548 265.48 93.5496 265.48 93.44C265.48 93.3303 265.524 93.2251 265.602 93.1475C265.68 93.0699 265.785 93.0264 265.895 93.0264Z" fill="#455A64"/>
<path d="M267.059 31.4424C267.169 31.4424 267.274 31.486 267.352 31.5635C267.43 31.6411 267.473 31.7463 267.473 31.856C267.473 31.9657 267.43 32.0709 267.352 32.1484C267.274 32.226 267.169 32.2696 267.059 32.2696C266.949 32.2696 266.844 32.226 266.766 32.1484C266.688 32.0709 266.645 31.9657 266.645 31.856C266.645 31.7463 266.688 31.6411 266.766 31.5635C266.844 31.486 266.949 31.4424 267.059 31.4424Z" fill="#455A64"/>
<path d="M154.155 219.718C154.428 219.742 154.682 219.866 154.867 220.068C155.051 220.269 155.154 220.532 155.154 220.806C155.154 221.079 155.051 221.342 154.867 221.543C154.682 221.745 154.428 221.869 154.155 221.893C153.882 221.869 153.629 221.745 153.444 221.543C153.259 221.342 153.156 221.079 153.156 220.806C153.156 220.532 153.259 220.269 153.444 220.068C153.629 219.866 153.882 219.742 154.155 219.718Z" fill="#455A64"/>
<path d="M303.203 163.932C303.494 163.932 303.772 164.047 303.977 164.251C304.182 164.456 304.297 164.734 304.297 165.024C304.297 165.313 304.182 165.591 303.977 165.796C303.772 166 303.494 166.115 303.203 166.115C302.913 166.115 302.635 166 302.43 165.796C302.225 165.591 302.109 165.313 302.109 165.024C302.109 164.734 302.225 164.456 302.43 164.251C302.635 164.047 302.913 163.932 303.203 163.932Z" fill="#455A64"/>
<path d="M56.4104 165.024C56.7006 165.024 56.9788 165.139 57.184 165.344C57.3892 165.549 57.5044 165.827 57.5044 166.116C57.5044 166.406 57.3892 166.684 57.184 166.888C56.9788 167.093 56.7006 167.208 56.4104 167.208C56.1203 167.208 55.842 167.093 55.6368 166.888C55.4317 166.684 55.3164 166.406 55.3164 166.116C55.3164 165.827 55.4317 165.549 55.6368 165.344C55.842 165.139 56.1203 165.024 56.4104 165.024Z" fill="#455A64"/>
<path d="M356.917 171.601C357.19 171.624 357.443 171.749 357.628 171.951C357.813 172.152 357.916 172.415 357.916 172.688C357.916 172.961 357.813 173.225 357.628 173.426C357.443 173.627 357.19 173.752 356.917 173.776C356.644 173.752 356.39 173.627 356.205 173.426C356.021 173.225 355.918 172.961 355.918 172.688C355.918 172.415 356.021 172.152 356.205 171.951C356.39 171.749 356.644 171.624 356.917 171.601Z" fill="#455A64"/>
<path d="M41.1917 271.376C41.4818 271.376 41.7601 271.491 41.9653 271.696C42.1704 271.901 42.2857 272.178 42.2857 272.468C42.2857 272.757 42.1704 273.035 41.9653 273.24C41.7601 273.445 41.4818 273.56 41.1917 273.56C40.9015 273.56 40.6233 273.445 40.4181 273.24C40.2129 273.035 40.0977 272.757 40.0977 272.468C40.0977 272.178 40.2129 271.901 40.4181 271.696C40.6233 271.491 40.9015 271.376 41.1917 271.376Z" fill="#455A64"/>
<path d="M96.2812 58.5647L98.2455 58.9287L98.6848 60.9966L99.124 58.9287L101.088 58.5647L99.1323 58.085L98.6848 56.1328L98.2372 58.085L96.2812 58.5647Z" fill="#455A64"/>
<path d="M203.418 264.121L205.382 264.477L205.822 266.545L206.261 264.477L208.225 264.113L206.269 263.642L205.822 261.689L205.374 263.642L203.418 264.121Z" fill="#455A64"/>
<path d="M266.869 358.618C267.02 358.618 267.166 358.678 267.273 358.785C267.38 358.892 267.441 359.038 267.441 359.189C267.441 359.34 267.38 359.485 267.273 359.593C267.166 359.7 267.02 359.76 266.869 359.76C266.717 359.76 266.572 359.7 266.464 359.593C266.357 359.485 266.297 359.34 266.297 359.189C266.297 359.038 266.357 358.892 266.464 358.785C266.572 358.678 266.717 358.618 266.869 358.618Z" fill="#455A64"/>
<path d="M229.103 353.258C229.255 353.258 229.4 353.318 229.507 353.425C229.615 353.532 229.675 353.677 229.675 353.829C229.675 353.98 229.615 354.125 229.507 354.232C229.4 354.339 229.255 354.399 229.103 354.399C228.951 354.399 228.806 354.339 228.699 354.232C228.591 354.125 228.531 353.98 228.531 353.829C228.531 353.677 228.591 353.532 228.699 353.425C228.806 353.318 228.951 353.258 229.103 353.258Z" fill="#455A64"/>
<path d="M241.254 201.331L243.218 201.695L243.657 203.763L244.097 201.695L246.061 201.331L244.105 200.852L243.657 198.899L243.21 200.852L241.254 201.331Z" fill="#455A64"/>
<path d="M308.613 319.196L310.578 319.56L311.017 321.619L311.456 319.56L313.42 319.196L311.464 318.716L311.017 316.764L310.569 318.716L308.613 319.196Z" fill="#455A64"/>
<path d="M313.238 368.741L315.203 369.105L315.642 371.173L316.081 369.105L318.045 368.741L316.089 368.262L315.642 366.31L315.194 368.262L313.238 368.741Z" fill="#455A64"/>
<path d="M249.552 92.29C249.704 92.29 249.849 92.3502 249.957 92.4572C250.064 92.5642 250.124 92.7094 250.124 92.8608C250.124 93.0122 250.064 93.1573 249.957 93.2644C249.849 93.3714 249.704 93.4315 249.552 93.4315C249.401 93.4315 249.255 93.3714 249.148 93.2644C249.041 93.1573 248.98 93.0122 248.98 92.8608C248.98 92.7094 249.041 92.5642 249.148 92.4572C249.255 92.3502 249.401 92.29 249.552 92.29Z" fill="#455A64"/>
<path d="M313.418 345.26C313.528 345.26 313.634 345.303 313.711 345.381C313.789 345.458 313.833 345.564 313.833 345.673C313.833 345.783 313.789 345.888 313.711 345.966C313.634 346.043 313.528 346.087 313.418 346.087C313.308 346.087 313.203 346.043 313.125 345.966C313.048 345.888 313.004 345.783 313.004 345.673C313.004 345.564 313.048 345.458 313.125 345.381C313.203 345.303 313.308 345.26 313.418 345.26Z" fill="#455A64"/>
<path d="M29.6289 219.717L31.5932 220.081L32.0324 222.149L32.4717 220.081L34.436 219.717L32.48 219.237L32.0324 217.285L31.5849 219.237L29.6289 219.717Z" fill="#455A64"/>
<path d="M6.91331 261.805C7.05207 261.821 7.17987 261.888 7.27257 261.993C7.36528 262.097 7.41646 262.232 7.41646 262.371C7.41646 262.511 7.36528 262.645 7.27257 262.75C7.17987 262.854 7.05207 262.921 6.91331 262.938C6.77455 262.921 6.64675 262.854 6.55405 262.75C6.46134 262.645 6.41016 262.511 6.41016 262.371C6.41016 262.232 6.46134 262.097 6.55405 261.993C6.64675 261.888 6.77455 261.821 6.91331 261.805Z" fill="#455A64"/>
<path d="M147.652 172.121C147.79 172.138 147.918 172.205 148.011 172.309C148.104 172.414 148.155 172.548 148.155 172.688C148.155 172.827 148.104 172.962 148.011 173.066C147.918 173.171 147.79 173.238 147.652 173.254C147.513 173.238 147.385 173.171 147.292 173.066C147.2 172.962 147.148 172.827 147.148 172.688C147.148 172.548 147.2 172.414 147.292 172.309C147.385 172.205 147.513 172.138 147.652 172.121Z" fill="#455A64"/>
<path d="M105.875 109.189C105.985 109.189 106.091 109.233 106.168 109.311C106.246 109.388 106.29 109.493 106.29 109.603C106.29 109.713 106.246 109.818 106.168 109.895C106.091 109.973 105.985 110.017 105.875 110.017C105.765 110.017 105.66 109.973 105.582 109.895C105.505 109.818 105.461 109.713 105.461 109.603C105.461 109.493 105.505 109.388 105.582 109.311C105.66 109.233 105.765 109.189 105.875 109.189Z" fill="#455A64"/>
<path d="M40.1395 38.5312C40.4122 38.555 40.666 38.6799 40.8509 38.8813C41.0358 39.0826 41.1384 39.3458 41.1384 39.619C41.1384 39.8921 41.0358 40.1554 40.8509 40.3567C40.666 40.5581 40.4122 40.683 40.1395 40.7067C39.8669 40.683 39.613 40.5581 39.4281 40.3567C39.2432 40.1554 39.1406 39.8921 39.1406 39.619C39.1406 39.3458 39.2432 39.0826 39.4281 38.8813C39.613 38.6799 39.8669 38.555 40.1395 38.5312Z" fill="#455A64"/>
<path d="M299.042 62.8672C299.315 62.8909 299.568 63.0158 299.753 63.2172C299.938 63.4186 300.041 63.6818 300.041 63.9549C300.041 64.2281 299.938 64.4913 299.753 64.6927C299.568 64.894 299.315 65.0189 299.042 65.0427C298.769 65.0189 298.515 64.894 298.33 64.6927C298.146 64.4913 298.043 64.2281 298.043 63.9549C298.043 63.6818 298.146 63.4186 298.33 63.2172C298.515 63.0158 298.769 62.8909 299.042 62.8672Z" fill="#455A64"/>
<path d="M326.997 339.06V370.815C326.997 391.255 235.63 404.887 187.004 404.887C138.378 404.887 47.0273 391.255 47.0273 370.815V339.06C47.0273 331.309 56.8818 312.127 187.004 312.127C317.126 312.127 326.997 331.309 326.997 339.06Z" fill="#FFC727"/>
<path opacity="0.2" d="M325.712 338.935C324.634 355.123 274.052 363.75 260.303 366.273C236.082 370.358 211.582 372.571 187.02 372.891C162.458 372.571 137.958 370.359 113.737 366.273C95.6859 362.965 77.2699 359.548 60.6275 351.591C55.5553 348.878 48.8005 345.313 48.3281 338.927C49.2564 348.985 69.819 354.577 78.165 357.025C101.753 363.403 126.144 366.447 150.437 368.697C186.978 372.155 223.769 369.863 259.996 364.387C273.746 362.113 324.211 354.527 325.712 338.927V338.935Z" fill="black"/>
<path opacity="0.2" d="M301.391 372.412C301.391 375.646 299.17 378.26 296.418 378.26C293.667 378.26 291.445 375.646 291.445 372.412C291.445 369.178 293.675 366.556 296.418 366.556C299.161 366.556 301.391 369.103 301.391 372.412Z" fill="black"/>
<path d="M299.327 372.411C299.327 375.364 297.562 377.763 295.382 377.763C293.202 377.763 291.445 375.323 291.445 372.411C291.445 369.5 293.219 367.06 295.399 367.06C297.578 367.06 299.327 369.417 299.327 372.411Z" fill="#263238"/>
<path opacity="0.2" d="M89.5587 383.569C92.8316 383.569 95.4847 380.951 95.4847 377.721C95.4847 374.491 92.8316 371.873 89.5587 371.873C86.2859 371.873 83.6328 374.491 83.6328 377.721C83.6328 380.951 86.2859 383.569 89.5587 383.569Z" fill="black"/>
<path d="M90.7696 383.074C93.365 383.074 95.4689 380.678 95.4689 377.722C95.4689 374.766 93.365 372.37 90.7696 372.37C88.1743 372.37 86.0703 374.766 86.0703 377.722C86.0703 380.678 88.1743 383.074 90.7696 383.074Z" fill="#263238"/>
<path opacity="0.2" d="M318.524 366.513C318.524 369.747 316.303 372.37 313.551 372.37C310.799 372.37 308.578 369.747 308.578 366.513C308.578 363.279 310.808 360.665 313.551 360.665C316.294 360.665 318.524 363.312 318.524 366.513Z" fill="black"/>
<path d="M316.468 366.514C316.468 369.475 314.703 371.865 312.523 371.865C310.343 371.865 308.578 369.475 308.578 366.514C308.578 363.552 310.343 361.17 312.523 361.17C314.703 361.17 316.468 363.56 316.468 366.514Z" fill="#263238"/>
<path opacity="0.2" d="M77.9085 369.384V379.658C77.9085 379.658 57.1885 374.546 47.0273 366.224V355.256C53.0362 360.302 65.4682 366.944 77.9085 369.384Z" fill="black"/>
<path d="M77.9164 369.384V377.532C71.7998 376.084 55.978 371.8 48.3281 364.678V356.29C54.7099 361.162 66.3131 367.101 77.9164 369.384Z" fill="#263238"/>
<path opacity="0.2" d="M87.5097 386.028C96.4193 387.129 99.9915 379.998 96.6763 372.413C97.9787 373.851 98.8415 375.63 99.1627 377.542C99.2855 378.285 99.3216 379.04 99.2704 379.792C99.1554 381.112 98.7118 382.382 97.9799 383.488C97.2481 384.594 96.2512 385.5 95.0796 386.123C93.9081 386.747 92.5991 387.069 91.2713 387.059C89.9436 387.05 88.6392 386.71 87.4766 386.07L87.5097 386.028Z" fill="black"/>
<path d="M59.7789 328.373C57.2925 330.565 54.2259 333.162 53.9773 336.645C53.8281 344.71 73.1806 349.574 79.6701 351.534C93.4282 355.347 107.617 357.945 121.549 361.105C104.717 359.723 67.6774 354.578 55.552 343.113C49.6675 337.232 53.9524 331.872 59.8037 328.398L59.7789 328.373Z" fill="white"/>
<path d="M322.406 214.61H51.6445C51.6445 142.455 124.579 91.7822 187.021 91.7822C249.463 91.7822 322.406 142.455 322.406 214.61Z" fill="#FFC727"/>
<g opacity="0.5">
<path d="M95.2852 146.929C118.11 132.586 145.908 127.184 172.629 128.227C146.058 130.659 119.635 135.671 95.2852 146.929Z" fill="white"/>
<path d="M62.9653 173.888C68.1868 163.473 78.8949 154.862 89.487 150.305C88.3764 151.347 87.2078 152.265 86.0723 153.233C78.0661 159.85 70.1925 166.468 62.957 173.912L62.9653 173.888Z" fill="white"/>
</g>
<g opacity="0.5">
<path d="M138.011 118.186C138.011 119.55 136.154 120.667 133.867 120.667C131.579 120.667 129.723 119.567 129.723 118.186C129.723 116.804 131.587 115.704 133.867 115.704C136.146 115.704 138.011 116.813 138.011 118.186Z" fill="white"/>
<path d="M162.634 110.294C162.891 113.76 158.358 116.912 152.506 117.35C146.655 117.789 141.707 115.324 141.434 111.849C141.16 108.375 145.71 105.232 151.562 104.794C157.413 104.355 162.377 106.828 162.634 110.294Z" fill="white"/>
</g>
<path opacity="0.1" d="M322.406 214.611H51.6445C58.2749 148.097 146.501 131.189 187.021 131.189C227.541 131.189 315.726 148.097 322.406 214.611Z" fill="black"/>
<path d="M308.684 214.61V333.774C276.229 354.321 241.386 364.595 187.016 364.595C132.647 364.595 97.804 354.321 65.3398 333.774V214.61H308.684Z" fill="#FFC727"/>
<path opacity="0.1" d="M308.684 259.088V333.791C276.22 354.338 241.386 364.611 187.008 364.611C132.63 364.611 97.804 354.338 65.3398 333.791V284.582C65.5056 284.391 65.6051 284.292 65.6051 284.292C65.6051 284.292 73.0643 323.906 77.9128 328.96C87.5103 338.936 133.973 360.666 182.789 360.666C251.663 360.666 282.95 340.392 296.41 329.729C306.786 321.499 308.461 278.328 308.684 259.088Z" fill="black"/>
<path d="M293.232 181.771C273.341 145.317 213.369 138.203 187.005 138.203C160.641 138.203 100.677 145.317 80.7772 181.771C60.8776 218.225 65.9333 301.472 88.2364 320.142C110.539 338.811 163.193 343.849 187.013 343.849C210.833 343.849 263.553 338.811 285.823 320.142C308.093 301.472 313.124 218.208 293.232 181.771ZM187.013 334.468C88.7171 334.468 71.9421 289.354 71.9421 253.86C71.9421 218.365 83.6282 193.426 101.63 180.877C122.855 166.087 157.16 178.396 186.996 178.396C216.833 178.396 251.154 166.079 272.363 180.877C290.365 193.426 302.051 218.382 302.051 253.86C302.051 289.337 285.309 334.468 187.013 334.468Z" fill="#FFC727"/>
<path opacity="0.3" d="M293.235 181.771C273.344 145.317 213.372 138.203 187.008 138.203C160.643 138.203 100.671 145.317 80.7884 181.771C60.9054 218.225 65.9363 301.472 88.2476 320.142C110.559 338.811 163.196 343.857 187.016 343.857C210.836 343.857 263.556 338.811 285.826 320.142C308.096 301.472 313.135 218.216 293.235 181.771ZM187.016 334.468C88.72 334.468 71.9451 289.354 71.9451 253.868C71.9451 218.382 83.6312 193.426 101.633 180.877C122.867 166.087 157.163 178.396 186.999 178.396C216.836 178.396 251.157 166.079 272.366 180.877C290.368 193.426 302.054 218.382 302.054 253.868C302.054 289.354 285.312 334.468 187.016 334.468Z" fill="black"/>
<path opacity="0.1" d="M285.815 320.141C270.59 332.896 241.151 339.299 216.428 342.062C275.762 330.125 256.492 323.764 255.788 323.533C293.913 307.973 302.093 278.584 302.093 253.859C302.093 218.381 290.407 193.425 272.405 180.877C251.171 166.087 216.876 178.395 187.039 178.395C183.334 178.395 179.58 178.213 175.742 177.899C198.99 178.47 242.088 170.777 242.088 162.067C242.088 153.357 219.528 142.636 197.283 138.509C226.581 140.163 275.646 149.477 293.258 181.762C313.124 218.208 308.085 301.472 285.815 320.141Z" fill="black"/>
<g opacity="0.5">
<path d="M100.491 173.01C100.665 174.044 99.3887 175.128 97.6399 175.434C95.8911 175.74 94.3247 175.128 94.1423 174.094C93.96 173.06 95.2364 171.968 96.9934 171.67C98.7505 171.373 100.309 171.968 100.491 173.01Z" fill="white"/>
<path d="M118.227 163.771C118.874 166.384 115.832 169.387 111.423 170.479C107.014 171.571 102.911 170.338 102.256 167.724C101.602 165.111 104.66 162.108 109.069 161.016C113.478 159.924 117.606 161.157 118.227 163.771Z" fill="white"/>
</g>
<path d="M302.095 253.868C302.095 289.354 285.312 334.468 187.016 334.468C88.7203 334.468 71.9453 289.354 71.9453 253.868C71.9453 218.382 83.6314 193.426 101.633 180.877C122.867 166.087 157.163 178.396 187 178.396C216.836 178.396 251.157 166.079 272.366 180.877C290.409 193.426 302.095 218.382 302.095 253.868Z" fill="#263238"/>
<path d="M301.551 264.546C301.493 265.117 301.427 265.696 301.353 266.267C299.372 282.091 292.949 298.527 277.052 311.29C267.388 319.058 254.227 325.468 236.441 329.563C224.119 332.27 211.573 333.832 198.962 334.228C195.128 334.388 191.152 334.468 187.036 334.468C182.29 334.468 177.731 334.363 173.361 334.154H172.78H172.689C172.258 333.426 171.86 332.698 171.421 331.953C169.932 329.242 168.615 326.441 167.476 323.566C167.029 322.433 166.647 321.291 166.216 320.15C166.084 319.786 165.968 319.422 165.852 319.058C165.736 318.694 165.62 318.33 165.512 317.958C165.288 317.221 165.073 316.485 164.882 315.757C164.799 315.484 164.733 315.22 164.666 314.93C164.443 314.103 164.244 313.276 164.061 312.399L163.838 311.348C163.829 311.31 163.829 311.271 163.838 311.233C163.713 310.62 163.597 310.008 163.49 309.388C163.382 308.768 163.274 308.155 163.191 307.527C163.183 307.483 163.183 307.438 163.191 307.394C163.117 306.964 163.067 306.567 163.017 306.121C162.967 305.674 162.909 305.227 162.851 304.781C162.702 303.391 162.578 301.985 162.512 300.595C162.512 300.041 162.462 299.478 162.445 298.941V298.006C162.445 297.609 162.445 297.179 162.445 296.79C162.445 296.203 162.445 295.615 162.445 295.036C162.445 294.614 162.445 294.209 162.487 293.779C162.487 293.564 162.487 293.357 162.487 293.15C162.536 292.149 162.603 291.157 162.702 290.164L162.777 289.337C162.827 288.841 162.893 288.353 162.951 287.865C163.009 287.377 163.1 286.69 163.191 286.094C163.357 284.92 163.564 283.745 163.796 282.571C165.852 272.141 170.16 262.284 176.42 253.685C182.68 245.086 190.742 237.951 200.046 232.777C209.349 227.603 219.67 224.514 230.291 223.725C240.911 222.936 251.577 224.466 261.545 228.208L263.203 228.845C263.534 228.969 263.849 229.11 264.164 229.251C264.479 229.391 264.902 229.548 265.267 229.706L265.739 229.921C266.286 230.16 266.816 230.409 267.347 230.665C267.397 230.68 267.444 230.702 267.488 230.731C267.91 230.93 268.316 231.128 268.739 231.343L269.568 231.757C270.123 232.046 270.67 232.344 271.226 232.642C271.781 232.94 272.419 233.304 272.999 233.651C273.074 233.651 273.148 233.734 273.223 233.775L274.881 234.801L276.671 235.967L277.5 236.513C279.24 237.704 280.923 238.995 282.564 240.335C282.879 240.591 283.185 240.856 283.492 241.121C283.799 241.385 284.122 241.658 284.42 241.948C284.718 242.237 285.042 242.485 285.34 242.775L285.464 242.891C291.307 248.266 296.234 254.555 300.051 261.511C300.515 262.503 301.046 263.521 301.551 264.546Z" fill="#DBDBDB"/>
<path d="M167.438 323.541C170.753 320.1 177.557 313.73 189.103 307.51C203.076 299.974 241.922 289.841 259.41 279.179C284.017 264.199 286.089 250.029 285.368 242.857C278.424 236.486 270.314 231.512 261.482 228.208C260.255 235.735 255.241 259.293 213.851 277.723C192.484 287.211 171.018 283.745 163.733 282.57C160.993 296.298 162.279 310.524 167.438 323.541Z" fill="#C7C7C7"/>
<path d="M173.139 334.08L173.338 334.155H172.758C172.874 334.155 173.006 334.155 173.131 334.105L173.139 334.08Z" fill="#C7C7C7"/>
<path d="M301.391 266.268C299.41 282.092 292.987 298.528 277.091 311.291C270.831 312.601 264.733 314.59 258.907 317.222C251.121 320.758 243.617 324.884 236.463 329.564C224.141 332.271 211.595 333.833 198.984 334.229C205.615 332.359 213.455 328.984 222.456 323.318C231.457 317.652 241.577 309.711 252.939 298.701C280.953 271.495 295.772 266.888 301.391 266.268Z" fill="#C7C7C7"/>
<path d="M239.156 254.398C240.722 257.252 245.355 257.707 249.508 255.44C253.66 253.174 255.757 249.013 254.19 246.159C252.624 243.306 247.983 242.851 243.83 245.125C239.678 247.4 237.573 251.553 239.156 254.398Z" fill="#A6A6A6"/>
<path d="M260.297 257.707C261.176 259.312 263.911 259.51 266.405 258.146C268.9 256.781 270.201 254.365 269.314 252.761C268.428 251.156 265.693 250.966 263.206 252.331C260.72 253.695 259.41 256.103 260.297 257.707Z" fill="#A6A6A6"/>
<path d="M146.68 312.193L150.161 312.838L150.94 316.494L151.719 312.838L155.191 312.193L151.727 311.349L150.94 307.892L150.144 311.349L146.68 312.193Z" fill="white"/>
<path d="M116.766 299.471L118.713 299.835L119.144 301.878L119.584 299.835L121.523 299.471L119.592 299L119.144 297.072L118.705 299L116.766 299.471Z" fill="white"/>
<path d="M201.715 200.036L203.654 200.4L204.094 202.443L204.524 200.4L206.472 200.036L204.533 199.564L204.094 197.637L203.646 199.564L201.715 200.036Z" fill="white"/>
<path d="M290.219 243.595L292.166 243.95L292.597 246.002L293.028 243.95L294.976 243.595L293.037 243.123L292.597 241.188L292.158 243.123L290.219 243.595Z" fill="white"/>
<path d="M238.634 208.581C238.783 208.581 238.927 208.64 239.032 208.746C239.138 208.851 239.197 208.994 239.197 209.144C239.197 209.293 239.138 209.436 239.032 209.541C238.927 209.647 238.783 209.706 238.634 209.706C238.484 209.706 238.341 209.647 238.235 209.541C238.13 209.436 238.07 209.293 238.07 209.144C238.07 208.994 238.13 208.851 238.235 208.746C238.341 208.64 238.484 208.581 238.634 208.581Z" fill="white"/>
<path d="M143.375 201.574C143.485 201.574 143.591 201.618 143.668 201.695C143.746 201.773 143.79 201.878 143.79 201.988C143.79 202.098 143.746 202.203 143.668 202.28C143.591 202.358 143.485 202.401 143.375 202.401C143.265 202.401 143.16 202.358 143.082 202.28C143.005 202.203 142.961 202.098 142.961 201.988C142.961 201.878 143.005 201.773 143.082 201.695C143.16 201.618 143.265 201.574 143.375 201.574Z" fill="white"/>
<path d="M181.105 213.123L184.578 213.76L185.357 217.424L186.136 213.76L189.609 213.123L186.153 212.271L185.357 208.821L184.562 212.271L181.105 213.123Z" fill="white"/>
<path d="M268.238 229.425L271.719 230.062L272.49 233.727L273.269 230.062L276.75 229.417L273.286 228.573L272.49 225.124L271.703 228.573L268.238 229.425Z" fill="white"/>
<path d="M90.2773 248.724L92.225 249.079L92.656 251.122L93.087 249.079L95.0347 248.715L93.0953 248.244L92.656 246.316L92.2167 248.244L90.2773 248.724Z" fill="white"/>
<path d="M113.939 229.119C114.088 229.119 114.231 229.178 114.337 229.284C114.443 229.389 114.502 229.532 114.502 229.682C114.502 229.831 114.443 229.974 114.337 230.079C114.231 230.185 114.088 230.244 113.939 230.244C113.789 230.244 113.646 230.185 113.54 230.079C113.434 229.974 113.375 229.831 113.375 229.682C113.375 229.532 113.434 229.389 113.54 229.284C113.646 229.178 113.789 229.119 113.939 229.119Z" fill="white"/>
<path d="M78.2394 228.556C78.3888 228.556 78.5322 228.615 78.6379 228.72C78.7436 228.826 78.803 228.969 78.803 229.118C78.803 229.267 78.7436 229.41 78.6379 229.516C78.5322 229.621 78.3888 229.681 78.2394 229.681C78.0899 229.681 77.9465 229.621 77.8408 229.516C77.7352 229.41 77.6758 229.267 77.6758 229.118C77.6758 228.969 77.7352 228.826 77.8408 228.72C77.9465 228.615 78.0899 228.556 78.2394 228.556Z" fill="white"/>
<path d="M117.314 184.211C117.463 184.211 117.606 184.27 117.712 184.376C117.818 184.481 117.877 184.624 117.877 184.773C117.877 184.923 117.818 185.066 117.712 185.171C117.606 185.277 117.463 185.336 117.314 185.336C117.164 185.336 117.021 185.277 116.915 185.171C116.809 185.066 116.75 184.923 116.75 184.773C116.75 184.624 116.809 184.481 116.915 184.376C117.021 184.27 117.164 184.211 117.314 184.211Z" fill="white"/>
<path d="M269.319 196.553C269.59 196.576 269.841 196.7 270.025 196.9C270.208 197.1 270.31 197.361 270.31 197.632C270.31 197.903 270.208 198.164 270.025 198.364C269.841 198.564 269.59 198.688 269.319 198.712C269.049 198.688 268.797 198.564 268.613 198.364C268.43 198.164 268.328 197.903 268.328 197.632C268.328 197.361 268.43 197.1 268.613 196.9C268.797 196.7 269.049 196.576 269.319 196.553Z" fill="white"/>
<path d="M119.143 288.238C119.414 288.262 119.666 288.386 119.849 288.586C120.033 288.786 120.134 289.047 120.134 289.318C120.134 289.589 120.033 289.85 119.849 290.05C119.666 290.25 119.414 290.374 119.143 290.397C118.873 290.374 118.621 290.25 118.438 290.05C118.254 289.85 118.152 289.589 118.152 289.318C118.152 289.047 118.254 288.786 118.438 288.586C118.621 288.386 118.873 288.262 119.143 288.238Z" fill="white"/>
<path d="M158.578 182.937L160.518 183.293L160.957 185.336L161.388 183.293L163.335 182.937L161.396 182.466L160.957 180.53L160.509 182.466L158.578 182.937Z" fill="white"/>
<path d="M158.578 266.681L160.518 267.045L160.957 269.088L161.388 267.045L163.335 266.681L161.396 266.21L160.957 264.282L160.509 266.21L158.578 266.681Z" fill="white"/>
<path d="M102.017 277.881C102.166 277.881 102.31 277.94 102.415 278.046C102.521 278.151 102.58 278.294 102.58 278.443C102.58 278.593 102.521 278.736 102.415 278.841C102.31 278.947 102.166 279.006 102.017 279.006C101.867 279.006 101.724 278.947 101.618 278.841C101.513 278.736 101.453 278.593 101.453 278.443C101.453 278.294 101.513 278.151 101.618 278.046C101.724 277.94 101.867 277.881 102.017 277.881Z" fill="white"/>
<path d="M168.075 233.006C168.184 233.006 168.29 233.049 168.368 233.127C168.445 233.205 168.489 233.31 168.489 233.419C168.489 233.529 168.445 233.634 168.368 233.712C168.29 233.789 168.184 233.833 168.075 233.833C167.965 233.833 167.859 233.789 167.782 233.712C167.704 233.634 167.66 233.529 167.66 233.419C167.66 233.31 167.704 233.205 167.782 233.127C167.859 233.049 167.965 233.006 168.075 233.006Z" fill="white"/>
<path d="M65.3418 214.61H54.2109V269.626H65.3418V214.61Z" fill="#FFC727"/>
<path opacity="0.1" d="M57.1875 214.61H65.3512V269.626H62.2349L57.1875 214.61Z" fill="black"/>
<path d="M54.2067 281.008H46.043V312.796H54.2067V281.008Z" fill="#FFC727"/>
<path opacity="0.1" d="M48.2266 281.008H54.2105V312.805H51.923L48.2266 281.008Z" fill="black"/>
<path d="M54.2083 214.61H44.8594V269.626H54.2083V214.61Z" fill="#FFC727"/>
<path opacity="0.1" d="M54.2108 269.626H51.6332L48.4258 214.61H54.2108V269.626Z" fill="black"/>
<path d="M65.3418 269.618H54.2109V324.187H65.3418V269.618Z" fill="#37474F"/>
<path opacity="0.1" d="M65.3449 324.196H62.27L58.4492 269.627H65.3449V324.196Z" fill="black"/>
<path d="M44.5843 235.927H44.8578V263.629H44.5843C43.6347 263.629 42.724 263.253 42.0526 262.582C41.3811 261.912 41.0039 261.003 41.0039 260.056V239.492C41.0061 238.546 41.3843 237.639 42.0555 236.97C42.7267 236.302 43.6362 235.927 44.5843 235.927Z" fill="#FFC727"/>
<path opacity="0.1" d="M44.8623 235.926V263.628C44.5833 263.634 44.3047 263.603 44.0335 263.537L42.9727 236.414C43.5486 236.088 44.2004 235.92 44.8623 235.926Z" fill="black"/>
<path d="M44.1865 290.396H46.043V303.415H44.1865C43.7686 303.415 43.3547 303.333 42.9686 303.174C42.5825 303.014 42.2316 302.78 41.9361 302.485C41.6405 302.19 41.4061 301.84 41.2462 301.455C41.0862 301.069 41.0039 300.656 41.0039 300.239V293.58C41.0028 293.162 41.0843 292.748 41.2438 292.362C41.4032 291.976 41.6375 291.625 41.9331 291.329C42.2288 291.033 42.58 290.798 42.9667 290.638C43.3533 290.478 43.7679 290.396 44.1865 290.396Z" fill="#455A64"/>
<path d="M308.689 269.618H319.82V214.602H308.689V269.618Z" fill="#FFC727"/>
<path opacity="0.1" d="M316.851 214.61H308.688V269.626H311.804L316.851 214.61Z" fill="black"/>
<path d="M319.817 312.806H327.98V281.017H319.817V312.806Z" fill="#FFC727"/>
<path opacity="0.1" d="M325.804 281.008H319.82V312.805H322.108L325.804 281.008Z" fill="black"/>
<path d="M319.827 269.618H329.176V214.602H319.827V269.618Z" fill="#FFC727"/>
<path opacity="0.1" d="M319.82 269.626H322.398L325.605 214.61H319.82V269.626Z" fill="black"/>
<path d="M308.689 324.194H319.82V269.625H308.689V324.194Z" fill="#37474F"/>
<path opacity="0.1" d="M308.688 324.196H311.762L315.583 269.627H308.688V324.196Z" fill="black"/>
<path d="M329.451 263.613H329.177V235.911H329.451C330.4 235.911 331.311 236.287 331.983 236.957C332.654 237.627 333.031 238.536 333.031 239.484V260.048C333.031 260.995 332.654 261.904 331.983 262.574C331.311 263.245 330.4 263.621 329.451 263.621V263.613Z" fill="#FFC727"/>
<path opacity="0.1" d="M329.176 235.926V263.628C329.455 263.634 329.733 263.603 330.005 263.537L331.09 236.422C330.508 236.089 329.847 235.918 329.176 235.926Z" fill="black"/>
<path d="M329.837 303.416H327.98V290.396H329.837C330.681 290.396 331.49 290.731 332.087 291.327C332.684 291.922 333.02 292.73 333.02 293.573V300.231C333.021 300.649 332.939 301.063 332.78 301.449C332.62 301.836 332.386 302.187 332.09 302.483C331.795 302.779 331.443 303.013 331.057 303.173C330.67 303.334 330.256 303.416 329.837 303.416Z" fill="#455A64"/>
<path opacity="0.1" d="M285.815 320.141C270.59 332.896 241.151 339.299 216.428 342.062C275.762 330.125 256.492 323.764 255.788 323.533C293.913 307.973 302.093 278.584 302.093 253.859C302.093 218.381 290.407 193.425 272.405 180.877C251.171 166.087 216.876 178.395 187.039 178.395C183.334 178.395 179.58 178.213 175.742 177.899C198.99 178.47 242.088 170.777 242.088 162.067C242.088 153.357 219.528 142.636 197.283 138.509C226.581 140.163 275.646 149.477 293.258 181.762C313.124 218.208 308.085 301.472 285.815 320.141Z" fill="black"/>
<path d="M167.598 305.327C172.393 304.115 177.329 303.552 182.274 303.653C186.675 303.876 196.595 305.794 199.614 306.341C202.632 306.889 206.647 306.26 206.413 307.548C206.18 308.837 191.95 313.158 185.781 312.265C179.611 311.373 167.598 305.327 167.598 305.327Z" fill="#37474F"/>
<path d="M187.997 277.33C187.997 275.301 187.926 273.212 187.896 271.142C187.896 264.295 187.774 257.448 187.611 250.591C187.476 245.181 187.31 239.743 187.113 234.279C187.113 234.279 187.113 234.228 187.052 234.208V229.755C187.052 229.755 186.991 229.694 186.93 229.704C186.869 229.714 186.818 229.704 186.818 229.755C186.818 231.246 186.818 232.737 186.818 234.218C186.818 234.218 186.818 234.218 186.818 234.289C186.452 243.967 186.137 253.644 186.056 263.321C186.056 265.289 186.056 267.257 186.056 269.225C185.961 275.548 185.927 281.861 185.954 288.164C185.954 289.178 185.954 290.193 185.954 291.207C185.954 296.989 186.025 325.879 186.036 331.651C186.036 331.966 186.483 332.118 186.961 332.138C187.438 332.158 188.099 331.986 188.099 331.631C188.099 325.26 188.16 295.772 188.16 289.402C188.018 285.364 188.079 281.347 187.997 277.33Z" fill="#263238"/>
<path d="M177.771 240.083C177.771 240.083 166.001 231.349 154.831 237.253C143.661 243.157 141.902 265.838 141.902 265.838C141.902 265.838 158.307 268.182 168.643 258.362C178.604 248.878 177.771 240.083 177.771 240.083Z" fill="#2A9D8F"/>
<path d="M180.965 240.619C178.8 239.765 176.457 239.458 174.145 239.726C173.667 239.648 173.185 239.6 172.702 239.584L171.065 239.462L167.63 239.219C165.313 239.046 162.975 238.904 160.658 238.671C160.576 238.671 160.566 238.813 160.658 238.823C162.944 239.107 165.231 239.442 167.538 239.665C168.717 239.787 169.897 239.908 171.086 239.99L171.95 240.081L170.933 240.334C169.07 240.868 167.267 241.595 165.557 242.505C164.632 242.668 163.707 242.921 162.802 243.144C161.339 243.479 159.895 243.854 158.442 244.24C155.586 244.98 152.76 245.822 149.914 246.644C149.895 246.644 149.877 246.652 149.864 246.665C149.851 246.678 149.843 246.696 149.843 246.715C149.843 246.734 149.851 246.752 149.864 246.765C149.877 246.779 149.895 246.786 149.914 246.786C152.75 246.096 155.596 245.457 158.442 244.757C159.814 244.433 161.196 244.108 162.579 243.743L163.686 243.52C160.523 245.473 157.698 247.926 155.322 250.783C153.025 253.583 151.074 256.648 149.508 259.912C149.508 259.994 149.579 260.075 149.63 259.994C151.564 256.626 153.932 253.526 156.673 250.773C156.673 250.925 156.562 251.087 156.521 251.239C156.297 251.929 156.084 252.629 155.86 253.268C155.423 254.648 154.986 256.037 154.569 257.427C154.569 257.518 154.681 257.549 154.712 257.427C155.21 256.088 155.728 254.739 156.155 253.37L156.856 251.341C156.978 251.006 157.09 250.661 157.212 250.326C157.243 250.219 157.28 250.114 157.324 250.012C158.635 248.736 160.03 247.55 161.501 246.461C163.448 245.095 165.545 243.955 167.752 243.063L167.63 243.662C167.508 244.199 167.396 244.737 167.284 245.275C167.051 246.38 166.837 247.496 166.614 248.612C166.177 250.884 165.902 253.187 165.475 255.469C165.475 255.488 165.483 255.506 165.496 255.52C165.509 255.533 165.528 255.54 165.546 255.54C165.565 255.54 165.583 255.533 165.597 255.52C165.61 255.506 165.618 255.488 165.618 255.469C166.146 253.187 166.827 250.935 167.335 248.642C167.589 247.496 167.854 246.35 168.087 245.204C168.199 244.666 168.311 244.128 168.413 243.591C168.474 243.286 168.545 242.992 168.585 242.688C168.799 242.607 169.002 242.505 169.226 242.424C172.275 241.288 175.72 240.456 179.013 241.085C180.575 241.374 182.041 242.043 183.282 243.032C184.523 244.021 185.5 245.3 186.128 246.756C186.23 247.009 186.636 246.847 186.575 246.593C186.176 245.228 185.46 243.975 184.485 242.937C183.51 241.899 182.305 241.105 180.965 240.619Z" fill="#263238"/>
<path d="M162.969 250.297C162.633 251.788 162.298 253.28 161.952 254.771C161.582 256.198 161.307 257.649 161.129 259.112C161.129 259.173 161.21 259.173 161.231 259.112C161.666 257.676 162.006 256.212 162.247 254.73C162.532 253.269 162.826 251.799 163.111 250.328C163.131 250.246 162.989 250.206 162.969 250.297Z" fill="#263238"/>
<path d="M151.571 254.082C150.077 254.843 148.623 255.705 147.058 256.324C147.045 256.325 147.033 256.33 147.022 256.336C147.011 256.343 147.002 256.353 146.996 256.364C146.989 256.375 146.985 256.387 146.985 256.4C146.984 256.412 146.986 256.425 146.991 256.437C146.996 256.449 147.004 256.459 147.014 256.467C147.023 256.475 147.035 256.481 147.048 256.484C147.06 256.487 147.073 256.487 147.085 256.484C147.098 256.481 147.109 256.475 147.119 256.466C148.655 255.769 150.155 254.994 151.611 254.143C151.611 254.143 151.611 254.062 151.571 254.082Z" fill="#263238"/>
<path d="M187.066 226.885C187.066 226.885 200.604 221.955 202.921 210.593C205.239 199.232 198.409 187.455 198.409 187.455C198.409 187.455 185.307 195.205 182.553 203.838C179.799 212.47 187.066 226.885 187.066 226.885Z" fill="#2A9D8F"/>
<path d="M186.591 242.576C186.418 240.963 186.378 239.33 186.296 237.707C186.215 236.084 186.195 234.603 186.205 233.051C186.217 229.885 186.396 226.723 186.744 223.576C186.967 221.547 187.282 219.58 187.638 217.601C187.557 217.358 187.496 217.104 187.435 216.861C187.313 216.425 187.191 215.989 187.079 215.552C186.845 214.67 186.622 213.777 186.398 212.884C185.9 210.937 185.483 208.969 184.965 207.021C184.965 206.93 185.087 206.869 185.107 206.96C185.636 208.878 186.245 210.754 186.784 212.661C187.048 213.605 187.323 214.538 187.577 215.471C187.668 215.816 187.76 216.151 187.841 216.486C188.569 212.67 189.505 208.898 190.646 205.185L191.134 203.694C191.134 203.582 191.134 203.461 191.134 203.339C191.134 203.045 191.134 202.751 191.134 202.456L191.012 200.641C190.931 199.454 190.799 198.267 190.616 197.09C190.611 197.078 190.61 197.065 190.612 197.052C190.613 197.039 190.618 197.027 190.625 197.016C190.633 197.005 190.643 196.996 190.655 196.99C190.666 196.984 190.679 196.981 190.692 196.981C190.705 196.981 190.718 196.984 190.73 196.99C190.741 196.996 190.751 197.005 190.759 197.016C190.766 197.027 190.771 197.039 190.773 197.052C190.774 197.065 190.773 197.078 190.768 197.09C190.972 198.287 191.165 199.484 191.317 200.691C191.399 201.27 191.449 201.848 191.49 202.436C191.49 202.538 191.49 202.639 191.49 202.73C192.364 200.164 193.35 197.658 194.356 195.102C194.356 195.011 194.519 195.102 194.488 195.163C192.627 200.205 191.163 205.384 190.108 210.653C190.382 210.412 190.67 210.189 190.972 209.983C191.907 209.344 192.862 208.746 193.828 208.168C195.86 206.96 197.893 205.743 199.865 204.475C199.946 204.424 200.038 204.536 199.957 204.587C198.097 205.885 196.277 207.234 194.448 208.583C193.594 209.223 192.71 209.831 191.836 210.45C191.12 210.957 190.441 211.513 189.803 212.114C189.722 212.519 189.63 212.915 189.559 213.311C189.203 215.136 188.908 216.973 188.634 218.819L189.864 217.967C190.799 217.328 191.734 216.699 192.689 216.08C194.549 214.863 196.409 213.635 198.198 212.316C198.269 212.256 198.361 212.377 198.29 212.428C196.48 213.787 194.722 215.218 192.964 216.628C192.11 217.297 191.236 217.967 190.362 218.606L189.03 219.559C188.862 219.702 188.678 219.824 188.482 219.924C187.933 223.881 187.526 227.867 187.292 231.854C187.181 233.598 187.12 235.353 187.069 237.108C187.018 238.863 187.069 240.699 187.069 242.505C187.16 242.86 186.622 242.951 186.591 242.576Z" fill="#263238"/>
<path d="M186.764 206.444C186.473 205.092 186.188 203.722 185.91 202.336C185.91 202.245 186.032 202.224 186.052 202.336C186.347 203.675 186.652 205.014 186.977 206.343C187.303 207.672 187.668 209.011 187.851 210.401C187.396 209.109 187.032 207.787 186.764 206.444Z" fill="#263238"/>
<path d="M193.418 265.451C193.418 265.451 195.745 281.549 207.881 287.189C220.017 292.829 234.805 287.189 234.805 287.189C234.805 287.189 228.991 252.345 193.418 265.451Z" fill="#2A9D8F"/>
<path d="M226.451 276.713C225.323 276.581 224.215 276.398 223.107 276.195L221.471 275.881L220.627 275.719C220.302 275.414 219.977 275.1 219.611 274.806C217.312 272.788 214.828 270.992 212.191 269.439C210.755 268.589 209.269 267.826 207.739 267.157H207.973L211.968 267.329C214.631 267.451 217.294 267.512 219.956 267.684C220.048 267.684 220.048 267.542 219.956 267.532C217.283 267.35 214.631 267.066 211.957 266.832L208.085 266.488L206.052 266.315L205.544 266.254C204.843 266.001 204.152 265.757 203.45 265.544C200.141 264.405 196.579 264.209 193.165 264.976C190.115 265.757 187.066 267.745 186.273 270.961C186.273 271.073 186.426 271.154 186.467 271.042C187.605 268.354 190.593 266.985 193.286 266.447C195.1 266.101 196.959 266.063 198.785 266.335C198.908 267.165 199.112 267.98 199.395 268.77C199.73 269.906 200.066 271.042 200.411 272.168C201.092 274.43 201.855 276.672 202.525 278.944C202.525 279.036 202.688 278.944 202.668 278.894C202.099 276.642 201.651 274.359 201.082 272.087C200.818 270.981 200.533 269.865 200.259 268.76C200.099 267.985 199.896 267.219 199.649 266.467C200.665 266.66 201.763 266.914 202.8 267.208C204.673 267.771 206.509 268.448 208.299 269.237C208.471 270.393 208.725 271.529 208.99 272.655C209.325 274.085 209.691 275.485 210.148 276.875C210.144 276.886 210.142 276.897 210.144 276.909C210.145 276.92 210.149 276.931 210.155 276.941C210.162 276.951 210.171 276.959 210.181 276.964C210.191 276.969 210.203 276.972 210.214 276.972C210.226 276.972 210.237 276.969 210.248 276.964C210.258 276.959 210.267 276.951 210.273 276.941C210.28 276.931 210.284 276.92 210.285 276.909C210.286 276.897 210.285 276.886 210.28 276.875C210.28 276.794 210.28 276.702 210.28 276.611C210.006 275.292 209.711 273.984 209.437 272.665C209.213 271.651 209 270.545 208.776 269.48C210.28 270.16 211.764 270.9 213.197 271.722C213.197 272.046 213.309 272.381 213.35 272.685C213.441 273.233 213.543 273.781 213.645 274.329C213.868 275.576 214.122 276.814 214.417 278.041C214.946 280.415 215.625 282.753 216.45 285.041C216.44 285.056 216.435 285.074 216.435 285.092C216.435 285.11 216.44 285.127 216.45 285.142C216.479 285.164 216.503 285.192 216.521 285.223C216.521 285.284 216.663 285.223 216.643 285.142C216.084 282.758 215.444 280.395 214.915 277.991C214.651 276.794 214.387 275.607 214.153 274.4C214.031 273.801 213.919 273.203 213.807 272.604C213.807 272.432 213.746 272.249 213.726 272.057C215.356 273.021 216.933 274.071 218.452 275.201C221.064 277.166 223.484 279.374 225.679 281.795C225.77 281.896 225.943 281.795 225.862 281.653C224.958 280.43 223.991 279.255 222.965 278.133C222.355 277.473 221.725 276.844 221.074 276.226H221.278C221.847 276.317 222.416 276.408 222.985 276.479C224.113 276.631 225.231 276.743 226.36 276.865C226.502 276.865 226.543 276.723 226.451 276.713Z" fill="#263238"/>
<path d="M217.92 282.172C217.92 282.03 217.92 281.898 217.859 281.756C217.798 281.614 217.737 281.411 217.707 281.228C217.453 280.143 217.249 279.068 217.046 277.972C217.046 277.901 216.914 277.972 216.914 277.972C216.992 279.416 217.304 280.838 217.839 282.182H217.93L217.92 282.172Z" fill="#263238"/>
<path d="M207.755 281.917C207.757 281.908 207.757 281.898 207.754 281.888C207.751 281.879 207.746 281.87 207.739 281.863C207.732 281.856 207.723 281.851 207.714 281.848C207.704 281.845 207.694 281.844 207.684 281.846C207.349 280.426 207.014 278.996 206.668 277.555L206.211 275.293C206.139 274.888 206.058 274.482 205.987 274.066C205.952 273.716 205.863 273.374 205.723 273.051C205.717 273.038 205.708 273.027 205.697 273.019C205.685 273.011 205.671 273.007 205.657 273.007C205.642 273.007 205.629 273.011 205.617 273.019C205.605 273.027 205.596 273.038 205.591 273.051C205.58 273.783 205.683 274.512 205.895 275.212C206.048 276.003 206.2 276.784 206.373 277.566C206.719 279.158 207.125 280.741 207.573 282.303C207.573 282.394 207.735 282.374 207.735 282.303L207.755 281.917Z" fill="#263238"/>
<path d="M225.336 272.076C223.12 271.772 220.904 271.447 218.678 271.184C218.587 271.184 218.546 271.315 218.678 271.326C220.884 271.65 223.11 271.924 225.325 272.218C225.386 272.228 225.427 272.086 225.336 272.076Z" fill="#263238"/>
<path d="M167.598 305.327C166.216 305.753 164.945 311.139 165.84 313.939C166.734 316.739 161.561 325.452 160.504 329.033C159.447 332.614 160.219 333.618 160.504 334.288C160.788 334.957 157.912 336.185 158.288 336.854C158.664 337.524 161.723 337.869 163.106 337.635C164.488 337.402 171.816 340.902 179.053 341.774C191.046 343.225 203.964 339.603 206.424 338.731C207.227 338.427 210.113 339.36 211.221 338.914C212.329 338.467 211.15 336.479 211.038 335.809C210.926 335.14 211.811 333.091 211.963 328.709C212.116 324.327 204.34 314.943 204.706 313.513C205.072 312.083 206.515 308.319 206.414 307.569C206.312 306.818 193.963 311.16 185.781 310.612C177.599 310.064 169.783 304.657 167.598 305.327Z" fill="#455A64"/>
<path d="M293.235 181.771C273.344 145.317 213.372 138.203 187.008 138.203C160.643 138.203 100.671 145.317 80.7884 181.771C60.9054 218.225 65.9363 301.472 88.2476 320.142C110.559 338.811 163.196 343.857 187.016 343.857C210.836 343.857 263.556 338.811 285.826 320.142C308.096 301.472 313.135 218.216 293.235 181.771ZM187.016 334.468C88.72 334.468 71.9451 289.354 71.9451 253.868C71.9451 218.382 83.6312 193.426 101.633 180.877C122.867 166.087 157.163 178.396 186.999 178.396C216.836 178.396 251.157 166.079 272.366 180.877C290.368 193.426 302.054 218.382 302.054 253.868C302.054 289.354 285.312 334.468 187.016 334.468Z" fill="#E6B323"/>
<g opacity="0.1">
<path d="M291.487 295.153C286.348 303.376 278.947 310.986 268.43 317.28C276.265 309.974 283.95 302.598 291.487 295.153Z" fill="white"/>
<path d="M287.818 197.05C242.778 245.974 193.165 290.498 139.653 330.019C133.498 328.707 127.444 326.963 121.535 324.8C178.482 283.953 231.134 237.451 278.684 186.007C282.15 189.32 285.215 193.026 287.818 197.05Z" fill="white"/>
<path d="M298.073 220.831C260.064 261.808 218.868 299.723 174.872 334.221C173.537 334.163 172.22 334.105 170.91 334.03C216.119 298.842 258.388 260.046 297.302 218.026C297.593 218.945 297.858 219.879 298.073 220.831Z" fill="white"/>
<path d="M233.378 174.062C187.815 220.035 137.961 261.563 84.4919 298.082C83.9947 297.379 83.514 296.667 83.0664 295.956C135.617 260.104 184.679 219.408 229.607 174.402C230.875 174.269 232.126 174.162 233.378 174.062Z" fill="white"/>
<path d="M220.514 175.42C177.26 217.987 130.266 256.594 80.0983 290.779C73.874 278.768 71.9844 265.781 71.9844 253.87C71.9844 250.749 72.0728 247.716 72.2496 244.771C102.74 223.573 132.015 200.685 159.937 176.214C169.054 177.347 178.245 178.414 187.055 178.414C197.879 178.406 209.325 176.776 220.514 175.42Z" fill="white"/>
</g>
</svg>
