<svg width="470" height="471" viewBox="0 0 470 471" fill="none" xmlns="http://www.w3.org/2000/svg">
<circle cx="235" cy="235.958" r="235" fill="#DBECEA"/>
<g opacity="0.2">
<path d="M278.588 393.268C266.774 395.122 255.258 398.527 244.338 403.394C233.314 408.089 222.703 413.713 212.027 419.492C206.651 422.33 201.287 425.283 195.73 428.031C190.091 430.938 184.292 433.522 178.359 435.77C171.973 438.202 165.309 439.831 158.52 440.62C150.734 441.512 142.846 440.63 135.45 438.041C133.499 437.331 131.573 436.402 129.699 435.538C127.825 434.674 126.08 433.449 124.283 432.339C122.487 431.23 120.949 429.863 119.333 428.56C117.718 427.257 116.348 425.799 114.874 424.38C109.456 418.805 104.876 412.474 101.278 405.586C97.7672 398.835 95.102 391.678 93.3424 384.277C91.7024 377.316 90.6433 370.232 90.1759 363.097C89.4665 350.029 89.7084 336.928 90.8996 323.896L92.3601 305.695C92.6057 302.729 92.7737 299.8 92.9675 296.885L93.226 292.538L93.3941 288.256C93.5986 282.7 93.5166 277.137 93.1485 271.59C92.8367 266.327 92.0713 261.101 90.8609 255.969C89.4862 250.6 87.635 245.364 85.3292 240.322C82.9899 235.008 80.3016 229.642 77.3936 224.276C71.5776 213.492 64.9862 202.747 58.5498 191.628L53.7807 183.218C52.2298 180.354 50.6918 177.491 49.2313 174.537C46.1736 168.597 43.5809 162.43 41.4767 156.091C39.2352 149.491 38.0616 142.576 38 135.607C38.0372 128.503 39.6853 121.5 42.8208 115.123C44.3548 112.061 46.1813 109.154 48.2749 106.442L51.4672 102.572C52.5529 101.282 53.6902 100.238 54.8017 99.0638C59.3606 94.4939 64.3317 90.3529 69.6519 86.6935C75.0581 83.0827 80.8018 80.0026 86.8026 77.4964C88.3148 76.9159 89.8011 76.2064 91.352 75.7034L95.9919 74.1297C99.1196 73.2396 102.273 72.3496 105.478 71.7046C118.343 69.0466 131.532 68.3119 144.614 69.5247C151.153 70.0563 157.656 70.9651 164.091 72.2464C170.553 73.446 176.886 75.1229 183.18 76.9546C186.295 77.9349 189.461 78.8379 192.524 79.9472L197.164 81.5596L201.752 83.301C207.853 85.6658 213.85 88.2457 219.743 91.0405C222.69 92.4594 225.598 93.917 228.519 95.3746C231.44 96.8322 234.283 98.4317 237.127 100.018C239.97 101.605 242.813 103.204 245.592 104.894C248.371 106.584 251.175 108.248 253.889 110.054L269.567 120.18C272.152 121.831 274.737 123.379 277.321 124.991L281.199 127.377L285.076 129.686C305.671 141.947 326.997 152.941 348.936 162.605C359.947 167.481 371.075 172.163 382.849 177.465C388.717 180.045 394.753 183.05 400.944 186.494C407.567 190.202 413.829 194.52 419.645 199.393C425.839 204.635 431.333 210.648 435.995 217.285C440.415 223.62 444.154 230.404 447.148 237.523C448.699 240.929 449.875 244.282 451.116 247.662C451.711 249.339 452.215 251.003 452.758 252.667C453.3 254.331 453.843 255.982 454.283 257.827L455.678 263.102L456.35 265.747L456.867 268.494C457.634 272.148 458.182 275.843 458.509 279.562C458.69 281.445 458.871 283.328 459 285.211V293.751C459 294.705 458.845 295.686 458.767 296.653L458.173 302.445C457.889 304.367 457.436 306.314 457.048 308.185L456.441 311.036C456.208 311.977 455.885 312.919 455.601 313.848C455.019 315.705 454.451 317.575 453.817 319.394C453.184 321.213 452.279 322.967 451.491 324.722C448.297 331.536 444.083 337.825 438.993 343.374L437.184 345.412C436.55 346.057 435.891 346.702 435.245 347.282C433.952 348.508 432.66 349.746 431.368 350.907C428.602 353.061 425.939 355.357 423.044 357.176C417.5 360.907 411.651 364.165 405.558 366.915C399.661 369.531 393.62 371.81 387.463 373.738C375.533 377.442 363.381 380.397 351.081 382.587C348.044 383.116 345.02 383.735 342.034 384.187C339.048 384.638 335.998 385.257 332.987 385.683C329.976 386.109 326.925 386.599 323.94 387.05L314.893 388.34L278.588 393.268ZM277.916 389.321C289.897 387.592 301.787 385.451 313.51 382.613L317.904 381.568L322.273 380.407C325.181 379.672 328.063 378.782 330.932 377.918C336.696 376.241 342.357 374.28 347.94 372.19C359.008 368.107 369.684 363.034 379.838 357.034C384.759 354.121 389.506 350.925 394.055 347.463C398.37 344.113 402.407 340.421 406.126 336.421C408.026 334.551 409.512 332.422 411.167 330.462L413.325 327.353C413.674 326.837 414.049 326.334 414.385 325.805L415.277 324.206C417.701 320.147 419.545 315.771 420.757 311.203C421.015 310.081 421.274 308.985 421.584 307.901L422.088 304.522C422.165 303.954 422.282 303.412 422.333 302.845L422.398 301.116C422.398 299.955 422.553 298.833 422.566 297.685L422.437 294.176C422.437 293.596 422.437 293.028 422.372 292.435L422.152 290.642L421.765 287.082L421.054 283.444C420.031 278.421 418.635 273.48 416.879 268.662C416.517 267.436 415.988 266.082 415.483 264.792C414.979 263.502 414.501 262.212 413.971 260.922C412.873 258.484 411.852 255.956 410.676 253.699C408.586 249.328 406.066 245.176 403.154 241.303C400.46 237.785 397.353 234.602 393.9 231.822C386.933 226.172 377.356 221.232 366.565 216.149C361.201 213.57 355.618 211.067 349.944 208.41C344.27 205.753 338.544 203.005 332.832 200.219C309.742 188.805 287.491 175.774 266.245 161.225L262.252 158.529L258.374 155.756C255.789 153.898 253.114 152.079 250.529 150.183L235.433 139.064C230.626 135.543 225.74 132.137 220.842 128.745L213.423 123.83C210.929 122.256 208.434 120.657 205.914 119.096C200.861 116.078 195.807 113.008 190.624 110.273L186.747 108.171L182.87 106.171C180.285 104.804 177.622 103.591 174.973 102.366C164.481 97.5074 153.544 93.6714 142.313 90.9115C136.782 89.6181 131.168 88.7086 125.511 88.1898C119.923 87.657 114.297 87.657 108.709 88.1898C97.5243 89.1146 86.6835 92.5024 76.9671 98.1092C72.1271 100.972 67.6154 104.354 63.5128 108.196C62.5176 109.19 61.4449 110.144 60.4885 111.15L57.8002 114.194C56.1589 116.278 54.7179 118.51 53.4964 120.863C51.0813 125.532 49.8687 130.728 49.968 135.981C50.15 141.525 51.314 146.992 53.4059 152.131C55.6143 157.586 58.2955 162.839 61.419 167.829C64.5984 172.911 68.088 177.916 71.8232 182.818C79.2289 192.66 87.3325 202.27 95.2939 212.486C99.2617 217.646 103.152 222.96 106.848 228.662C110.743 234.549 114.125 240.759 116.955 247.223C122.823 261.09 125.085 275.124 126.002 288.617C127.773 315.55 124.322 340.33 124.826 362.542C125.059 373.622 126.274 383.851 129.505 392.907C131.128 397.463 133.321 401.797 136.032 405.806C138.317 409.396 141.328 412.472 144.872 414.835C148.746 417.227 153.111 418.718 157.641 419.195C162.99 419.758 168.389 419.637 173.706 418.834C179.459 418.014 185.159 416.864 190.78 415.39C196.492 413.829 202.256 412.113 207.969 410.23C219.446 406.489 230.845 402.22 242.426 398.427C253.992 394.389 265.883 391.343 277.968 389.321H277.916Z" fill="white"/>
<path d="M296.98 82.7993C298.622 82.3873 300.291 82.0864 301.974 81.8986C302.776 81.7943 303.555 81.7339 304.34 81.6625C305.125 81.5911 305.893 81.5746 306.656 81.5581C308.182 81.5032 309.669 81.5582 311.157 81.5911C317.052 81.8272 322.683 82.7279 328.248 83.5901L330.219 83.8867L331.091 84.013L331.986 84.0844C332.584 84.1393 333.205 84.1228 333.819 84.1393C334.434 84.1558 335.071 84.0844 335.713 84.0349C336.355 83.9855 336.986 83.9196 337.639 83.8153C338.293 83.7109 338.929 83.6231 339.588 83.4912C340.883 83.2276 342.211 82.9421 343.518 82.5796C348.809 81.1847 354.039 79.1088 359.879 77.7743C362.963 77.0387 366.144 76.7978 369.303 77.0604C371.873 77.3133 374.377 78.0237 376.697 79.1583C377.086 79.3505 377.487 79.5317 377.866 79.7074L378.963 80.3609C380.416 81.2642 381.79 82.2894 383.069 83.4253C383.717 83.9745 384.331 84.6665 384.957 85.309C385.583 85.9516 386.082 86.6765 386.642 87.3739C387.202 88.0714 387.619 88.8183 388.102 89.5706C388.349 89.9441 388.541 90.323 388.739 90.669L389.342 91.8113L389.639 92.3934L389.886 92.9755L390.369 94.1507C390.701 94.9238 390.987 95.716 391.225 96.5232C392.201 99.6413 392.781 102.87 392.948 106.134C393.097 109.284 392.924 112.442 392.432 115.558C391.93 118.625 391.117 121.634 390.006 124.537C389.727 125.256 389.43 125.97 389.128 126.673C388.826 127.376 388.47 128.073 388.135 128.76C387.8 129.446 387.438 130.133 387.037 130.803C386.636 131.473 386.291 132.137 385.868 132.791C384.249 135.382 382.423 137.838 380.407 140.133C378.44 142.403 376.292 144.51 373.985 146.432C371.752 148.324 369.346 150.002 366.801 151.446C364.276 152.867 361.558 153.913 358.732 154.549C355.828 155.157 352.823 155.086 349.95 154.34C347.059 153.561 344.289 152.387 341.717 150.853C336.608 147.787 331.826 144.204 327.447 140.161C325.252 138.184 323.193 136.124 321.239 134.01C321.053 133.809 320.849 133.625 320.63 133.461L320.12 133.016C319.724 132.747 319.423 132.467 319.022 132.192L318.473 131.797C318.27 131.67 318.061 131.555 317.869 131.423C317.491 131.16 317.019 130.94 316.623 130.682C314.671 129.617 312.655 128.674 310.586 127.859L306.974 126.437L305.042 125.684L303.028 124.85C301.661 124.3 300.223 123.603 298.763 122.878C297.2 122.077 295.689 121.176 294.241 120.182C292.605 119.06 291.089 117.771 289.718 116.337C288.229 114.766 286.961 113 285.947 111.087L285.552 110.362L285.217 109.621C285.003 109.121 284.778 108.622 284.581 108.116C284.221 107.122 283.924 106.106 283.692 105.074L283.379 103.558L283.187 102.086C283.069 101.128 283.006 100.163 283 99.1977C283 98.9451 283 98.7528 283 98.4618C283 98.0719 283 97.6929 283.049 97.314C283.093 96.5143 283.208 95.7203 283.395 94.9416C283.434 94.7493 283.483 94.5462 283.532 94.3484L283.725 93.7444C283.856 93.349 284.004 92.9535 284.153 92.5636C284.484 91.8018 284.875 91.0673 285.322 90.3669C285.547 90.0319 285.777 89.7079 286.019 89.3894C286.14 89.2301 286.26 89.0654 286.381 88.9226L286.76 88.4997C287.007 88.2306 287.265 87.9506 287.534 87.6979C287.803 87.4453 288.044 87.2366 288.313 87.006C288.582 86.7753 288.862 86.5721 289.109 86.3744L289.883 85.8252C290.141 85.6605 290.432 85.4738 290.662 85.331L291.414 84.9136C293.183 83.9988 295.05 83.2894 296.98 82.7993Z" fill="white"/>
<path d="M144.828 333.288C145.33 336.19 145.538 339.135 145.448 342.078C145.37 347.706 144.095 352.854 142.707 357.881C141.323 362.887 139.557 367.78 137.424 372.516C135.253 377.272 132.511 381.748 129.261 385.845C125.882 390.125 121.944 393.934 117.552 397.17C112.632 400.609 106.975 402.855 101.033 403.73C97.8818 404.203 94.6829 404.268 91.5155 403.922C88.4579 403.581 85.4698 402.779 82.6533 401.543C80.1444 400.424 77.7956 398.976 75.6683 397.24C73.7754 395.671 71.9793 393.99 70.2899 392.205C69.4175 391.251 68.6316 390.222 67.9412 389.129C67.3047 387.984 66.7616 386.79 66.3172 385.558C65.4705 383.01 64.8854 380.383 64.5709 377.717C63.8154 372.2 63.7538 366.61 64.3876 361.078C64.9906 355.769 66.7199 350.65 69.4604 346.059C72.1293 341.733 75.6382 337.984 79.7807 335.031C83.9106 332.034 88.7652 329.882 93.5062 327.922C98.2473 325.962 102.997 324.219 107.424 322.129C111.851 320.038 116.155 317.721 121.551 316.031C122.992 315.58 124.47 315.262 125.969 315.081C127.71 314.85 129.475 314.877 131.208 315.159C133.548 315.624 135.728 316.683 137.538 318.235C137.984 318.628 138.409 319.043 138.813 319.48C139.188 319.907 139.563 320.352 139.921 320.805C140.541 321.642 141.099 322.525 141.589 323.444C142.045 324.292 142.453 325.164 142.811 326.058C143.117 326.868 143.458 327.8 143.685 328.54L144.043 329.769L144.331 330.962C144.558 331.764 144.689 332.513 144.828 333.288Z" fill="#EBEBEB"/>
</g>
<path d="M382.483 401.512V434.956C382.483 456.482 286.23 470.839 235.004 470.839C183.778 470.839 87.5422 456.482 87.5422 434.956V401.512C87.5422 393.349 97.9236 373.147 235.004 373.147C372.084 373.147 382.483 393.349 382.483 401.512Z" fill="#2A9D8F"/>
<path opacity="0.2" d="M381.129 401.38C379.994 418.429 326.708 427.515 312.223 430.172C286.707 434.474 260.896 436.804 235.021 437.141C209.146 436.804 183.335 434.474 157.819 430.172C138.803 426.687 119.402 423.089 101.87 414.709C96.5262 411.851 89.4102 408.097 88.9125 401.371C89.8904 411.965 111.553 417.854 120.345 420.432C145.194 427.149 170.89 430.355 196.481 432.724C234.977 436.366 273.735 433.953 311.899 428.186C326.385 425.79 379.549 417.802 381.129 401.371V401.38Z" fill="#111827"/>
<path opacity="0.2" d="M355.508 436.637C355.508 440.043 353.168 442.796 350.269 442.796C347.371 442.796 345.031 440.043 345.031 436.637C345.031 433.231 347.379 430.469 350.269 430.469C353.159 430.469 355.508 433.152 355.508 436.637Z" fill="#111827"/>
<path d="M353.334 436.636C353.334 439.746 351.474 442.273 349.178 442.273C346.882 442.273 345.031 439.703 345.031 436.636C345.031 433.57 346.899 431 349.195 431C351.492 431 353.334 433.483 353.334 436.636Z" fill="#263238"/>
<path opacity="0.2" d="M132.348 448.387C135.796 448.387 138.591 445.63 138.591 442.228C138.591 438.827 135.796 436.069 132.348 436.069C128.9 436.069 126.105 438.827 126.105 442.228C126.105 445.63 128.9 448.387 132.348 448.387Z" fill="#111827"/>
<path d="M133.624 447.866C136.358 447.866 138.574 445.342 138.574 442.229C138.574 439.116 136.358 436.593 133.624 436.593C130.889 436.593 128.673 439.116 128.673 442.229C128.673 445.342 130.889 447.866 133.624 447.866Z" fill="#263238"/>
<path opacity="0.2" d="M373.557 430.425C373.557 433.831 371.217 436.592 368.318 436.592C365.42 436.592 363.08 433.831 363.08 430.425C363.08 427.018 365.428 424.266 368.318 424.266C371.208 424.266 373.557 427.053 373.557 430.425Z" fill="#111827"/>
<path d="M371.392 430.425C371.392 433.544 369.532 436.061 367.236 436.061C364.939 436.061 363.08 433.544 363.08 430.425C363.08 427.306 364.939 424.797 367.236 424.797C369.532 424.797 371.392 427.315 371.392 430.425Z" fill="#263238"/>
<path opacity="0.2" d="M120.075 433.448V444.268C120.075 444.268 98.2467 438.884 87.5422 430.12V418.569C93.8723 423.883 106.969 430.878 120.075 433.448Z" fill="#111827"/>
<path d="M120.083 433.448V442.029C113.639 440.505 96.9715 435.992 88.9125 428.491V419.658C95.6356 424.789 107.859 431.044 120.083 433.448Z" fill="#263238"/>
<path opacity="0.2" d="M130.189 450.977C139.575 452.136 143.339 444.627 139.846 436.638C141.218 438.152 142.127 440.026 142.466 442.039C142.595 442.822 142.633 443.617 142.579 444.409C142.458 445.799 141.991 447.137 141.22 448.302C140.449 449.466 139.398 450.42 138.164 451.077C136.93 451.734 135.551 452.073 134.152 452.063C132.753 452.053 131.379 451.695 130.154 451.021L130.189 450.977Z" fill="#111827"/>
<path d="M100.976 390.256C98.3564 392.565 95.1259 395.3 94.864 398.968C94.7068 407.462 115.094 412.584 121.931 414.649C136.425 418.665 151.372 421.4 166.05 424.728C148.317 423.273 109.297 417.855 96.5229 405.78C90.3237 399.587 94.8378 393.941 101.002 390.283L100.976 390.256Z" fill="white"/>
<path d="M377.647 270.446H92.4063C92.4063 194.455 169.241 141.088 235.022 141.088C300.803 141.088 377.647 194.455 377.647 270.446Z" fill="#2A9D8F"/>
<g opacity="0.5">
<path d="M138.381 199.167C162.426 184.061 191.711 178.372 219.86 179.47C191.868 182.031 164.033 187.31 138.381 199.167Z" fill="white"/>
<path d="M104.332 227.558C109.833 216.59 121.114 207.521 132.272 202.721C131.102 203.819 129.871 204.786 128.675 205.805C120.241 212.774 111.946 219.744 104.324 227.584L104.332 227.558Z" fill="white"/>
</g>
<g opacity="0.5">
<path d="M183.391 168.895C183.391 170.332 181.435 171.508 179.025 171.508C176.615 171.508 174.66 170.35 174.66 168.895C174.66 167.44 176.624 166.281 179.025 166.281C181.426 166.281 183.391 167.449 183.391 168.895Z" fill="white"/>
<path d="M209.331 160.584C209.602 164.234 204.826 167.553 198.662 168.015C192.498 168.477 187.285 165.881 186.997 162.222C186.709 158.563 191.502 155.252 197.666 154.791C203.831 154.329 209.061 156.934 209.331 160.584Z" fill="white"/>
</g>
<path opacity="0.1" d="M377.647 270.446H92.4063C99.3913 200.396 192.335 182.59 235.022 182.59C277.709 182.59 370.61 200.396 377.647 270.446Z" fill="#111827"/>
<path d="M363.192 270.446V395.945C329 417.584 292.294 428.404 235.017 428.404C177.74 428.404 141.034 417.584 106.834 395.945V270.446H363.192Z" fill="#2A9D8F"/>
<path opacity="0.1" d="M363.192 317.288V395.962C328.991 417.602 292.294 428.422 235.008 428.422C177.723 428.422 141.034 417.602 106.834 395.962V344.137C107.009 343.937 107.113 343.832 107.113 343.832C107.113 343.832 114.971 385.552 120.079 390.875C130.19 401.381 179.137 424.266 230.564 424.266C303.121 424.266 336.081 402.914 350.261 391.685C361.192 383.017 362.956 337.551 363.192 317.288Z" fill="#111827"/>
<path d="M346.913 235.86C325.958 197.468 262.779 189.976 235.005 189.976C207.231 189.976 144.06 197.468 123.097 235.86C102.133 274.252 107.459 361.926 130.955 381.588C154.451 401.25 209.92 406.555 235.014 406.555C260.107 406.555 315.647 401.25 339.107 381.588C362.568 361.926 367.868 274.235 346.913 235.86ZM235.014 396.676C131.461 396.676 113.789 349.163 113.789 311.782C113.789 274.4 126.1 248.135 145.065 234.919C167.425 219.343 203.564 232.306 234.996 232.306C266.429 232.306 302.585 219.334 324.928 234.919C343.892 248.135 356.203 274.418 356.203 311.782C356.203 349.146 338.566 396.676 235.014 396.676Z" fill="#2A9D8F"/>
<path opacity="0.3" d="M346.916 235.86C325.961 197.468 262.782 189.976 235.008 189.976C207.234 189.976 144.055 197.468 123.109 235.86C102.162 274.252 107.462 361.926 130.967 381.588C154.471 401.25 209.923 406.564 235.017 406.564C260.11 406.564 315.65 401.25 339.111 381.588C362.571 361.926 367.88 274.244 346.916 235.86ZM235.017 396.676C131.464 396.676 113.792 349.163 113.792 311.79C113.792 274.418 126.103 248.135 145.068 234.919C167.437 219.343 203.567 232.306 234.999 232.306C266.432 232.306 302.588 219.334 324.931 234.919C343.895 248.135 356.206 274.418 356.206 311.79C356.206 349.163 338.569 396.676 235.017 396.676Z" fill="#111827"/>
<path opacity="0.1" d="M339.1 381.587C323.06 395.02 292.047 401.763 266.002 404.673C328.509 392.102 308.209 385.403 307.466 385.159C347.63 368.772 356.248 337.82 356.248 311.781C356.248 274.417 343.937 248.135 324.973 234.919C302.603 219.343 266.473 232.306 235.041 232.306C231.138 232.306 227.183 232.114 223.14 231.783C247.631 232.384 293.034 224.282 293.034 215.109C293.034 205.936 269.267 194.645 245.833 190.298C276.698 192.041 328.386 201.85 346.94 235.851C367.869 274.234 362.56 361.925 339.1 381.587Z" fill="#111827"/>
<g opacity="0.5">
<path d="M143.865 226.634C144.048 227.723 142.704 228.864 140.861 229.187C139.019 229.509 137.369 228.865 137.177 227.776C136.985 226.687 138.329 225.537 140.18 225.223C142.031 224.909 143.673 225.537 143.865 226.634Z" fill="white"/>
<path d="M162.55 216.903C163.231 219.656 160.026 222.818 155.381 223.968C150.736 225.118 146.414 223.82 145.725 221.067C145.035 218.315 148.257 215.152 152.902 214.002C157.547 212.852 161.895 214.15 162.55 216.903Z" fill="white"/>
</g>
<path d="M356.25 311.79C356.25 349.163 338.569 396.676 235.017 396.676C131.465 396.676 113.793 349.163 113.793 311.79C113.793 274.418 126.104 248.135 145.068 234.919C167.437 219.343 203.567 232.306 235 232.306C266.432 232.306 302.588 219.334 324.931 234.919C343.939 248.135 356.25 274.418 356.25 311.79Z" fill="#263238"/>
<path d="M355.677 323.037C355.616 323.638 355.546 324.248 355.468 324.849C353.381 341.514 346.614 358.824 329.868 372.266C319.687 380.446 305.822 387.198 287.085 391.51C274.104 394.361 260.887 396.006 247.602 396.423C243.562 396.591 239.374 396.676 235.038 396.676C230.038 396.676 225.236 396.565 220.631 396.345H220.02H219.924C219.47 395.578 219.051 394.811 218.588 394.027C217.019 391.172 215.631 388.222 214.432 385.194C213.961 384 213.559 382.798 213.105 381.596C212.965 381.213 212.843 380.829 212.721 380.446C212.599 380.063 212.476 379.679 212.363 379.287C212.127 378.512 211.9 377.737 211.699 376.97C211.612 376.683 211.542 376.404 211.472 376.099C211.236 375.228 211.027 374.357 210.835 373.433L210.599 372.327C210.59 372.287 210.59 372.245 210.599 372.205C210.468 371.56 210.346 370.916 210.232 370.262C210.119 369.609 210.005 368.964 209.918 368.302C209.91 368.256 209.91 368.209 209.918 368.163C209.839 367.71 209.787 367.292 209.735 366.821C209.682 366.351 209.621 365.88 209.56 365.41C209.403 363.946 209.272 362.465 209.202 361.002C209.202 360.418 209.15 359.826 209.132 359.259V358.275C209.132 357.857 209.132 357.404 209.132 356.994C209.132 356.376 209.132 355.757 209.132 355.148C209.132 354.703 209.132 354.276 209.176 353.823C209.176 353.597 209.176 353.379 209.176 353.161C209.228 352.107 209.298 351.062 209.403 350.016L209.481 349.145C209.534 348.623 209.604 348.109 209.665 347.595C209.726 347.081 209.822 346.358 209.918 345.73C210.093 344.493 210.311 343.256 210.555 342.019C212.721 331.035 217.259 320.654 223.854 311.598C230.449 302.542 238.943 295.028 248.743 289.579C258.544 284.13 269.417 280.876 280.606 280.045C291.794 279.214 303.03 280.826 313.532 284.767L315.278 285.438C315.627 285.568 315.959 285.716 316.291 285.864C316.622 286.012 317.068 286.178 317.452 286.344L317.95 286.57C318.526 286.823 319.085 287.084 319.643 287.354C319.696 287.37 319.746 287.393 319.792 287.424C320.237 287.633 320.665 287.842 321.11 288.068L321.983 288.504C322.568 288.809 323.145 289.123 323.73 289.436C324.315 289.75 324.987 290.133 325.598 290.499C325.677 290.499 325.755 290.586 325.834 290.63L327.58 291.71L329.466 292.938L330.339 293.513C332.173 294.768 333.945 296.127 335.674 297.538C336.006 297.808 336.329 298.087 336.652 298.366C336.975 298.644 337.315 298.932 337.63 299.237C337.944 299.542 338.285 299.803 338.599 300.108L338.73 300.23C344.885 305.891 350.075 312.514 354.097 319.84C354.586 320.885 355.145 321.956 355.677 323.037Z" fill="#DBDBDB"/>
<path d="M214.392 385.167C217.884 381.543 225.053 374.836 237.215 368.284C251.936 360.348 292.859 349.676 311.282 338.447C337.205 322.671 339.388 307.748 338.628 300.195C331.313 293.485 322.769 288.246 313.465 284.766C312.173 292.694 306.89 317.505 263.287 336.914C240.777 346.906 218.164 343.256 210.489 342.019C207.602 356.477 208.957 371.459 214.392 385.167Z" fill="#C7C7C7"/>
<path d="M220.398 396.267L220.607 396.346H219.996C220.118 396.346 220.258 396.346 220.389 396.293L220.398 396.267Z" fill="#C7C7C7"/>
<path d="M355.508 324.849C353.422 341.515 346.655 358.825 329.908 372.267C323.314 373.646 316.89 375.741 310.752 378.513C302.55 382.236 294.645 386.582 287.108 391.51C274.127 394.362 260.91 396.007 247.625 396.424C254.61 394.455 262.87 390.901 272.352 384.933C281.834 378.966 292.495 370.603 304.466 359.007C333.977 330.355 349.589 325.503 355.508 324.849Z" fill="#C7C7C7"/>
<path d="M289.945 312.349C291.595 315.354 296.476 315.833 300.85 313.446C305.225 311.059 307.434 306.678 305.784 303.672C304.133 300.667 299.244 300.187 294.869 302.583C290.495 304.979 288.277 309.352 289.945 312.349Z" fill="#A6A6A6"/>
<path d="M312.217 315.834C313.142 317.524 316.024 317.733 318.652 316.296C321.28 314.858 322.651 312.315 321.716 310.624C320.782 308.934 317.901 308.734 315.281 310.171C312.662 311.609 311.283 314.144 312.217 315.834Z" fill="#A6A6A6"/>
<path d="M192.524 373.216L196.191 373.896L197.011 377.746L197.832 373.896L201.49 373.216L197.841 372.328L197.011 368.686L196.173 372.328L192.524 373.216Z" fill="white"/>
<path d="M161.01 359.818L163.062 360.202L163.516 362.353L163.978 360.202L166.021 359.818L163.987 359.322L163.516 357.292L163.053 359.322L161.01 359.818Z" fill="white"/>
<path d="M250.502 255.096L252.545 255.479L253.008 257.631L253.462 255.479L255.514 255.096L253.471 254.599L253.008 252.57L252.536 254.599L250.502 255.096Z" fill="white"/>
<path d="M343.738 300.971L345.79 301.346L346.244 303.506L346.698 301.346L348.75 300.971L346.707 300.475L346.244 298.436L345.782 300.475L343.738 300.971Z" fill="white"/>
<path d="M289.395 264.096C289.553 264.096 289.704 264.158 289.815 264.27C289.926 264.381 289.989 264.531 289.989 264.688C289.989 264.846 289.926 264.996 289.815 265.107C289.704 265.218 289.553 265.281 289.395 265.281C289.238 265.281 289.087 265.218 288.975 265.107C288.864 264.996 288.801 264.846 288.801 264.688C288.801 264.531 288.864 264.381 288.975 264.27C289.087 264.158 289.238 264.096 289.395 264.096Z" fill="white"/>
<path d="M189.042 256.717C189.158 256.717 189.269 256.763 189.351 256.844C189.433 256.926 189.479 257.037 189.479 257.152C189.479 257.268 189.433 257.379 189.351 257.46C189.269 257.542 189.158 257.588 189.042 257.588C188.927 257.588 188.816 257.542 188.734 257.46C188.652 257.379 188.606 257.268 188.606 257.152C188.606 257.037 188.652 256.926 188.734 256.844C188.816 256.763 188.927 256.717 189.042 256.717Z" fill="white"/>
<path d="M228.79 268.879L232.449 269.55L233.269 273.409L234.09 269.55L237.749 268.879L234.108 267.982L233.269 264.349L232.431 267.982L228.79 268.879Z" fill="white"/>
<path d="M320.583 286.048L324.25 286.719L325.062 290.578L325.882 286.719L329.55 286.04L325.9 285.151L325.062 281.518L324.232 285.151L320.583 286.048Z" fill="white"/>
<path d="M133.105 306.373L135.157 306.747L135.611 308.899L136.065 306.747L138.117 306.364L136.074 305.867L135.611 303.838L135.148 305.867L133.105 306.373Z" fill="white"/>
<path d="M158.032 285.726C158.189 285.726 158.34 285.788 158.451 285.899C158.563 286.011 158.625 286.161 158.625 286.318C158.625 286.475 158.563 286.626 158.451 286.737C158.34 286.848 158.189 286.911 158.032 286.911C157.874 286.911 157.723 286.848 157.612 286.737C157.5 286.626 157.438 286.475 157.438 286.318C157.438 286.161 157.5 286.011 157.612 285.899C157.723 285.788 157.874 285.726 158.032 285.726Z" fill="white"/>
<path d="M120.423 285.133C120.581 285.133 120.732 285.195 120.843 285.306C120.954 285.417 121.017 285.568 121.017 285.725C121.017 285.882 120.954 286.033 120.843 286.144C120.732 286.255 120.581 286.317 120.423 286.317C120.266 286.317 120.115 286.255 120.003 286.144C119.892 286.033 119.83 285.882 119.83 285.725C119.83 285.568 119.892 285.417 120.003 285.306C120.115 285.195 120.266 285.133 120.423 285.133Z" fill="white"/>
<path d="M161.587 238.43C161.744 238.43 161.896 238.493 162.007 238.604C162.118 238.715 162.181 238.866 162.181 239.023C162.181 239.18 162.118 239.33 162.007 239.442C161.896 239.553 161.744 239.615 161.587 239.615C161.43 239.615 161.279 239.553 161.167 239.442C161.056 239.33 160.993 239.18 160.993 239.023C160.993 238.866 161.056 238.715 161.167 238.604C161.279 238.493 161.43 238.43 161.587 238.43Z" fill="white"/>
<path d="M321.721 251.428C322.006 251.453 322.271 251.584 322.465 251.794C322.658 252.005 322.765 252.28 322.765 252.565C322.765 252.851 322.658 253.126 322.465 253.336C322.271 253.546 322.006 253.677 321.721 253.702C321.436 253.677 321.171 253.546 320.978 253.336C320.784 253.126 320.677 252.851 320.677 252.565C320.677 252.28 320.784 252.005 320.978 251.794C321.171 251.584 321.436 251.453 321.721 251.428Z" fill="white"/>
<path d="M163.515 347.988C163.8 348.013 164.065 348.144 164.258 348.354C164.451 348.565 164.559 348.84 164.559 349.125C164.559 349.41 164.451 349.686 164.258 349.896C164.065 350.106 163.8 350.237 163.515 350.262C163.23 350.237 162.964 350.106 162.771 349.896C162.578 349.686 162.471 349.41 162.471 349.125C162.471 348.84 162.578 348.565 162.771 348.354C162.964 348.144 163.23 348.013 163.515 347.988Z" fill="white"/>
<path d="M205.058 237.089L207.101 237.464L207.564 239.615L208.018 237.464L210.07 237.089L208.027 236.592L207.564 234.554L207.093 236.592L205.058 237.089Z" fill="white"/>
<path d="M205.058 325.285L207.101 325.668L207.564 327.82L208.018 325.668L210.07 325.285L208.027 324.788L207.564 322.759L207.093 324.788L205.058 325.285Z" fill="white"/>
<path d="M145.472 337.08C145.63 337.08 145.781 337.142 145.892 337.254C146.003 337.365 146.066 337.515 146.066 337.672C146.066 337.83 146.003 337.98 145.892 338.091C145.781 338.202 145.63 338.265 145.472 338.265C145.315 338.265 145.164 338.202 145.052 338.091C144.941 337.98 144.878 337.83 144.878 337.672C144.878 337.515 144.941 337.365 145.052 337.254C145.164 337.142 145.315 337.08 145.472 337.08Z" fill="white"/>
<path d="M215.063 289.819C215.178 289.819 215.289 289.865 215.371 289.947C215.453 290.029 215.499 290.139 215.499 290.255C215.499 290.37 215.453 290.481 215.371 290.563C215.289 290.645 215.178 290.69 215.063 290.69C214.947 290.69 214.836 290.645 214.754 290.563C214.672 290.481 214.626 290.37 214.626 290.255C214.626 290.139 214.672 290.029 214.754 289.947C214.836 289.865 214.947 289.819 215.063 289.819Z" fill="white"/>
<path d="M106.836 270.446H95.1099V328.387H106.836V270.446Z" fill="#2A9D8F"/>
<path opacity="0.1" d="M98.2457 270.446H106.846V328.387H103.563L98.2457 270.446Z" fill="#111827"/>
<path d="M95.1054 340.373H86.5052V373.852H95.1054V340.373Z" fill="#2A9D8F"/>
<path opacity="0.1" d="M88.8055 340.373H95.1095V373.861H92.6997L88.8055 340.373Z" fill="#111827"/>
<path d="M95.1071 270.446H85.2583V328.387H95.1071V270.446Z" fill="#2A9D8F"/>
<path opacity="0.1" d="M95.1098 328.387H92.3944L89.0154 270.446H95.1098V328.387Z" fill="#111827"/>
<path d="M106.836 328.378H95.1099V385.848H106.836V328.378Z" fill="#37474F"/>
<path opacity="0.1" d="M106.839 385.858H103.6L99.5749 328.387H106.839V385.858Z" fill="#111827"/>
<path d="M84.9685 292.896H85.2566V322.071H84.9685C83.9681 322.071 83.0088 321.674 82.3014 320.968C81.594 320.263 81.1966 319.305 81.1966 318.307V296.65C81.1989 295.654 81.5974 294.699 82.3045 293.995C83.0116 293.291 83.9697 292.896 84.9685 292.896Z" fill="#2A9D8F"/>
<path opacity="0.1" d="M85.2614 292.895V322.07C84.9674 322.076 84.6739 322.043 84.3883 321.974L83.2707 293.409C83.8774 293.066 84.5641 292.888 85.2614 292.895Z" fill="#111827"/>
<path d="M84.5496 350.26H86.5054V363.972H84.5496C84.1093 363.972 83.6733 363.886 83.2665 363.717C82.8597 363.549 82.4901 363.303 82.1788 362.992C81.8675 362.682 81.6205 362.313 81.452 361.907C81.2835 361.501 81.1968 361.066 81.1968 360.627V353.614C81.1956 353.174 81.2815 352.738 81.4495 352.331C81.6175 351.924 81.8643 351.554 82.1757 351.243C82.4872 350.931 82.8572 350.684 83.2645 350.515C83.6719 350.347 84.1085 350.26 84.5496 350.26Z" fill="#455A64"/>
<path d="M363.197 328.378H374.923V270.437H363.197V328.378Z" fill="#2A9D8F"/>
<path opacity="0.1" d="M371.795 270.446H363.195V328.387H366.478L371.795 270.446Z" fill="#111827"/>
<path d="M374.919 373.862H383.52V340.383H374.919V373.862Z" fill="#2A9D8F"/>
<path opacity="0.1" d="M381.227 340.373H374.923V373.861H377.333L381.227 340.373Z" fill="#111827"/>
<path d="M374.93 328.378H384.779V270.437H374.93V328.378Z" fill="#2A9D8F"/>
<path opacity="0.1" d="M374.923 328.387H377.638L381.017 270.446H374.923V328.387Z" fill="#111827"/>
<path d="M363.197 385.856H374.923V328.386H363.197V385.856Z" fill="#37474F"/>
<path opacity="0.1" d="M363.195 385.858H366.434L370.459 328.387H363.195V385.858Z" fill="#111827"/>
<path d="M385.068 322.053H384.78V292.878H385.068C386.069 292.878 387.028 293.275 387.736 293.981C388.443 294.686 388.84 295.644 388.84 296.642V318.299C388.84 319.297 388.443 320.254 387.736 320.96C387.028 321.666 386.069 322.062 385.068 322.062V322.053Z" fill="#2A9D8F"/>
<path opacity="0.1" d="M384.779 292.895V322.07C385.073 322.076 385.366 322.043 385.652 321.974L386.796 293.418C386.182 293.067 385.486 292.886 384.779 292.895Z" fill="#111827"/>
<path d="M385.475 363.973H383.519V350.261H385.475C386.364 350.261 387.217 350.613 387.846 351.241C388.475 351.868 388.828 352.719 388.828 353.606V360.619C388.829 361.059 388.743 361.495 388.575 361.902C388.407 362.309 388.161 362.678 387.849 362.99C387.538 363.302 387.168 363.549 386.76 363.717C386.353 363.886 385.916 363.973 385.475 363.973Z" fill="#455A64"/>
<path opacity="0.1" d="M339.1 381.587C323.06 395.02 292.047 401.763 266.002 404.673C328.509 392.102 308.209 385.403 307.466 385.159C347.63 368.772 356.248 337.82 356.248 311.781C356.248 274.417 343.937 248.135 324.973 234.919C302.603 219.343 266.473 232.306 235.041 232.306C231.138 232.306 227.183 232.114 223.14 231.783C247.631 232.384 293.034 224.282 293.034 215.109C293.034 205.936 269.267 194.645 245.833 190.298C276.698 192.041 328.386 201.85 346.94 235.851C367.869 274.234 362.56 361.925 339.1 381.587Z" fill="#111827"/>
<path d="M214.56 365.985C219.611 364.709 224.812 364.116 230.022 364.223C234.658 364.458 245.108 366.477 248.288 367.054C251.468 367.631 255.698 366.968 255.452 368.325C255.205 369.682 240.215 374.233 233.716 373.293C227.216 372.353 214.56 365.985 214.56 365.985Z" fill="#37474F"/>
<path d="M236.051 336.5C236.051 334.364 235.976 332.163 235.944 329.983C235.944 322.772 235.815 315.561 235.644 308.339C235.501 302.641 235.326 296.915 235.119 291.16C235.119 291.16 235.119 291.107 235.055 291.086V286.396C235.055 286.396 234.991 286.332 234.926 286.342C234.862 286.353 234.809 286.342 234.809 286.396C234.809 287.966 234.809 289.537 234.809 291.096C234.809 291.096 234.809 291.096 234.809 291.171C234.423 301.363 234.091 311.555 234.006 321.747C234.006 323.819 234.006 325.892 234.006 327.964C233.906 334.624 233.87 341.272 233.898 347.91C233.898 348.978 233.898 350.047 233.898 351.115C233.898 357.204 233.973 387.63 233.984 393.709C233.984 394.04 234.455 394.201 234.958 394.222C235.462 394.243 236.158 394.062 236.158 393.688C236.158 386.979 236.222 355.922 236.222 349.213C236.072 344.961 236.136 340.731 236.051 336.5Z" fill="#263238"/>
<path d="M225.277 297.273C225.277 297.273 212.878 288.074 201.111 294.292C189.343 300.51 187.491 324.398 187.491 324.398C187.491 324.398 204.772 326.865 215.662 316.524C226.155 306.535 225.277 297.273 225.277 297.273Z" fill="#2A9D8F"/>
<path d="M228.642 297.837C226.362 296.938 223.894 296.615 221.458 296.897C220.954 296.815 220.447 296.765 219.937 296.747L218.213 296.619L214.594 296.363C212.153 296.181 209.69 296.031 207.249 295.786C207.163 295.786 207.153 295.935 207.249 295.946C209.658 296.245 212.067 296.598 214.498 296.833C215.74 296.961 216.982 297.089 218.235 297.174L219.145 297.271L218.074 297.538C216.111 298.099 214.212 298.866 212.41 299.824C211.435 299.995 210.461 300.262 209.508 300.497C207.966 300.85 206.446 301.245 204.915 301.651C201.906 302.431 198.929 303.317 195.931 304.183C195.911 304.183 195.892 304.191 195.878 304.205C195.864 304.219 195.856 304.238 195.856 304.257C195.856 304.277 195.864 304.296 195.878 304.31C195.892 304.324 195.911 304.332 195.931 304.332C198.919 303.606 201.917 302.933 204.915 302.196C206.36 301.854 207.816 301.512 209.273 301.127L210.44 300.892C207.107 302.949 204.131 305.533 201.628 308.541C199.209 311.491 197.152 314.719 195.503 318.156C195.503 318.242 195.578 318.327 195.631 318.242C197.669 314.695 200.163 311.43 203.052 308.531C203.052 308.691 202.934 308.862 202.891 309.022C202.655 309.749 202.431 310.486 202.195 311.159C201.735 312.612 201.274 314.075 200.835 315.539C200.835 315.635 200.953 315.667 200.985 315.539C201.51 314.129 202.056 312.708 202.506 311.266L203.244 309.129C203.373 308.776 203.491 308.413 203.619 308.061C203.652 307.948 203.691 307.838 203.737 307.73C205.118 306.386 206.588 305.136 208.138 303.99C210.189 302.551 212.398 301.35 214.723 300.411L214.594 301.042C214.466 301.608 214.348 302.174 214.23 302.74C213.984 303.905 213.759 305.08 213.523 306.255C213.063 308.648 212.774 311.073 212.324 313.477C212.324 313.497 212.332 313.516 212.346 313.53C212.36 313.544 212.379 313.552 212.399 313.552C212.419 313.552 212.438 313.544 212.452 313.53C212.466 313.516 212.474 313.497 212.474 313.477C213.031 311.073 213.748 308.702 214.284 306.287C214.551 305.08 214.83 303.873 215.076 302.666C215.194 302.099 215.312 301.533 215.419 300.967C215.483 300.647 215.558 300.337 215.601 300.016C215.825 299.931 216.04 299.824 216.275 299.738C219.487 298.542 223.117 297.666 226.586 298.328C228.231 298.633 229.776 299.337 231.083 300.379C232.39 301.42 233.42 302.767 234.082 304.3C234.189 304.567 234.617 304.396 234.553 304.129C234.132 302.691 233.378 301.372 232.351 300.279C231.324 299.185 230.053 298.349 228.642 297.837Z" fill="#263238"/>
<path d="M209.683 308.03C209.33 309.601 208.977 311.171 208.613 312.741C208.223 314.245 207.933 315.772 207.745 317.314C207.745 317.378 207.831 317.378 207.853 317.314C208.312 315.801 208.669 314.259 208.923 312.699C209.223 311.16 209.534 309.611 209.833 308.062C209.855 307.977 209.705 307.934 209.683 308.03Z" fill="#263238"/>
<path d="M197.676 312.016C196.102 312.818 194.571 313.726 192.922 314.377C192.909 314.379 192.896 314.383 192.884 314.39C192.873 314.397 192.863 314.407 192.857 314.419C192.85 314.43 192.846 314.443 192.845 314.457C192.844 314.47 192.846 314.484 192.851 314.496C192.857 314.509 192.865 314.519 192.875 314.528C192.886 314.537 192.898 314.543 192.911 314.546C192.924 314.549 192.938 314.549 192.951 314.545C192.964 314.542 192.976 314.536 192.986 314.527C194.605 313.793 196.184 312.976 197.719 312.08C197.719 312.08 197.719 311.995 197.676 312.016Z" fill="#263238"/>
<path d="M235.069 283.373C235.069 283.373 249.331 278.181 251.773 266.215C254.214 254.25 247.019 241.847 247.019 241.847C247.019 241.847 233.217 250.009 230.315 259.1C227.413 268.192 235.069 283.373 235.069 283.373Z" fill="#2A9D8F"/>
<path d="M234.569 299.898C234.387 298.2 234.344 296.48 234.259 294.77C234.173 293.061 234.152 291.501 234.162 289.867C234.175 286.533 234.364 283.202 234.73 279.889C234.965 277.752 235.297 275.679 235.672 273.596C235.586 273.34 235.522 273.073 235.458 272.816C235.329 272.357 235.201 271.897 235.083 271.438C234.837 270.509 234.601 269.568 234.366 268.628C233.841 266.577 233.402 264.505 232.856 262.453C232.856 262.357 232.985 262.293 233.006 262.389C233.563 264.408 234.205 266.385 234.773 268.393C235.051 269.387 235.34 270.37 235.608 271.353C235.704 271.716 235.801 272.068 235.886 272.421C236.652 268.403 237.639 264.43 238.841 260.52L239.355 258.949C239.355 258.832 239.355 258.704 239.355 258.575C239.355 258.266 239.355 257.956 239.355 257.646L239.227 255.734C239.141 254.484 239.002 253.234 238.809 251.994C238.805 251.982 238.803 251.968 238.805 251.954C238.806 251.94 238.811 251.927 238.819 251.916C238.827 251.905 238.838 251.895 238.85 251.889C238.862 251.883 238.876 251.879 238.89 251.879C238.903 251.879 238.917 251.883 238.929 251.889C238.942 251.895 238.952 251.905 238.96 251.916C238.968 251.927 238.973 251.94 238.975 251.954C238.976 251.968 238.975 251.982 238.97 251.994C239.184 253.255 239.388 254.516 239.548 255.787C239.634 256.396 239.687 257.005 239.73 257.625C239.73 257.731 239.73 257.838 239.73 257.934C240.651 255.232 241.69 252.593 242.75 249.901C242.75 249.804 242.921 249.901 242.889 249.965C240.928 255.275 239.385 260.729 238.274 266.278C238.563 266.025 238.867 265.789 239.184 265.573C240.169 264.9 241.176 264.27 242.193 263.661C244.334 262.389 246.476 261.107 248.553 259.772C248.639 259.718 248.735 259.836 248.649 259.889C246.69 261.257 244.773 262.678 242.846 264.099C241.947 264.772 241.015 265.413 240.094 266.064C239.341 266.598 238.625 267.184 237.953 267.816C237.867 268.244 237.771 268.66 237.696 269.077C237.321 271 237.01 272.934 236.721 274.878L238.017 273.981C239.002 273.308 239.987 272.645 240.994 271.994C242.953 270.712 244.913 269.419 246.797 268.03C246.872 267.966 246.968 268.094 246.893 268.148C244.987 269.579 243.135 271.085 241.283 272.57C240.383 273.276 239.462 273.981 238.542 274.654L237.139 275.658C236.962 275.808 236.768 275.937 236.561 276.043C235.983 280.209 235.554 284.408 235.308 288.606C235.19 290.444 235.126 292.292 235.072 294.14C235.019 295.988 235.072 297.922 235.072 299.823C235.169 300.197 234.601 300.294 234.569 299.898Z" fill="#263238"/>
<path d="M234.751 261.846C234.444 260.421 234.145 258.979 233.852 257.519C233.852 257.423 233.98 257.402 234.002 257.519C234.312 258.929 234.634 260.339 234.976 261.739C235.319 263.138 235.704 264.549 235.897 266.012C235.417 264.652 235.034 263.26 234.751 261.846Z" fill="#263238"/>
<path d="M241.761 323.989C241.761 323.989 244.213 340.943 256.998 346.883C269.782 352.823 285.362 346.883 285.362 346.883C285.362 346.883 279.237 310.186 241.761 323.989Z" fill="#2A9D8F"/>
<path d="M276.561 335.85C275.372 335.711 274.205 335.519 273.038 335.305L271.314 334.974L270.426 334.803C270.083 334.482 269.74 334.151 269.355 333.841C266.933 331.717 264.316 329.825 261.538 328.19C260.026 327.294 258.46 326.491 256.849 325.786H257.095L261.303 325.968C264.108 326.096 266.914 326.16 269.719 326.342C269.815 326.342 269.815 326.192 269.719 326.181C266.903 325.989 264.108 325.69 261.292 325.444L257.213 325.081L255.071 324.899L254.536 324.835C253.797 324.568 253.069 324.312 252.33 324.087C248.844 322.888 245.092 322.681 241.494 323.489C238.282 324.312 235.07 326.406 234.235 329.792C234.235 329.91 234.395 329.995 234.438 329.878C235.637 327.047 238.785 325.605 241.623 325.038C243.533 324.674 245.492 324.634 247.415 324.921C247.545 325.794 247.76 326.653 248.058 327.485C248.411 328.681 248.765 329.878 249.129 331.064C249.846 333.446 250.649 335.807 251.356 338.2C251.356 338.296 251.527 338.2 251.506 338.147C250.906 335.775 250.435 333.371 249.835 330.978C249.557 329.814 249.257 328.639 248.968 327.474C248.8 326.658 248.586 325.852 248.326 325.06C249.396 325.263 250.553 325.53 251.645 325.84C253.618 326.432 255.552 327.146 257.437 327.976C257.62 329.194 257.887 330.391 258.166 331.576C258.519 333.083 258.904 334.557 259.386 336.021C259.382 336.032 259.38 336.044 259.381 336.056C259.383 336.069 259.387 336.08 259.394 336.09C259.401 336.101 259.41 336.109 259.421 336.115C259.432 336.12 259.444 336.123 259.456 336.123C259.468 336.123 259.48 336.12 259.491 336.115C259.502 336.109 259.511 336.101 259.518 336.09C259.525 336.08 259.529 336.069 259.53 336.056C259.532 336.044 259.53 336.032 259.525 336.021C259.525 335.935 259.525 335.839 259.525 335.743C259.236 334.354 258.926 332.976 258.637 331.587C258.401 330.519 258.176 329.354 257.941 328.233C259.525 328.948 261.089 329.728 262.598 330.594C262.598 330.935 262.716 331.288 262.759 331.609C262.855 332.185 262.962 332.762 263.07 333.339C263.305 334.653 263.573 335.957 263.883 337.249C264.441 339.749 265.156 342.211 266.025 344.621C266.014 344.637 266.009 344.655 266.009 344.674C266.009 344.693 266.014 344.712 266.025 344.728C266.055 344.751 266.081 344.78 266.1 344.813C266.1 344.877 266.25 344.813 266.228 344.728C265.639 342.217 264.965 339.728 264.408 337.196C264.13 335.935 263.851 334.685 263.605 333.414C263.476 332.784 263.359 332.153 263.241 331.523C263.241 331.341 263.177 331.149 263.155 330.946C264.872 331.962 266.534 333.067 268.134 334.258C270.886 336.328 273.435 338.653 275.747 341.202C275.843 341.309 276.025 341.202 275.94 341.053C274.988 339.765 273.969 338.527 272.888 337.345C272.246 336.651 271.582 335.989 270.897 335.337H271.111C271.71 335.433 272.31 335.529 272.91 335.604C274.098 335.764 275.276 335.882 276.464 336.01C276.614 336.01 276.657 335.86 276.561 335.85Z" fill="#263238"/>
<path d="M267.574 341.599C267.574 341.45 267.574 341.311 267.51 341.161C267.445 341.011 267.381 340.798 267.349 340.606C267.081 339.462 266.867 338.33 266.653 337.176C266.653 337.101 266.514 337.176 266.514 337.176C266.595 338.697 266.924 340.194 267.488 341.61H267.585L267.574 341.599Z" fill="#263238"/>
<path d="M256.865 341.331C256.867 341.321 256.867 341.31 256.864 341.3C256.861 341.291 256.855 341.281 256.848 341.274C256.84 341.267 256.831 341.261 256.821 341.258C256.811 341.255 256.801 341.255 256.79 341.256C256.437 339.761 256.084 338.254 255.72 336.737L255.238 334.355C255.163 333.928 255.077 333.5 255.002 333.062C254.966 332.694 254.872 332.333 254.724 331.994C254.718 331.98 254.709 331.968 254.696 331.96C254.684 331.952 254.669 331.947 254.654 331.947C254.639 331.947 254.625 331.952 254.612 331.96C254.6 331.968 254.59 331.98 254.585 331.994C254.574 332.765 254.682 333.532 254.906 334.27C255.067 335.103 255.227 335.925 255.409 336.748C255.773 338.425 256.202 340.092 256.673 341.737C256.673 341.833 256.844 341.812 256.844 341.737L256.865 341.331Z" fill="#263238"/>
<path d="M275.386 330.967C273.051 330.646 270.717 330.305 268.372 330.027C268.276 330.027 268.233 330.166 268.372 330.176C270.696 330.518 273.041 330.807 275.375 331.117C275.439 331.127 275.482 330.978 275.386 330.967Z" fill="#263238"/>
<path d="M214.56 365.985C213.104 366.434 211.766 372.107 212.708 375.055C213.65 378.004 208.2 387.181 207.087 390.952C205.973 394.723 206.787 395.781 207.087 396.486C207.387 397.191 204.356 398.484 204.752 399.189C205.149 399.894 208.372 400.257 209.828 400.012C211.284 399.766 219.004 403.452 226.628 404.37C239.262 405.898 252.871 402.084 255.463 401.165C256.308 400.845 259.349 401.828 260.516 401.358C261.684 400.888 260.442 398.794 260.324 398.089C260.206 397.383 261.138 395.225 261.298 390.61C261.459 385.995 253.268 376.113 253.653 374.607C254.039 373.1 255.559 369.137 255.452 368.346C255.345 367.556 242.335 372.128 233.716 371.551C225.096 370.974 216.863 365.28 214.56 365.985Z" fill="#455A64"/>
<path d="M346.916 235.86C325.961 197.468 262.782 189.976 235.008 189.976C207.234 189.976 144.055 197.468 123.109 235.86C102.162 274.252 107.462 361.926 130.967 381.588C154.471 401.25 209.923 406.564 235.017 406.564C260.11 406.564 315.65 401.25 339.111 381.588C362.571 361.926 367.88 274.244 346.916 235.86ZM235.017 396.676C131.464 396.676 113.792 349.163 113.792 311.79C113.792 274.418 126.103 248.135 145.068 234.919C167.437 219.343 203.567 232.306 234.999 232.306C266.432 232.306 302.588 219.334 324.931 234.919C343.895 248.135 356.206 274.418 356.206 311.79C356.206 349.163 338.569 396.676 235.017 396.676Z" fill="#97D0C9"/>
<g opacity="0.1">
<path d="M345.074 355.271C339.661 363.93 331.864 371.945 320.784 378.574C329.038 370.879 337.135 363.111 345.074 355.271Z" fill="white"/>
<path d="M341.209 251.951C293.76 303.476 241.494 350.368 185.121 391.99C178.637 390.608 172.259 388.771 166.034 386.493C226.026 343.475 281.494 294.501 331.587 240.321C335.238 243.811 338.467 247.714 341.209 251.951Z" fill="white"/>
<path d="M352.013 276.996C311.971 320.153 268.572 360.083 222.223 396.415C220.817 396.354 219.429 396.293 218.05 396.214C265.676 359.155 310.206 318.297 351.201 274.043C351.506 275.01 351.786 275.995 352.013 276.996Z" fill="white"/>
<path d="M283.858 227.742C235.859 276.159 183.338 319.895 127.01 358.355C126.486 357.614 125.98 356.865 125.508 356.116C180.869 318.358 232.555 275.498 279.885 228.099C281.221 227.96 282.539 227.847 283.858 227.742Z" fill="white"/>
<path d="M270.306 229.172C224.739 274.001 175.232 314.662 122.381 350.663C115.824 338.014 113.834 324.337 113.834 311.792C113.834 308.505 113.927 305.311 114.113 302.21C146.234 279.885 177.075 255.78 206.489 230.008C216.094 231.202 225.777 232.325 235.058 232.325C246.461 232.317 258.519 230.6 270.306 229.172Z" fill="white"/>
</g>
</svg>
