<svg width="275" height="273" viewBox="0 0 275 273" fill="none" xmlns="http://www.w3.org/2000/svg">
<circle cx="136.188" cy="136.188" r="136.188" transform="matrix(-1 0 0 1 273.836 0.113281)" fill="#FAE598"/>
<mask id="mask0_2817_1993" style="mask-type:alpha" maskUnits="userSpaceOnUse" x="0" y="0" width="274" height="273">
<ellipse cx="136.548" cy="136.188" rx="136.548" ry="136.188" transform="matrix(-1 0 0 1 273.836 0.362305)" fill="#FAE598"/>
</mask>
<g mask="url(#mask0_2817_1993)">
<path d="M84.3313 194.675L78.2023 195.808L76.8341 202.263L75.4659 195.808L69.3369 194.675L75.4437 193.187L76.8341 187.099L78.2245 193.187L84.3313 194.675Z" fill="white"/>
<path d="M25.9429 245.981L22.5169 246.614L21.7493 250.225L20.9818 246.614L17.5558 245.981L20.9707 245.148L21.7493 241.748L22.528 245.148L25.9429 245.981Z" fill="white"/>
<path d="M251.374 71.3826L247.948 72.0158L247.181 75.6264L246.413 72.0158L242.987 71.3826L246.402 70.5494L247.181 67.1499L247.959 70.5494L251.374 71.3826Z" fill="white"/>
<path d="M128.129 231.637L124.703 232.271L123.947 235.87L123.179 232.271L119.753 231.637L123.157 230.804L123.947 227.394L124.725 230.804L128.129 231.637Z" fill="white"/>
<path d="M131.537 93.8903L128.111 94.5235L127.344 98.123L126.576 94.5235L123.15 93.8792L126.565 93.0571L127.344 89.6465L128.122 93.0571L131.537 93.8903Z" fill="white"/>
<path d="M50.2158 132.218C50.0437 132.24 49.8854 132.323 49.7707 132.453C49.656 132.583 49.5927 132.751 49.5927 132.924C49.5927 133.097 49.656 133.264 49.7707 133.394C49.8854 133.524 50.0437 133.608 50.2158 133.629C50.3879 133.608 50.5461 133.524 50.6608 133.394C50.7755 133.264 50.8389 133.097 50.8389 132.924C50.8389 132.751 50.7755 132.583 50.6608 132.453C50.5461 132.323 50.3879 132.24 50.2158 132.218Z" fill="white"/>
<path d="M177.079 89.269C176.893 89.269 176.715 89.3428 176.583 89.474C176.452 89.6053 176.378 89.7833 176.378 89.9689C176.378 90.1546 176.452 90.3326 176.583 90.4638C176.715 90.5951 176.893 90.6688 177.079 90.6688C177.265 90.6688 177.443 90.5951 177.575 90.4638C177.706 90.3326 177.78 90.1546 177.78 89.9689C177.78 89.7833 177.706 89.6053 177.575 89.474C177.443 89.3428 177.265 89.269 177.079 89.269Z" fill="white"/>
<path d="M122.976 188.4C122.73 188.426 122.502 188.542 122.337 188.725C122.171 188.909 122.08 189.147 122.08 189.394C122.08 189.641 122.171 189.879 122.337 190.063C122.502 190.247 122.73 190.362 122.976 190.388C123.221 190.362 123.449 190.247 123.614 190.063C123.78 189.879 123.871 189.641 123.871 189.394C123.871 189.147 123.78 188.909 123.614 188.725C123.449 188.542 123.221 188.426 122.976 188.4Z" fill="white"/>
<path d="M230.544 255.278C230.282 255.278 230.03 255.382 229.844 255.568C229.658 255.753 229.554 256.005 229.554 256.267C229.554 256.529 229.658 256.781 229.844 256.966C230.03 257.152 230.282 257.256 230.544 257.256C230.807 257.256 231.059 257.152 231.244 256.966C231.43 256.781 231.534 256.529 231.534 256.267C231.534 256.005 231.43 255.753 231.244 255.568C231.059 255.382 230.807 255.278 230.544 255.278Z" fill="white"/>
<path d="M167.68 213.063C168.569 214.374 239.904 215.662 244.12 214.874C244.322 214.836 244.52 214.776 244.709 214.696C250.015 212.852 269.114 198.876 271.05 197.31C275.844 193.432 252.051 89.6371 241.016 77.2501C238.236 74.1395 185.522 72.7174 175.566 76.0725C171.261 77.5278 160.538 90.6147 160.082 92.3145C159.571 94.8252 166.79 211.763 167.68 213.063Z" fill="#FFB802"/>
<path opacity="0.1" d="M167.68 213.063C168.569 214.374 239.904 215.662 244.12 214.874C244.322 214.836 244.52 214.776 244.709 214.696C250.015 212.852 269.114 198.876 271.05 197.31C275.844 193.432 252.051 89.6371 241.016 77.2501C238.236 74.1395 185.522 72.7174 175.566 76.0725C171.261 77.5278 160.538 90.6147 160.082 92.3145C159.571 94.8252 166.79 211.763 167.68 213.063Z" fill="#111827"/>
<path opacity="0.1" d="M167.679 213.063C168.569 214.374 239.903 215.663 244.119 214.874C244.322 214.836 244.519 214.777 244.709 214.696C246.678 196.677 225.198 93.4256 224.164 92.7035C223.129 91.9814 172.373 92.4368 160.093 92.3035C159.57 94.8254 166.789 211.763 167.679 213.063Z" fill="#111827"/>
<path d="M229.508 116.522C229.575 116.888 229.653 117.233 229.72 117.633C237.74 115.133 245.938 112.867 253.746 109.756L253.613 109.29C245.715 111.967 237.573 114.122 229.508 116.522Z" fill="#FFB802"/>
<path d="M230.28 120.187C230.357 120.543 230.435 120.91 230.502 121.298C238.622 118.777 246.92 116.477 254.829 113.333L254.696 112.877C246.653 115.566 238.4 117.766 230.28 120.187Z" fill="#FFB802"/>
<path d="M231.025 123.867C231.091 124.222 231.169 124.578 231.247 124.977H231.47C239.601 122.445 247.921 120.145 255.841 117.012C255.841 116.856 255.763 116.701 255.719 116.545C247.632 119.278 239.334 121.478 231.169 123.933C231.124 123.905 231.075 123.883 231.025 123.867Z" fill="#FFB802"/>
<path d="M242.271 186.789C242.327 187.156 242.371 187.511 242.427 187.9C243.606 187.422 244.763 186.922 245.931 186.422C253.717 182.556 261.737 178.901 269.19 174.435C269.19 174.28 269.134 174.113 269.101 173.958C261.37 178.057 253.339 181.634 245.486 185.422C244.44 185.856 243.361 186.333 242.271 186.789Z" fill="#FFB802"/>
<path d="M242.845 190.612C242.845 190.968 242.945 191.323 242.989 191.656C244.536 191.057 246.048 190.423 247.572 189.757C255.036 186.057 262.711 182.547 269.908 178.303C269.908 178.125 269.908 177.947 269.819 177.781C262.378 181.68 254.647 185.113 247.105 188.757C245.681 189.401 244.258 190.023 242.845 190.612Z" fill="#FFB802"/>
<path d="M243.329 194.433L243.462 195.544C245.353 194.788 247.244 194.022 249.113 193.2C256.254 189.667 263.573 186.29 270.492 182.301C270.492 182.112 270.492 181.912 270.403 181.724C263.262 185.412 255.876 188.711 248.646 192.2C246.933 192.933 245.153 193.688 243.329 194.433Z" fill="#FFB802"/>
<path d="M224.846 150.85C225.169 151.671 225.725 152.379 226.446 152.887C227.166 153.395 228.021 153.682 228.903 153.71C229.784 153.739 230.656 153.509 231.408 153.049C232.161 152.589 232.762 151.919 233.137 151.121C233.513 150.323 233.646 149.433 233.52 148.561C233.395 147.689 233.016 146.872 232.431 146.212C231.846 145.553 231.081 145.078 230.229 144.848C229.377 144.618 228.476 144.642 227.638 144.918C227.065 145.124 226.537 145.441 226.087 145.851C225.636 146.261 225.27 146.755 225.011 147.306C224.752 147.857 224.604 148.454 224.575 149.062C224.547 149.67 224.639 150.278 224.846 150.85Z" fill="#FFB802"/>
<path opacity="0.1" d="M226.163 150.362C226.384 150.923 226.765 151.407 227.259 151.755C227.753 152.102 228.338 152.298 228.941 152.317C229.545 152.336 230.141 152.179 230.656 151.863C231.171 151.548 231.582 151.09 231.839 150.544C232.096 149.998 232.187 149.389 232.101 148.791C232.016 148.194 231.757 147.635 231.357 147.184C230.956 146.732 230.433 146.407 229.85 146.249C229.267 146.091 228.65 146.107 228.076 146.296C227.283 146.581 226.636 147.17 226.277 147.933C225.918 148.695 225.877 149.569 226.163 150.362Z" fill="#111827"/>
<path d="M227.776 167.692C228.096 168.513 228.651 169.223 229.372 169.733C230.092 170.243 230.946 170.531 231.829 170.561C232.711 170.591 233.583 170.362 234.337 169.903C235.091 169.443 235.693 168.773 236.069 167.975C236.445 167.177 236.579 166.287 236.454 165.414C236.329 164.541 235.95 163.723 235.364 163.063C234.779 162.403 234.013 161.929 233.16 161.699C232.307 161.469 231.406 161.494 230.568 161.77C229.412 162.187 228.469 163.044 227.945 164.154C227.422 165.264 227.361 166.537 227.776 167.692Z" fill="#FFB802"/>
<path opacity="0.1" d="M229.123 167.248C229.344 167.809 229.725 168.293 230.219 168.641C230.713 168.988 231.298 169.184 231.901 169.203C232.505 169.222 233.101 169.065 233.616 168.75C234.131 168.435 234.542 167.976 234.799 167.43C235.056 166.884 235.147 166.275 235.061 165.678C234.976 165.081 234.717 164.522 234.317 164.07C233.916 163.618 233.393 163.293 232.81 163.135C232.227 162.978 231.61 162.994 231.036 163.182C230.243 163.468 229.596 164.057 229.237 164.819C228.878 165.582 228.837 166.455 229.123 167.248Z" fill="#111827"/>
<path d="M170.611 118.301C158.12 144.064 147.552 170.515 132.691 174.959C118.565 179.125 83.5147 144.752 77.3857 133.165C75.2722 129.177 104.316 110.613 108.209 113.479C115.55 118.879 129.032 136.132 131.245 135.609C133.459 135.087 146.629 118.945 163.325 104.181C173.448 95.2044 179.276 100.459 170.611 118.301Z" fill="#D3766A"/>
<path d="M83.5863 141.707C80.6942 138.94 65.0213 120.232 62.4518 115.633C59.8822 111.033 53.642 97.2911 56.979 95.0137C60.316 92.7363 62.4629 96.6023 62.4629 96.6023C62.4629 96.6023 60.7276 90.3811 64.2871 88.3814C67.8466 86.3817 71.0168 92.5363 71.0168 92.5363C71.0168 92.5363 69.6931 86.0151 73.3861 84.2709C77.0791 82.5267 79.2259 89.2479 79.2259 89.2479C79.2259 89.2479 77.7465 83.3377 81.395 83.1933C85.7776 83.0044 87.2793 94.2027 90.4384 99.0686C91.1614 100.18 106.59 120.421 106.59 120.421L83.5863 141.707Z" fill="#37474F"/>
<path d="M79.0751 88.6365C80.1875 96.8686 82.1118 100.268 87.3732 106.534C87.4845 106.656 87.3176 106.845 87.2064 106.723C81.4889 101.057 78.4633 97.1241 78.6747 88.6698C78.6858 88.2921 79.0195 88.281 79.0751 88.6365Z" fill="#263238"/>
<path d="M70.9765 91.8815C72.8897 100.325 74.9364 104.102 79.9642 111.012C80.031 111.112 79.8753 111.234 79.7974 111.145C74.2913 104.724 71.3658 100.736 70.5649 92.037C70.5204 91.6482 70.8875 91.4926 70.9765 91.8815Z" fill="#263238"/>
<path d="M62.768 96.9476C65.2151 105.002 67.2841 109.168 73.0349 115.3C73.0568 115.33 73.0676 115.366 73.0654 115.402C73.0632 115.439 73.0481 115.474 73.0228 115.5C72.9976 115.527 72.9637 115.544 72.9273 115.548C72.8908 115.552 72.8541 115.543 72.8236 115.523C66.3497 109.846 63.7246 104.658 62.5344 97.0476C62.4565 96.5365 62.6456 96.4143 62.768 96.9476Z" fill="#263238"/>
<g opacity="0.4">
<path d="M111.402 115.566L81.7689 140.762C82.6541 144.645 84.6119 148.201 87.4197 151.028C98.9213 162.337 122.381 179.19 132.18 176.401C145.94 172.491 165.629 135.574 173.27 111.5C178.554 94.8361 169.466 97.7912 160.089 106.168C150.712 114.544 131.491 134.008 130.378 133.741C129.711 133.586 119.9 122.154 117.764 119.877C116.07 117.895 113.872 116.406 111.402 115.566Z" fill="white"/>
</g>
<path opacity="0.1" d="M90.1587 147.329C94.5302 143.585 111.849 127.621 115.364 123.922C115.598 123.655 115.498 123.444 115.209 123.677C101.861 134.575 94.0742 143.263 90.0141 147.151C89.914 147.251 90.0475 147.429 90.1587 147.329Z" fill="#111827"/>
<path opacity="0.1" d="M123.75 175.569C127.087 176.68 129.968 177.025 132.182 176.403C145.93 172.503 165.63 135.576 173.261 111.501C173.439 110.968 173.594 110.39 173.728 109.946C173.861 109.502 174.039 108.835 174.162 108.28L174.262 107.835C175.185 103.714 174.885 101.292 173.784 100.181C173.486 99.8894 173.124 99.6724 172.727 99.5477C172.201 99.4096 171.652 99.3793 171.114 99.4588C170.626 99.6429 170.156 99.8735 169.712 100.148C157.276 118.7 134.762 157.094 123.75 175.569Z" fill="#000102"/>
<path d="M129.111 132.343L131.703 132.387L132.782 174.481L125.44 174.37L129.111 132.343Z" fill="#FFB802"/>
<path d="M137.305 160.071C142.744 161.448 144.212 171.891 140.13 174.124C134.702 177.09 119.874 177.935 116.059 174.791C113.467 172.658 112.933 163.181 116.47 161.46C118.584 160.415 121.476 160.693 127.594 160.504C130.041 160.426 133.678 159.16 137.305 160.071Z" fill="#FFB802"/>
<path opacity="0.7" d="M137.305 160.071C142.744 161.448 144.212 171.891 140.13 174.124C134.702 177.09 119.874 177.935 116.059 174.791C113.467 172.658 112.933 163.181 116.47 161.46C118.584 160.415 121.476 160.693 127.594 160.504C130.041 160.426 133.678 159.16 137.305 160.071Z" fill="white"/>
<g opacity="0.7">
<path d="M116.148 162.97C115.326 164.841 114.997 166.891 115.192 168.924C115.387 170.958 116.099 172.908 117.26 174.59C116.389 170.781 116.015 166.875 116.148 162.97Z" fill="#FFB802"/>
<path d="M118.476 162.026C117.733 164.177 117.457 166.461 117.666 168.727C117.875 170.993 118.564 173.189 119.688 175.168C118.911 170.83 118.505 166.433 118.476 162.026Z" fill="#FFB802"/>
<path d="M121.113 161.826C120.353 164.096 120.075 166.499 120.298 168.883C120.52 171.266 121.237 173.577 122.404 175.668C121.534 171.105 121.102 166.47 121.113 161.826Z" fill="#FFB802"/>
<path d="M124.303 161.581C122.835 166.18 122.946 171.58 125.471 175.846C124.603 171.142 124.212 166.363 124.303 161.581Z" fill="#FFB802"/>
<path d="M140.212 173.068C141.047 171.293 141.393 169.327 141.213 167.374C141.033 165.421 140.334 163.551 139.188 161.958C140.037 165.597 140.381 169.335 140.212 173.068Z" fill="#FFB802"/>
<path d="M137.935 174.48C138.68 172.33 138.957 170.045 138.748 167.779C138.539 165.512 137.848 163.317 136.723 161.338C137.506 165.676 137.911 170.073 137.935 174.48Z" fill="#FFB802"/>
<path d="M135.297 174.68C136.057 172.412 136.337 170.011 136.116 167.63C135.896 165.248 135.181 162.939 134.017 160.849C134.878 165.412 135.306 170.047 135.297 174.691V174.68Z" fill="#FFB802"/>
<path d="M132.48 175.424C133.848 170.758 133.67 165.303 131.145 161.06C132.025 165.798 132.471 170.605 132.48 175.424Z" fill="#FFB802"/>
<path d="M130.058 175.613C131.426 170.947 131.248 165.493 128.723 161.238C129.602 165.979 130.049 170.791 130.058 175.613Z" fill="#FFB802"/>
<path d="M126.934 161.382C125.84 166.238 126.168 171.305 127.879 175.98C127.59 171.147 127.468 166.214 126.934 161.382Z" fill="#FFB802"/>
</g>
<path d="M120.067 448.717H180.011C180.011 448.717 181.98 445.539 181.123 434.941C177.908 397.402 172.836 326.169 173.203 324.269C173.804 321.147 207.197 172.848 207.197 172.848H151.312C151.312 172.848 147.174 191.589 139.711 215.986C127.553 255.613 114.616 310.171 113.014 323.425C110.879 341.078 115.239 407.267 117.53 436.841C117.864 440.891 118.716 444.883 120.067 448.717Z" fill="#FFB802"/>
<path opacity="0.4" d="M120.067 448.717H180.011C180.011 448.717 181.98 445.539 181.123 434.941C177.908 397.402 172.836 326.169 173.203 324.269C173.804 321.147 207.197 172.848 207.197 172.848H151.312C151.312 172.848 147.174 191.589 139.711 215.986C127.553 255.613 114.616 310.171 113.014 323.425C110.879 341.078 115.239 407.267 117.53 436.841C117.864 440.891 118.716 444.883 120.067 448.717Z" fill="white"/>
<path opacity="0.1" d="M164.612 315.483C166.203 306.829 168.583 298.352 170.663 289.854C174.868 272.59 179.106 255.34 183.377 238.106C185.513 229.485 187.652 220.864 189.795 212.243C190.908 207.899 191.964 203.544 193.077 199.212C194.189 194.879 195.391 190.746 196.414 186.458C196.803 184.714 197.026 185.669 196.514 187.891C195.491 192.335 194.478 196.779 193.422 201.223C191.316 210.043 189.206 218.861 187.092 227.674C182.88 245.205 178.627 262.728 174.334 280.244C172.198 289.035 170.055 297.815 167.904 306.584C166.81 310.788 165.93 315.045 165.268 319.338C164.699 323.858 164.557 328.422 164.846 332.969C165.313 342.123 166.169 351.266 166.859 360.409C167.549 369.553 168.238 361.143 168.928 370.308C170.3 388.527 171.657 406.751 172.999 424.977C173.166 427.288 173.333 429.599 173.477 431.91C173.477 432.687 173.077 432.776 173.01 432.032C171.408 414.012 169.673 395.782 168.305 377.74C166.937 359.698 165.569 359.398 164.2 341.435C163.856 336.924 163.466 332.414 163.466 327.881C163.471 323.722 163.854 319.572 164.612 315.483Z" fill="#111827"/>
<path d="M133.446 237.238C142.585 239.895 151.87 242.02 161.255 243.604C171.01 244.626 180.866 246.059 190.665 245.981C190.679 245.895 190.697 245.81 190.721 245.726C180.932 245.159 171.144 243.648 161.4 242.515C153.613 241.46 145.004 239.304 137.228 237.727L133.513 236.949C133.502 237.038 133.469 237.138 133.446 237.238Z" fill="#FFB802"/>
<path d="M132.467 240.838C141.774 243.568 151.234 245.746 160.798 247.36C170.431 248.382 180.175 249.781 189.853 249.748C189.853 249.648 189.853 249.57 189.908 249.481C180.242 248.87 170.565 247.404 160.987 246.271C153.201 245.227 144.592 243.06 136.805 241.483L132.578 240.605C132.511 240.627 132.489 240.694 132.467 240.838Z" fill="#FFB802"/>
<path d="M131.478 244.358C140.948 247.147 150.576 249.372 160.31 251.024C169.831 252.046 179.442 253.412 189.008 253.423L189.075 253.123C179.52 252.501 169.965 251.046 160.454 249.935C152.668 248.891 144.058 246.736 136.272 245.147L131.533 244.158C131.511 244.224 131.492 244.29 131.478 244.358Z" fill="#FFB802"/>
<path opacity="0.1" d="M162.107 172.848C165.144 196.177 174.343 254.346 179.905 293.796C189.605 250.469 206.356 176.169 207.08 172.959C207.082 172.937 207.082 172.914 207.08 172.892L162.107 172.848Z" fill="#111827"/>
<path d="M157.986 172.848C157.986 172.848 159.098 197.122 164.66 216.352C165.105 217.941 165.594 219.507 166.117 221.007C171.214 223.064 176.113 225.577 180.756 228.517C180.756 228.517 178.531 321.347 178.42 327.102C178.019 344.199 181.456 403.635 182.268 435.197C182.291 439.869 183.509 444.458 185.806 448.528L241.723 448.75C245.467 443.98 247.224 437.951 246.629 431.919C243.692 395.814 234.971 333.301 235.038 327.191C235.149 314.504 233.002 237.993 230.878 218.685C230.578 215.93 232.535 203.532 231.734 197.066C230.723 188.852 228.939 180.75 226.406 172.87L157.986 172.848Z" fill="#FFB802"/>
<path opacity="0.4" d="M157.986 172.848C157.986 172.848 159.098 197.122 164.66 216.352C165.105 217.941 165.594 219.507 166.117 221.007C171.214 223.064 176.113 225.577 180.756 228.517C180.756 228.517 178.531 321.347 178.42 327.102C178.019 344.199 181.456 403.635 182.268 435.197C182.291 439.869 183.509 444.458 185.806 448.528L241.723 448.75C245.467 443.98 247.224 437.951 246.629 431.919C243.692 395.814 234.971 333.301 235.038 327.191C235.149 314.504 233.002 237.993 230.878 218.685C230.578 215.93 232.535 203.532 231.734 197.066C230.723 188.852 228.939 180.75 226.406 172.87L157.986 172.848Z" fill="white"/>
<path d="M167.209 221.616C173.071 223.743 178.736 226.379 184.139 229.493C184.184 229.513 184.22 229.551 184.238 229.598C184.256 229.645 184.254 229.697 184.233 229.743C184.213 229.788 184.175 229.824 184.128 229.842C184.081 229.859 184.029 229.858 183.983 229.837C178.277 227.393 172.459 225.049 166.897 222.294C166.823 222.244 166.769 222.169 166.744 222.083C166.72 221.996 166.727 221.904 166.764 221.823C166.802 221.741 166.867 221.676 166.949 221.638C167.03 221.6 167.122 221.592 167.209 221.616Z" fill="#263238"/>
<path d="M165.348 182.523C165.348 182.323 165.704 182.278 165.704 182.523C165.704 189.288 166.093 195.243 166.661 201.564C166.928 204.497 169.297 220.717 174.447 219.539C175.292 219.339 175.726 218.495 175.871 217.217C175.848 215.537 175.62 213.865 175.192 212.24C174.625 208.841 174.169 205.441 173.88 202.008C173.284 195.623 173.352 189.194 174.08 182.822C174.08 182.778 174.098 182.736 174.129 182.705C174.16 182.673 174.203 182.656 174.247 182.656C174.291 182.656 174.334 182.673 174.365 182.705C174.396 182.736 174.414 182.778 174.414 182.822C174.261 191.677 174.778 200.53 175.96 209.307C176.605 213.518 178.73 219.872 174.314 220.528C169.898 221.183 166.905 210.529 166.349 207.641C164.931 199.346 164.595 190.903 165.348 182.523Z" fill="#263238"/>
<path d="M174.255 219.939C174.696 221.026 175.067 222.139 175.367 223.272C175.692 224.158 175.85 225.096 175.834 226.038C175.834 226.216 175.579 226.238 175.49 226.116C174.957 225.287 174.555 224.38 174.299 223.428C173.91 222.383 173.498 221.35 173.187 220.306C173.154 220.169 173.174 220.025 173.242 219.902C173.31 219.779 173.421 219.685 173.554 219.639C173.688 219.593 173.833 219.599 173.963 219.654C174.092 219.71 174.196 219.811 174.255 219.939Z" fill="#263238"/>
<path opacity="0.1" d="M220.059 175.7C221.683 182.521 223.263 189.354 224.509 196.242C224.909 198.819 225.621 201.385 225.187 204.018L224.898 206.629C224.542 210.139 224.264 213.639 224.008 217.149L225.121 275.741C226.166 329.144 230.682 364.671 235.777 417.874C236.373 422.727 236.582 427.62 236.4 432.506C236.656 427.622 236.522 422.726 235.999 417.863C235.31 408.854 233.141 383.424 232.34 374.037C227.735 334.931 226.177 257.743 224.553 217.127C224.553 217.249 225.354 206.673 225.354 206.684L225.599 204.063C225.988 201.452 225.232 198.763 224.798 196.197C223.408 189.32 221.717 182.51 219.993 175.722L220.059 175.7Z" fill="#111827"/>
<path d="M180.426 244.714V244.97C188.919 246.483 197.502 247.433 206.121 247.814C214.953 247.581 223.918 247.747 232.65 246.347C232.656 246.273 232.656 246.199 232.65 246.125C223.863 246.836 214.964 246.592 206.143 246.714C199.169 246.714 191.382 245.603 184.375 245.059L180.426 244.714Z" fill="#FFB802"/>
<path d="M180.329 248.69C188.862 250.213 197.487 251.167 206.146 251.545C215.045 251.323 224.055 251.478 232.843 250.056C232.848 249.99 232.848 249.923 232.843 249.856C223.944 250.578 215.045 250.334 206.146 250.456C199.172 250.456 191.386 249.345 184.378 248.79L180.351 248.445C180.349 248.527 180.341 248.609 180.329 248.69Z" fill="#FFB802"/>
<path d="M180.235 252.415C188.799 253.936 197.453 254.893 206.142 255.281C215.041 255.048 224.162 255.214 232.994 253.759C232.999 253.693 232.999 253.626 232.994 253.559C224.095 254.315 215.096 254.059 206.164 254.181C199.19 254.181 191.403 253.07 184.396 252.515L180.28 252.17C180.271 252.253 180.256 252.335 180.235 252.415Z" fill="#FFB802"/>
<path d="M147.253 186.322H230.401C231.924 183.309 232.288 179.843 231.424 176.579C227.075 157.449 220.457 116.355 204.817 100.546C196.33 91.9589 173.671 95.5028 169.678 99.5577C157.131 112.367 146.686 170.125 145.062 177.324C144.406 180.145 147.253 186.322 147.253 186.322Z" fill="#FFB802"/>
<g opacity="0.4">
<path d="M147.253 186.325H230.401C231.924 183.312 232.288 179.846 231.424 176.582C227.075 157.452 220.457 116.358 204.817 100.549C196.33 91.9618 173.671 95.5057 169.678 99.5607C157.131 112.37 146.686 170.128 145.062 177.327C144.406 180.148 147.253 186.325 147.253 186.325Z" fill="white"/>
</g>
<path d="M189.193 136.52L161.229 136.553L164.877 116.467L192.842 116.423L189.193 136.52Z" fill="#FFB802"/>
<path opacity="0.2" d="M189.193 136.52L161.229 136.553L164.877 116.467L192.842 116.423L189.193 136.52Z" fill="white"/>
<path opacity="0.4" d="M189.193 136.52L186.212 136.531L189.849 116.434L192.842 116.423L189.193 136.52Z" fill="white"/>
<path opacity="0.1" d="M183.291 134.219H184.014L186.84 118.721H186.105L183.291 134.219Z" fill="#111827"/>
<path opacity="0.1" d="M181.52 134.219H182.243L185.057 118.721H184.334L181.52 134.219Z" fill="#111827"/>
<path opacity="0.1" d="M179.732 134.219H180.466L183.281 118.721H182.546L179.732 134.219Z" fill="#111827"/>
<path opacity="0.1" d="M168.054 122.11C167.997 122.457 167.824 122.774 167.563 123.01C167.303 123.246 166.97 123.387 166.619 123.41C166.462 123.409 166.309 123.372 166.169 123.302C166.03 123.232 165.908 123.13 165.814 123.005C165.721 122.881 165.657 122.736 165.629 122.582C165.6 122.429 165.608 122.271 165.651 122.121C165.708 121.774 165.881 121.457 166.141 121.221C166.402 120.985 166.735 120.844 167.086 120.821C167.242 120.822 167.396 120.859 167.535 120.929C167.675 120.999 167.796 121.101 167.89 121.226C167.984 121.35 168.047 121.495 168.076 121.649C168.104 121.802 168.096 121.96 168.054 122.11Z" fill="#111827"/>
<path opacity="0.1" d="M167.284 126.408C167.222 126.753 167.047 127.067 166.788 127.302C166.529 127.537 166.199 127.68 165.85 127.708C165.693 127.707 165.539 127.67 165.399 127.6C165.26 127.529 165.138 127.428 165.043 127.304C164.949 127.179 164.884 127.035 164.854 126.882C164.824 126.728 164.83 126.57 164.871 126.419C164.932 126.073 165.107 125.756 165.37 125.521C165.632 125.285 165.965 125.144 166.317 125.12C166.474 125.118 166.629 125.154 166.77 125.223C166.91 125.293 167.033 125.394 167.127 125.52C167.221 125.645 167.284 125.791 167.312 125.945C167.339 126.1 167.33 126.258 167.284 126.408Z" fill="#111827"/>
<path opacity="0.1" d="M166.522 130.62C166.458 130.965 166.281 131.279 166.02 131.514C165.758 131.749 165.427 131.892 165.076 131.92C164.919 131.92 164.764 131.883 164.623 131.812C164.483 131.741 164.36 131.638 164.266 131.512C164.172 131.386 164.109 131.24 164.082 131.085C164.055 130.93 164.064 130.771 164.109 130.62C164.172 130.274 164.348 129.959 164.61 129.724C164.871 129.488 165.204 129.347 165.555 129.32C165.711 129.323 165.865 129.361 166.005 129.433C166.144 129.504 166.265 129.607 166.359 129.732C166.452 129.858 166.516 130.003 166.544 130.157C166.572 130.311 166.565 130.469 166.522 130.62Z" fill="#111827"/>
<path opacity="0.1" d="M171.821 122.098C171.759 122.445 171.584 122.761 171.322 122.997C171.06 123.232 170.726 123.374 170.375 123.398C170.218 123.397 170.065 123.36 169.925 123.29C169.785 123.22 169.664 123.119 169.57 122.994C169.477 122.869 169.413 122.724 169.385 122.571C169.356 122.417 169.364 122.259 169.407 122.109C169.468 121.763 169.644 121.446 169.906 121.211C170.168 120.975 170.501 120.834 170.853 120.81C171.009 120.81 171.163 120.847 171.303 120.918C171.442 120.988 171.563 121.089 171.657 121.214C171.751 121.339 171.814 121.484 171.843 121.637C171.871 121.79 171.864 121.948 171.821 122.098Z" fill="#111827"/>
<path opacity="0.1" d="M171.044 126.41C170.981 126.756 170.805 127.071 170.544 127.307C170.282 127.542 169.95 127.684 169.598 127.71C169.441 127.71 169.286 127.673 169.145 127.602C169.005 127.531 168.882 127.428 168.788 127.302C168.695 127.176 168.631 127.03 168.604 126.875C168.577 126.72 168.586 126.561 168.631 126.41C168.691 126.065 168.865 125.75 169.125 125.515C169.385 125.279 169.716 125.137 170.066 125.11C170.223 125.111 170.379 125.149 170.519 125.219C170.66 125.29 170.783 125.392 170.877 125.518C170.972 125.644 171.037 125.79 171.066 125.945C171.095 126.099 171.087 126.259 171.044 126.41Z" fill="#111827"/>
<path opacity="0.1" d="M170.273 130.597C170.214 130.944 170.041 131.262 169.781 131.499C169.521 131.737 169.189 131.881 168.838 131.908C168.68 131.907 168.525 131.87 168.384 131.799C168.243 131.729 168.121 131.626 168.026 131.501C167.931 131.375 167.867 131.229 167.838 131.074C167.809 130.919 167.816 130.76 167.859 130.608C167.922 130.262 168.098 129.947 168.36 129.712C168.621 129.477 168.954 129.335 169.305 129.309C169.461 129.309 169.615 129.346 169.754 129.417C169.894 129.487 170.015 129.588 170.109 129.713C170.203 129.838 170.266 129.983 170.295 130.136C170.323 130.289 170.315 130.447 170.273 130.597Z" fill="#111827"/>
<path opacity="0.1" d="M175.562 122.098C175.505 122.445 175.332 122.762 175.071 122.998C174.811 123.234 174.478 123.375 174.127 123.398C173.971 123.397 173.817 123.36 173.677 123.29C173.538 123.22 173.416 123.119 173.323 122.994C173.229 122.869 173.165 122.724 173.137 122.571C173.109 122.417 173.116 122.259 173.159 122.109C173.216 121.763 173.389 121.446 173.65 121.21C173.91 120.973 174.243 120.833 174.594 120.81C174.75 120.81 174.904 120.847 175.044 120.918C175.183 120.988 175.305 121.089 175.398 121.214C175.492 121.339 175.556 121.484 175.584 121.637C175.612 121.79 175.605 121.948 175.562 122.098Z" fill="#111827"/>
<path opacity="0.1" d="M174.804 126.41C174.741 126.754 174.566 127.068 174.307 127.303C174.048 127.538 173.718 127.681 173.369 127.71C173.211 127.709 173.056 127.672 172.915 127.601C172.774 127.53 172.651 127.428 172.557 127.302C172.462 127.176 172.398 127.03 172.369 126.876C172.34 126.721 172.347 126.562 172.39 126.41C172.454 126.065 172.631 125.751 172.893 125.516C173.154 125.281 173.485 125.138 173.836 125.11C173.993 125.111 174.148 125.148 174.289 125.219C174.43 125.289 174.552 125.392 174.646 125.518C174.74 125.644 174.803 125.791 174.83 125.945C174.858 126.1 174.848 126.259 174.804 126.41Z" fill="#111827"/>
<path opacity="0.1" d="M174.028 130.597C173.966 130.944 173.79 131.261 173.528 131.498C173.267 131.735 172.934 131.879 172.582 131.908C172.425 131.908 172.27 131.871 172.129 131.8C171.988 131.729 171.866 131.627 171.772 131.5C171.678 131.374 171.615 131.228 171.588 131.073C171.56 130.918 171.57 130.759 171.614 130.608C171.677 130.264 171.852 129.95 172.111 129.715C172.37 129.48 172.7 129.337 173.049 129.309C173.206 129.31 173.36 129.347 173.5 129.417C173.639 129.487 173.761 129.588 173.856 129.713C173.95 129.837 174.015 129.982 174.045 130.135C174.075 130.288 174.069 130.447 174.028 130.597Z" fill="#111827"/>
<path opacity="0.1" d="M179.324 122.099C179.263 122.446 179.088 122.762 178.826 122.998C178.564 123.233 178.23 123.375 177.878 123.399C177.722 123.398 177.568 123.361 177.429 123.291C177.289 123.221 177.168 123.119 177.074 122.995C176.98 122.87 176.917 122.725 176.889 122.572C176.86 122.418 176.868 122.26 176.911 122.11C176.98 121.775 177.156 121.472 177.413 121.245C177.669 121.019 177.993 120.882 178.334 120.855C178.488 120.854 178.639 120.888 178.777 120.954C178.915 121.021 179.037 121.117 179.132 121.237C179.227 121.357 179.294 121.497 179.328 121.646C179.361 121.795 179.36 121.95 179.324 122.099Z" fill="#111827"/>
<path opacity="0.1" d="M178.559 126.411C178.496 126.756 178.319 127.072 178.058 127.307C177.796 127.542 177.464 127.684 177.112 127.71C176.952 127.715 176.793 127.682 176.648 127.614C176.503 127.545 176.377 127.443 176.279 127.316C176.181 127.189 176.115 127.041 176.086 126.884C176.057 126.726 176.066 126.564 176.111 126.411C176.172 126.065 176.346 125.75 176.606 125.515C176.866 125.28 177.197 125.138 177.546 125.111C177.707 125.106 177.866 125.14 178.011 125.208C178.156 125.277 178.283 125.378 178.382 125.505C178.48 125.631 178.547 125.779 178.578 125.937C178.609 126.094 178.602 126.256 178.559 126.411Z" fill="#111827"/>
<path opacity="0.1" d="M177.776 130.597C177.718 130.944 177.545 131.262 177.285 131.499C177.025 131.737 176.693 131.881 176.341 131.908C176.184 131.907 176.028 131.87 175.888 131.799C175.747 131.729 175.624 131.626 175.529 131.501C175.435 131.375 175.37 131.229 175.341 131.074C175.312 130.919 175.32 130.76 175.362 130.608C175.425 130.262 175.602 129.947 175.863 129.712C176.125 129.477 176.457 129.335 176.808 129.309C176.965 129.309 177.119 129.346 177.258 129.417C177.398 129.487 177.519 129.588 177.613 129.713C177.706 129.838 177.77 129.983 177.798 130.136C177.827 130.289 177.819 130.447 177.776 130.597Z" fill="#111827"/>
<path d="M188.997 158.716C186.503 158.656 184.534 156.479 184.598 153.853C184.661 151.228 186.734 149.149 189.228 149.209C191.721 149.27 193.691 151.447 193.627 154.072C193.563 156.698 191.49 158.777 188.997 158.716Z" fill="#FFB802"/>
<path opacity="0.1" d="M186.026 153.894C186.044 154.501 186.239 155.088 186.587 155.585C186.936 156.081 187.423 156.464 187.987 156.687C188.552 156.91 189.169 156.963 189.764 156.839C190.358 156.715 190.903 156.419 191.33 155.989C191.758 155.559 192.05 155.013 192.17 154.418C192.29 153.824 192.233 153.207 192.006 152.645C191.779 152.083 191.392 151.599 190.892 151.255C190.393 150.91 189.803 150.719 189.196 150.706C188.779 150.708 188.365 150.791 187.98 150.952C187.594 151.113 187.244 151.348 186.95 151.645C186.656 151.941 186.423 152.292 186.264 152.678C186.105 153.064 186.025 153.477 186.026 153.894Z" fill="#111827"/>
<path d="M184.65 169.215C184.677 170.096 184.961 170.95 185.468 171.671C185.975 172.393 186.683 172.95 187.504 173.274C188.325 173.598 189.223 173.675 190.087 173.495C190.951 173.315 191.743 172.886 192.366 172.261C192.988 171.637 193.414 170.843 193.59 169.98C193.766 169.116 193.685 168.219 193.356 167.401C193.028 166.583 192.466 165.879 191.742 165.376C191.017 164.873 190.16 164.593 189.278 164.571C188.669 164.572 188.066 164.694 187.504 164.928C186.941 165.162 186.431 165.504 186.001 165.936C185.571 166.367 185.231 166.878 184.999 167.441C184.768 168.003 184.649 168.606 184.65 169.215Z" fill="#FFB802"/>
<path opacity="0.1" d="M186.063 169.247C186.081 169.853 186.276 170.44 186.624 170.937C186.973 171.433 187.46 171.816 188.024 172.039C188.589 172.262 189.207 172.315 189.801 172.191C190.395 172.067 190.94 171.771 191.367 171.341C191.795 170.911 192.087 170.365 192.207 169.77C192.328 169.176 192.271 168.559 192.043 167.997C191.816 167.435 191.429 166.952 190.929 166.607C190.43 166.262 189.84 166.071 189.233 166.058C188.816 166.06 188.402 166.143 188.017 166.304C187.631 166.465 187.281 166.7 186.987 166.997C186.693 167.293 186.46 167.644 186.301 168.03C186.143 168.416 186.062 168.829 186.063 169.247Z" fill="#111827"/>
<path d="M158.065 157.8C155.828 157.52 154.279 155.181 154.606 152.575C154.933 149.969 157.011 148.084 159.248 148.364C161.485 148.644 163.034 150.983 162.707 153.589C162.38 156.194 160.302 158.08 158.065 157.8Z" fill="#FFB802"/>
<path opacity="0.1" d="M155.897 152.75C155.912 153.292 156.082 153.819 156.388 154.267C156.693 154.715 157.121 155.067 157.621 155.279C158.12 155.492 158.67 155.557 159.206 155.467C159.741 155.376 160.239 155.134 160.641 154.769C161.043 154.405 161.331 153.932 161.472 153.409C161.613 152.885 161.601 152.332 161.436 151.815C161.272 151.298 160.962 150.839 160.544 150.493C160.126 150.147 159.618 149.928 159.079 149.862C158.275 149.828 157.49 150.113 156.894 150.653C156.299 151.194 155.941 151.947 155.897 152.75Z" fill="#111827"/>
<path d="M153.082 167.869C152.748 170.48 154.306 172.813 156.541 173.09C158.777 173.368 160.846 171.491 161.18 168.88C161.514 166.269 159.956 163.936 157.72 163.647C155.485 163.358 153.405 165.291 153.082 167.869Z" fill="#FFB802"/>
<path opacity="0.1" d="M154.344 168.025C154.359 168.567 154.529 169.093 154.835 169.542C155.14 169.99 155.568 170.342 156.068 170.554C156.567 170.767 157.117 170.832 157.653 170.741C158.188 170.651 158.686 170.409 159.088 170.044C159.49 169.68 159.778 169.207 159.919 168.684C160.06 168.16 160.048 167.607 159.883 167.09C159.719 166.573 159.409 166.114 158.991 165.768C158.573 165.422 158.065 165.203 157.526 165.136C156.722 165.103 155.937 165.388 155.341 165.928C154.746 166.469 154.388 167.222 154.344 168.025Z" fill="#111827"/>
<path d="M215.638 165.749C219.245 165.87 222.795 164.826 225.76 162.771C231.856 158.327 231.389 149.84 231.322 149.44C231.211 148.918 230.916 148.453 230.491 148.13C230.066 147.808 229.538 147.648 229.005 147.682C228.472 147.716 227.968 147.94 227.587 148.314C227.206 148.688 226.972 149.186 226.928 149.718C226.928 149.718 227.251 156.15 223.113 159.183C215.927 164.438 201.422 158.95 190.243 152.062C189.754 151.856 189.208 151.832 188.703 151.993C188.198 152.154 187.767 152.489 187.488 152.94C187.208 153.39 187.1 153.925 187.181 154.449C187.262 154.972 187.527 155.449 187.929 155.794C193.625 159.327 205.426 165.749 215.638 165.749Z" fill="#DBDBDB"/>
<path d="M147.296 160.071C147.684 160.284 148.1 160.441 148.531 160.538C149.036 160.67 149.556 160.733 150.077 160.727C153.704 160.727 158.242 158.072 160.444 154.195C160.635 153.944 160.77 153.656 160.84 153.35C160.911 153.043 160.916 152.725 160.854 152.417C160.793 152.108 160.666 151.816 160.483 151.56C160.3 151.304 160.065 151.09 159.793 150.932C159.521 150.773 159.218 150.674 158.905 150.641C158.592 150.608 158.275 150.642 157.976 150.741C157.677 150.839 157.403 151 157.17 151.212C156.938 151.425 156.753 151.684 156.629 151.973C155.985 153.051 155.127 153.986 154.108 154.72C153.088 155.453 151.928 155.97 150.7 156.239C150.3 156.348 149.877 156.348 149.477 156.239H149.41C149.321 156.094 149.199 155.128 150.211 153.061C150.389 152.262 151.034 149.562 151.223 148.751C151.067 148.207 148.62 149.106 147.63 150.784C144.149 156.628 145.917 159.294 147.296 160.071Z" fill="#DBDBDB"/>
<path d="M144.966 174.968C145.135 175.057 145.31 175.135 145.489 175.202C146.337 175.525 147.24 175.683 148.147 175.668C150.339 175.581 152.476 174.964 154.375 173.868C156.274 172.773 157.878 171.233 159.048 169.38C159.275 168.879 159.308 168.312 159.14 167.788C158.972 167.264 158.615 166.821 158.139 166.545C157.663 166.268 157.101 166.178 156.562 166.291C156.024 166.405 155.546 166.714 155.222 167.159C153.42 170.314 148.681 171.902 146.968 171.013C146.834 170.938 146.72 170.83 146.637 170.701C146.553 170.571 146.503 170.423 146.49 170.269C146.453 169.284 146.655 168.304 147.08 167.414L147.836 163.826C147.702 163.17 145.422 164.403 144.499 166.281C141.929 171.447 143.453 174.18 144.966 174.968Z" fill="#DBDBDB"/>
<path d="M215.702 181.401C219.914 181.488 224.065 180.378 227.671 178.201C234.1 174.213 234.156 166.737 234.156 166.425C234.156 165.836 233.921 165.271 233.504 164.854C233.087 164.438 232.521 164.204 231.931 164.204C231.341 164.204 230.775 164.438 230.358 164.854C229.941 165.271 229.706 165.836 229.706 166.425C229.706 166.637 229.617 171.791 225.257 174.48C213.699 181.668 196.948 171.714 190.274 167.103C189.796 166.872 189.251 166.818 188.737 166.953C188.224 167.088 187.775 167.401 187.473 167.837C187.171 168.273 187.035 168.803 187.089 169.331C187.144 169.858 187.386 170.349 187.771 170.714C199.695 178.901 208.894 181.401 215.702 181.401Z" fill="#DBDBDB"/>
<path d="M145.337 192.476H231.966L231.043 186.311H146.538L145.337 192.476Z" fill="#263238"/>
<path d="M161.661 184.444H179.67V194.342H161.661V184.444Z" fill="#A6A6A6"/>
<path d="M168.958 184.435L178.88 194.345H179.67V190.112L173.986 184.435H168.958Z" fill="#DBDBDB"/>
<path d="M161.66 192.423V194.345H163.596L161.66 192.423Z" fill="#DBDBDB"/>
<path d="M165.29 184.435L175.201 194.345H177.715L167.804 184.435H165.29Z" fill="#DBDBDB"/>
<path d="M161.656 186.501V187.134L168.875 194.344H169.52L161.656 186.501Z" fill="#DBDBDB"/>
<path d="M176.834 184.435L179.67 187.268V186.646L177.457 184.435H176.834Z" fill="#DBDBDB"/>
<path d="M212.596 109.745C219.637 125.164 228.091 139.185 236.133 160.659C245.11 184.622 246.589 209.907 247.424 212.529C249.57 219.272 215.11 220.939 214.187 216.173C213.597 213.118 212.207 189.132 209.537 168.947C206.701 147.45 199.615 126.909 197.791 110.5C195.9 93.4915 207.401 98.3352 212.596 109.745Z" fill="#D3766A"/>
<path d="M222.64 232.427C221.528 230.628 220.615 231.183 220.137 234.871C219.659 238.56 220.894 253.569 215.621 253.558C210.348 253.546 208.891 232.35 210.159 226.262C211.427 220.174 215.621 210.842 215.621 210.842C216.733 214.852 220.36 224.473 222.64 232.427Z" fill="#37474F"/>
<path d="M246.343 205.963C249.046 217.539 253.117 231.781 249.112 244.59C248.699 246.021 247.818 247.273 246.61 248.145C244.919 253.922 241.682 254.811 241.682 254.811C238.456 259.699 235.008 260.199 235.008 260.199C235.008 260.199 232.95 266.954 228.656 266.387C223.84 265.765 227.678 256.389 226.632 249.967C224.24 235.225 216.721 214.917 215.609 210.74L246.343 205.963Z" fill="#37474F"/>
<path d="M235.071 232.803C235.818 237.111 236.272 241.465 236.428 245.835C236.299 250.623 235.812 255.395 234.971 260.11C234.97 260.139 234.979 260.166 234.996 260.189C235.013 260.212 235.037 260.227 235.065 260.234C235.093 260.241 235.122 260.237 235.147 260.225C235.173 260.212 235.193 260.192 235.205 260.166C237.729 251.211 237.752 241.737 235.271 232.77C235.16 232.57 234.993 232.581 235.071 232.803Z" fill="#263238"/>
<path d="M243.717 230.072C244.084 234.338 244.674 241.848 241.548 254.823H241.626C244.692 246.942 245.501 238.364 243.962 230.049C243.873 229.783 243.695 229.783 243.717 230.072Z" fill="#263238"/>
<path d="M248.41 228.682C248.754 235.97 248.042 240.603 246.574 248.112C246.574 248.112 246.641 248.179 246.652 248.112C249.222 239.758 249.21 236.436 248.665 228.615C248.654 228.371 248.41 228.404 248.41 228.682Z" fill="#263238"/>
<path d="M248.706 208.186L213.7 214.852C213.7 214.852 208.939 208.964 208.672 204.853C207.838 191.955 206.692 166.903 205.98 161.715C204.156 148.384 196.614 118.289 197.082 106.657C197.549 95.0254 205.569 97.0251 212.187 107.768C220.741 121.732 232.988 144.707 237.693 157.76C239.629 163.148 247.059 183.967 250.196 196.232C251.442 200.954 248.706 208.186 248.706 208.186Z" fill="#FFB802"/>
<path opacity="0.4" d="M248.706 208.186L213.7 214.852C213.7 214.852 208.939 208.964 208.672 204.853C207.838 191.955 206.692 166.903 205.98 161.715C204.156 148.384 196.614 118.289 197.082 106.657C197.549 95.0254 205.569 97.0251 212.187 107.768C220.741 121.732 232.988 144.707 237.693 157.76C239.629 163.148 247.059 183.967 250.196 196.232C251.442 200.954 248.706 208.186 248.706 208.186Z" fill="white"/>
<path opacity="0.1" d="M229.606 203.643C232.298 203.154 234.967 202.609 237.648 202.054C238.939 201.798 240.229 201.543 241.497 201.232C242.765 200.921 244.311 200.676 245.657 200.254C245.672 200.249 245.684 200.239 245.693 200.226C245.701 200.213 245.706 200.198 245.706 200.182C245.706 200.167 245.701 200.151 245.693 200.138C245.684 200.126 245.672 200.116 245.657 200.11C244.244 200.188 242.821 200.488 241.419 200.665C240.018 200.843 238.827 201.054 237.537 201.265C234.834 201.699 232.142 202.132 229.45 202.632C224.066 203.632 218.727 204.776 213.399 205.965C213.373 205.965 213.347 205.975 213.328 205.994C213.31 206.013 213.299 206.038 213.299 206.065C213.299 206.091 213.31 206.116 213.328 206.135C213.347 206.154 213.373 206.164 213.399 206.164C218.827 205.442 224.222 204.62 229.606 203.643Z" fill="#111827"/>
<path d="M204.633 162.126L205.668 166.337L237.203 161.893L235.457 154.772L204.633 162.126Z" fill="#FFB802"/>
<path d="M220.302 172.836C223.917 178.19 238.756 175.902 240.513 170.614C242.86 163.659 239.29 147.284 233.75 144.384C229.979 142.374 216.787 145.318 215.53 149.784C214.763 152.45 214.573 155.338 216.275 162.071C216.954 164.759 217.877 169.258 220.302 172.836Z" fill="#FFB802"/>
<path opacity="0.7" d="M220.302 172.836C223.917 178.19 238.756 175.902 240.513 170.614C242.86 163.659 239.29 147.284 233.75 144.384C229.979 142.374 216.787 145.318 215.53 149.784C214.763 152.45 214.573 155.338 216.275 162.071C216.954 164.759 217.877 169.258 220.302 172.836Z" fill="white"/>
<g opacity="0.7">
<path d="M217.51 148.895C222.801 147.187 228.28 146.127 233.828 145.74C228.184 144.608 222.322 145.741 217.51 148.895Z" fill="#FFB802"/>
<path d="M216.962 151.761C223.005 150.055 229.182 148.862 235.427 148.195C229.047 147.339 222.562 148.592 216.962 151.761Z" fill="#FFB802"/>
<path d="M217.52 154.682C223.876 152.853 230.384 151.597 236.964 150.927C230.248 150.073 223.434 151.389 217.52 154.682Z" fill="#FFB802"/>
<path d="M218.213 158.215C224.887 156.426 231.35 154.715 238.235 154.171C231.406 153.149 224.275 154.993 218.213 158.215Z" fill="#FFB802"/>
<path d="M239.001 171.147C233.958 172.799 228.726 173.811 223.429 174.158C226.093 174.742 228.848 174.776 231.526 174.258C234.204 173.74 236.748 172.682 239.001 171.147Z" fill="#FFB802"/>
<path d="M240.304 168.148C234.259 169.845 228.082 171.034 221.839 171.703C228.217 172.557 234.7 171.309 240.304 168.148Z" fill="#FFB802"/>
<path d="M239.741 165.213C233.386 167.047 226.879 168.304 220.297 168.968C227.014 169.821 233.827 168.505 239.741 165.213Z" fill="#FFB802"/>
<path d="M239.856 161.892C233.182 163.592 226.575 165.225 219.678 165.791C226.552 166.814 233.727 165.025 239.856 161.892Z" fill="#FFB802"/>
<path d="M239.335 159.214C232.661 160.914 226.054 162.547 219.157 163.103C226.031 164.125 233.206 162.347 239.335 159.214Z" fill="#FFB802"/>
<path d="M218.774 161.115C225.659 159.804 232.3 158.127 239.163 156.671C232.128 156.687 225.176 158.202 218.774 161.115Z" fill="#FFB802"/>
</g>
<path d="M213.709 214.828C211.296 211.829 209.004 208.274 208.926 204.33L208.348 192.487C207.948 184.588 207.447 176.701 206.935 168.813C206.791 166.869 206.401 161.825 206.201 159.925C204.922 151.904 202.664 141.761 201.095 133.707C200.272 129.841 199.494 125.931 198.637 122.109C199.238 126.008 199.916 129.885 200.562 133.807C201.896 141.906 203.899 152.027 205.167 160.036C205.345 161.881 205.701 166.958 205.834 168.924L207.503 192.576L208.37 204.363C208.637 208.407 211.062 211.929 213.698 214.828H213.709Z" fill="#263238"/>
<path d="M197.118 125.788C197.736 129.029 199.07 132.092 201.022 134.753C200.11 131.611 198.797 128.598 197.118 125.788Z" fill="#263238"/>
<path d="M209.693 125.033L219.827 122.178L217.168 116.19L207.035 119.045L209.693 125.033Z" fill="#FFB802"/>
<path opacity="0.1" d="M209.693 125.033L219.827 122.178L217.168 116.19L207.035 119.045L209.693 125.033Z" fill="#111827"/>
<path d="M210.802 124.711L220.936 121.856L218.277 115.868L208.144 118.723L210.802 124.711Z" fill="#FFB802"/>
<path d="M177.291 103.956C181.74 104.745 188.948 100.257 191.618 94.6798C191.796 94.3021 191.017 90.4249 190.283 85.6589C189.849 82.7705 189.438 79.5488 189.271 76.5714C189.271 75.9715 170.862 82.1262 170.862 82.1262C172.133 85.7864 172.951 89.5881 173.298 93.4467C173.31 93.8552 173.288 94.264 173.231 94.6687C173.231 94.6687 173.231 94.7909 173.231 94.8687C172.964 97.2127 173.009 103.179 177.291 103.956Z" fill="#D3766A"/>
<path d="M170.855 82.1266C172.074 85.6439 172.884 89.2895 173.269 92.9916C178.474 92.2362 187.051 89.5921 189.72 81.56C189.52 79.8936 189.353 78.2272 189.275 76.5719C189.242 75.9609 170.855 82.1266 170.855 82.1266Z" fill="#263238"/>
<path d="M193.564 55.3879C195.544 62.0536 191.929 81.1174 187.18 85.3834C180.316 91.5269 169.126 92.049 163.909 83.8058C158.87 75.8182 164.021 51.0108 169.315 47.1448C177.102 41.479 190.639 45.5894 193.564 55.3879Z" fill="#D3766A"/>
<path d="M176.491 67.8296C176.491 67.8296 176.58 67.9074 176.569 67.9629C176.347 69.2516 176.291 70.7625 177.404 71.3624C177.404 71.3624 177.404 71.4513 177.404 71.4402C175.98 71.0291 176.113 69.0183 176.491 67.8296Z" fill="#263238"/>
<path d="M177.843 66.6525C179.956 66.7969 179.5 70.9963 177.542 70.863C175.585 70.7297 176.107 66.5192 177.843 66.6525Z" fill="#263238"/>
<path d="M168.865 66.7407C168.865 66.7407 168.765 66.7407 168.754 66.8518C168.654 68.1516 168.331 69.6292 167.096 69.9402C167.096 69.9402 167.096 70.018 167.096 70.0069C168.565 69.9625 168.987 67.9961 168.865 66.7407Z" fill="#263238"/>
<path d="M167.851 65.3077C165.771 64.9189 165.159 69.0961 167.084 69.4516C169.008 69.8071 169.598 65.5744 167.851 65.3077Z" fill="#263238"/>
<path d="M179.591 65.106C179.019 65.0069 178.455 64.8733 177.9 64.7061C177.283 64.6505 176.703 64.3882 176.254 63.9618C176.129 63.8033 176.061 63.6077 176.061 63.4063C176.061 63.2049 176.129 63.0093 176.254 62.8508C176.549 62.5823 176.912 62.3984 177.303 62.3182C177.695 62.2381 178.101 62.2647 178.478 62.3953C179.277 62.5348 179.995 62.9666 180.492 63.6063C180.604 63.7564 180.67 63.9367 180.679 64.1242C180.689 64.3116 180.643 64.4977 180.546 64.6587C180.449 64.8196 180.307 64.9482 180.137 65.0278C179.966 65.1075 179.776 65.1347 179.591 65.106Z" fill="#263238"/>
<path d="M166.264 63.0848C166.84 63.1476 167.419 63.1773 167.999 63.1736C168.603 63.2963 169.23 63.2101 169.779 62.9292C169.951 62.808 170.073 62.6292 170.124 62.4253C170.175 62.2214 170.151 62.0061 170.057 61.8183C169.857 61.4726 169.568 61.187 169.219 60.9915C168.871 60.796 168.476 60.6979 168.077 60.7074C167.289 60.6195 166.497 60.8252 165.852 61.285C165.666 61.3833 165.517 61.5402 165.429 61.7314C165.341 61.9227 165.319 62.1376 165.366 62.3427C165.413 62.5479 165.526 62.7318 165.689 62.866C165.851 63.0002 166.053 63.0771 166.264 63.0848Z" fill="#263238"/>
<path d="M175.753 75.506C175.368 75.986 174.887 76.381 174.341 76.6659C173.796 76.9508 173.197 77.1195 172.582 77.1613C172.043 77.2057 171.499 77.172 170.969 77.0614C170.867 77.0498 170.767 77.0274 170.669 76.9947L170.391 76.9169C170.322 76.8971 170.261 76.8546 170.218 76.7962C170.176 76.7377 170.155 76.6668 170.157 76.5948C170.151 76.5505 170.151 76.5057 170.157 76.4615V76.3504C170.246 75.3394 170.502 73.8285 170.502 73.8285C170.113 73.9729 168.155 74.6062 168.278 74.0951C168.88 69.5883 169.942 65.1547 171.448 60.8638C171.459 60.8454 171.474 60.8301 171.492 60.8195C171.511 60.8088 171.532 60.8032 171.553 60.8032C171.575 60.8032 171.596 60.8088 171.614 60.8195C171.633 60.8301 171.648 60.8454 171.659 60.8638C171.125 65.0299 169.868 69.0737 169.268 73.2508C169.965 73.0163 170.691 72.878 171.425 72.8398C171.57 72.8953 170.869 75.7616 170.869 76.1726C171.683 76.3447 172.523 76.3507 173.34 76.1904C174.156 76.03 174.931 75.7065 175.619 75.2394C175.753 75.3061 175.841 75.4061 175.753 75.506Z" fill="#263238"/>
<path d="M171.661 76.6169C172.133 77.3893 172.796 78.028 173.585 78.4722C174.027 78.6992 174.528 78.7845 175.02 78.7166C176.133 78.55 176.222 77.6057 176.133 76.7725C176.076 76.327 175.964 75.8903 175.799 75.4727C174.578 76.2877 173.127 76.6889 171.661 76.6169Z" fill="#263238"/>
<path d="M173.553 78.4725C173.995 78.6995 174.496 78.7848 174.988 78.7169C176.1 78.5503 176.189 77.606 176.1 76.7728C175.546 76.7263 174.992 76.8691 174.529 77.1779C174.067 77.4866 173.722 77.9431 173.553 78.4725Z" fill="#FF9ABB"/>
<path d="M192.795 71.6865C189.914 72.2531 187.934 68.7425 187.344 66.9317C186.755 65.1209 188.768 56.6777 187.6 53.9448C186.432 51.2119 183.596 49.501 181.226 50.0343C178.857 50.5675 175.665 52.134 173.929 51.8451C172.194 51.5563 172.016 48.7234 170.826 48.6345C168.201 48.4345 165.097 53.6782 164.408 56.5222C164.408 56.5222 165.186 44.3018 177.834 44.1352C190.181 43.9685 193.495 52.6783 194.285 56.4555C195.842 63.6766 192.795 71.6865 192.795 71.6865Z" fill="#263238"/>
<path d="M187.957 72.9949C187.957 72.9949 192.407 66.9181 195.221 68.5512C198.035 70.1843 194.498 79.0385 191.172 80.1827C190.755 80.3612 190.306 80.4528 189.852 80.4521C189.398 80.4513 188.95 80.3581 188.533 80.1782C188.117 79.9983 187.741 79.7355 187.43 79.4058C187.119 79.0762 186.878 78.6866 186.723 78.2608L187.957 72.9949Z" fill="#D3766A"/>
<path d="M194.156 71.0625C194.212 71.0625 194.223 71.1292 194.156 71.1514C191.82 72.0179 190.541 74.1287 189.629 76.3284C189.77 76.1018 189.959 75.9083 190.181 75.7611C190.404 75.6139 190.656 75.5163 190.92 75.4752C191.184 75.4341 191.454 75.4503 191.711 75.5228C191.968 75.5952 192.207 75.7222 192.41 75.8951C192.477 75.8951 192.41 76.0284 192.343 76.0173C191.942 75.8781 191.507 75.8664 191.099 75.9837C190.691 76.1011 190.329 76.3418 190.063 76.6728C189.626 77.2331 189.253 77.8405 188.951 78.4836C188.828 78.6836 188.461 78.5614 188.55 78.3281C188.584 75.3063 190.986 71.2736 194.156 71.0625Z" fill="#263238"/>
<path d="M192.534 94.6705C192.534 94.6705 192.534 87.2494 192.278 86.7939C192.022 86.3384 181.655 93.4595 180.688 93.8373C179.72 94.215 177.762 101.88 177.762 101.88C177.762 101.88 176.483 94.7038 176.116 94.4483C174.907 93.4589 173.641 92.5426 172.323 91.7043C171.956 91.7043 172.846 99.3142 172.924 100.425C173.001 101.536 173.391 103.925 177.028 104.325C180.304 104.564 183.571 103.758 186.358 102.023C189.145 100.288 191.308 97.7132 192.534 94.6705Z" fill="#FFB802"/>
<path opacity="0.2" d="M192.534 94.6705C192.534 94.6705 192.534 87.2494 192.278 86.7939C192.022 86.3384 181.655 93.4595 180.688 93.8373C179.72 94.215 177.762 101.88 177.762 101.88C177.762 101.88 176.483 94.7038 176.116 94.4483C174.907 93.4589 173.641 92.5426 172.323 91.7043C171.956 91.7043 172.846 99.3142 172.924 100.425C173.001 101.536 173.391 103.925 177.028 104.325C180.304 104.564 183.571 103.758 186.358 102.023C189.145 100.288 191.308 97.7132 192.534 94.6705Z" fill="#111827"/>
<path d="M168.812 97.068L169.268 101.745C169.569 104.756 180.314 105.722 185.953 105.167C191.593 104.611 201.905 101.567 201.604 98.5678L201.137 93.8908C201.026 92.7798 199.613 90.0358 184.608 91.5133C169.602 92.9909 168.701 95.9349 168.812 97.068Z" fill="#FFB802"/>
<path opacity="0.2" d="M168.812 97.068L169.268 101.745C169.569 104.756 180.314 105.722 185.953 105.167C191.593 104.611 201.905 101.567 201.604 98.5678L201.137 93.8908C201.026 92.7798 199.613 90.0358 184.608 91.5133C169.602 92.9909 168.701 95.9349 168.812 97.068Z" fill="white"/>
<path opacity="0.2" d="M168.957 97.037C169.324 99.4144 175.275 100.114 176.899 100.37C182.589 101.111 188.372 100.541 193.807 98.7034C195.915 98.1034 197.913 97.1695 199.725 95.9372C200.073 95.7241 200.366 95.432 200.581 95.0846C200.795 94.7372 200.925 94.3442 200.959 93.9375C200.959 95.4262 198.735 96.4816 197.778 96.937C195.156 98.0729 192.418 98.9222 189.613 99.47C185.438 100.34 181.15 100.546 176.91 100.081C175.286 99.9033 169.358 99.37 168.957 97.0815V97.037Z" fill="#111827"/>
<path opacity="0.2" d="M172.258 101.68C172.258 102.158 172.603 102.525 172.915 102.491C173.226 102.458 173.46 102.047 173.404 101.569C173.349 101.091 173.07 100.736 172.748 100.769C172.425 100.803 172.214 101.214 172.258 101.68Z" fill="#111827"/>
<path d="M172.505 101.657C172.505 102.09 172.783 102.424 173.027 102.401C173.272 102.379 173.45 102.001 173.406 101.568C173.361 101.135 173.127 100.802 172.872 100.824C172.616 100.846 172.46 101.224 172.505 101.657Z" fill="#263238"/>
<path opacity="0.2" d="M197.444 99.9909C197.444 99.7855 197.364 99.5882 197.22 99.4409C197.077 99.2936 196.882 99.2079 196.676 99.2021C196.576 99.2245 196.481 99.2663 196.397 99.3254C196.313 99.3844 196.242 99.4595 196.187 99.5462C196.132 99.633 196.095 99.7297 196.078 99.8308C196.061 99.9319 196.064 100.035 196.087 100.135C196.086 100.341 196.167 100.538 196.31 100.685C196.453 100.833 196.648 100.918 196.854 100.924C196.954 100.902 197.049 100.86 197.133 100.801C197.217 100.742 197.288 100.667 197.343 100.58C197.398 100.493 197.435 100.397 197.452 100.295C197.47 100.194 197.467 100.091 197.444 99.9909Z" fill="#111827"/>
<path d="M197.162 100.025C197.162 99.5913 196.839 99.258 196.539 99.2914C196.239 99.3247 196.038 99.6913 196.083 100.136C196.127 100.58 196.394 100.891 196.695 100.869C196.995 100.847 197.24 100.458 197.162 100.025Z" fill="#263238"/>
<path opacity="0.2" d="M170.192 101.015C170.192 101.492 170.526 101.859 170.848 101.826C171.171 101.792 171.382 101.381 171.338 100.904C171.293 100.426 170.993 100.07 170.681 100.104C170.37 100.137 170.147 100.548 170.192 101.015Z" fill="#111827"/>
<path d="M170.424 100.992C170.424 101.437 170.702 101.759 170.958 101.737C171.214 101.715 171.381 101.337 171.336 100.904C171.292 100.47 171.058 100.137 170.802 100.159C170.547 100.181 170.38 100.559 170.424 100.992Z" fill="#263238"/>
<path opacity="0.2" d="M197.989 98.703L198.133 100.214C199.391 99.6715 200.525 98.8818 201.47 97.892L201.315 96.27C200.432 97.3514 199.287 98.189 197.989 98.703Z" fill="#111827"/>
<path d="M197.987 98.7024L198.099 99.9022C199.347 99.4435 200.459 98.6795 201.335 97.6803L201.213 96.436C200.338 97.4417 199.231 98.2196 197.987 98.7024Z" fill="#263238"/>
<path opacity="0.2" d="M197.125 101.257C196.113 101.523 195.601 100.512 195.868 99.3569C195.733 99.5943 195.661 99.8617 195.657 100.135C195.645 100.245 195.645 100.357 195.657 100.468C195.812 101.334 196.558 101.701 197.114 101.257H197.125Z" fill="#111827"/>
<path d="M199.464 92.4605C199.845 92.7322 200.123 93.1233 200.254 93.5714C200.388 94.7601 198.23 95.6933 197.518 96.0488C195.983 96.7709 194.381 97.3153 192.824 97.9374C194.737 97.5375 198.942 96.3599 200.176 94.5379C200.766 93.6047 200.176 92.8604 199.464 92.416V92.4605Z" fill="white"/>
<path d="M149.484 71.5638C149.515 72.2569 149.674 72.9384 149.951 73.5746C150.006 73.6968 150.073 73.8079 150.129 73.9301C150.166 73.9793 150.199 74.0313 150.229 74.0856L150.284 74.1523C150.573 74.6353 150.999 75.0219 151.508 75.2632C151.642 75.3277 151.784 75.3726 151.931 75.3965H152.031H152.353C152.491 75.3898 152.626 75.3598 152.754 75.3076C152.754 75.2077 152.754 75.0966 152.754 74.9966C152.596 74.012 152.518 73.0163 152.52 72.0193C152.501 70.7044 152.579 69.3899 152.754 68.0865C152.764 67.9259 152.787 67.7662 152.821 67.6088C152.567 67.5037 152.293 67.4581 152.02 67.4755C151.916 67.4645 151.812 67.4645 151.708 67.4755H151.619C151.451 67.5238 151.287 67.587 151.13 67.6644C150.711 67.9183 150.363 68.2736 150.118 68.6975C150.088 68.7282 150.069 68.7669 150.062 68.8086C150.009 68.8949 149.961 68.9839 149.917 69.0753C149.849 69.2236 149.79 69.3757 149.739 69.5307C149.523 70.1854 149.436 70.8759 149.484 71.5638Z" fill="#37474F"/>
<path d="M149.555 71.5527C149.571 72.1474 149.679 72.736 149.878 73.2969C149.941 73.4825 150.016 73.6643 150.1 73.8413C150.1 73.8413 150.178 73.9968 150.212 74.0746L150.267 74.1412C150.523 74.6501 150.959 75.0459 151.491 75.2522C151.623 75.2967 151.762 75.3192 151.902 75.3188H151.991C152.245 75.2936 152.486 75.2015 152.692 75.0522C152.535 74.0676 152.456 73.072 152.459 72.0749C152.455 70.7401 152.552 69.4069 152.748 68.0866C152.451 67.792 152.054 67.6212 151.635 67.6089C151.478 67.6167 151.323 67.6544 151.179 67.72C150.736 67.9421 150.38 68.3057 150.167 68.7532C150.138 68.7838 150.119 68.8225 150.112 68.8642C150.053 68.9704 150.004 69.082 149.967 69.1975C149.882 69.4033 149.811 69.615 149.756 69.8308C149.612 70.3933 149.545 70.9724 149.555 71.5527Z" fill="#455A64"/>
<path d="M149.884 73.2955C149.901 73.3856 149.924 73.4746 149.951 73.5621C150.143 74.3054 150.442 75.0166 150.841 75.6729C151.344 76.5826 152.123 77.3098 153.066 77.7503H153.177H153.244H153.388C153.114 76.9532 152.902 76.1361 152.754 75.3063C152.754 75.2063 152.754 75.0952 152.754 74.9952C152.597 74.0106 152.519 73.015 152.521 72.0179C152.501 70.703 152.579 69.3885 152.754 68.0851C152.765 67.9245 152.787 67.7649 152.821 67.6074C152.96 66.7042 153.153 65.8101 153.399 64.9301C153.399 64.8523 153.399 64.7968 153.399 64.7412C153.143 64.7757 152.895 64.8547 152.665 64.9745C152.644 64.9669 152.62 64.9669 152.599 64.9745C152.573 64.9691 152.546 64.9691 152.521 64.9745H152.443C151.558 65.4864 150.857 66.2639 150.441 67.1964C150.401 67.2634 150.367 67.3341 150.34 67.4075C150.017 68.0831 149.793 68.8013 149.673 69.5405V69.7849C149.596 70.3517 149.57 70.9243 149.595 71.4957C149.63 72.104 149.727 72.707 149.884 73.2955Z" fill="#FFB802"/>
<path opacity="0.1" d="M149.884 73.2955C149.901 73.3856 149.924 73.4746 149.951 73.5621C150.143 74.3054 150.442 75.0166 150.841 75.6729C151.344 76.5826 152.123 77.3098 153.066 77.7503H153.177H153.244H153.388C153.114 76.9532 152.902 76.1361 152.754 75.3063C152.754 75.2063 152.754 75.0952 152.754 74.9952C152.597 74.0106 152.519 73.015 152.521 72.0179C152.501 70.703 152.579 69.3885 152.754 68.0851C152.765 67.9245 152.787 67.7649 152.821 67.6074C152.96 66.7042 153.153 65.8101 153.399 64.9301C153.399 64.8523 153.399 64.7968 153.399 64.7412C153.143 64.7757 152.895 64.8547 152.665 64.9745C152.644 64.9669 152.62 64.9669 152.599 64.9745C152.573 64.9691 152.546 64.9691 152.521 64.9745H152.443C151.558 65.4864 150.857 66.2639 150.441 67.1964C150.401 67.2634 150.367 67.3341 150.34 67.4075C150.017 68.0831 149.793 68.8013 149.673 69.5405V69.7849C149.596 70.3517 149.57 70.9243 149.595 71.4957C149.63 72.104 149.727 72.707 149.884 73.2955Z" fill="#111827"/>
<path d="M149.762 71.5509C149.788 72.3282 149.903 73.0999 150.107 73.8505C150.101 73.8761 150.101 73.9028 150.107 73.9283C150.277 74.5383 150.516 75.1272 150.819 75.6836C151.033 76.1597 151.341 76.5885 151.723 76.9452C152.104 77.3018 152.553 77.5791 153.043 77.7611C153.076 77.7721 153.111 77.7721 153.144 77.7611H153.199H153.344C153.084 76.9591 152.887 76.1382 152.754 75.3059C152.754 75.2059 152.754 75.0948 152.754 74.9948C152.597 74.0102 152.519 73.0146 152.521 72.0175C152.501 70.7026 152.579 69.3881 152.754 68.0848C152.765 67.9241 152.787 67.7645 152.821 67.6071C152.96 66.7038 153.153 65.8097 153.399 64.9297H153.221C153.044 64.9376 152.869 64.9675 152.699 65.0186H152.621H152.543C152.078 65.2371 151.661 65.5462 151.317 65.9278C150.974 66.3093 150.71 66.7556 150.541 67.2404C150.501 67.3075 150.467 67.3782 150.441 67.4515C150.217 67.9912 150.053 68.5537 149.951 69.129C149.951 69.129 149.951 69.129 149.951 69.1957C149.795 69.9705 149.732 70.7611 149.762 71.5509Z" fill="#FFB802"/>
<path d="M151.944 75.3059C151.944 75.3059 151.944 75.3059 151.944 75.3725C152.187 75.9976 152.485 76.5999 152.834 77.1723C152.966 77.3955 153.111 77.6106 153.268 77.8166C153.268 77.8166 153.412 78.0055 153.49 78.1055C153.453 78.0242 153.427 77.9383 153.412 77.8499C153.126 77.0209 152.906 76.1701 152.756 75.3059C152.756 75.2059 152.756 75.0948 152.756 74.9948C152.599 74.0102 152.52 73.0146 152.523 72.0175C152.503 70.7026 152.581 69.3881 152.756 68.0848C152.767 67.9241 152.789 67.7645 152.823 67.6071C152.962 66.7038 153.155 65.8097 153.401 64.9297C153.401 64.8519 153.401 64.7964 153.401 64.7408C153.513 64.3409 153.646 63.9632 153.78 63.6299C153.345 64.0378 152.97 64.5054 152.667 65.0186C152.667 65.0186 152.511 65.2852 152.434 65.4074C152.384 65.488 152.343 65.5736 152.311 65.6629C152.023 66.2594 151.799 66.8851 151.644 67.5293V67.6071C151.305 68.8702 151.167 70.1783 151.232 71.4842C151.261 72.7882 151.501 74.0789 151.944 75.3059Z" fill="#37474F"/>
<path d="M152.029 75.3063C152.029 75.3063 152.029 75.3729 152.029 75.4062C152.241 76.0203 152.505 76.615 152.819 77.1838C152.933 77.3979 153.059 77.6056 153.197 77.8059C153.197 77.8059 153.419 78.117 153.531 78.2503C153.531 78.2503 153.531 78.1614 153.531 78.1169C153.493 78.0357 153.467 77.9498 153.453 77.8614C153.15 77.03 152.916 76.1755 152.752 75.3063C152.752 75.2063 152.752 75.0952 152.752 74.9952C152.594 74.0106 152.516 73.015 152.518 72.0179C152.499 70.703 152.577 69.3885 152.752 68.0851C152.763 67.9245 152.785 67.7649 152.819 67.6074C152.957 66.7042 153.15 65.8101 153.397 64.9301C153.397 64.8523 153.397 64.7968 153.397 64.7412C153.508 64.3413 153.642 63.9635 153.775 63.6303C153.793 63.5657 153.815 63.5025 153.842 63.4414C153.344 63.9092 152.924 64.4529 152.596 65.0523C152.527 65.171 152.463 65.2933 152.407 65.4189C152.357 65.4995 152.316 65.5851 152.285 65.6744C152.019 66.2728 151.806 66.8937 151.651 67.5297V67.6297C151.358 68.8965 151.239 70.1969 151.295 71.4957C151.363 72.7935 151.61 74.0757 152.029 75.3063Z" fill="#455A64"/>
<path d="M201.441 72.1738C201.441 79.6283 195.635 90.1933 174.745 90.1378C167.103 90.1378 161.92 88.1381 158.494 85.283C159.501 87.1591 160.713 88.9177 162.109 90.5266C165.702 94.6482 174.044 97.881 181.519 97.57C189.306 97.2478 195.379 95.948 199.217 93.7594C212.565 86.1717 213.677 73.8847 212.809 65.2527C210.874 48.8552 197.737 38.7123 180.451 39.4233C174.47 39.6431 168.736 41.858 164.163 45.7142C159.59 49.5705 156.443 54.8458 155.223 60.6978C156.135 59.1321 157.376 57.7826 158.861 56.7429C163.575 53.5799 169.169 51.9857 174.845 52.188C181.185 52.188 190.162 52.9545 195.179 56.8317C198.849 59.6646 201.464 64.7194 201.441 72.1738Z" fill="#FFB802"/>
<path opacity="0.4" d="M201.441 72.1738C201.441 79.6283 195.635 90.1933 174.745 90.1378C167.103 90.1378 161.92 88.1381 158.494 85.283C159.501 87.1591 160.713 88.9177 162.109 90.5266C165.702 94.6482 174.044 97.881 181.519 97.57C189.306 97.2478 195.379 95.948 199.217 93.7594C212.565 86.1717 213.677 73.8847 212.809 65.2527C210.874 48.8552 197.737 38.7123 180.451 39.4233C174.47 39.6431 168.736 41.858 164.163 45.7142C159.59 49.5705 156.443 54.8458 155.223 60.6978C156.135 59.1321 157.376 57.7826 158.861 56.7429C163.575 53.5799 169.169 51.9857 174.845 52.188C181.185 52.188 190.162 52.9545 195.179 56.8317C198.849 59.6646 201.464 64.7194 201.441 72.1738Z" fill="white"/>
<g opacity="0.5">
<path d="M196.947 50.3316C192.457 46.9779 187.064 45.0433 181.463 44.7769C186.904 45.7338 192.141 47.6124 196.947 50.3316Z" fill="white"/>
<path d="M203.012 56.5654C202.013 54.2577 200.271 52.3495 198.062 51.144C198.273 51.3773 198.496 51.5884 198.707 51.8217C200.228 53.3227 201.665 54.9064 203.012 56.5654Z" fill="white"/>
</g>
<g opacity="0.5">
<path d="M195.917 45.7694C195.917 46.0582 196.329 46.2693 196.796 46.2471C197.263 46.2249 197.641 45.9805 197.63 45.7027C197.619 45.425 197.23 45.2139 196.752 45.225C196.273 45.2361 195.906 45.4917 195.917 45.7694Z" fill="white"/>
<path d="M190.767 44.3451C190.767 45.0672 191.713 45.6782 192.925 45.7226C194.137 45.7671 195.15 45.2116 195.15 44.4895C195.15 43.7674 194.204 43.1564 192.992 43.123C191.779 43.0897 190.789 43.6341 190.767 44.3451Z" fill="white"/>
</g>
<path d="M174.727 90.1366C195.639 90.1922 201.423 79.6271 201.423 72.1727C201.423 64.7183 198.832 59.6635 195.139 56.8306C190.122 52.9534 181.145 52.198 174.805 52.1869C169.129 51.9845 163.535 53.5787 158.821 56.7417C156.151 58.5637 154.138 61.6521 153.136 65.8737C153.292 62.7411 154.103 59.6757 155.517 56.875C159.766 49.2318 171.39 47.8098 177.007 47.8209C182.625 47.832 197.03 49.2873 201.201 56.9639C205.372 64.6405 204.315 79.9826 199.566 84.8819C195.294 89.3257 187.63 91.7253 176.93 91.6253C169.61 91.5475 164.126 90.6255 158.965 85.9928C158.495 85.5614 158.06 85.0933 157.664 84.593C161.09 87.8037 166.496 90.1144 174.727 90.1366Z" fill="#FFB802"/>
<g opacity="0.5">
<path d="M195.426 55.1759C195.426 55.3981 195.66 55.6202 196.027 55.6869C196.394 55.7536 196.739 55.6314 196.772 55.4092C196.806 55.187 196.539 54.9648 196.172 54.8981C195.805 54.8315 195.471 54.9648 195.426 55.1759Z" fill="white"/>
<path d="M191.69 53.2309C191.545 53.7752 192.19 54.4085 193.136 54.6418C194.081 54.8751 194.938 54.6418 195.083 54.0641C195.227 53.4864 194.571 52.8865 193.637 52.6532C192.702 52.4199 191.79 52.6754 191.69 53.2309Z" fill="white"/>
</g>
<path opacity="0.8" d="M152.496 72.0637C152.496 79.5181 157.057 90.0942 174.743 90.1387C195.655 90.1387 201.439 79.6292 201.439 72.1747C201.439 64.7203 198.847 59.6655 195.166 56.8326C190.138 52.9554 181.161 52.2 174.81 52.1889C169.138 51.9935 163.549 53.5872 158.836 56.7438C154.977 59.3767 152.507 64.6092 152.496 72.0637Z" fill="#263238"/>
<g opacity="0.5">
<path d="M181.535 89.7504C185.277 89.3402 188.911 88.2482 192.258 86.5287C193.934 83.9704 195.07 81.0974 195.595 78.0855C197.042 70.5514 196.238 62.7586 193.282 55.6779C190.887 54.4191 188.308 53.5456 185.64 53.0894C189.978 62.3102 191.235 79.6075 181.535 89.7504Z" fill="white"/>
<path d="M185.541 76.0062C185.307 77.204 184.991 78.3843 184.595 79.539C185.198 78.4579 185.689 77.319 186.064 76.1395C188.288 68.363 186.542 59.9531 183.194 52.7098C183.094 52.6983 182.993 52.6983 182.893 52.7098C185.174 60.2086 187.009 68.1963 185.541 76.0062Z" fill="white"/>
<path d="M161.17 87.1157C161.955 87.5428 162.769 87.914 163.606 88.2267C156.932 83.5607 153.873 74.8954 155.241 66.8855C155.33 65.6079 155.697 64.3748 155.887 63.0972C155.412 64.3029 155.018 65.5388 154.707 66.7966C152.75 74.0955 155.23 82.5831 161.17 87.1157Z" fill="white"/>
<path d="M157.199 73.9966C157.076 68.6752 157.577 63.0871 159.902 58.2212C156.331 61.8095 155.452 69.3306 157.199 73.9966Z" fill="white"/>
</g>
<path d="M204 71.1521C203.766 76.1847 206.369 80.3951 209.818 80.5507C213.266 80.7062 216.247 76.7624 216.492 71.7409C216.736 66.7194 214.122 62.4979 210.674 62.3423C207.226 62.1868 204.234 66.1307 204 71.1521Z" fill="#37474F"/>
<path d="M210.777 80.3077C207.948 80.1764 205.838 76.12 206.065 71.2475C206.292 66.375 208.769 62.5314 211.598 62.6627C214.427 62.794 216.536 66.8503 216.31 71.7229C216.083 76.5954 213.606 80.4389 210.777 80.3077Z" fill="#455A64"/>
<path d="M213.136 78.2817C210.608 78.1644 208.698 75.0783 208.869 71.3886C209.041 67.699 211.23 64.8031 213.758 64.9204C216.286 65.0377 218.197 68.1239 218.025 71.8135C217.854 75.5031 215.665 78.399 213.136 78.2817Z" fill="#FFB802"/>
<path opacity="0.1" d="M213.136 78.2817C210.608 78.1644 208.698 75.0783 208.869 71.3886C209.041 67.699 211.23 64.8031 213.758 64.9204C216.286 65.0377 218.197 68.1239 218.025 71.8135C217.854 75.5031 215.665 78.399 213.136 78.2817Z" fill="#111827"/>
<path d="M210.388 71.4522C210.221 75.0295 211.768 78.0068 213.837 78.1179C215.905 78.229 217.73 75.3961 217.897 71.8189C218.063 68.2416 216.517 65.2754 214.437 65.1532C212.357 65.031 210.588 67.875 210.388 71.4522Z" fill="#FFB802"/>
<path d="M212.733 71.5635C212.633 73.7854 213.768 75.5963 215.269 75.6629C216.771 75.7296 218.084 74.0076 218.184 71.8191C218.284 69.6305 217.149 67.7863 215.648 67.7086C214.146 67.6308 212.822 69.3639 212.733 71.5635Z" fill="#37474F"/>
<path d="M213.632 71.6069C213.532 73.7288 214.455 75.5063 215.69 75.5619C216.925 75.6174 218.015 73.9399 218.115 71.8069C218.215 69.6739 217.292 67.9075 216.057 67.8519C214.822 67.7964 213.732 69.4739 213.632 71.6069Z" fill="#455A64"/>
<path d="M103.412 81.9093C103.1 82.1504 102.729 81.6909 103.052 81.4532C103.168 81.3845 103.306 81.3227 103.439 81.236C103.573 81.1494 103.457 81.1827 103.47 81.14C105.731 77.7586 107.141 73.5765 109.991 70.5952C112.575 67.8934 116.287 66.0457 119.549 64.2424C121.162 63.3586 131.963 56.5445 133.048 60.3245C133.555 62.0857 130.848 64.325 129.712 65.079C128.059 66.1969 126.326 66.5721 125.141 68.3219C124.214 69.6719 123.744 71.2148 122.731 72.5021C117.984 78.4637 109.181 77.4972 103.412 81.9093Z" fill="#2A9D8F"/>
<path d="M112.623 95.6596C108.949 102.317 103.112 106.977 96.8127 110.985C96.4398 111.23 96.0224 110.733 96.3807 110.459C96.3453 107.342 97.0918 104.266 98.5522 101.511C99.3014 100.338 100.278 99.3271 101.424 98.5366C103.227 97.122 104.684 95.3153 105.683 93.2539C107.397 90.0734 109.547 87.147 112.07 84.5595C112.855 83.7991 114.421 82.2182 115.702 82.8862C118.585 84.3246 113.525 94.0195 112.623 95.6596Z" fill="#2A9D8F"/>
<path d="M82.4104 115.271C82.4831 115.706 81.9248 115.869 81.6911 115.606C81.6776 115.608 81.6639 115.607 81.651 115.602C81.638 115.598 81.6262 115.591 81.6163 115.582C79.7416 112.761 77.2582 111.215 76.0729 107.932C75.1833 105.166 74.8208 102.258 75.0041 99.3595C75.0453 96.6212 75.2574 84.8956 79.6848 84.7463C81.0142 84.7124 81.4454 85.7556 81.7112 86.9105C81.9411 88.7109 82.013 90.528 81.9261 92.3409C82.0246 94.9004 82.9586 96.4686 84.2232 98.6952C87.5862 104.626 81.4714 109.492 82.4104 115.271Z" fill="#2A9D8F"/>
<path d="M93.4248 72.8703C93.2668 73.2819 92.703 73.1395 92.6349 72.7946C92.6223 72.7895 92.611 72.7815 92.602 72.7714C92.5929 72.7613 92.5863 72.7493 92.5825 72.7362C92.3981 69.3551 91.0418 66.7654 91.686 63.3353C92.3226 60.501 93.4856 57.811 95.1148 55.4047C96.5399 53.065 102.673 43.0643 106.565 45.1767C107.729 45.8204 107.571 46.9379 107.214 48.068C106.499 49.7365 105.639 51.3393 104.644 52.8581C103.43 55.1143 103.439 56.939 103.399 59.4986C103.289 66.3134 95.5481 67.4129 93.4248 72.8703Z" fill="#2A9D8F"/>
<path d="M93.8258 163.131C92.5154 157.855 91.626 152.483 91.1659 147.066C92.7546 142.106 96.7028 138.418 99.119 133.851C101.972 128.437 103.505 122.436 106.572 117.126C106.739 116.826 106.327 116.495 106.139 116.787C103.149 121.711 101.19 127.129 98.5358 132.254C96.4049 136.371 92.9723 139.883 90.9337 144.006C90.6433 139.656 90.5335 135.294 90.5267 130.942C90.5251 127.014 90.4914 123.076 90.6111 119.21C93.1306 113.513 98.5667 109.994 102.625 105.411C106.602 100.844 109.681 95.5695 111.702 89.863C111.733 89.767 111.597 89.712 111.552 89.8153C108.384 96.2553 104.123 102.098 98.9569 107.085C95.9113 110.051 92.8661 112.758 90.7317 116.298C90.9536 110.113 92.1181 103.999 94.1852 98.1647C95.2982 95.2045 96.4825 92.2788 97.7096 89.3668C104.527 80.539 112.819 72.9534 122.221 66.9446C122.429 66.811 122.202 66.5269 121.998 66.6498C113.357 71.7325 105.645 78.2466 99.1925 85.9134C107.01 68.5563 116.141 51.8198 126.507 35.8494C126.52 35.8319 126.526 35.8097 126.523 35.7878C126.52 35.7659 126.509 35.7461 126.491 35.7327C126.474 35.7193 126.451 35.7134 126.43 35.7163C126.408 35.7193 126.388 35.7308 126.374 35.7483C119.345 45.6548 112.931 55.9826 107.168 66.6737C101.624 76.5375 96.7716 86.7737 92.6464 97.3085C92.1061 94.7743 91.6962 92.214 91.4184 89.6379C91.103 85.9446 91.3037 82.2255 92.0146 78.5876C93.7816 70.4981 97.1395 62.5877 99.4862 54.6364C99.5203 54.5297 99.3563 54.4538 99.3153 54.5818C96.1984 62.4751 92.4539 70.6736 90.5618 78.97C89.168 85.0857 89.0278 93.6832 91.8157 99.5711C88.4678 109.178 88.5867 119.54 88.6845 129.636C87.3799 125.292 85.071 121.18 83.1603 117.147C79.9758 110.439 79.5283 102.5 79.1803 95.1696C79.1636 94.9644 78.8385 95.0604 78.8582 95.2196C79.0707 101.907 78.6083 109.379 80.9943 115.75C83.3803 122.121 86.7945 128.185 88.5974 135.017C88.624 135.13 88.6861 135.233 88.7747 135.309C88.9999 144.787 89.9346 154.292 92.7967 163.367C92.9715 164.034 93.9711 163.707 93.8258 163.131Z" fill="#263238"/>
<path d="M151.67 35.1514C149.638 36.7861 147.482 38.2593 145.22 39.5576C141.472 41.829 137.37 43.4555 133.083 44.3691C130.879 44.8042 128.613 44.8221 126.402 44.4218C125.996 44.3333 125.599 44.2065 125.217 44.043C124.598 43.7834 124.054 43.3751 123.631 42.8545L123.469 42.6263C123.361 42.4537 123.269 42.2709 123.196 42.0806C123.048 41.5132 123.036 40.919 123.16 40.346C123.285 39.7729 123.542 39.2371 123.912 38.7817C125.675 34.4536 130.575 31.5041 134.501 29.4307C137.044 28.0681 140.133 26.3271 143.052 26.0367C143.883 25.887 144.74 26.0405 145.467 26.4692C146.194 26.8979 146.743 27.5733 147.013 28.3723C148.882 27.7936 151.182 27.0822 153.115 27.6998C153.855 27.8812 154.498 28.3367 154.915 28.9741C155.332 29.6114 155.49 30.3831 155.359 31.1328C154.975 32.8092 152.959 34.1405 151.67 35.1514Z" fill="#D2AF05"/>
<path d="M122.621 40.6376L122.362 40.6372C122.054 40.6112 121.752 40.5385 121.466 40.4214L121.145 40.3191L120.738 40.0832L120.599 40.0388L120.445 39.9308C117.11 37.4071 116.966 32.5992 117.389 28.854C117.629 26.6248 118.003 24.412 118.51 22.228C118.791 20.2288 119.26 18.2605 119.911 16.3494C120.572 14.3711 121.517 12.4987 122.716 10.7904C123.587 9.57561 124.808 7.93162 126.417 7.8342C129.696 7.70592 129.227 12.9179 128.762 15.4382C129.385 15.2603 130.047 15.2706 130.665 15.468C131.283 15.6653 131.828 16.0408 132.233 16.5472C133.525 18.1359 133.478 20.3784 133.217 22.2587C132.576 26.7573 130.268 31.17 128.031 35.0292C126.889 37.0158 125.117 40.6003 122.621 40.6376Z" fill="#D2AF05"/>
<path d="M131.505 40.3523C129.853 41.287 128.121 42.0713 126.328 42.6959C125.145 43.2345 123.815 43.3604 122.552 43.0534C122.414 42.9961 122.283 42.9228 122.163 42.8349L121.97 42.7027L121.693 42.4262C120.102 40.742 120.314 36.8825 120.603 35.0231C120.858 33.5444 121.318 32.1083 121.97 30.7564C123.118 27.8739 124.766 25.2162 126.839 22.9056C128.619 20.8405 131.096 17.5166 134.165 17.6034C134.968 17.6797 135.76 17.846 136.526 18.099C137.618 18.3491 138.749 18.3788 139.853 18.1861C141.28 17.9171 142.754 18.0539 144.106 18.5808C145.337 19.0857 146.344 20.019 146.939 21.208C147.535 22.3969 147.679 23.761 147.344 25.0477C146.736 26.7026 145.801 28.2191 144.597 29.5082C143.471 30.8991 142.261 32.2207 140.975 33.4657C138.143 36.176 134.957 38.4924 131.505 40.3523Z" fill="#FFB802"/>
<path d="M127.7 45.8471C125.501 45.8737 123.226 45.4055 121.063 45.9488C120.642 46.0495 120.047 46.4357 119.663 46.0543C119.279 45.6729 119.438 45.0654 119.384 44.7189C119.28 44.0744 119.138 43.4363 118.96 42.808C118.56 41.3749 116.122 36.2335 116.984 33.9458C117.001 33.8977 117.029 33.854 117.066 33.818C117.102 33.7819 117.146 33.7543 117.194 33.7372C117.242 33.72 117.294 33.7137 117.345 33.7187C117.396 33.7237 117.445 33.7399 117.489 33.7661C118.498 34.7439 119.326 35.8921 119.934 37.1577C120.64 38.3357 122.31 41.503 124.054 40.5787C124.879 40.1366 127.755 36.7052 128.679 38.0116C128.723 38.0608 128.749 38.1225 128.756 38.1879C128.763 38.2533 128.748 38.3191 128.715 38.3759C128.044 39.4248 127.265 40.4016 126.393 41.2906C126.277 41.4301 125.268 42.4128 125.309 42.6142C125.449 43.2819 126.717 43.2169 127.2 43.2181C128.921 43.3566 131.009 42.7186 132.59 43.553C132.652 43.5948 132.696 43.6588 132.712 43.7318C132.728 43.8048 132.716 43.8811 132.677 43.9451C131.775 45.6206 129.366 45.8269 127.7 45.8471Z" fill="#263238"/>
<path d="M111.904 122.599C111.904 122.599 111.414 112.201 110.191 107.679C108.967 103.158 98.2442 87.9712 94.7959 90.1153C90.3466 92.8704 94.8738 102.858 97.7103 107.457C97.7103 107.457 87.5101 113.823 89.1675 121.688C89.9467 125.386 94.014 128.533 99.1706 127.942C104.981 127.276 111.904 122.599 111.904 122.599Z" fill="#37474F"/>
<path d="M111.392 115.567L81.7589 140.763C82.6441 144.646 84.6019 148.202 87.4097 151.029C98.9113 162.338 122.371 179.191 132.17 176.402C145.93 172.492 165.619 135.575 173.26 111.501C178.544 94.8371 169.456 97.7922 160.079 106.169C150.702 114.545 131.481 134.009 130.368 133.742C129.701 133.587 119.89 122.155 117.754 119.878C116.06 117.896 113.862 116.407 111.392 115.567Z" fill="#FFB802"/>
<path d="M93.7985 91.2723C91.5738 96.6826 95.7118 102.482 98.1256 107.148C98.1641 107.215 98.1859 107.291 98.1893 107.369C98.1926 107.446 98.1773 107.524 98.1446 107.594C98.112 107.665 98.063 107.727 98.0016 107.775C97.9403 107.823 97.8683 107.855 97.7918 107.87C93.6984 110.825 88.7707 116.18 88.8931 121.512C88.8931 121.545 88.8802 121.576 88.8572 121.599C88.8343 121.622 88.8032 121.634 88.7707 121.634C88.7383 121.634 88.7072 121.622 88.6842 121.599C88.6613 121.576 88.6484 121.545 88.6484 121.512C87.7696 115.813 92.1745 110.147 96.8686 107.203C94.3102 102.448 90.4504 96.4493 93.7763 91.2168C93.7985 91.2168 93.7985 91.2279 93.7985 91.2723Z" fill="#263238"/>
</g>
</svg>
