<svg width="130" height="130" viewBox="0 0 130 130" fill="none" xmlns="http://www.w3.org/2000/svg">
<path d="M65 1C100.346 1 129 29.6538 129 65C129 100.346 100.346 129 65 129C29.6538 129 1 100.346 1 65C1 29.6538 29.6538 1 65 1Z" fill="white" stroke="#111827" stroke-width="2" stroke-linecap="round" stroke-linejoin="round"/>
<path d="M53.9999 101.667H75.9999C94.3332 101.667 101.667 94.3333 101.667 76V54C101.667 35.6667 94.3332 28.3333 75.9999 28.3333H53.9999C35.6666 28.3333 28.3333 35.6667 28.3333 54V76C28.3333 94.3333 35.6666 101.667 53.9999 101.667Z" stroke="#292D32" stroke-width="2" stroke-linecap="round" stroke-linejoin="round"/>
<path d="M54.0001 57.6667C58.0502 57.6667 61.3334 54.3834 61.3334 50.3333C61.3334 46.2832 58.0502 43 54.0001 43C49.95 43 46.6667 46.2832 46.6667 50.3333C46.6667 54.3834 49.95 57.6667 54.0001 57.6667Z" stroke="#292D32" stroke-width="2" stroke-linecap="round" stroke-linejoin="round"/>
<path d="M30.79 90.4833L48.8667 78.3467C51.7634 76.4033 55.9434 76.6233 58.5467 78.86L59.7567 79.9233C62.6167 82.38 67.2367 82.38 70.0967 79.9233L85.35 66.8333C88.21 64.3767 92.83 64.3767 95.69 66.8333L101.667 71.9667" stroke="#292D32" stroke-width="2" stroke-linecap="round" stroke-linejoin="round"/>
</svg>
