<svg width="374" viewBox="0 0 374 396" fill="none" xmlns="http://www.w3.org/2000/svg">
<path d="M212.089 305.4C220.615 305.4 227.526 298.472 227.526 289.927C227.526 281.381 220.615 274.453 212.089 274.453C203.564 274.453 196.652 281.381 196.652 289.927C196.652 298.472 203.564 305.4 212.089 305.4Z" fill="#EBEBEB"/>
<path d="M217.704 280.746C217.741 281.489 217.54 282.225 217.131 282.846C216.716 283.485 216.135 283.999 215.452 284.333C214.749 284.688 213.935 284.756 213.184 284.522C212.468 284.3 211.856 283.828 211.457 283.193C212.009 283.589 212.641 283.858 213.309 283.979C213.623 284.038 213.945 284.038 214.259 283.979C214.571 283.934 214.874 283.835 215.153 283.688C215.303 283.617 215.444 283.539 215.585 283.46C215.726 283.381 215.868 283.279 215.993 283.177C216.254 282.976 216.493 282.75 216.707 282.5C217.147 281.984 217.486 281.389 217.704 280.746Z" fill="#C7C7C7"/>
<path d="M212.151 281.636C212.085 281.12 212.199 280.598 212.473 280.157C212.753 279.701 213.156 279.333 213.635 279.095C214.137 278.845 214.718 278.803 215.251 278.977C215.748 279.148 216.16 279.503 216.405 279.968C216.014 279.726 215.579 279.563 215.126 279.488C214.716 279.443 214.302 279.517 213.933 279.701C213.122 280.105 212.488 280.793 212.151 281.636Z" fill="#C7C7C7"/>
<path d="M212.087 297.195C212.276 297.668 212.29 298.192 212.126 298.674C211.958 299.171 211.647 299.606 211.231 299.925C211.018 300.092 210.773 300.215 210.512 300.285C210.25 300.355 209.977 300.372 209.709 300.334C209.205 300.267 208.743 300.015 208.414 299.626C208.839 299.767 209.286 299.829 209.733 299.807C210.129 299.779 210.509 299.634 210.823 299.39C211.144 299.136 211.411 298.82 211.608 298.462C211.842 298.072 212.004 297.643 212.087 297.195Z" fill="#C7C7C7"/>
<path d="M208.884 298.958C208.799 298.8 208.747 298.627 208.729 298.449C208.712 298.27 208.73 298.091 208.782 297.919C208.885 297.558 209.103 297.241 209.402 297.015C209.557 296.893 209.735 296.805 209.925 296.756C210.116 296.707 210.315 296.699 210.509 296.731C210.685 296.764 210.853 296.831 211.002 296.93C211.152 297.028 211.28 297.156 211.38 297.306C211.083 297.247 210.778 297.234 210.477 297.266C210.233 297.298 210.002 297.396 209.81 297.55C209.358 297.906 209.033 298.4 208.884 298.958Z" fill="#C7C7C7"/>
<path d="M206.521 283.278C206.657 283.405 206.766 283.559 206.842 283.729C206.917 283.899 206.958 284.083 206.961 284.27C206.963 284.472 206.926 284.673 206.851 284.86C206.775 285.048 206.663 285.219 206.521 285.363C206.376 285.511 206.198 285.623 206.002 285.69C205.806 285.757 205.596 285.777 205.391 285.748C205.022 285.714 204.678 285.549 204.418 285.284C204.741 285.293 205.064 285.272 205.383 285.221C205.632 285.182 205.862 285.066 206.042 284.891C206.228 284.702 206.363 284.469 206.435 284.214C206.514 283.909 206.544 283.593 206.521 283.278Z" fill="#C7C7C7"/>
<path d="M204.608 284.781C204.496 284.705 204.403 284.603 204.336 284.484C204.27 284.365 204.231 284.233 204.224 284.097C204.218 283.952 204.242 283.807 204.295 283.672C204.347 283.536 204.427 283.413 204.53 283.31C204.637 283.201 204.77 283.119 204.916 283.072C205.063 283.026 205.218 283.016 205.369 283.043C205.502 283.061 205.629 283.106 205.744 283.175C205.859 283.244 205.958 283.336 206.036 283.444C205.817 283.47 205.599 283.512 205.385 283.57C205.241 283.606 205.111 283.683 205.008 283.79C204.895 283.901 204.807 284.035 204.749 284.184C204.675 284.376 204.628 284.577 204.608 284.781Z" fill="#C7C7C7"/>
<path d="M217.253 299.587C217.163 299.751 217.041 299.895 216.894 300.01C216.747 300.125 216.578 300.208 216.397 300.255C216.204 300.314 216 300.333 215.799 300.31C215.598 300.287 215.404 300.223 215.228 300.122C215.049 300.017 214.897 299.872 214.782 299.699C214.668 299.526 214.595 299.329 214.569 299.123C214.52 298.754 214.598 298.379 214.789 298.061C214.854 298.377 214.954 298.686 215.087 298.981C215.18 299.215 215.348 299.412 215.566 299.539C215.791 299.677 216.048 299.753 216.311 299.76C216.633 299.756 216.951 299.698 217.253 299.587Z" fill="#C7C7C7"/>
<path d="M215.328 298.1C215.374 297.972 215.449 297.856 215.547 297.762C215.645 297.668 215.764 297.598 215.893 297.557C216.035 297.511 216.186 297.495 216.335 297.511C216.484 297.527 216.628 297.575 216.756 297.652C216.894 297.734 217.009 297.848 217.091 297.986C217.173 298.123 217.22 298.278 217.227 298.438C217.241 298.572 217.228 298.707 217.189 298.835C217.15 298.963 217.085 299.083 217 299.186C216.916 298.979 216.822 298.777 216.717 298.58C216.645 298.45 216.539 298.341 216.411 298.265C216.275 298.188 216.126 298.135 215.972 298.108C215.759 298.075 215.542 298.073 215.328 298.1Z" fill="#C7C7C7"/>
<path d="M222.54 288.7C222.571 289.076 222.453 289.45 222.211 289.739C221.942 290.044 221.565 290.233 221.159 290.266C220.952 290.277 220.744 290.241 220.553 290.161C220.361 290.081 220.19 289.958 220.053 289.802C219.805 289.525 219.658 289.173 219.637 288.802C219.877 289.026 220.14 289.223 220.422 289.392C220.633 289.531 220.883 289.6 221.136 289.589C221.398 289.571 221.652 289.487 221.873 289.345C222.129 289.167 222.354 288.95 222.54 288.7Z" fill="#C7C7C7"/>
<path d="M220.119 288.55C220.081 288.415 220.076 288.273 220.104 288.136C220.133 287.999 220.195 287.871 220.283 287.763C220.377 287.643 220.496 287.544 220.631 287.475C220.767 287.406 220.916 287.367 221.068 287.362C221.218 287.356 221.368 287.386 221.504 287.448C221.64 287.511 221.76 287.606 221.853 287.724C221.939 287.825 222.003 287.943 222.042 288.07C222.082 288.197 222.095 288.331 222.081 288.463C221.899 288.335 221.708 288.222 221.508 288.125C221.377 288.057 221.23 288.027 221.084 288.039C220.926 288.046 220.771 288.086 220.629 288.157C220.443 288.266 220.271 288.398 220.119 288.55Z" fill="#C7C7C7"/>
<path d="M202.087 292.208C202.104 292.393 202.084 292.579 202.027 292.756C201.971 292.933 201.879 293.097 201.758 293.238C201.627 293.392 201.466 293.519 201.286 293.609C201.105 293.7 200.908 293.753 200.706 293.765C200.498 293.778 200.291 293.744 200.099 293.663C199.907 293.582 199.736 293.459 199.6 293.301C199.354 293.027 199.207 292.678 199.184 292.31C199.426 292.531 199.689 292.729 199.968 292.9C200.181 293.037 200.431 293.103 200.683 293.089C200.944 293.073 201.198 292.992 201.42 292.853C201.676 292.675 201.901 292.457 202.087 292.208Z" fill="#C7C7C7"/>
<path d="M199.668 292.051C199.631 291.916 199.627 291.774 199.655 291.637C199.684 291.501 199.745 291.373 199.833 291.264C199.927 291.145 200.046 291.048 200.182 290.978C200.317 290.909 200.466 290.87 200.617 290.863C200.767 290.856 200.915 290.885 201.052 290.946C201.188 291.008 201.308 291.1 201.402 291.217C201.487 291.319 201.551 291.436 201.59 291.563C201.629 291.69 201.643 291.824 201.63 291.956C201.447 291.833 201.255 291.722 201.057 291.626C200.927 291.555 200.78 291.522 200.633 291.531C200.478 291.542 200.326 291.582 200.186 291.649C199.995 291.758 199.821 291.893 199.668 292.051Z" fill="#C7C7C7"/>
<g opacity="0.4">
<path d="M39.7606 232.406C39.7353 238.378 40.8737 244.297 43.1117 249.831C45.3798 255.282 48.9663 260.112 53.6123 263.149C54.7454 263.902 55.943 264.552 57.191 265.092C58.4175 265.6 59.6893 265.99 60.9894 266.256C63.5231 266.78 66.1329 266.817 68.6804 266.366C73.7345 265.493 78.3962 262.984 82.5242 259.68C82.7754 259.467 83.0579 259.255 83.309 259.058L83.8898 258.5C84.2665 258.106 84.6746 257.713 85.0042 257.296C85.7575 256.436 86.4424 255.518 87.0525 254.551C88.3878 252.459 89.5304 250.25 90.4664 247.951C92.5028 242.877 94.1735 237.664 95.4655 232.351C98.2673 221.338 100.496 209.672 103.149 197.825C103.808 194.857 104.512 191.878 105.26 188.889C105.982 185.891 106.782 182.886 107.614 179.858C109.306 173.559 111.478 167.399 114.112 161.434C114.834 159.861 115.627 158.288 116.569 156.659C117.032 155.873 117.558 155.031 118.138 154.229C118.719 153.426 119.284 152.655 119.904 151.955C122.278 149.187 125.028 146.767 128.074 144.765C133.834 140.887 139.752 138.472 145.434 136.018C151.116 133.563 156.719 131.298 162.016 128.584C167.261 125.946 172.192 122.724 176.716 118.979C181.092 115.302 184.825 110.918 187.758 106.007C190.646 101.137 192.749 95.8273 193.353 90.659C193.683 88.1946 193.649 85.6951 193.251 83.2408C192.873 81.0464 192.073 78.9466 190.897 77.0577C189.844 75.3881 188.458 73.9542 186.827 72.8456C185.196 71.7371 183.354 70.9777 181.417 70.615C179.439 70.2278 177.414 70.1482 175.413 70.379C173.264 70.6457 171.156 71.174 169.134 71.9523C168.609 72.1489 168.091 72.3692 167.565 72.5895L165.713 73.3761C164.488 73.9268 163.272 74.501 162.087 75.1146C159.733 76.334 157.378 77.6477 155.094 79.1187C150.519 82.0215 146.022 85.5378 141.015 89.3452C135.765 93.3947 130.225 97.052 124.44 100.288C118.41 103.517 112.084 106.159 105.55 108.178C104.765 108.445 103.934 108.658 103.125 108.894L100.951 109.515C99.7505 109.869 98.5341 110.255 97.3255 110.671C94.9162 111.521 92.5304 112.489 90.2074 113.566C80.9232 117.909 72.8084 123.997 67.0323 131.911C64.0448 135.946 61.5743 140.341 59.6788 144.993C58.659 147.426 57.7966 149.922 57.0968 152.466C56.3441 155.102 55.7311 157.775 55.2604 160.475C54.7895 163.22 54.4207 166.036 54.1931 168.9C54.0753 170.245 53.989 171.999 53.8791 173.62C53.7693 175.24 53.6045 176.853 53.4161 178.458C52.6659 184.803 51.4727 191.088 49.8453 197.267C48.2757 203.379 46.3294 209.294 44.3517 215.108C43.355 218.018 42.3583 220.906 41.4715 223.761C40.5165 226.553 39.941 229.461 39.7606 232.406ZM37.4062 232.406C37.4145 230.798 37.5775 229.193 37.8928 227.616C38.1675 226.042 38.5285 224.556 38.8817 223.061C39.588 220.064 40.3492 217.106 40.9771 214.132C41.6049 211.159 42.1621 208.193 42.5467 205.212C42.9312 202.23 43.1824 199.241 43.3315 196.26C43.544 190.35 43.1654 184.433 42.2014 178.599C41.9816 177.152 41.6991 175.72 41.4166 174.296C41.134 172.872 40.7966 171.551 40.467 169.859C39.7962 166.601 39.3063 163.308 38.9994 159.995C38.3334 153.109 38.6532 146.164 39.949 139.369C41.328 132.267 43.9079 125.453 47.5772 119.222C51.3363 112.973 56.041 107.347 61.5231 102.545C66.8973 97.8282 72.8817 93.8591 79.3144 90.7455C82.4794 89.1905 85.7403 87.8399 89.0773 86.7021C90.7411 86.1121 92.4362 85.6008 94.1628 85.1288L98.3536 84.0038C103.499 82.5971 108.516 80.7549 113.351 78.4973C118.367 76.0977 123.211 73.3509 127.846 70.2767C132.83 67.1301 138.221 63.4564 144.201 60.2704C147.201 58.6528 150.285 57.1954 153.439 55.9045C155.008 55.2516 156.578 54.6616 158.226 54.0952L160.643 53.3085C161.561 53.0332 162.487 52.7658 163.421 52.5219C167.25 51.5466 171.198 51.1202 175.146 51.2554C179.245 51.3857 183.29 52.2323 187.098 53.7569C190.986 55.3244 194.518 57.663 197.481 60.6323C200.408 63.5609 202.677 67.0824 204.136 70.9611C205.507 74.629 206.181 78.5219 206.122 82.4384C206.081 86.0864 205.51 89.709 204.427 93.192C202.327 99.6181 199.127 105.629 194.97 110.955C192.997 113.552 190.849 116.012 188.542 118.318C186.249 120.582 183.825 122.709 181.283 124.69C171.167 132.556 159.678 137.78 149.295 143.86C144.115 146.865 139.179 150.154 135.435 153.945C133.681 155.715 132.19 157.728 131.009 159.924C130.742 160.448 130.499 160.973 130.279 161.497C130.067 162.009 129.871 162.528 129.675 163.071C129.29 164.203 128.937 165.431 128.615 166.736C127.98 169.325 127.485 172.117 127.046 174.965C126.606 177.813 126.214 180.731 125.814 183.673L124.652 192.594C124.26 195.591 123.867 198.612 123.396 201.648C121.544 213.763 119.19 226.121 114.764 238.424C112.535 244.819 109.558 250.927 105.896 256.62C104.899 258.083 103.863 259.53 102.709 260.946C101.553 262.397 100.3 263.766 98.9579 265.045C97.5747 266.383 96.0895 267.611 94.5159 268.718C93.7129 269.287 92.8798 269.813 92.0203 270.292L90.7018 271C90.278 271.22 89.917 271.377 89.5011 271.566C86.315 273.049 82.9786 274.183 79.5499 274.949C76.0613 275.722 72.4798 275.987 68.9159 275.735C65.3719 275.482 61.8987 274.615 58.6507 273.171C57.0643 272.465 55.5459 271.614 54.1146 270.63C52.7214 269.675 51.409 268.607 50.1906 267.436C45.5818 262.833 42.1819 257.158 40.2943 250.916C38.4353 244.942 37.4623 238.727 37.4062 232.469V232.406Z" fill="#EBEBEB"/>
<path d="M138.572 258.72C141.819 252.51 144.234 245.897 145.753 239.053C147.393 232.233 148.437 225.271 149.457 218.23C149.999 214.714 150.485 211.151 151.129 207.587C151.73 203.922 152.542 200.294 153.562 196.723C154.643 192.874 156.199 189.174 158.192 185.71C160.498 181.76 163.663 178.383 167.453 175.83C168.465 175.161 169.556 174.603 170.592 174.005C171.628 173.407 172.836 173.029 173.982 172.581C175.128 172.132 176.336 171.873 177.482 171.574C178.628 171.275 179.837 171.141 181.006 170.945C185.514 170.344 190.085 170.405 194.575 171.126C198.979 171.829 203.28 173.071 207.383 174.823C211.226 176.488 214.924 178.469 218.441 180.746C224.826 184.985 230.895 189.684 236.601 194.804L244.637 201.884C245.948 203.04 247.274 204.141 248.561 205.251L250.515 206.895L252.47 208.468C255.009 210.506 257.649 212.415 260.38 214.187C262.962 215.878 265.682 217.347 268.511 218.577C271.518 219.807 274.627 220.771 277.803 221.456C281.115 222.242 284.568 222.825 288.107 223.344C295.17 224.39 302.547 225.051 310.011 225.916L315.622 226.616C317.514 226.892 319.389 227.175 321.288 227.521C325.143 228.167 328.942 229.109 332.652 230.337C336.534 231.595 340.191 233.467 343.483 235.883C346.81 238.385 349.526 241.613 351.425 245.323C352.332 247.114 353.062 248.99 353.606 250.924L354.313 253.779C354.509 254.723 354.634 255.636 354.799 256.572C355.353 260.313 355.566 264.097 355.435 267.876C355.246 271.682 354.688 275.46 353.771 279.157C353.52 280.077 353.332 281.021 353.034 281.926L352.155 284.656C351.48 286.441 350.797 288.235 349.988 289.966C346.75 296.943 342.494 303.398 337.361 309.121C334.834 312.009 332.14 314.746 329.293 317.318C326.484 319.937 323.486 322.321 320.441 324.641C318.871 325.758 317.364 326.931 315.771 327.985L313.417 329.605L311.008 331.179C307.769 333.213 304.462 335.128 301.088 336.921C299.4 337.81 297.697 338.667 295.994 339.533C294.291 340.398 292.549 341.169 290.815 341.948C289.08 342.727 287.338 343.521 285.572 344.221C283.807 344.921 282.056 345.669 280.267 346.322L270.065 350.145C268.401 350.766 266.769 351.435 265.128 352.08L262.664 353.055L260.223 354.07C247.272 359.434 234.661 365.586 222.459 372.494C216.33 375.963 210.255 379.574 203.663 383.224C200.375 385.072 196.89 386.866 193.076 388.573C189.035 390.398 184.831 391.836 180.519 392.868C175.891 393.95 171.143 394.429 166.393 394.292C161.875 394.153 157.384 393.533 152.997 392.443C150.862 391.979 148.876 391.358 146.859 390.768C145.863 390.453 144.905 390.107 143.932 389.784C142.959 389.462 142.002 389.131 140.997 388.715L138.03 387.519L136.555 386.905L135.087 386.189C133.103 385.267 131.172 384.232 129.304 383.09C128.362 382.508 127.42 381.941 126.486 381.336L123.771 379.33L122.437 378.315C121.989 377.969 121.581 377.568 121.149 377.19L118.638 374.893C117.853 374.106 117.069 373.194 116.331 372.352L115.201 371.062C114.84 370.621 114.518 370.149 114.173 369.685C113.506 368.757 112.831 367.837 112.187 366.901C111.544 365.964 111.049 364.934 110.5 363.943C108.433 360.059 106.964 355.885 106.144 351.561L105.822 349.987C105.736 349.46 105.681 348.941 105.618 348.414C105.493 347.376 105.359 346.337 105.273 345.268C105.158 343.237 105.145 341.203 105.234 339.171C105.411 335.259 105.921 331.369 106.756 327.544C107.577 323.865 108.604 320.236 109.833 316.673C112.255 309.771 115.105 303.026 118.363 296.479C119.148 294.866 119.933 293.23 120.781 291.641C121.628 290.052 122.35 288.432 123.237 286.85C124.124 285.269 124.917 283.704 125.764 282.131L128.299 277.411L138.572 258.72ZM140.66 259.79C137.301 266.02 134.177 272.376 131.399 278.866L130.363 281.297L129.39 283.751C128.723 285.379 128.134 287.039 127.538 288.691C126.321 291.987 125.27 295.338 124.297 298.698C122.357 305.331 121.023 312.126 120.31 319.001C119.963 322.327 119.814 325.671 119.862 329.015C119.933 332.215 120.261 335.403 120.843 338.549C121.055 340.123 121.534 341.547 121.879 343.01L122.594 345.11C122.719 345.456 122.821 345.802 122.947 346.141L123.394 347.132C124.458 349.676 125.871 352.059 127.593 354.212C128.024 354.731 128.456 355.234 128.856 355.785L130.269 357.201C130.504 357.437 130.724 357.689 130.967 357.909L131.752 358.546C132.278 358.963 132.764 359.412 133.322 359.821L135.009 360.985C135.292 361.182 135.551 361.394 135.849 361.567L136.767 362.094L138.58 363.156L140.534 364.092C143.242 365.379 146.041 366.465 148.908 367.341C149.614 367.593 150.407 367.805 151.192 368.018C151.976 368.23 152.761 368.466 153.546 368.655C155.076 368.993 156.614 369.402 158.09 369.63C160.871 370.176 163.7 370.44 166.534 370.417C169.124 370.378 171.701 370.032 174.21 369.386C179.287 368.088 184.953 365.319 191.098 362.023C194.167 360.395 197.298 358.664 200.516 356.91C203.734 355.156 207.022 353.449 210.326 351.734C223.736 344.88 237.611 338.983 251.85 334.089L254.471 333.161L257.147 332.28C258.928 331.698 260.71 331.092 262.499 330.541L272.976 327.34C276.312 326.309 279.616 325.216 282.904 324.091L287.793 322.321C289.41 321.699 291.027 321.086 292.636 320.449C295.814 319.127 299.024 317.829 302.116 316.35L304.47 315.264L306.77 314.124C308.339 313.384 309.791 312.551 311.306 311.764C317.247 308.535 322.861 304.736 328.069 300.42C330.611 298.275 333 295.954 335.219 293.474C337.427 291.044 339.4 288.41 341.112 285.608C344.579 280.046 346.774 273.783 347.54 267.271C347.881 263.993 347.865 260.688 347.493 257.414C347.375 256.627 347.297 255.762 347.155 254.959L346.669 252.599C346.263 251.099 345.716 249.639 345.036 248.241C343.683 245.475 341.666 243.088 339.166 241.295C336.497 239.44 333.521 238.073 330.376 237.26C327.033 236.382 323.619 235.803 320.174 235.529C316.674 235.238 313.111 235.136 309.501 235.167C302.296 235.207 294.951 235.655 287.377 235.812C283.579 235.867 279.718 235.812 275.747 235.576C271.626 235.345 267.533 234.76 263.512 233.83C254.95 231.73 247.572 227.883 240.894 223.603C227.631 214.997 217.185 204.724 206.575 197.164C201.293 193.396 196.066 190.391 190.683 188.739C187.976 187.907 185.176 187.421 182.348 187.291C179.779 187.063 177.192 187.442 174.796 188.399C172.4 189.355 170.261 190.862 168.551 192.798C166.419 195.114 164.591 197.694 163.113 200.476C161.509 203.451 160.075 206.516 158.82 209.656C157.556 212.889 156.355 216.201 155.265 219.552C153.02 226.254 151.05 233.106 148.798 239.879C146.663 246.736 143.945 253.398 140.675 259.79H140.66Z" fill="#EBEBEB"/>
<path d="M357.058 98.6435C356.072 100.761 354.942 102.809 353.676 104.771C353.095 105.715 352.483 106.604 351.871 107.501C351.259 108.398 350.615 109.24 349.972 110.066C348.7 111.749 347.366 113.299 346.048 114.849C340.664 120.945 334.802 126.176 329.057 131.368L327.024 133.217L326.13 134.004L325.258 134.924C324.67 135.514 324.152 136.191 323.602 136.836C323.053 137.481 322.567 138.22 322.033 138.944C321.499 139.668 321.044 140.407 320.589 141.194C320.134 141.98 319.671 142.767 319.239 143.554C318.399 145.127 317.544 146.834 316.798 148.549C313.659 155.424 311.305 162.811 307.687 170.213C305.792 174.152 303.283 177.764 300.255 180.912C298.598 182.577 296.754 184.045 294.761 185.286C293.746 185.909 292.698 186.476 291.622 186.985C291.08 187.237 290.539 187.504 289.99 187.724L288.326 188.346C286.114 189.112 283.84 189.686 281.53 190.061C280.368 190.273 279.112 190.336 277.88 190.446C276.648 190.556 275.447 190.446 274.215 190.446C272.983 190.446 271.861 190.234 270.613 190.1C270.025 190.03 269.441 189.93 268.863 189.801L267.121 189.447L266.25 189.258L265.41 189.014L263.73 188.511C262.62 188.192 261.53 187.806 260.466 187.355C256.302 185.687 252.365 183.498 248.749 180.841C245.263 178.251 242.048 175.315 239.15 172.078C236.326 168.869 233.834 165.382 231.711 161.67C231.185 160.742 230.682 159.806 230.188 158.878C229.694 157.949 229.278 156.95 228.83 155.991C228.383 155.031 227.975 154.055 227.598 153.064C227.222 152.073 226.813 151.106 226.5 150.083C225.147 146.095 224.118 142.004 223.423 137.85C222.717 133.77 222.339 129.64 222.293 125.5C222.216 121.455 222.52 117.412 223.203 113.425C223.878 109.487 225.127 105.671 226.908 102.097C228.789 98.4736 231.474 95.3306 234.756 92.9087C238.098 90.5093 241.753 88.5798 245.617 87.174C253.333 84.3762 261.314 82.3782 269.436 81.2112C273.446 80.5976 277.433 80.1885 281.38 79.9368C281.763 79.9195 282.144 79.8696 282.518 79.7873L283.437 79.6221C284.064 79.4333 284.661 79.3783 285.281 79.158L286.191 78.8984C286.497 78.7883 286.803 78.6624 287.109 78.5759C287.722 78.4107 288.365 78.0881 288.985 77.8915C291.817 76.7344 294.574 75.4024 297.241 73.9031L301.895 71.2836L304.383 69.8755L307.051 68.4673C308.825 67.4919 310.81 66.5558 312.851 65.6275C315.067 64.6573 317.342 63.8297 319.663 63.1495C322.28 62.3813 324.971 61.8909 327.691 61.6864C330.66 61.4586 333.647 61.6385 336.567 62.2213L337.682 62.4337L338.765 62.7248C339.479 62.9293 340.209 63.126 340.923 63.3541C342.293 63.8373 343.633 64.4047 344.933 65.0533L346.825 66.0366L348.559 67.1143C349.68 67.8431 350.762 68.6309 351.8 69.4743C352.075 69.6788 352.287 69.8361 352.585 70.0957C352.883 70.3553 353.37 70.788 353.77 71.1498C354.586 71.8867 355.334 72.6949 356.007 73.5649C356.172 73.7773 356.352 73.9975 356.517 74.2257L356.996 74.9573C357.302 75.4528 357.592 75.9406 357.882 76.444C358.402 77.4583 358.845 78.5101 359.209 79.5907C359.366 80.1256 359.507 80.6526 359.64 81.164C359.711 81.4314 359.774 81.7068 359.821 81.9506L359.946 82.7373C360.017 83.2407 360.072 83.7521 360.127 84.2634C360.182 84.7747 360.166 85.2152 360.182 85.6951C360.198 86.175 360.182 86.647 360.182 87.1032L360.072 88.3933C360.025 88.8103 359.994 89.2665 359.923 89.6598L359.695 90.8713C359.12 93.5558 358.235 96.164 357.058 98.6435Z" fill="#EBEBEB"/>
<path d="M98.1987 306.689C98.5854 308.938 98.7458 311.221 98.6774 313.502C98.5053 317.662 97.793 321.782 96.5585 325.758C95.4909 329.635 94.1293 333.425 92.4854 337.094C90.8148 340.78 88.7068 344.25 86.207 347.43C83.5948 350.738 80.5545 353.683 77.1662 356.186C73.3678 358.853 69.0012 360.596 64.4132 361.275C61.9811 361.64 59.5124 361.69 57.0675 361.425C54.706 361.161 52.3984 360.537 50.2241 359.576C48.2953 358.708 46.4901 357.586 44.8561 356.241C43.3942 355.015 42.0078 353.702 40.7045 352.308C40.0299 351.578 39.4231 350.788 38.8916 349.948C38.3913 349.066 37.9635 348.145 37.6124 347.194C36.954 345.229 36.4964 343.203 36.2468 341.145C35.6618 336.867 35.6144 332.533 36.1056 328.244C36.5721 324.125 37.9099 320.153 40.0296 316.593C42.0805 313.22 44.7866 310.293 47.9874 307.987C51.291 305.741 54.8471 303.893 58.5822 302.481C62.3021 301.002 65.9043 299.61 69.326 297.989C72.7477 296.369 76.0596 294.567 80.2269 293.269C81.3393 292.916 82.4822 292.669 83.6407 292.53C84.9914 292.348 86.3616 292.369 87.706 292.593C89.5098 292.941 91.1921 293.755 92.5874 294.953C92.9342 295.257 93.2643 295.58 93.5763 295.92C93.8666 296.251 94.157 296.589 94.4317 296.943C94.9133 297.597 95.3462 298.286 95.7266 299.004C96.0792 299.662 96.3937 300.339 96.6684 301.033C96.9038 301.663 97.1706 302.355 97.3354 302.961L97.6101 303.913L97.8377 304.833C97.9868 305.502 98.0888 306.084 98.1987 306.689Z" fill="#EBEBEB"/>
</g>
<g opacity="0.4">
<path d="M319.878 174.634C338.329 160.27 356.89 163.063 356.89 163.063C356.89 163.063 356.976 181.879 340.134 198.108C325.921 211.804 312.431 211.025 307.777 205.644C303.123 200.264 304.308 186.749 319.878 174.634Z" fill="#EBEBEB"/>
<path d="M317.83 183.925C329.523 174.815 341.288 176.593 341.288 176.593C341.288 176.593 341.343 188.511 330.669 198.808C321.66 207.462 313.098 206.997 310.155 203.583C307.212 200.169 307.957 191.603 317.83 183.925Z" fill="white"/>
</g>
<path d="M326.299 188.841L324.902 187.724C324.806 187.648 324.727 187.554 324.667 187.447C324.608 187.34 324.571 187.223 324.557 187.102C324.543 186.98 324.553 186.857 324.587 186.74C324.62 186.623 324.677 186.513 324.753 186.418C324.829 186.323 324.923 186.243 325.03 186.185C325.136 186.126 325.254 186.089 325.375 186.076C325.496 186.063 325.618 186.074 325.735 186.108C325.852 186.143 325.96 186.2 326.055 186.276L327.452 187.393C327.547 187.469 327.626 187.563 327.684 187.669C327.742 187.775 327.779 187.892 327.792 188.013C327.805 188.133 327.795 188.255 327.76 188.372C327.726 188.488 327.67 188.597 327.593 188.691C327.519 188.787 327.425 188.866 327.32 188.925C327.214 188.985 327.097 189.022 326.977 189.036C326.857 189.05 326.735 189.04 326.618 189.006C326.502 188.973 326.393 188.916 326.299 188.841Z" fill="#EBEBEB"/>
<path d="M310.549 203.245L309.576 201.742C309.442 201.536 309.395 201.286 309.445 201.046C309.495 200.805 309.638 200.595 309.843 200.46C309.945 200.392 310.059 200.346 310.179 200.322C310.299 200.299 310.422 200.3 310.542 200.325C310.662 200.35 310.775 200.398 310.876 200.467C310.977 200.536 311.063 200.625 311.13 200.727L312.103 202.23C312.236 202.436 312.282 202.687 312.23 202.928C312.179 203.168 312.034 203.378 311.828 203.512C311.623 203.646 311.373 203.693 311.134 203.643C310.894 203.593 310.684 203.45 310.549 203.245Z" fill="#EBEBEB"/>
<path d="M319.747 185.986H318.782C318.66 185.982 318.541 185.954 318.43 185.904C318.319 185.853 318.219 185.782 318.136 185.692C318.053 185.603 317.988 185.499 317.946 185.384C317.903 185.27 317.883 185.149 317.887 185.027C317.891 184.905 317.919 184.785 317.97 184.674C318.02 184.563 318.092 184.463 318.181 184.379C318.269 184.296 318.374 184.231 318.488 184.188C318.602 184.146 318.723 184.126 318.845 184.13H319.802C319.923 184.133 320.043 184.16 320.154 184.21C320.264 184.259 320.364 184.33 320.447 184.419C320.531 184.507 320.596 184.612 320.638 184.725C320.681 184.839 320.701 184.96 320.697 185.082C320.694 185.204 320.667 185.324 320.617 185.435C320.568 185.547 320.497 185.647 320.409 185.731C320.321 185.815 320.217 185.881 320.103 185.925C319.99 185.969 319.869 185.99 319.747 185.986Z" fill="#EBEBEB"/>
<path d="M328.629 197.621V196.661C328.632 196.539 328.66 196.42 328.709 196.309C328.758 196.198 328.829 196.098 328.918 196.014C329.006 195.931 329.11 195.866 329.223 195.823C329.337 195.78 329.458 195.76 329.579 195.764C329.701 195.767 329.82 195.794 329.932 195.844C330.043 195.893 330.143 195.964 330.227 196.053C330.311 196.141 330.377 196.245 330.42 196.359C330.464 196.473 330.485 196.594 330.482 196.716V197.684C330.479 197.805 330.451 197.925 330.402 198.036C330.353 198.147 330.282 198.247 330.193 198.331C330.105 198.414 330.001 198.479 329.888 198.522C329.774 198.565 329.653 198.585 329.532 198.58C329.41 198.577 329.289 198.55 329.177 198.5C329.066 198.45 328.965 198.378 328.881 198.289C328.797 198.2 328.732 198.095 328.689 197.98C328.645 197.865 328.625 197.743 328.629 197.621Z" fill="#EBEBEB"/>
<path d="M308.17 197.903L308.061 196.951C308.033 196.711 308.1 196.47 308.246 196.278C308.393 196.086 308.607 195.958 308.845 195.921C309.091 195.894 309.337 195.966 309.53 196.121C309.722 196.276 309.846 196.501 309.874 196.747L309.976 197.699C310.005 197.938 309.939 198.18 309.792 198.371C309.645 198.562 309.429 198.688 309.191 198.721C309.07 198.736 308.948 198.726 308.831 198.692C308.714 198.659 308.605 198.602 308.51 198.526C308.415 198.45 308.336 198.356 308.278 198.249C308.22 198.142 308.183 198.024 308.17 197.903Z" fill="#EBEBEB"/>
<path d="M323.749 206.289L322.854 206.643C322.741 206.687 322.62 206.709 322.498 206.707C322.377 206.704 322.257 206.678 322.145 206.629C322.033 206.58 321.933 206.509 321.848 206.421C321.764 206.333 321.698 206.229 321.654 206.116C321.609 206.002 321.588 205.881 321.59 205.759C321.592 205.637 321.619 205.516 321.668 205.405C321.716 205.293 321.787 205.192 321.875 205.107C321.962 205.023 322.066 204.957 322.18 204.912L323.074 204.566C323.302 204.476 323.557 204.48 323.782 204.577C324.007 204.674 324.184 204.857 324.275 205.085C324.32 205.199 324.343 205.32 324.341 205.443C324.339 205.565 324.313 205.686 324.264 205.798C324.215 205.91 324.144 206.011 324.056 206.095C323.967 206.18 323.863 206.245 323.749 206.289Z" fill="#EBEBEB"/>
<path d="M320.532 206.377C326.395 205.721 330.617 200.425 329.962 194.549C329.308 188.672 324.025 184.44 318.162 185.096C312.299 185.752 308.077 191.048 308.732 196.924C309.386 202.801 314.67 207.033 320.532 206.377Z" fill="#EBEBEB"/>
<path d="M314.77 189.88C314.798 190.395 314.993 190.887 315.327 191.28C315.659 191.688 316.096 191.998 316.59 192.177C317.1 192.364 317.662 192.347 318.16 192.13C318.633 191.92 319.016 191.549 319.243 191.083C318.898 191.407 318.485 191.648 318.034 191.791C317.823 191.853 317.603 191.877 317.383 191.862C317.163 191.855 316.946 191.813 316.739 191.736L316.425 191.611C316.323 191.555 316.221 191.508 316.127 191.445C315.933 191.328 315.752 191.19 315.586 191.036C315.239 190.71 314.961 190.316 314.77 189.88Z" fill="#C7C7C7"/>
<path d="M318.654 190.068C318.66 189.706 318.541 189.354 318.317 189.069C318.091 188.777 317.786 188.556 317.438 188.432C317.09 188.299 316.704 188.306 316.361 188.453C316.018 188.6 315.746 188.875 315.602 189.219C315.852 189.021 316.141 188.877 316.449 188.794C316.725 188.727 317.015 188.743 317.281 188.841C317.876 189.063 318.367 189.501 318.654 190.068Z" fill="#C7C7C7"/>
<path d="M323.075 196.967C322.978 197.307 323.009 197.671 323.161 197.99C323.308 198.32 323.555 198.596 323.868 198.777C324.026 198.876 324.203 198.943 324.388 198.971C324.573 199 324.762 198.99 324.943 198.942C325.286 198.857 325.586 198.646 325.783 198.352C325.5 198.482 325.198 198.562 324.888 198.588C324.611 198.596 324.338 198.522 324.103 198.375C323.855 198.232 323.638 198.04 323.467 197.809C323.286 197.555 323.153 197.27 323.075 196.967Z" fill="#C7C7C7"/>
<path d="M325.403 197.928C325.451 197.815 325.476 197.693 325.476 197.57C325.476 197.447 325.451 197.325 325.403 197.212C325.306 196.971 325.132 196.769 324.908 196.638C324.792 196.566 324.663 196.519 324.528 196.5C324.392 196.481 324.255 196.491 324.124 196.527C324.004 196.563 323.893 196.622 323.797 196.702C323.702 196.782 323.623 196.88 323.566 196.992C323.767 196.926 323.976 196.892 324.186 196.889C324.356 196.898 324.521 196.95 324.665 197.039C325.001 197.247 325.26 197.559 325.403 197.928Z" fill="#C7C7C7"/>
<path d="M326.615 194.175C326.531 194.273 326.467 194.386 326.428 194.509C326.389 194.632 326.375 194.762 326.387 194.891C326.4 195.03 326.44 195.165 326.506 195.288C326.573 195.411 326.663 195.519 326.772 195.607C326.881 195.693 327.008 195.755 327.143 195.786C327.279 195.817 327.42 195.818 327.556 195.787C327.805 195.733 328.027 195.594 328.184 195.394C327.965 195.413 327.744 195.413 327.525 195.394C327.347 195.391 327.175 195.327 327.038 195.213C326.898 195.099 326.79 194.95 326.724 194.781C326.655 194.586 326.618 194.381 326.615 194.175Z" fill="#C7C7C7"/>
<path d="M328.04 195.056C328.113 194.997 328.171 194.921 328.208 194.834C328.245 194.748 328.26 194.654 328.252 194.56C328.248 194.456 328.222 194.354 328.174 194.262C328.127 194.17 328.059 194.089 327.977 194.025C327.896 193.957 327.799 193.91 327.695 193.888C327.591 193.866 327.483 193.87 327.381 193.899C327.291 193.922 327.208 193.964 327.135 194.02C327.062 194.077 327.001 194.149 326.957 194.23C327.109 194.233 327.262 194.246 327.412 194.269C327.512 194.284 327.607 194.325 327.687 194.387C327.773 194.456 327.845 194.542 327.899 194.639C327.964 194.771 328.011 194.911 328.04 195.056Z" fill="#C7C7C7"/>
<path d="M311.707 192.657C311.709 192.787 311.737 192.915 311.79 193.034C311.842 193.153 311.918 193.26 312.013 193.349C312.118 193.447 312.242 193.522 312.377 193.569C312.512 193.616 312.655 193.635 312.798 193.624C312.941 193.618 313.081 193.579 313.206 193.509C313.331 193.439 313.439 193.341 313.52 193.223C313.666 193.014 313.738 192.762 313.724 192.507C313.581 192.676 313.424 192.831 313.253 192.971C313.115 193.08 312.949 193.145 312.774 193.16C312.593 193.169 312.411 193.131 312.249 193.05C312.048 192.949 311.865 192.816 311.707 192.657Z" fill="#C7C7C7"/>
<path d="M313.367 192.349C313.379 192.256 313.37 192.162 313.34 192.073C313.31 191.984 313.26 191.904 313.194 191.838C313.122 191.764 313.035 191.706 312.939 191.668C312.843 191.63 312.74 191.613 312.637 191.618C312.538 191.623 312.441 191.65 312.354 191.697C312.266 191.744 312.19 191.809 312.13 191.889C312.07 191.968 312.028 192.059 312.008 192.157C311.987 192.254 311.987 192.354 312.009 192.451C312.15 192.341 312.26 192.247 312.37 192.176C312.459 192.124 312.558 192.092 312.66 192.082C312.77 192.077 312.88 192.096 312.982 192.137C313.12 192.189 313.249 192.261 313.367 192.349Z" fill="#C7C7C7"/>
<path d="M318.472 199.217C318.071 199.453 317.609 199.565 317.145 199.538C316.681 199.511 316.234 199.347 315.863 199.066C315.492 198.786 315.211 198.401 315.058 197.961C314.904 197.521 314.884 197.045 315 196.594C315.116 196.142 315.363 195.735 315.709 195.424C316.055 195.113 316.486 194.912 316.946 194.846C317.407 194.78 317.876 194.852 318.296 195.053C318.716 195.254 319.066 195.575 319.304 195.976C319.463 196.243 319.567 196.539 319.611 196.847C319.655 197.155 319.638 197.469 319.56 197.77C319.483 198.071 319.347 198.354 319.16 198.602C318.974 198.851 318.74 199.059 318.472 199.217Z" fill="#DBDBDB"/>
<path d="M316.049 196.188C315.759 196.359 315.514 196.597 315.332 196.881C315.151 197.165 315.039 197.488 315.006 197.824C314.899 197.443 314.889 197.041 314.978 196.655C315.067 196.269 315.252 195.912 315.514 195.616C315.777 195.321 316.11 195.096 316.482 194.963C316.854 194.83 317.254 194.793 317.644 194.856C318.034 194.918 318.402 195.078 318.714 195.321C319.027 195.563 319.273 195.881 319.431 196.244C319.589 196.607 319.653 197.004 319.617 197.398C319.582 197.793 319.448 198.172 319.228 198.501C319.311 198.098 319.277 197.679 319.13 197.295C318.983 196.911 318.729 196.578 318.399 196.334C318.068 196.091 317.675 195.947 317.265 195.921C316.856 195.895 316.447 195.988 316.089 196.188H316.049Z" fill="#C7C7C7"/>
<path d="M314.109 197.935C314.169 198.561 314.419 199.154 314.824 199.634C315.242 200.127 315.784 200.499 316.393 200.712C317.008 200.956 317.693 200.956 318.308 200.712C318.87 200.441 319.326 199.99 319.603 199.43C319.192 199.849 318.686 200.162 318.128 200.342C317.994 200.385 317.858 200.416 317.719 200.437C317.581 200.452 317.442 200.452 317.304 200.437C317.035 200.428 316.77 200.375 316.519 200.279L316.126 200.122C316.001 200.051 315.875 199.996 315.757 199.917C315.512 199.769 315.283 199.595 315.075 199.398C314.66 198.979 314.332 198.482 314.109 197.935Z" fill="#C7C7C7"/>
<path d="M311.606 199.115C311.497 199.154 311.381 199.171 311.266 199.165C311.15 199.159 311.037 199.13 310.932 199.08C310.827 199.03 310.734 198.959 310.656 198.873C310.579 198.787 310.519 198.686 310.48 198.576C310.442 198.467 310.425 198.351 310.431 198.235C310.437 198.119 310.466 198.005 310.516 197.9C310.566 197.796 310.636 197.702 310.722 197.624C310.808 197.546 310.909 197.486 311.018 197.448C311.239 197.374 311.479 197.39 311.689 197.491C311.898 197.592 312.06 197.771 312.14 197.99C312.218 198.211 312.206 198.453 312.106 198.664C312.005 198.875 311.826 199.037 311.606 199.115Z" fill="#DBDBDB"/>
<path d="M310.975 197.856C310.857 197.897 310.75 197.967 310.664 198.059C310.578 198.15 310.515 198.261 310.481 198.383C310.461 198.187 310.508 197.991 310.613 197.825C310.719 197.66 310.877 197.535 311.062 197.47C311.282 197.397 311.523 197.412 311.733 197.513C311.942 197.615 312.104 197.794 312.184 198.013C312.239 198.171 312.249 198.341 312.211 198.504C312.174 198.667 312.091 198.816 311.972 198.933C312.046 198.746 312.046 198.538 311.972 198.351C311.939 198.253 311.888 198.162 311.82 198.084C311.752 198.006 311.669 197.942 311.576 197.896C311.484 197.85 311.383 197.822 311.28 197.815C311.177 197.809 311.073 197.822 310.975 197.856Z" fill="#C7C7C7"/>
<path d="M310.083 198.335C310.047 198.57 310.089 198.81 310.2 199.019C310.319 199.234 310.492 199.413 310.703 199.539C310.919 199.671 311.178 199.713 311.425 199.657C311.658 199.602 311.864 199.465 312.005 199.271C311.818 199.381 311.609 199.451 311.393 199.476C311.192 199.489 310.992 199.44 310.82 199.334C310.636 199.226 310.476 199.082 310.349 198.911C310.222 198.739 310.131 198.543 310.083 198.335Z" fill="#C7C7C7"/>
<path d="M318.263 204.149C318.018 204.191 317.766 204.159 317.539 204.057C317.313 203.955 317.121 203.788 316.989 203.577C316.857 203.366 316.79 203.121 316.797 202.872C316.805 202.623 316.885 202.382 317.03 202.179C317.174 201.976 317.375 201.82 317.607 201.732C317.84 201.643 318.093 201.626 318.335 201.682C318.577 201.738 318.797 201.865 318.968 202.047C319.138 202.228 319.25 202.456 319.291 202.702C319.319 202.865 319.315 203.031 319.278 203.193C319.242 203.354 319.174 203.506 319.078 203.64C318.983 203.775 318.861 203.889 318.721 203.977C318.582 204.064 318.426 204.123 318.263 204.149Z" fill="#DBDBDB"/>
<path d="M317.637 202.175C317.461 202.205 317.294 202.276 317.151 202.383C317.008 202.489 316.892 202.629 316.812 202.789C316.832 202.48 316.965 202.19 317.185 201.974C317.406 201.758 317.698 201.631 318.007 201.618C318.315 201.606 318.617 201.708 318.854 201.905C319.092 202.102 319.248 202.381 319.292 202.687C319.332 202.922 319.304 203.163 319.212 203.383C319.12 203.603 318.969 203.792 318.774 203.929C318.923 203.696 318.984 203.417 318.947 203.143C318.926 202.992 318.875 202.847 318.798 202.717C318.72 202.586 318.617 202.473 318.495 202.383C318.373 202.292 318.234 202.228 318.087 202.192C317.939 202.156 317.786 202.151 317.637 202.175Z" fill="#C7C7C7"/>
<path d="M316.333 202.663C316.247 202.985 316.261 203.325 316.372 203.639C316.479 203.959 316.672 204.245 316.929 204.465C317.193 204.691 317.531 204.814 317.879 204.811C318.214 204.796 318.535 204.669 318.789 204.449C318.507 204.581 318.197 204.643 317.886 204.63C317.596 204.602 317.321 204.484 317.102 204.291C316.87 204.095 316.682 203.851 316.552 203.576C316.416 203.29 316.341 202.979 316.333 202.663Z" fill="#C7C7C7"/>
<path d="M322.469 191.453C322.701 191.817 323.039 192.103 323.436 192.27C323.834 192.438 324.274 192.48 324.696 192.392C325.119 192.303 325.504 192.088 325.802 191.775C326.099 191.461 326.295 191.065 326.362 190.637C326.429 190.21 326.365 189.772 326.178 189.382C325.991 188.992 325.691 188.669 325.316 188.454C324.941 188.239 324.51 188.144 324.08 188.181C323.65 188.218 323.241 188.385 322.908 188.66C322.482 188.973 322.197 189.443 322.114 189.966C322.032 190.489 322.159 191.023 322.469 191.453Z" fill="#DBDBDB"/>
<path d="M325.389 189.613C325.563 189.831 325.679 190.089 325.725 190.365C325.772 190.64 325.748 190.923 325.656 191.186C325.94 190.85 326.101 190.427 326.114 189.987C326.127 189.547 325.99 189.115 325.726 188.763C325.363 188.38 324.864 188.155 324.337 188.137C323.81 188.12 323.297 188.311 322.909 188.669C322.607 188.908 322.375 189.223 322.237 189.583C322.098 189.943 322.06 190.334 322.124 190.714C322.22 190.25 322.472 189.833 322.838 189.534C323.188 189.207 323.652 189.033 324.13 189.047C324.607 189.062 325.06 189.265 325.389 189.613Z" fill="#C7C7C7"/>
<path d="M321.621 190.107C321.381 190.598 321.344 191.163 321.519 191.681C321.61 191.945 321.757 192.187 321.95 192.389C322.135 192.6 322.363 192.77 322.619 192.885C322.875 193 323.153 193.059 323.434 193.057C323.7 193.063 323.965 193.026 324.219 192.947C324.719 192.795 325.177 192.525 325.553 192.161C325.098 192.35 324.624 192.49 324.14 192.578C323.689 192.658 323.225 192.612 322.798 192.444C322.597 192.347 322.412 192.219 322.249 192.066C322.078 191.917 321.94 191.735 321.841 191.531C321.641 191.085 321.565 190.593 321.621 190.107Z" fill="#C7C7C7"/>
<path d="M277.348 293.778L281.672 294.573L282.637 299.143L283.602 294.573L287.927 293.77L283.618 292.716L282.637 288.405L281.648 292.716L277.348 293.778Z" fill="#C7C7C7"/>
<path d="M98.9688 269.108L103.293 269.91L104.258 274.481L105.224 269.91L109.548 269.108L105.247 268.054L104.258 263.743L103.277 268.054L98.9688 269.108Z" fill="#C7C7C7"/>
<path d="M233.184 220.281L237.508 221.083L238.473 225.646L239.438 221.083L243.763 220.281L239.462 219.219L238.473 214.908L237.492 219.219L233.184 220.281Z" fill="#C7C7C7"/>
<path d="M318.438 266.881L320.855 267.33L321.396 269.886L321.938 267.33L324.347 266.881L321.946 266.291L321.396 263.884L320.847 266.291L318.438 266.881Z" fill="#C7C7C7"/>
<path d="M135.078 364.034L137.487 364.482L138.029 367.039L138.57 364.482L140.988 364.034L138.578 363.444L138.029 361.037L137.48 363.444L135.078 364.034Z" fill="#C7C7C7"/>
<path d="M312.531 151.959L314.948 152.407L315.49 154.956L316.024 152.407L318.441 151.951L316.039 151.369L315.49 148.954L314.933 151.369L312.531 151.959Z" fill="#C7C7C7"/>
<path d="M27.4961 206.876L29.9133 207.324L30.4548 209.873L30.9884 207.324L33.4056 206.876L31.0041 206.286L30.4548 203.871L29.9054 206.286L27.4961 206.876Z" fill="#C7C7C7"/>
<path d="M40.4609 336.823L42.8781 337.271L43.4196 339.82L43.9533 337.271L46.3705 336.823L43.969 336.233L43.4196 333.818L42.8624 336.233L40.4609 336.823Z" fill="#C7C7C7"/>
<path d="M303.207 216.63L305.624 217.078L306.158 219.627L306.699 217.078L309.117 216.63L306.715 216.04L306.158 213.625L305.609 216.04L303.207 216.63Z" fill="#C7C7C7"/>
<path d="M201.285 299.142L203.702 299.59L204.244 302.147L204.785 299.59L207.203 299.142L204.793 298.552L204.244 296.145L203.694 298.552L201.285 299.142Z" fill="#C7C7C7"/>
<path d="M113.355 94.1237L115.773 94.5721L116.314 97.1208L116.856 94.5721L119.265 94.1237L116.864 93.5337L116.314 91.1187L115.765 93.5337L113.355 94.1237Z" fill="#C7C7C7"/>
<path d="M207.945 289.868L210.362 290.316L210.904 292.873L211.446 290.316L213.863 289.868L211.453 289.278L210.904 286.863L210.355 289.278L207.945 289.868Z" fill="#C7C7C7"/>
<path d="M129.359 369.557C129.532 369.575 129.693 369.657 129.809 369.787C129.926 369.917 129.99 370.086 129.99 370.261C129.99 370.436 129.926 370.604 129.809 370.734C129.693 370.864 129.532 370.946 129.359 370.965C129.185 370.946 129.024 370.864 128.908 370.734C128.791 370.604 128.727 370.436 128.727 370.261C128.727 370.086 128.791 369.917 128.908 369.787C129.024 369.657 129.185 369.575 129.359 369.557Z" fill="#C7C7C7"/>
<path d="M254.304 237.877C254.477 237.896 254.638 237.978 254.755 238.108C254.871 238.238 254.936 238.407 254.936 238.581C254.936 238.756 254.871 238.925 254.755 239.055C254.638 239.185 254.477 239.267 254.304 239.286C254.13 239.267 253.97 239.185 253.853 239.055C253.736 238.925 253.672 238.756 253.672 238.581C253.672 238.407 253.736 238.238 253.853 238.108C253.97 237.978 254.13 237.896 254.304 237.877Z" fill="#C7C7C7"/>
<path d="M194.542 297.026C194.727 297.026 194.905 297.1 195.036 297.231C195.167 297.362 195.241 297.54 195.241 297.726C195.241 297.912 195.167 298.09 195.036 298.221C194.905 298.352 194.727 298.426 194.542 298.426C194.357 298.426 194.179 298.352 194.048 298.221C193.917 298.09 193.844 297.912 193.844 297.726C193.844 297.54 193.917 297.362 194.048 297.231C194.179 297.1 194.357 297.026 194.542 297.026Z" fill="#C7C7C7"/>
<path d="M90.6594 364.293C90.8447 364.293 91.0223 364.367 91.1533 364.498C91.2843 364.63 91.3579 364.808 91.3579 364.994C91.3579 365.179 91.2843 365.357 91.1533 365.489C91.0223 365.62 90.8447 365.694 90.6594 365.694C90.4742 365.694 90.2965 365.62 90.1655 365.489C90.0345 365.357 89.9609 365.179 89.9609 364.994C89.9609 364.808 90.0345 364.63 90.1655 364.498C90.2965 364.367 90.4742 364.293 90.6594 364.293Z" fill="#C7C7C7"/>
<path d="M324.48 373.591C324.653 373.61 324.814 373.692 324.93 373.822C325.047 373.952 325.112 374.121 325.112 374.295C325.112 374.47 325.047 374.639 324.93 374.769C324.814 374.899 324.653 374.981 324.48 374.999C324.306 374.981 324.146 374.899 324.029 374.769C323.912 374.639 323.848 374.47 323.848 374.295C323.848 374.121 323.912 373.952 324.029 373.822C324.146 373.692 324.306 373.61 324.48 373.591Z" fill="#C7C7C7"/>
<path d="M287.632 247.082C287.817 247.082 287.995 247.155 288.126 247.287C288.257 247.418 288.331 247.596 288.331 247.782C288.331 247.967 288.257 248.145 288.126 248.277C287.995 248.408 287.817 248.482 287.632 248.482C287.447 248.482 287.269 248.408 287.138 248.277C287.007 248.145 286.934 247.967 286.934 247.782C286.934 247.596 287.007 247.418 287.138 247.287C287.269 247.155 287.447 247.082 287.632 247.082Z" fill="#C7C7C7"/>
<path d="M146.905 356.93C147.036 356.93 147.161 356.982 147.254 357.075C147.347 357.168 147.399 357.294 147.399 357.425C147.399 357.557 147.347 357.683 147.254 357.776C147.161 357.869 147.036 357.921 146.905 357.921C146.773 357.921 146.648 357.869 146.555 357.776C146.462 357.683 146.41 357.557 146.41 357.425C146.41 357.294 146.462 357.168 146.555 357.075C146.648 356.982 146.773 356.93 146.905 356.93Z" fill="#C7C7C7"/>
<path d="M47.9552 99.0405C48.0766 99.0558 48.1883 99.115 48.2692 99.207C48.3502 99.299 48.3948 99.4174 48.3948 99.5401C48.3948 99.6627 48.3502 99.7811 48.2692 99.8731C48.1883 99.9651 48.0766 100.024 47.9552 100.04C47.8338 100.024 47.7222 99.9651 47.6412 99.8731C47.5603 99.7811 47.5156 99.6627 47.5156 99.5401C47.5156 99.4174 47.5603 99.299 47.6412 99.207C47.7222 99.115 47.8338 99.0558 47.9552 99.0405Z" fill="#C7C7C7"/>
<path d="M239.088 258.676C239.219 258.676 239.345 258.728 239.438 258.821C239.53 258.914 239.583 259.04 239.583 259.172C239.583 259.303 239.53 259.429 239.438 259.522C239.345 259.615 239.219 259.667 239.088 259.667C238.957 259.667 238.831 259.615 238.739 259.522C238.646 259.429 238.594 259.303 238.594 259.172C238.594 259.04 238.646 258.914 238.739 258.821C238.831 258.728 238.957 258.676 239.088 258.676Z" fill="#C7C7C7"/>
<path d="M215.119 301.651C215.251 301.651 215.376 301.704 215.469 301.797C215.562 301.889 215.614 302.016 215.614 302.147C215.614 302.278 215.562 302.404 215.469 302.497C215.376 302.59 215.251 302.643 215.119 302.643C214.988 302.643 214.863 302.59 214.77 302.497C214.677 302.404 214.625 302.278 214.625 302.147C214.625 302.016 214.677 301.889 214.77 301.797C214.863 301.704 214.988 301.651 215.119 301.651Z" fill="#C7C7C7"/>
<path d="M175.92 293.273C176.041 293.289 176.153 293.348 176.234 293.44C176.315 293.532 176.36 293.65 176.36 293.773C176.36 293.896 176.315 294.014 176.234 294.106C176.153 294.198 176.041 294.257 175.92 294.272C175.799 294.257 175.687 294.198 175.606 294.106C175.525 294.014 175.48 293.896 175.48 293.773C175.48 293.65 175.525 293.532 175.606 293.44C175.687 293.348 175.799 293.289 175.92 293.273Z" fill="#C7C7C7"/>
<path d="M222.26 249.653C222.616 249.653 222.957 249.795 223.209 250.047C223.461 250.3 223.602 250.642 223.602 250.998C223.602 251.355 223.461 251.697 223.209 251.95C222.957 252.202 222.616 252.344 222.26 252.344C221.904 252.344 221.563 252.202 221.311 251.95C221.059 251.697 220.918 251.355 220.918 250.998C220.918 250.642 221.059 250.3 221.311 250.047C221.563 249.795 221.904 249.653 222.26 249.653Z" fill="#C7C7C7"/>
<path d="M153.535 113.712L157.859 114.514L158.825 119.077L159.79 114.514L164.114 113.712L159.806 112.658L158.825 108.339L157.836 112.658L153.535 113.712Z" fill="#C7C7C7"/>
<path d="M170.008 74.1671L172.425 74.6155L172.967 77.1643L173.508 74.6155L175.917 74.1671L173.516 73.5771L172.967 71.1621L172.417 73.5771L170.008 74.1671Z" fill="#C7C7C7"/>
<path d="M23.5344 139.695C23.7197 139.695 23.8973 139.769 24.0283 139.9C24.1593 140.031 24.2329 140.209 24.2329 140.395C24.2329 140.581 24.1593 140.759 24.0283 140.89C23.8973 141.021 23.7197 141.095 23.5344 141.095C23.3492 141.095 23.1715 141.021 23.0405 140.89C22.9095 140.759 22.8359 140.581 22.8359 140.395C22.8359 140.209 22.9095 140.031 23.0405 139.9C23.1715 139.769 23.3492 139.695 23.5344 139.695Z" fill="#C7C7C7"/>
<path d="M34.5343 325.897C34.7078 325.915 34.8684 325.997 34.985 326.127C35.1017 326.257 35.1663 326.426 35.1663 326.601C35.1663 326.776 35.1017 326.945 34.985 327.075C34.8684 327.205 34.7078 327.287 34.5343 327.305C34.3608 327.287 34.2003 327.205 34.0836 327.075C33.9669 326.945 33.9023 326.776 33.9023 326.601C33.9023 326.426 33.9669 326.257 34.0836 326.127C34.2003 325.997 34.3608 325.915 34.5343 325.897Z" fill="#C7C7C7"/>
<path d="M15.5695 360.745C15.743 360.764 15.9035 360.846 16.0202 360.976C16.1369 361.106 16.2014 361.274 16.2014 361.449C16.2014 361.624 16.1369 361.793 16.0202 361.923C15.9035 362.053 15.743 362.135 15.5695 362.153C15.396 362.135 15.2354 362.053 15.1187 361.923C15.0021 361.793 14.9375 361.624 14.9375 361.449C14.9375 361.274 15.0021 361.106 15.1187 360.976C15.2354 360.846 15.396 360.764 15.5695 360.745Z" fill="#C7C7C7"/>
<path d="M51.4406 198.553C51.6141 198.571 51.7746 198.653 51.8913 198.783C52.008 198.913 52.0725 199.082 52.0725 199.257C52.0725 199.432 52.008 199.6 51.8913 199.73C51.7746 199.86 51.6141 199.942 51.4406 199.961C51.2671 199.942 51.1065 199.86 50.9898 199.73C50.8732 199.6 50.8086 199.432 50.8086 199.257C50.8086 199.082 50.8732 198.913 50.9898 198.783C51.1065 198.653 51.2671 198.571 51.4406 198.553Z" fill="#C7C7C7"/>
<path d="M15.5695 77.3677C15.743 77.3861 15.9035 77.4682 16.0202 77.5982C16.1369 77.7282 16.2014 77.8969 16.2014 78.0717C16.2014 78.2466 16.1369 78.4153 16.0202 78.5453C15.9035 78.6753 15.743 78.7574 15.5695 78.7758C15.396 78.7574 15.2354 78.6753 15.1187 78.5453C15.0021 78.4153 14.9375 78.2466 14.9375 78.0717C14.9375 77.8969 15.0021 77.7282 15.1187 77.5982C15.2354 77.4682 15.396 77.3861 15.5695 77.3677Z" fill="#C7C7C7"/>
<path d="M79.1545 292.424C79.2759 292.439 79.3875 292.498 79.4685 292.59C79.5494 292.682 79.5941 292.801 79.5941 292.923C79.5941 293.046 79.5494 293.164 79.4685 293.256C79.3875 293.348 79.2759 293.408 79.1545 293.423C79.0331 293.408 78.9214 293.348 78.8405 293.256C78.7595 293.164 78.7148 293.046 78.7148 292.923C78.7148 292.801 78.7595 292.682 78.8405 292.59C78.9214 292.498 79.0331 292.439 79.1545 292.424Z" fill="#C7C7C7"/>
<path d="M183.67 356.088C183.801 356.088 183.927 356.141 184.02 356.234C184.113 356.326 184.165 356.453 184.165 356.584C184.165 356.715 184.113 356.841 184.02 356.934C183.927 357.027 183.801 357.08 183.67 357.08C183.539 357.08 183.413 357.027 183.321 356.934C183.228 356.841 183.176 356.715 183.176 356.584C183.176 356.453 183.228 356.326 183.321 356.234C183.413 356.141 183.539 356.088 183.67 356.088Z" fill="#C7C7C7"/>
<path d="M257.256 128.862C257.377 128.877 257.489 128.936 257.57 129.028C257.651 129.12 257.696 129.239 257.696 129.361C257.696 129.484 257.651 129.602 257.57 129.694C257.489 129.786 257.377 129.846 257.256 129.861C257.135 129.846 257.023 129.786 256.942 129.694C256.861 129.602 256.816 129.484 256.816 129.361C256.816 129.239 256.861 129.12 256.942 129.028C257.023 128.936 257.135 128.877 257.256 128.862Z" fill="#C7C7C7"/>
<path d="M167.748 98.4507C167.879 98.4507 168.005 98.5029 168.098 98.5958C168.191 98.6888 168.243 98.8148 168.243 98.9463C168.243 99.0777 168.191 99.2038 168.098 99.2967C168.005 99.3897 167.879 99.4419 167.748 99.4419C167.617 99.4419 167.491 99.3897 167.399 99.2967C167.306 99.2038 167.254 99.0777 167.254 98.9463C167.254 98.8148 167.306 98.6888 167.399 98.5958C167.491 98.5029 167.617 98.4507 167.748 98.4507Z" fill="#C7C7C7"/>
<path d="M138.029 274.779C138.385 274.779 138.727 274.921 138.978 275.173C139.23 275.425 139.372 275.767 139.372 276.124C139.372 276.481 139.23 276.823 138.978 277.075C138.727 277.327 138.385 277.469 138.029 277.469C137.674 277.469 137.332 277.327 137.081 277.075C136.829 276.823 136.688 276.481 136.688 276.124C136.688 275.767 136.829 275.425 137.081 275.173C137.332 274.921 137.674 274.779 138.029 274.779Z" fill="#C7C7C7"/>
<path d="M314.892 173.088C315.231 173.114 315.548 173.267 315.779 173.517C316.01 173.768 316.139 174.096 316.139 174.437C316.139 174.778 316.01 175.106 315.779 175.357C315.548 175.607 315.231 175.76 314.892 175.786C314.552 175.76 314.235 175.607 314.004 175.357C313.773 175.106 313.645 174.778 313.645 174.437C313.645 174.096 313.773 173.768 314.004 173.517C314.235 173.267 314.552 173.114 314.892 173.088Z" fill="#C7C7C7"/>
<path d="M40.1193 291.078C40.4753 291.078 40.8166 291.22 41.0683 291.472C41.32 291.724 41.4613 292.067 41.4613 292.423C41.4613 292.78 41.32 293.122 41.0683 293.374C40.8166 293.627 40.4753 293.768 40.1193 293.768C39.7634 293.768 39.4221 293.627 39.1704 293.374C38.9187 293.122 38.7773 292.78 38.7773 292.423C38.7773 292.067 38.9187 291.724 39.1704 291.472C39.4221 291.22 39.7634 291.078 40.1193 291.078Z" fill="#C7C7C7"/>
<path d="M152.906 239.286L155.323 239.734L155.865 242.283L156.406 239.734L158.824 239.286L156.414 238.696L155.865 236.281L155.316 238.696L152.906 239.286Z" fill="#C7C7C7"/>
<path d="M204.242 361.429L206.659 361.878L207.201 364.427L207.735 361.878L210.152 361.421L207.75 360.839L207.201 358.424L206.644 360.839L204.242 361.429Z" fill="#C7C7C7"/>
<path d="M214.948 329.971C215.122 329.99 215.282 330.072 215.399 330.202C215.516 330.332 215.58 330.5 215.58 330.675C215.58 330.85 215.516 331.019 215.399 331.149C215.282 331.279 215.122 331.361 214.948 331.379C214.775 331.361 214.614 331.279 214.498 331.149C214.381 331.019 214.316 330.85 214.316 330.675C214.316 330.5 214.381 330.332 214.498 330.202C214.614 330.072 214.775 329.99 214.948 329.971Z" fill="#C7C7C7"/>
<path d="M242.226 311.295C242.399 311.314 242.56 311.396 242.676 311.526C242.793 311.656 242.858 311.825 242.858 311.999C242.858 312.174 242.793 312.343 242.676 312.473C242.56 312.603 242.399 312.685 242.226 312.704C242.052 312.685 241.892 312.603 241.775 312.473C241.658 312.343 241.594 312.174 241.594 311.999C241.594 311.825 241.658 311.656 241.775 311.526C241.892 311.396 242.052 311.314 242.226 311.295Z" fill="#C7C7C7"/>
<path d="M155.867 343.541L158.284 343.99L158.826 346.546L159.367 343.99L161.785 343.541L159.375 342.951L158.826 340.536L158.277 342.951L155.867 343.541Z" fill="#C7C7C7"/>
<path d="M255.335 117.417C255.509 117.435 255.669 117.518 255.786 117.648C255.902 117.778 255.967 117.946 255.967 118.121C255.967 118.296 255.902 118.465 255.786 118.595C255.669 118.725 255.509 118.807 255.335 118.825C255.162 118.807 255.001 118.725 254.884 118.595C254.768 118.465 254.703 118.296 254.703 118.121C254.703 117.946 254.768 117.778 254.884 117.648C255.001 117.518 255.162 117.435 255.335 117.417Z" fill="#C7C7C7"/>
<path d="M272.182 313.544C272.313 313.544 272.439 313.597 272.532 313.69C272.624 313.783 272.676 313.909 272.676 314.04C272.676 314.171 272.624 314.298 272.532 314.39C272.439 314.483 272.313 314.536 272.182 314.536C272.051 314.536 271.925 314.483 271.832 314.39C271.74 314.298 271.688 314.171 271.688 314.04C271.688 313.909 271.74 313.783 271.832 313.69C271.925 313.597 272.051 313.544 272.182 313.544Z" fill="#C7C7C7"/>
<path d="M61.3477 229.075L63.7648 229.523L64.2985 232.072L64.84 229.523L67.2572 229.075L64.8557 228.485L64.2985 226.07L63.7491 228.485L61.3477 229.075Z" fill="#C7C7C7"/>
<path d="M33.4094 267.708C33.5947 267.708 33.7723 267.781 33.9033 267.913C34.0343 268.044 34.1079 268.222 34.1079 268.408C34.1079 268.593 34.0343 268.771 33.9033 268.903C33.7723 269.034 33.5947 269.108 33.4094 269.108C33.2242 269.108 33.0465 269.034 32.9155 268.903C32.7845 268.771 32.7109 268.593 32.7109 268.408C32.7109 268.222 32.7845 268.044 32.9155 267.913C33.0465 267.781 33.2242 267.708 33.4094 267.708Z" fill="#C7C7C7"/>
<path d="M129.999 216C130.184 216 130.362 216.074 130.493 216.206C130.624 216.337 130.698 216.515 130.698 216.701C130.698 216.886 130.624 217.064 130.493 217.196C130.362 217.327 130.184 217.401 129.999 217.401C129.814 217.401 129.636 217.327 129.505 217.196C129.374 217.064 129.301 216.886 129.301 216.701C129.301 216.515 129.374 216.337 129.505 216.206C129.636 216.074 129.814 216 129.999 216Z" fill="#C7C7C7"/>
<path d="M47.9552 145.068C48.0766 145.084 48.1883 145.143 48.2692 145.235C48.3502 145.327 48.3948 145.445 48.3948 145.568C48.3948 145.691 48.3502 145.809 48.2692 145.901C48.1883 145.993 48.0766 146.052 47.9552 146.067C47.8338 146.052 47.7222 145.993 47.6412 145.901C47.5603 145.809 47.5156 145.691 47.5156 145.568C47.5156 145.445 47.5603 145.327 47.6412 145.235C47.7222 145.143 47.8338 145.084 47.9552 145.068Z" fill="#C7C7C7"/>
<path d="M41.6076 140.482C41.9635 140.482 42.3049 140.624 42.5566 140.876C42.8082 141.129 42.9496 141.471 42.9496 141.828C42.9496 142.184 42.8082 142.527 42.5566 142.779C42.3049 143.031 41.9635 143.173 41.6076 143.173C41.2517 143.173 40.9104 143.031 40.6587 142.779C40.407 142.527 40.2656 142.184 40.2656 141.828C40.2656 141.471 40.407 141.129 40.6587 140.876C40.9104 140.624 41.2517 140.482 41.6076 140.482Z" fill="#C7C7C7"/>
<path d="M316.186 81.0806C316.542 81.0806 316.883 81.2223 317.135 81.4746C317.386 81.7268 317.528 82.069 317.528 82.4257C317.528 82.7825 317.386 83.1247 317.135 83.3769C316.883 83.6292 316.542 83.7709 316.186 83.7709C315.83 83.7709 315.488 83.6292 315.237 83.3769C314.985 83.1247 314.844 82.7825 314.844 82.4257C314.844 82.069 314.985 81.7268 315.237 81.4746C315.488 81.2223 315.83 81.0806 316.186 81.0806Z" fill="#C7C7C7"/>
<path d="M269.102 200.434C269.132 219.723 263.038 238.521 251.703 254.108C242.542 266.749 230.298 276.823 216.142 283.366C201.987 289.908 186.393 292.7 170.853 291.475C155.313 290.249 140.347 285.048 127.386 276.367C114.425 267.686 103.903 255.817 96.8266 241.895C89.7502 227.973 86.356 212.464 86.9689 196.851C87.5817 181.239 92.181 166.045 100.327 152.723C108.473 139.401 119.892 128.398 133.494 120.765C147.095 113.132 162.423 109.125 178.011 109.127C180.508 109.127 182.981 109.227 185.43 109.427C199.542 110.561 213.192 114.994 225.286 122.37C237.466 129.804 247.743 139.988 255.298 152.11C264.34 166.597 269.125 183.346 269.102 200.434Z" fill="#FFC727"/>
<g opacity="0.2">
<path d="M197.68 243.526C196.531 246.601 198.45 246.73 198.571 248.002C198.693 249.275 198.571 251.714 194.876 255.425C191.181 259.136 185.053 258.364 183.776 259.901C182.499 261.439 180.33 267.953 177.298 270.098C174.266 272.243 173.731 270.992 169.387 271.893C165.042 272.794 161.732 278.414 160.455 281.096C159.178 283.777 160.712 288.247 157.652 288.39C154.591 288.533 153.186 281.861 150.382 278.286C147.579 274.71 146.623 271.528 145.76 267.316C144.897 263.105 146.266 254.274 145.76 250.82C145.253 247.366 136.065 241.231 132.748 237.005C129.43 232.779 124.836 224.348 125.093 221.53C125.482 218.802 126.839 216.306 128.917 214.501C130.451 213.35 129.809 212.714 130.065 211.684C130.322 210.654 131.599 210.411 131.849 209.131C132.098 207.851 131.085 204.011 129.809 203.375C128.532 202.738 127.668 204.912 126.877 204.526C126.085 204.14 123.816 201.458 122.924 201.201C122.033 200.944 122.282 202.867 121.005 200.436C119.728 198.005 119.094 191.855 118.073 190.84C117.053 189.824 116.29 192.634 113.864 190.84C111.439 189.045 110.419 185.598 109.399 185.119C108.379 184.64 106.973 185.248 105.925 183.196C104.876 181.143 106.845 177.475 105.925 177.825C105.004 178.176 103.021 181.15 102.507 178.34C101.994 175.53 105.061 166.062 104.548 160.95C104.143 155.555 105.888 150.22 109.399 146.112C109.399 146.112 109.905 143.302 110.419 141.507C110.932 139.712 121.904 132.561 123.174 130.516C123.705 129.372 124.013 128.137 124.08 126.877C139.697 115.323 158.602 109.101 178.012 109.129C180.509 109.129 182.982 109.229 185.431 109.429L185.688 109.765C186.793 111.195 187.985 112.067 191.216 113.262C194.448 114.456 195.211 115.993 194.534 117.266C193.856 118.539 192.75 118.803 191.473 118.889C190.196 118.975 189.005 118.289 187.65 119.147C186.294 120.005 184.924 124.603 183.141 124.867C181.357 125.132 178.204 120.77 177.527 119.497C176.849 118.224 179.053 115.485 178.012 114.206C176.97 112.926 175.158 113.183 172.248 112.926C169.337 112.668 162.638 113.784 162.895 114.892C163.152 116 172.761 114.72 173.018 116.937C173.275 119.154 165.956 122.901 164.686 122.565C163.416 122.229 161.704 120.005 159.835 119.747C157.966 119.49 156.432 121.027 155.255 121.177C154.078 121.328 152.694 119.897 150.903 120.241C149.113 120.584 148.692 122.114 147.757 122.715C146.823 123.316 144.611 123.308 144.354 124.674C144.098 126.04 147.158 126.819 147.921 127.656C148.685 128.493 146.98 131.41 147.75 132.004C148.521 132.597 153.279 128.428 154.47 127.399C155.661 126.369 156.682 121.943 159.228 122.028C161.775 122.114 162.631 126.462 163.509 126.891C164.386 127.32 166.227 125.868 169.037 126.462C171.848 127.055 173.796 133.198 174.309 135.043C174.823 136.888 176.007 138.797 175.023 139.562C174.038 140.327 169.408 139.054 168.816 137.86C168.224 136.666 171.877 134.871 171.62 134.449C171.363 134.027 169.237 133.427 168.131 134.092C167.026 134.757 166.519 136.151 165.328 136.494C164.136 136.837 160.99 133.255 160.142 134.278C159.293 135.3 160.99 138.568 161.839 139.283C162.688 139.998 165.834 140.47 166.12 141.328C166.405 142.186 163.98 144.053 161.126 143.881C158.272 143.709 155.854 141.493 154.741 142.451C153.628 143.409 154.235 145.855 153.471 146.741C152.708 147.628 148.535 146.999 146.495 149.208C144.454 151.418 143.52 154.75 141.501 156.631C139.482 158.511 138.526 156.116 135.794 158.776C133.062 161.436 132.648 167.3 132.562 169.345C132.477 171.39 132.562 173.013 131.884 172.755C131.207 172.498 130.265 170.71 130.008 169.602C129.751 168.494 130.608 166.613 130.608 165.934C130.608 165.254 126.691 161.758 124.394 161.414C122.097 161.071 120.057 162.952 118.359 164.318C116.661 165.683 113.593 165.426 112.488 166.534C111.382 167.643 110.533 177.446 111.382 179.749C112.231 182.051 113.337 182.051 116.062 180.857C118.787 179.663 117.253 177.361 118.872 177.868C119.597 178.142 120.221 178.631 120.661 179.27C121.101 179.909 121.335 180.667 121.334 181.444C121.334 182.809 118.102 186.049 118.53 186.985C118.958 187.922 121.762 186.814 123.117 187.243C124.472 187.672 125.164 188.523 124.736 192.012C124.308 195.502 124.565 198.241 126.605 199.392C128.646 200.543 129.794 197.726 130.693 198.112C131.592 198.498 132.833 200.543 134.132 200.414C135.43 200.286 134.774 199.134 137.199 198.369C139.625 197.604 138.726 197.089 139.239 195.552C139.753 194.015 141.28 192.742 142.935 193.507C144.59 194.272 143.448 195.423 143.577 196.703C143.705 197.983 146.637 198.133 148.934 198.848C151.231 199.563 152.501 198.848 157.095 200.386C161.69 201.923 161.946 206.521 163.858 207.286C165.77 208.051 172.155 206.779 176.749 210.104C181.343 213.429 180.059 219.564 182.356 221.359C184.653 223.154 193.2 225.578 196.517 226.214C199.834 226.851 200.348 224.555 203.023 225.192C205.698 225.828 207.239 226.622 208.131 230.304C208.801 233.629 198.828 240.458 197.68 243.526Z" fill="black"/>
<path d="M129.13 178.14C129.216 178.855 131.341 179.162 133.895 180.614C136.449 182.065 137.377 186.334 138.739 186.241C140.102 186.148 139.674 184.196 140.166 183.681C140.658 183.167 141.528 182.058 140.166 180.95C138.803 179.842 137.476 177.46 134.994 177.117C132.511 176.774 132.083 175.751 130.978 175.837C130.697 175.843 130.421 175.911 130.169 176.035C129.917 176.16 129.695 176.338 129.519 176.557C129.343 176.777 129.217 177.032 129.15 177.305C129.083 177.579 129.076 177.863 129.13 178.14Z" fill="black"/>
<path d="M143.163 185.305C142.784 186.349 143.163 187.092 145.888 187.772C148.613 188.451 151.16 187.092 150.311 186.534C149.462 185.977 148.17 186.241 148.691 185.305C149.212 184.368 149.027 183.002 146.815 183.252C144.604 183.503 143.505 184.361 143.163 185.305Z" fill="black"/>
<path d="M152.687 185.591C151.759 185.727 151.26 187.35 152.18 188.373C153.1 189.395 153.115 189.224 154.22 188.373C155.326 187.522 157.024 187.093 156.603 186.228C156.182 185.362 153.628 185.455 152.687 185.591Z" fill="black"/>
<path d="M160.089 189.074C160.503 187.801 162.636 189.074 163.57 190.419C164.505 191.763 164.084 193.744 163.57 195.195C163.057 196.647 162.721 198.349 161.53 197.662C160.339 196.976 161.616 194.938 161.444 193.744C161.273 192.55 159.747 190.125 160.089 189.074Z" fill="black"/>
<path d="M196.745 117.952C196.302 119.024 198.364 119.382 199.555 120.097C200.747 120.812 201.696 121.205 202.359 120.097C203.023 118.989 202.102 117.709 201.168 117.451C200.233 117.194 197.173 116.929 196.745 117.952Z" fill="black"/>
<path d="M212.819 127.928C213.611 128.758 214.959 128.608 215.887 129.802C216.814 130.996 216.479 133.041 217.67 133.642C218.862 134.242 219.711 133.642 219.81 132.784C219.91 131.926 218.113 129.802 218.277 129.38C218.441 128.958 220.745 129.973 221.259 131.253C221.772 132.533 220.745 134.321 221.936 134.664C223.128 135.008 222.871 133.47 223.363 133.127C223.855 132.784 224.975 132.955 224.89 131.933C224.804 130.91 223.463 128.693 222.343 127.928C221.223 127.163 220.388 126.305 218.512 125.883C216.636 125.461 214.86 125.797 213.918 126.598C212.976 127.399 212.341 127.413 212.819 127.928Z" fill="black"/>
<path d="M249.622 143.996C249.566 144.34 249.395 144.655 249.137 144.889C247.353 146.169 245.227 141.736 242.759 140.885C240.291 140.034 239.192 136.881 238.678 137.56C238.165 138.239 238.336 139.183 237.573 140.284C236.809 141.386 235.704 141.143 235.19 143.273C234.676 145.404 237.573 149.323 236.895 150.603C236.217 151.883 235.361 151.454 233.999 151.375C232.636 151.297 232.893 152.476 231.109 151.969C229.326 151.461 230.853 149.237 228.049 146.598C225.245 143.96 224.304 143.445 224.903 142.251C225.502 141.057 224.646 139.355 225.923 139.183C227.2 139.012 228.213 140.885 229.069 141.4C229.925 141.915 231.024 140.377 231.109 139.012C231.195 137.646 228.127 135.772 227.022 134.721C225.916 133.67 225.83 129.809 226.258 129.044C226.686 128.278 227.963 128.529 228.299 126.655C228.498 125.554 226.758 123.709 225.288 122.365C234.621 128.063 242.862 135.389 249.622 143.996Z" fill="black"/>
<path d="M262.318 220.429C262.574 217.698 261.212 217.526 262.574 212.499C263.937 207.472 261.148 202.095 260.106 200.987C259.065 199.878 256.874 200.221 255.112 201.33C253.35 202.438 254.599 203.289 253.407 203.718C252.216 204.147 251.032 203.461 249.926 203.547C248.82 203.632 247.786 206.443 245.418 206.357C243.049 206.271 241.501 202.867 239.71 200.436C237.92 198.005 234.267 196.467 233.076 193.485C231.885 190.504 234.182 185.899 233.668 182.402C233.155 178.905 230.865 179.677 230.437 177.718C230.008 175.759 230.779 176.696 231.371 174.815C231.963 172.934 230.693 171.919 231.885 168.68C233.076 165.44 235.202 163.817 234.688 162.373C234.175 160.928 232.548 158.533 232.477 156.831C232.405 155.129 234.096 155.208 237.328 152.819C240.559 150.431 241.408 150.603 243.877 151.454C245.648 152.109 247.468 152.623 249.32 152.991C250.746 153.248 252.723 156.995 253.315 156.824C253.907 156.652 254.028 155.551 254.256 153.964C254.419 153.26 254.786 152.62 255.312 152.126C264.917 167.555 269.709 185.506 269.073 203.681C268.438 221.857 262.404 239.428 251.745 254.145C260.377 240.837 262.061 223.154 262.318 220.429Z" fill="black"/>
</g>
<path opacity="0.1" d="M248.58 258.169C238.862 270.104 226.289 279.38 212.032 285.134C197.775 290.888 182.298 292.932 167.041 291.077C151.784 289.222 137.243 283.528 124.772 274.524C112.301 265.521 102.305 253.501 95.7157 239.583C89.1261 225.666 86.1567 210.303 87.0839 194.926C88.0111 179.548 92.8048 164.656 101.019 151.636C109.233 138.615 120.6 127.889 134.062 120.457C147.524 113.024 162.643 109.127 178.012 109.127C180.509 109.127 182.984 109.227 185.438 109.427C186.116 109.477 186.794 109.542 187.464 109.613C174.592 111.02 162.222 115.409 151.333 122.434C140.445 129.459 131.337 138.927 124.729 150.089C118.121 161.251 114.194 173.802 113.26 186.747C112.326 199.693 114.409 212.679 119.346 224.679C124.282 236.678 131.936 247.362 141.702 255.884C151.469 264.407 163.079 270.535 175.616 273.784C188.153 277.033 201.272 277.313 213.935 274.603C226.599 271.893 238.46 266.267 248.58 258.169Z" fill="black"/>
<path opacity="0.3" d="M269.104 200.434C269.138 219.724 263.044 238.523 251.705 254.108C243.161 265.874 231.947 275.433 218.989 281.995C230.276 275.526 240.067 266.733 247.717 256.196C258.441 241.397 264.514 223.726 265.158 205.446C265.803 187.167 260.989 169.111 251.334 153.59C243.728 141.406 233.39 131.168 221.143 123.693C208.987 116.258 195.26 111.786 181.066 110.636C178.604 110.436 176.108 110.335 173.604 110.335C166.193 110.34 158.81 111.245 151.617 113.031C160.176 110.435 169.07 109.12 178.012 109.127C180.509 109.127 182.985 109.227 185.439 109.427C199.549 110.557 213.198 114.99 225.288 122.37C234.621 128.066 242.862 135.389 249.622 143.994C262.253 160.081 269.115 179.962 269.104 200.434Z" fill="white"/>
<path d="M288.752 341.92C299.026 332.202 299.495 315.977 289.8 305.679C280.105 295.381 263.918 294.911 253.645 304.629C243.371 314.346 242.902 330.572 252.597 340.87C262.292 351.168 278.479 351.638 288.752 341.92Z" fill="#455A64"/>
<path d="M247.397 332.702C249.606 330.444 252.157 328.548 254.954 327.085C259.828 324.442 273.373 320.894 279.479 317.157C288.065 311.91 288.787 306.931 288.536 304.429C286.11 302.201 283.281 300.46 280.201 299.3C279.769 301.936 278.019 310.188 263.587 316.607C256.131 319.934 248.676 318.715 246.102 318.306C245.142 323.129 245.592 328.128 247.397 332.702Z" fill="#37474F"/>
<path d="M258.93 345.792C264.079 348.605 270.036 349.563 275.804 348.505C281.573 347.447 286.806 344.437 290.628 339.978C289.122 339.304 287.541 338.816 285.919 338.523C278.926 337.406 271.643 341.308 269.014 343.078C266.085 345.162 262.507 346.125 258.93 345.792Z" fill="#37474F"/>
<path d="M249.219 336.414L249.588 337.011L249.933 337.539C250.2 337.94 250.467 338.325 250.718 338.711C250.969 339.096 251.244 339.387 251.503 339.71L251.809 340.072L252.162 340.473C252.279 340.606 252.397 340.74 252.523 340.866L252.962 341.322L253.402 341.763L253.794 342.133C254.084 342.4 254.383 342.66 254.681 342.919C256.305 343.273 258.417 342.919 261.422 341.409C265.911 339.214 270.55 334.431 279.237 330.482C284.606 328.093 290.529 327.233 296.354 327.996C297.326 322.791 296.663 317.412 294.454 312.602C292.822 312.672 287.635 313.844 277.189 323.992C273.95 327.235 270.386 330.135 266.555 332.646C257.412 338.427 251.769 337.365 249.376 336.414H249.219Z" fill="#37474F"/>
<path d="M272.41 308.512C272.96 309.511 274.576 309.676 276.028 308.882C277.48 308.087 278.202 306.624 277.66 305.625C277.119 304.626 275.494 304.469 274.043 305.263C272.591 306.058 271.869 307.474 272.41 308.512Z" fill="#263238"/>
<path d="M279.788 309.636C280.094 310.194 281.051 310.265 281.922 309.785C282.793 309.305 283.241 308.464 282.935 307.905C282.629 307.347 281.671 307.268 280.8 307.748C279.929 308.228 279.482 309.069 279.788 309.636Z" fill="#263238"/>
<path d="M262.88 342.794C263.35 343.651 264.755 343.777 266.019 343.077C267.282 342.377 267.934 341.126 267.471 340.269C267.008 339.411 265.595 339.293 264.331 339.985C263.068 340.678 262.417 341.944 262.88 342.794Z" fill="#263238"/>
<path d="M267.654 343.251C267.714 343.512 267.855 343.748 268.056 343.925C268.257 344.102 268.509 344.211 268.775 344.238C269.042 344.264 269.31 344.205 269.541 344.071C269.773 343.936 269.957 343.732 270.066 343.488C270.176 343.243 270.207 342.97 270.154 342.707C270.1 342.444 269.966 342.204 269.77 342.022C269.574 341.839 269.325 341.723 269.06 341.689C268.794 341.656 268.525 341.707 268.289 341.835C268.022 341.944 267.807 342.151 267.689 342.415C267.57 342.679 267.558 342.978 267.654 343.251Z" fill="#263238"/>
<path d="M268.196 340.811C268.311 340.949 268.473 341.037 268.651 341.059C268.829 341.081 269.008 341.035 269.153 340.929C269.538 340.716 269.726 340.323 269.577 340.056C269.461 339.917 269.296 339.828 269.117 339.807C268.938 339.785 268.758 339.831 268.612 339.938C268.235 340.15 268.047 340.543 268.196 340.811Z" fill="#263238"/>
<path d="M284.087 339.294C284.503 340.08 285.657 340.222 286.677 339.663C287.697 339.105 288.176 338.035 287.76 337.304C287.344 336.572 286.191 336.375 285.17 336.934C284.15 337.492 283.671 338.531 284.087 339.294Z" fill="#263238"/>
<path d="M283.153 335.872C283.23 336.062 283.364 336.224 283.535 336.337C283.706 336.45 283.908 336.508 284.113 336.504C284.317 336.5 284.516 336.433 284.683 336.313C284.849 336.193 284.975 336.025 285.044 335.831C285.113 335.638 285.122 335.428 285.07 335.229C285.017 335.031 284.906 334.853 284.75 334.719C284.594 334.585 284.402 334.502 284.198 334.48C283.994 334.459 283.789 334.499 283.608 334.597C283.38 334.706 283.204 334.902 283.119 335.14C283.033 335.379 283.046 335.642 283.153 335.872Z" fill="#263238"/>
<path d="M250.752 338.711C266.605 335.347 282.04 330.245 296.78 323.497C308.238 318.101 315.309 312.933 314.352 310.014C313.394 307.096 304.801 307.056 292.691 309.393C293.021 309.904 293.327 310.423 293.625 310.966C293.735 311.171 293.837 311.375 293.947 311.572C300.39 310.746 304.66 311.123 305.24 312.901C305.821 314.679 302.509 317.621 296.662 320.831C289.273 324.72 281.554 327.948 273.597 330.475C265.678 333.17 257.537 335.157 249.269 336.414C242.684 337.288 238.281 336.918 237.716 335.116C237.151 333.315 240.345 330.514 245.988 327.36C245.847 326.5 245.753 325.634 245.706 324.764C234.263 330.145 227.09 335.494 228.079 338.405C229.068 341.315 238.022 341.284 250.752 338.711Z" fill="#263238"/>
<path d="M252.196 340.465C259.838 338.824 267.39 336.786 274.822 334.361C282.225 331.986 289.502 329.232 296.624 326.109C312.539 319.029 322.702 311.815 321.376 307.678C320.05 303.54 307.815 303.626 291.052 307.127C291.295 307.434 291.538 307.748 291.774 308.071C305.853 305.365 315.945 305.514 317.083 309.062C318.221 312.61 309.965 318.769 296.726 324.89C289.497 328.176 282.084 331.039 274.524 333.464C266.939 335.94 259.217 337.967 251.396 339.537C237.152 342.306 226.918 342.172 225.772 338.593C224.626 335.014 232.678 329.051 245.612 323.017C245.612 322.616 245.612 322.231 245.659 321.814C230.073 328.776 220.169 335.895 221.479 339.986C222.79 344.076 235.237 344.037 252.196 340.465Z" fill="#37474F"/>
<path d="M60.0496 97.2784C67.7874 94.1731 71.5486 85.3682 68.4506 77.6121C65.3526 69.856 56.5685 66.0859 48.8307 69.1912C41.093 72.2966 37.3317 81.1015 40.4298 88.8576C43.5278 96.6136 52.3119 100.384 60.0496 97.2784Z" fill="#FFC727"/>
<path opacity="0.1" d="M60.0496 97.2784C67.7874 94.1731 71.5486 85.3682 68.4506 77.6121C65.3526 69.856 56.5685 66.0859 48.8307 69.1912C41.093 72.2966 37.3317 81.1015 40.4298 88.8576C43.5278 96.6136 52.3119 100.384 60.0496 97.2784Z" fill="black"/>
<g opacity="0.1">
<path d="M68.886 87.6342C67.4791 86.4133 65.8903 85.4206 64.1772 84.6921C61.1793 83.3705 53.0645 81.9546 49.2739 80.0194C43.9765 77.3369 43.3173 74.4499 43.3487 72.9395C44.6673 71.5096 46.2506 70.35 48.0104 69.5254C48.3871 71.0515 49.7997 75.8186 58.5973 78.9653C63.1413 80.5386 67.489 79.4923 68.9645 79.1305C69.7545 81.9137 69.7272 84.8661 68.886 87.6342Z" fill="black"/>
<path d="M62.7183 95.8861C59.8228 97.7873 56.3641 98.6347 52.9201 98.2868C49.4761 97.9389 46.2557 96.4166 43.7969 93.9745C44.6524 93.5065 45.5616 93.1446 46.5044 92.8968C50.5618 91.9056 55.0352 93.8565 56.7068 94.769C58.5145 95.8458 60.6457 96.2419 62.7183 95.8861Z" fill="black"/>
<path d="M67.9776 89.9071C67.9211 90.0334 67.8582 90.1568 67.7893 90.2768C67.7343 90.387 67.6794 90.4971 67.6166 90.6072C67.4753 90.8511 67.3341 91.0949 67.185 91.3309C67.0359 91.5669 66.9181 91.7557 66.769 91.9603L66.6042 92.1805C66.5459 92.2677 66.483 92.3517 66.4159 92.4323L66.2275 92.684L65.9921 92.9751L65.7488 93.2504L65.5369 93.4942C65.3799 93.6673 65.2151 93.8325 65.0503 93.9898C64.1086 94.273 62.8529 94.1472 61.0086 93.4234C58.2697 92.3457 55.311 89.7498 50.0215 87.8382C46.7617 86.6969 43.2526 86.4712 39.874 87.1853C39.0482 84.1647 39.1826 80.9611 40.2586 78.0207C41.2239 77.9814 44.3238 78.4219 50.9397 83.897C52.9956 85.6492 55.2287 87.181 57.6026 88.4675C63.2688 91.4725 66.5257 90.6072 67.8913 89.8992H67.9776V89.9071Z" fill="black"/>
</g>
<g opacity="0.1">
<path d="M53.6366 95.6025C53.9035 94.9811 54.8452 94.8159 55.7399 95.1935C56.6346 95.5711 57.1447 96.3971 56.8779 97.0107C56.611 97.6242 55.6614 97.7973 54.7746 97.4197C53.8878 97.0421 53.3698 96.2161 53.6366 95.6025Z" fill="black"/>
<path d="M57.9144 94.5408C58.0635 94.1947 58.6207 94.1003 59.1544 94.3363C59.6881 94.5723 60.002 95.0443 59.8529 95.3904C59.7038 95.7366 59.1465 95.8231 58.605 95.595C58.0635 95.3668 57.7732 94.8712 57.9144 94.5408Z" fill="black"/>
<path d="M46.2078 75.9444C46.4354 75.4173 47.2516 75.2679 48.0364 75.6061C48.8212 75.9444 49.2685 76.6524 49.0409 77.1794C48.8133 77.7065 47.9893 77.856 47.2045 77.5098C46.4197 77.1637 46.0037 76.4479 46.2078 75.9444Z" fill="black"/>
<path d="M48.9853 75.417C49.0773 75.2739 49.2209 75.1719 49.3862 75.1324C49.5514 75.0928 49.7255 75.1187 49.8721 75.2046C49.9596 75.2168 50.0432 75.249 50.1162 75.2989C50.1892 75.3488 50.2498 75.4149 50.293 75.4922C50.3363 75.5694 50.3612 75.6556 50.3657 75.7441C50.3702 75.8326 50.3543 75.9209 50.3191 76.0021C50.2839 76.0834 50.2304 76.1554 50.1629 76.2125C50.0953 76.2696 50.0155 76.3102 49.9296 76.3313C49.8438 76.3523 49.7543 76.3532 49.668 76.3338C49.5818 76.3143 49.5012 76.2752 49.4326 76.2194C49.2699 76.1683 49.1328 76.0567 49.0496 75.9075C48.9664 75.7582 48.9434 75.5827 48.9853 75.417Z" fill="black"/>
<path d="M49.433 76.8248C49.4923 76.7365 49.583 76.6742 49.6866 76.6508C49.7902 76.6274 49.8988 76.6446 49.9902 76.6989C50.2256 76.809 50.359 77.0214 50.2884 77.1945C50.2267 77.28 50.1355 77.3395 50.0325 77.3613C49.9295 77.3831 49.8221 77.3657 49.7312 77.3125C49.4957 77.2338 49.3623 76.99 49.433 76.8248Z" fill="black"/>
<path d="M58.8587 76.857C58.8933 76.5915 59.0099 76.3436 59.1922 76.1479C59.3744 75.9522 59.6132 75.8186 59.8751 75.7659C60.1369 75.7131 60.4086 75.7438 60.6522 75.8537C60.8957 75.9635 61.0989 76.1471 61.2331 76.3785C61.3673 76.6099 61.4259 76.8777 61.4007 77.1442C61.3754 77.4107 61.2676 77.6626 61.0923 77.8646C60.917 78.0665 60.6831 78.2085 60.4233 78.2704C60.1634 78.3324 59.8908 78.3113 59.6435 78.21C59.362 78.1325 59.122 77.9474 58.9752 77.6943C58.8285 77.4413 58.7866 77.1406 58.8587 76.857Z" fill="black"/>
<path d="M58.4878 78.9179C58.5564 78.781 58.6748 78.6757 58.8186 78.6238C58.9624 78.5718 59.1206 78.5772 59.2605 78.6388C59.4005 78.7003 59.5115 78.8134 59.5707 78.9546C59.6299 79.0959 59.6328 79.2545 59.5787 79.3978C59.5101 79.5347 59.3917 79.64 59.2479 79.692C59.1041 79.7439 58.9459 79.7385 58.806 79.677C58.666 79.6154 58.555 79.5023 58.4958 79.3611C58.4366 79.2199 58.4337 79.0612 58.4878 78.9179Z" fill="black"/>
</g>
<path d="M229.803 199.611L218.086 198.825L212.577 210.011L213.079 197.55L202.422 192.61L214.257 192.728L219.64 182.21L219.358 194.026L229.803 199.611Z" fill="#FCFCFC"/>
<path d="M212.991 269.762L206.446 269.322L203.369 275.575L203.644 268.614L197.688 265.852L204.303 265.915L207.317 260.039L207.152 266.647L212.991 269.762Z" fill="#FCFCFC"/>
<path d="M117.354 206.17L110.801 205.738L107.725 211.992L108.007 205.022L102.051 202.261L108.667 202.324L111.672 196.447L111.515 203.055L117.354 206.17Z" fill="#FCFCFC"/>
<path d="M121.62 255.946H120.519V255.363H123.621V255.946H121.62ZM116.641 255.892L113.539 255.806V255.223L116.641 255.309V255.892ZM127.498 255.892V255.309C128.522 255.309 129.554 255.262 130.6 255.223V255.806C129.561 255.822 128.53 255.845 127.506 255.869L127.498 255.892ZM134.478 255.651V255.068L137.58 254.912V255.495L134.478 255.651ZM109.662 255.651C108.615 255.589 107.576 255.519 106.56 255.441L106.599 254.858C107.615 254.936 108.638 255.006 109.701 255.068L109.662 255.651ZM141.458 255.27L141.419 254.687L144.521 254.469L144.567 255.052L141.458 255.27ZM102.682 255.099C101.628 254.99 100.604 254.874 99.5803 254.741L99.6501 254.166C100.65 254.291 101.682 254.407 102.752 254.516L102.682 255.099ZM148.437 254.741L148.383 254.158L151.485 253.886L151.539 254.469L148.437 254.741ZM95.7648 254.205C94.7179 254.042 93.6942 253.863 92.6628 253.677L92.7714 253.109C93.764 253.288 94.7799 253.467 95.8191 253.63L95.7648 254.205ZM155.386 254.096L155.331 253.513L158.433 253.195L158.495 253.778L155.386 254.096ZM162.365 253.319L162.295 252.736L163.071 252.643C163.846 252.557 164.583 252.464 165.335 252.363L165.413 252.938L163.133 253.226L162.365 253.319ZM88.8783 252.837C87.8547 252.604 86.8387 252.355 85.8616 252.06L86.009 251.492C86.9783 251.756 87.9865 251.997 89.0102 252.231L88.8783 252.837ZM169.221 252.363L169.128 251.788C170.151 251.617 171.167 251.446 172.183 251.251L172.292 251.826C171.278 252.013 170.255 252.192 169.221 252.363ZM176.107 251.072L175.991 250.505C176.999 250.287 178.007 250.07 179.015 249.836L179.139 250.404C178.162 250.637 177.154 250.855 176.138 251.072H176.107ZM82.0927 251.026C81.0923 250.707 80.0996 250.365 79.1457 250.015L79.3474 249.471C80.2935 249.813 81.2784 250.155 82.271 250.474L82.0927 251.026ZM182.908 249.471L182.761 248.911C183.761 248.655 184.762 248.391 185.754 248.134L185.909 248.694L182.908 249.471ZM75.5319 248.546C74.5703 248.119 73.6241 247.668 72.7168 247.201L72.9805 246.68C73.8801 247.147 74.8184 247.59 75.7645 248.01L75.5319 248.546ZM189.64 247.613L189.477 247.054L192.431 246.152L192.602 246.704C191.656 247.022 190.671 247.326 189.678 247.621L189.64 247.613ZM196.301 245.507L196.115 244.955C197.1 244.62 198.077 244.286 199.046 243.944L199.24 244.496L196.301 245.507ZM69.3201 245.289C68.4283 244.737 67.5519 244.154 66.7222 243.556L67.0634 243.081C67.8854 243.672 68.7462 244.247 69.6303 244.792L69.3201 245.289ZM202.893 243.175L202.691 242.623C203.661 242.265 204.63 241.9 205.592 241.527L205.801 242.071C204.894 242.452 203.909 242.817 202.932 243.182L202.893 243.175ZM63.7054 241.177C62.9144 240.493 62.1544 239.778 61.4255 239.031L61.8442 238.627C62.5577 239.35 63.3099 240.065 64.0854 240.734L63.7054 241.177ZM209.454 240.679L209.229 240.143C210.198 239.747 211.152 239.366 212.098 238.954L212.323 239.49C211.377 239.855 210.415 240.252 209.454 240.641V240.679ZM215.89 237.959L215.658 237.422L218.496 236.163L218.729 236.692C217.798 237.08 216.852 237.5 215.89 237.92V237.959ZM58.8275 236.116C58.1686 235.294 57.5871 234.411 57.0904 233.481L57.6022 233.209C58.0811 234.108 58.6446 234.959 59.2851 235.751L58.8275 236.116ZM222.257 235.059L222.017 234.531C222.955 234.088 223.894 233.644 224.817 233.194L225.065 233.722C224.142 234.134 223.211 234.577 222.257 235.02V235.059ZM228.554 232.004L228.291 231.483L231.059 230.076L231.323 230.597L228.554 232.004ZM55.772 229.75C55.6415 229.048 55.5766 228.335 55.5782 227.62C55.5782 227.27 55.5782 226.928 55.6247 226.578L56.1986 226.625C56.1986 226.959 56.1598 227.286 56.1598 227.62C56.1607 228.298 56.2204 228.974 56.3382 229.641L55.772 229.75ZM234.766 228.739L234.495 228.226C235.425 227.729 236.341 227.239 237.232 226.749L237.512 227.262L234.766 228.739ZM240.908 225.381L240.629 224.876L243.328 223.321L243.615 223.827C242.738 224.363 241.839 224.853 240.908 225.397V225.381ZM57.1137 222.902L56.5708 222.684C56.9586 221.705 57.4282 220.761 57.9745 219.862L58.4708 220.165C57.9325 221.041 57.4707 221.962 57.0904 222.917L57.1137 222.902ZM246.996 221.883L246.701 221.378C247.624 220.834 248.516 220.297 249.361 219.784L249.664 220.282L246.996 221.883ZM252.975 218.238L252.665 217.74C253.611 217.149 254.487 216.59 255.294 216.077L255.604 216.566C254.782 217.079 253.906 217.655 252.975 218.253V218.238ZM60.6965 217.079L60.2544 216.698C60.8981 215.921 61.6116 215.144 62.3793 214.366L62.7903 214.786C62.0304 215.563 61.3324 216.302 60.6965 217.079ZM258.838 214.444L258.512 213.954C260.187 212.835 261.079 212.198 261.087 212.198L261.42 212.672C261.42 212.672 260.521 213.317 258.838 214.444ZM65.652 212.229L65.2797 211.778C66.0552 211.14 66.8773 210.487 67.7381 209.85L68.0793 210.316C67.2262 210.954 66.412 211.591 65.652 212.229ZM71.2511 208.109L70.9331 207.619C71.7862 207.067 72.678 206.507 73.5776 205.963L73.8801 206.469C72.9805 206.974 72.0964 207.557 71.2511 208.109ZM77.2457 204.549L76.9666 204.036C77.8661 203.554 78.7968 203.072 79.7351 202.605L79.991 203.126C79.0604 203.592 78.1376 204.074 77.2457 204.549ZM83.4963 201.486L83.2637 200.949C84.2253 200.522 85.1947 200.118 86.133 199.737L86.3502 200.281C85.4118 200.654 84.4502 201.058 83.4963 201.486Z" fill="#263238"/>
<path d="M265.763 198.922L261.25 212.432L271.246 204.169L309.905 188.948L265.763 198.922Z" fill="#FFC727"/>
<path d="M265.763 198.922L261.25 212.432L271.246 204.169L309.905 188.948L265.763 198.922Z" fill="#2A9D8F"/>
<path d="M272.642 207.254L261.25 212.431L271.246 204.168L272.642 207.254Z" fill="#263238"/>
<path d="M271.246 204.169L309.905 188.948L278.722 221.115L271.246 204.169Z" fill="#57BBAF"/>
<path d="M265.764 198.921L249.262 188.854L309.906 188.948L265.764 198.921Z" fill="#57BBAF"/>
<path d="M250.347 361.308C249.983 360.95 249.572 360.593 249.23 360.243L249.626 359.815C250.006 360.173 250.401 360.531 250.75 360.888L250.347 361.308Z" fill="#263238"/>
</svg>
