<svg width="81" height="81" viewBox="0 0 81 81" fill="none" xmlns="http://www.w3.org/2000/svg">
<path d="M0.666687 40.9575C0.666687 22.1013 0.666687 12.6732 6.52455 6.81532C12.3824 0.957458 21.8105 0.957458 40.6667 0.957458C59.5229 0.957458 68.951 0.957458 74.8088 6.81532C80.6667 12.6732 80.6667 22.1013 80.6667 40.9575C80.6667 59.8136 80.6667 69.2417 74.8088 75.0996C68.951 80.9575 59.5229 80.9575 40.6667 80.9575C21.8105 80.9575 12.3824 80.9575 6.52455 75.0996C0.666687 69.2417 0.666687 59.8136 0.666687 40.9575Z" fill="#DBECEA"/>
<path d="M50.6667 32.8908C50.5667 32.8741 50.45 32.8741 50.35 32.8908C48.05 32.8075 46.2167 30.9241 46.2167 28.5908C46.2167 26.2075 48.1333 24.2908 50.5167 24.2908C52.9 24.2908 54.8167 26.2241 54.8167 28.5908C54.8 30.9241 52.9667 32.8075 50.6667 32.8908Z" stroke="#2A9D8F" stroke-width="3" stroke-linecap="round" stroke-linejoin="round"/>
<path d="M48.95 45.0241C51.2333 45.4075 53.75 45.0075 55.5167 43.8241C57.8667 42.2575 57.8667 39.6908 55.5167 38.1241C53.7333 36.9408 51.1833 36.5408 48.9 36.9408" stroke="#2A9D8F" stroke-width="3" stroke-linecap="round" stroke-linejoin="round"/>
<path d="M30.6167 32.8908C30.7167 32.8741 30.8333 32.8741 30.9333 32.8908C33.2333 32.8075 35.0667 30.9241 35.0667 28.5908C35.0667 26.2075 33.15 24.2908 30.7667 24.2908C28.3833 24.2908 26.4667 26.2241 26.4667 28.5908C26.4833 30.9241 28.3167 32.8075 30.6167 32.8908Z" stroke="#2A9D8F" stroke-width="3" stroke-linecap="round" stroke-linejoin="round"/>
<path d="M32.3333 45.0241C30.05 45.4075 27.5333 45.0075 25.7667 43.8241C23.4167 42.2575 23.4167 39.6908 25.7667 38.1241C27.55 36.9408 30.1 36.5408 32.3833 36.9408" stroke="#2A9D8F" stroke-width="3" stroke-linecap="round" stroke-linejoin="round"/>
<path d="M40.6667 45.3408C40.5667 45.3241 40.45 45.3241 40.35 45.3408C38.05 45.2575 36.2167 43.3741 36.2167 41.0408C36.2167 38.6575 38.1334 36.7408 40.5167 36.7408C42.9 36.7408 44.8167 38.6741 44.8167 41.0408C44.8 43.3741 42.9667 45.2741 40.6667 45.3408Z" fill="#97D0C9" stroke="#2A9D8F" stroke-width="3" stroke-linecap="round" stroke-linejoin="round"/>
<path d="M35.8167 50.5908C33.4667 52.1575 33.4667 54.7241 35.8167 56.2908C38.4834 58.0741 42.85 58.0741 45.5167 56.2908C47.8667 54.7241 47.8667 52.1575 45.5167 50.5908C42.8667 48.8241 38.4834 48.8241 35.8167 50.5908Z" fill="#97D0C9" stroke="#2A9D8F" stroke-width="3" stroke-linecap="round" stroke-linejoin="round"/>
</svg>
