<svg height="377" viewBox="0 0 377 397" fill="none" xmlns="http://www.w3.org/2000/svg">
<path d="M16.0255 186.755C15.2155 193.307 15.6941 199.956 17.4342 206.323C19.2181 212.565 22.519 218.379 27.2203 222.295C28.3676 223.268 29.5977 224.139 30.8964 224.897C32.1739 225.614 33.5164 226.208 34.9059 226.67C37.6137 227.574 40.4672 227.958 43.3166 227.8C48.9765 227.49 54.4198 225.348 59.3712 222.253C59.6629 222.06 60.013 221.86 60.2714 221.675L60.98 221.14C61.4468 220.755 61.9136 220.387 62.3637 219.96C63.303 219.118 64.1727 218.2 64.9644 217.216C66.7036 215.098 68.2413 212.821 69.5574 210.414C72.4521 205.116 74.9594 199.613 77.0595 193.95C81.5608 182.237 85.5203 169.687 89.9715 157.046C91.083 153.883 92.2389 150.707 93.4392 147.517C94.6145 144.321 95.8899 141.125 97.2153 137.912C99.8891 131.22 103.069 124.742 106.726 118.536C107.727 116.863 108.802 115.256 110.061 113.608C110.677 112.771 111.353 111.935 112.07 111.148C112.786 110.362 113.537 109.601 114.303 108.881C117.266 106.154 120.593 103.856 124.19 102.054C131.017 98.5571 137.81 96.6663 144.362 94.717C150.914 92.7676 157.341 91.0358 163.534 88.7184C169.627 86.5092 175.452 83.6156 180.897 80.0927C186.194 76.6476 190.875 72.3316 194.743 67.3257C198.536 62.306 201.528 56.8009 202.87 51.2039C203.542 48.54 203.823 45.792 203.704 43.0468C203.567 40.5855 202.958 38.1739 201.912 35.9438C200.962 33.972 199.617 32.2185 197.96 30.7932C196.303 29.3679 194.371 28.3016 192.284 27.6611C190.164 26.9756 187.951 26.6256 185.724 26.6237C183.345 26.6151 180.975 26.896 178.663 27.4603C178.063 27.6026 177.463 27.7783 176.863 27.954L174.729 28.5982C173.32 29.0499 171.912 29.5185 170.561 30.0372C167.794 31.0662 165.076 32.2124 162.376 33.5175C156.982 36.1111 151.597 39.374 145.621 42.8711C139.328 46.6417 132.77 49.9468 125.998 52.76C118.97 55.5463 111.69 57.6449 104.259 59.0264C103.342 59.2188 102.425 59.3443 101.508 59.5033L99.0075 59.9048C97.6487 60.1307 96.265 60.3984 94.8896 60.7415C92.1276 61.3521 89.3983 62.1033 86.7123 62.992C75.9592 66.5393 66.2815 72.1949 58.9127 80.1011C55.1175 84.1387 51.8386 88.6354 49.1516 93.4871C47.7264 96.0273 46.4598 98.6538 45.3588 101.351C44.1937 104.146 43.1753 107 42.308 109.902C41.4744 112.855 40.6408 115.892 40.049 119.013C39.7406 120.468 39.4238 122.359 39.0987 124.116C38.7736 125.873 38.3735 127.63 37.9567 129.362C36.3108 136.231 34.1884 142.977 31.6049 149.55C29.1042 156.05 26.1867 162.292 23.2692 168.416C21.8021 171.478 20.3434 174.523 18.993 177.619C17.6024 180.518 16.6044 183.59 16.0255 186.755ZM13.4414 186.478C13.6594 184.711 14.0446 182.969 14.5917 181.275C15.0919 179.601 15.6837 178.003 16.2589 176.405C17.4259 173.21 18.6429 170.064 19.7182 166.885C20.7935 163.705 21.7855 160.518 22.619 157.297C23.4526 154.076 24.0945 150.821 24.6279 147.575C25.6214 141.12 25.9761 134.582 25.6866 128.057C25.6282 126.442 25.5032 124.827 25.3865 123.221C25.2698 121.615 25.0614 120.134 24.9114 118.201C24.6017 114.54 24.4932 110.864 24.5863 107.191C24.746 99.544 25.998 91.9594 28.304 84.6691C30.7342 77.0549 34.4474 69.9154 39.2821 63.5609C44.2071 57.1822 50.0901 51.6106 56.7204 47.0458C63.2275 42.5718 70.3039 38.9953 77.7597 36.4123C81.4331 35.1219 85.1831 34.0629 88.9879 33.2415C90.8885 32.8231 92.814 32.4801 94.7729 32.1873L99.5076 31.4929C105.334 30.614 111.076 29.2397 116.671 27.3851C122.479 25.3994 128.144 23.015 133.626 20.2486C139.461 17.4041 145.887 14.1245 152.848 11.3971C156.358 10.0175 159.935 8.81951 163.568 7.80793C165.385 7.30595 167.219 6.86253 169.052 6.45259L171.812 5.89204C172.853 5.69962 173.895 5.53229 174.954 5.39843C179.276 4.82317 183.658 4.87106 187.966 5.54066C192.443 6.21562 196.767 7.67096 200.745 9.84094C204.808 12.067 208.381 15.095 211.248 18.7427C214.072 22.3416 216.101 26.5026 217.199 30.9491C218.226 35.1548 218.458 39.5166 217.883 43.8081C217.362 47.8076 216.267 51.7105 214.632 55.3954C211.481 62.1837 207.177 68.3695 201.912 73.6758C199.412 76.2713 196.739 78.692 193.909 80.921C191.1 83.1083 188.166 85.1307 185.124 86.9782C173.012 94.3238 159.741 98.5236 147.613 103.845C141.545 106.463 135.701 109.433 131.108 113.106C128.955 114.818 127.06 116.832 125.482 119.088C125.123 119.623 124.79 120.159 124.481 120.703C124.173 121.247 123.898 121.782 123.606 122.376C123.039 123.564 122.489 124.886 121.939 126.258C120.905 129.01 119.997 132.014 119.155 135.084C118.313 138.155 117.488 141.301 116.654 144.48L114.228 154.126C113.395 157.364 112.561 160.627 111.678 163.898C108.077 176.958 103.892 190.21 97.507 203.153C94.2305 209.878 90.1734 216.191 85.4202 221.96C84.1449 223.432 82.8195 224.888 81.3608 226.294C79.9102 227.736 78.3616 229.075 76.7261 230.301C75.0348 231.594 73.2455 232.752 71.3746 233.765C70.4178 234.275 69.4357 234.736 68.4321 235.145L66.8983 235.748C66.4065 235.932 65.973 236.057 65.5062 236.216C61.8107 237.424 57.9957 238.226 54.128 238.609C50.2027 239.007 46.2407 238.829 42.3663 238.082C38.5114 237.336 34.8159 235.921 31.4465 233.899C29.7973 232.932 28.2427 231.812 26.8036 230.552C25.3793 229.329 24.0655 227.983 22.8774 226.528C18.4146 220.877 15.4213 214.201 14.1666 207.101C12.9121 200.301 12.6677 193.351 13.4414 186.478Z" fill="#F7F7F7"/>
<g opacity="0.4">
<path d="M230.965 11.2511C233.46 10.6234 235.995 10.165 238.551 9.879C239.768 9.72004 240.952 9.62801 242.144 9.51925C243.336 9.41049 244.503 9.38539 245.661 9.36029C247.979 9.27663 250.238 9.36029 252.497 9.41049C261.449 9.77024 270.002 11.1423 278.454 12.4558L281.446 12.9076L282.772 13.1L284.131 13.2088C285.039 13.2924 285.981 13.2674 286.915 13.2924C287.848 13.3175 288.815 13.2088 289.791 13.1335C290.766 13.0582 291.724 12.9578 292.716 12.7988C293.708 12.6399 294.675 12.506 295.676 12.3052C297.643 11.9036 299.66 11.4686 301.644 10.9164C309.68 8.79138 317.623 5.62892 326.493 3.59591C331.176 2.4753 336.007 2.10819 340.805 2.5083C344.708 2.8935 348.51 3.97584 352.033 5.70422C352.625 5.99704 353.234 6.27313 353.809 6.54085L355.476 7.53644C357.682 8.91247 359.768 10.4742 361.711 12.2048C362.695 13.0415 363.628 14.0956 364.578 15.0745C365.529 16.0533 366.287 17.1577 367.138 18.2202C367.988 19.2827 368.621 20.4205 369.355 21.5667C369.73 22.1356 370.022 22.7129 370.322 23.24L371.239 24.9802L371.689 25.867L372.064 26.7538L372.797 28.5442C373.302 29.7219 373.736 30.9288 374.098 32.1584C375.581 36.9087 376.46 41.828 376.715 46.7995C376.941 51.5993 376.679 56.4097 375.932 61.156C375.169 65.8292 373.934 70.4124 372.247 74.8349C371.822 75.9309 371.372 77.0185 370.914 78.0894C370.455 79.1603 369.913 80.2228 369.405 81.2686C368.896 82.3144 368.346 83.3602 367.738 84.3808C367.129 85.4015 366.604 86.4138 365.962 87.4094C363.504 91.3571 360.73 95.098 357.668 98.5952C354.681 102.053 351.419 105.262 347.915 108.191C344.523 111.073 340.87 113.63 337.004 115.83C333.17 117.995 329.042 119.587 324.75 120.557C320.34 121.483 315.775 121.374 311.413 120.239C307.023 119.051 302.816 117.263 298.91 114.926C291.15 110.255 283.887 104.796 277.237 98.637C273.903 95.6251 270.777 92.4878 267.809 89.2668C267.526 88.9607 267.217 88.6807 266.884 88.4301L266.109 87.7525C265.509 87.3425 265.05 86.9158 264.442 86.4975L263.608 85.8951C263.3 85.7027 262.983 85.527 262.691 85.3262C262.116 84.9246 261.399 84.59 260.799 84.1968C257.834 82.5745 254.772 81.1383 251.63 79.8965L246.145 77.7296L243.211 76.5835L240.151 75.3118C238.076 74.4752 235.892 73.4126 233.675 72.3083C231.3 71.0875 229.006 69.7154 226.806 68.2004C224.321 66.491 222.02 64.5284 219.937 62.344C217.676 59.9507 215.75 57.26 214.211 54.3458L213.61 53.2415L213.102 52.112C212.777 51.3507 212.435 50.5894 212.135 49.8197C211.589 48.3044 211.138 46.7564 210.785 45.1848L210.31 42.8757L210.018 40.6335C209.839 39.1733 209.744 37.704 209.734 36.2328C209.734 35.848 209.734 35.5552 209.734 35.1117C209.734 34.5177 209.734 33.9405 209.809 33.3632C209.875 32.145 210.051 30.9353 210.335 29.7489C210.393 29.4561 210.468 29.1466 210.543 28.8454L210.835 27.9251C211.035 27.3227 211.26 26.7203 211.485 26.1263C211.988 24.9657 212.582 23.8468 213.26 22.7798C213.602 22.2695 213.952 21.7759 214.319 21.2906C214.502 21.048 214.686 20.797 214.869 20.5795L215.444 19.9353C215.819 19.5253 216.211 19.0987 216.62 18.7138C217.028 18.329 217.395 18.011 217.803 17.6597C218.212 17.3083 218.637 16.9987 219.012 16.6975L220.187 15.8609C220.579 15.6099 221.021 15.3255 221.371 15.1079L222.513 14.4721C225.199 13.0784 228.035 11.9977 230.965 11.2511Z" fill="#EBEBEB"/>
<path d="M108.902 232.957C109.381 235.744 109.579 238.572 109.494 241.399C109.419 246.803 108.202 251.748 106.876 256.575C105.556 261.383 103.87 266.082 101.833 270.631C99.76 275.198 97.143 279.496 94.0395 283.431C90.8142 287.541 87.0547 291.199 82.8613 294.307C78.164 297.61 72.7638 299.767 67.0901 300.607C64.0821 301.062 61.0281 301.123 58.0042 300.791C55.0851 300.464 52.2324 299.694 49.5435 298.507C47.1482 297.432 44.9058 296.042 42.8749 294.374C41.0677 292.868 39.353 291.253 37.7401 289.538C36.9073 288.622 36.1569 287.634 35.4978 286.585C34.8901 285.485 34.3716 284.338 33.9474 283.155C33.139 280.708 32.5804 278.185 32.2802 275.625C31.5589 270.327 31.5001 264.959 32.1052 259.646C32.6809 254.547 34.3319 249.63 36.9482 245.222C39.4962 241.068 42.8462 237.466 46.801 234.63C50.7438 231.752 55.3785 229.686 59.9048 227.803C64.431 225.921 68.9657 224.248 73.1919 222.24C77.4181 220.232 81.5276 218.007 86.679 216.383C88.0544 215.951 89.4662 215.646 90.8969 215.472C92.5587 215.25 94.2439 215.275 95.8983 215.547C98.1324 215.993 100.214 217.01 101.942 218.5C102.368 218.878 102.774 219.277 103.159 219.697C103.517 220.106 103.876 220.533 104.217 220.968C104.809 221.773 105.341 222.62 105.809 223.503C106.245 224.317 106.634 225.155 106.976 226.013C107.268 226.791 107.593 227.686 107.81 228.397L108.152 229.577L108.427 230.723C108.644 231.493 108.769 232.213 108.902 232.957Z" fill="#EBEBEB"/>
</g>
<path d="M200.098 336.973L203.482 337.601L204.241 341.173L204.991 337.601L208.375 336.965L205.007 336.145L204.241 332.757L203.465 336.145L200.098 336.973Z" fill="#FFB802"/>
<path d="M116.238 214.898L122.61 216.194L124.022 223.587L125.45 216.194L131.822 214.898L125.482 213.188L124.022 206.209L122.578 213.188L116.238 214.898Z" fill="#FFB802"/>
<path d="M312.379 209.746L315.763 210.374L316.522 213.955L317.28 210.374L320.665 209.746L317.289 208.918L316.522 205.538L315.747 208.918L312.379 209.746Z" fill="#FFB802"/>
<path d="M348.957 305.59L350.849 305.942L351.274 307.941L351.691 305.942L353.583 305.59L351.699 305.13L351.274 303.239L350.841 305.13L348.957 305.59Z" fill="#FFB802"/>
<path d="M323.066 73.2757L324.95 73.6271L325.375 75.6267L325.801 73.6271L327.693 73.2757L325.809 72.8156L325.375 70.9248L324.95 72.8156L323.066 73.2757Z" fill="#FFB802"/>
<path d="M360.324 132.777L362.216 133.128L362.633 135.128L363.058 133.128L364.951 132.777L363.067 132.317L362.633 130.426L362.208 132.317L360.324 132.777Z" fill="#FFB802"/>
<path d="M71.5625 159.608L73.4547 159.959L73.8715 161.959L74.2966 159.959L76.1888 159.608L74.3049 159.148L73.8715 157.257L73.4464 159.148L71.5625 159.608Z" fill="#FFB802"/>
<path d="M23.3125 315.496L25.2047 315.848L25.6298 317.847L26.0549 315.848L27.9472 315.496L26.0633 315.028L25.6298 313.146L25.1964 315.028L23.3125 315.496Z" fill="#FFB802"/>
<path d="M329.219 259.229L336.975 260.655L338.725 268.77L340.475 260.655L348.265 259.195L340.509 257.328L338.725 249.654L336.94 257.328L329.219 259.229Z" fill="#FFB802"/>
<path d="M79.1484 327.041L81.0406 327.393L81.4658 329.392L81.8825 327.393L83.7748 327.041L81.8909 326.581L81.4658 324.69L81.0323 326.581L79.1484 327.041Z" fill="#FFB802"/>
<path d="M145.758 81.3905L147.65 81.7336L148.075 83.7415L148.5 81.7336L150.384 81.3822L148.5 80.922L148.075 79.0312L147.642 80.922L145.758 81.3905Z" fill="#FFB802"/>
<path d="M257.719 137.486L259.611 137.838L260.036 139.837L260.453 137.838L262.345 137.478L260.461 137.018L260.036 135.127L259.603 137.018L257.719 137.486Z" fill="#FFB802"/>
<path d="M107.453 287.954L109.345 288.306L109.762 290.305L110.187 288.306L112.079 287.954L110.196 287.494L109.762 285.604L109.337 287.494L107.453 287.954Z" fill="#FFB802"/>
<path d="M25.6283 349.839C25.7742 349.839 25.9141 349.897 26.0173 350.001C26.1205 350.104 26.1784 350.245 26.1784 350.391C26.1784 350.537 26.1205 350.678 26.0173 350.782C25.9141 350.885 25.7742 350.943 25.6283 350.943C25.4824 350.943 25.3424 350.885 25.2393 350.782C25.1361 350.678 25.0781 350.537 25.0781 350.391C25.0781 350.245 25.1361 350.104 25.2393 350.001C25.3424 349.897 25.4824 349.839 25.6283 349.839Z" fill="#FFB802"/>
<path d="M298.757 282.859C298.903 282.859 299.043 282.918 299.146 283.021C299.249 283.125 299.307 283.265 299.307 283.412C299.307 283.558 299.249 283.698 299.146 283.802C299.043 283.906 298.903 283.964 298.757 283.964C298.611 283.964 298.471 283.906 298.368 283.802C298.265 283.698 298.207 283.558 298.207 283.412C298.207 283.265 298.265 283.125 298.368 283.021C298.471 282.918 298.611 282.859 298.757 282.859Z" fill="#FFB802"/>
<path d="M303.943 204.19C304.077 204.207 304.199 204.272 304.288 204.373C304.377 204.474 304.426 204.604 304.426 204.738C304.426 204.873 304.377 205.003 304.288 205.104C304.199 205.205 304.077 205.27 303.943 205.286C303.81 205.27 303.688 205.205 303.599 205.104C303.51 205.003 303.461 204.873 303.461 204.738C303.461 204.604 303.51 204.474 303.599 204.373C303.688 204.272 303.81 204.207 303.943 204.19Z" fill="#FFB802"/>
<path d="M265.593 163.624C265.739 163.624 265.879 163.682 265.982 163.786C266.085 163.889 266.143 164.03 266.143 164.176C266.143 164.323 266.085 164.463 265.982 164.567C265.879 164.67 265.739 164.728 265.593 164.728C265.447 164.728 265.307 164.67 265.204 164.567C265.101 164.463 265.043 164.323 265.043 164.176C265.043 164.03 265.101 163.889 265.204 163.786C265.307 163.682 265.447 163.624 265.593 163.624Z" fill="#FFB802"/>
<path d="M96.3615 357.286C96.4947 357.303 96.6172 357.368 96.7061 357.468C96.795 357.569 96.844 357.699 96.844 357.834C96.844 357.969 96.795 358.099 96.7061 358.2C96.6172 358.301 96.4947 358.366 96.3615 358.382C96.2283 358.366 96.1057 358.301 96.0168 358.2C95.928 358.099 95.8789 357.969 95.8789 357.834C95.8789 357.699 95.928 357.569 96.0168 357.468C96.1057 357.368 96.2283 357.303 96.3615 357.286Z" fill="#FFB802"/>
<path d="M73.8693 325.394C74.0025 325.41 74.125 325.475 74.2139 325.576C74.3028 325.677 74.3519 325.807 74.3519 325.942C74.3519 326.076 74.3028 326.206 74.2139 326.307C74.125 326.408 74.0025 326.473 73.8693 326.49C73.7361 326.473 73.6135 326.408 73.5247 326.307C73.4358 326.206 73.3867 326.076 73.3867 325.942C73.3867 325.807 73.4358 325.677 73.5247 325.576C73.6135 325.475 73.7361 325.41 73.8693 325.394Z" fill="#FFB802"/>
<path d="M130.378 310.786C130.524 310.786 130.664 310.844 130.767 310.948C130.87 311.051 130.928 311.192 130.928 311.338C130.928 311.485 130.87 311.625 130.767 311.729C130.664 311.832 130.524 311.89 130.378 311.89C130.232 311.89 130.092 311.832 129.989 311.729C129.886 311.625 129.828 311.485 129.828 311.338C129.828 311.192 129.886 311.051 129.989 310.948C130.092 310.844 130.232 310.786 130.378 310.786Z" fill="#FFB802"/>
<path d="M234.17 325.394C234.303 325.41 234.426 325.475 234.515 325.576C234.604 325.677 234.653 325.807 234.653 325.942C234.653 326.076 234.604 326.206 234.515 326.307C234.426 326.408 234.303 326.473 234.17 326.49C234.037 326.473 233.914 326.408 233.825 326.307C233.737 326.206 233.688 326.076 233.688 325.942C233.688 325.807 233.737 325.677 233.825 325.576C233.914 325.475 234.037 325.41 234.17 325.394Z" fill="#FFB802"/>
<path d="M324.85 290.07C324.983 290.087 325.106 290.152 325.194 290.253C325.283 290.354 325.332 290.484 325.332 290.618C325.332 290.753 325.283 290.883 325.194 290.984C325.106 291.085 324.983 291.15 324.85 291.166C324.717 291.15 324.594 291.085 324.505 290.984C324.416 290.883 324.367 290.753 324.367 290.618C324.367 290.484 324.416 290.354 324.505 290.253C324.594 290.152 324.717 290.087 324.85 290.07Z" fill="#FFB802"/>
<path d="M301.913 229.206C302.059 229.206 302.199 229.264 302.302 229.368C302.406 229.471 302.464 229.612 302.464 229.758C302.464 229.905 302.406 230.045 302.302 230.149C302.199 230.252 302.059 230.31 301.913 230.31C301.768 230.31 301.628 230.252 301.524 230.149C301.421 230.045 301.363 229.905 301.363 229.758C301.363 229.612 301.421 229.471 301.524 229.368C301.628 229.264 301.768 229.206 301.913 229.206Z" fill="#FFB802"/>
<path d="M208.807 324.298C208.9 324.312 208.985 324.358 209.047 324.43C209.108 324.501 209.142 324.593 209.142 324.687C209.142 324.781 209.108 324.872 209.047 324.944C208.985 325.015 208.9 325.062 208.807 325.076C208.714 325.062 208.629 325.015 208.568 324.944C208.506 324.872 208.473 324.781 208.473 324.687C208.473 324.593 208.506 324.501 208.568 324.43C208.629 324.358 208.714 324.312 208.807 324.298Z" fill="#FFB802"/>
<path d="M88.9988 82.8877C89.0919 82.9014 89.1769 82.9483 89.2384 83.0197C89.2998 83.0911 89.3336 83.1823 89.3336 83.2767C89.3336 83.3711 89.2998 83.4623 89.2384 83.5338C89.1769 83.6052 89.0919 83.652 88.9988 83.6658C88.9058 83.652 88.8208 83.6052 88.7593 83.5338C88.6979 83.4623 88.6641 83.3711 88.6641 83.2767C88.6641 83.1823 88.6979 83.0911 88.7593 83.0197C88.8208 82.9483 88.9058 82.9014 88.9988 82.8877Z" fill="#FFB802"/>
<path d="M239.46 278.869C239.553 278.883 239.638 278.93 239.699 279.001C239.761 279.073 239.795 279.164 239.795 279.258C239.795 279.353 239.761 279.444 239.699 279.515C239.638 279.587 239.553 279.633 239.46 279.647C239.367 279.633 239.282 279.587 239.22 279.515C239.159 279.444 239.125 279.353 239.125 279.258C239.125 279.164 239.159 279.073 239.22 279.001C239.282 278.93 239.367 278.883 239.46 278.869Z" fill="#FFB802"/>
<path d="M89.9754 328.999C90.0684 329.013 90.1534 329.06 90.2149 329.131C90.2764 329.202 90.3102 329.294 90.3102 329.388C90.3102 329.482 90.2764 329.574 90.2149 329.645C90.1534 329.717 90.0684 329.763 89.9754 329.777C89.8824 329.763 89.7974 329.717 89.7359 329.645C89.6744 329.574 89.6406 329.482 89.6406 329.388C89.6406 329.294 89.6744 329.202 89.7359 329.131C89.7974 329.06 89.8824 329.013 89.9754 328.999Z" fill="#FFB802"/>
<path d="M189.143 235.096C189.236 235.109 189.321 235.156 189.383 235.228C189.444 235.299 189.478 235.39 189.478 235.485C189.478 235.579 189.444 235.67 189.383 235.742C189.321 235.813 189.236 235.86 189.143 235.874C189.05 235.86 188.965 235.813 188.904 235.742C188.842 235.67 188.809 235.579 188.809 235.485C188.809 235.39 188.842 235.299 188.904 235.228C188.965 235.156 189.05 235.109 189.143 235.096Z" fill="#FFB802"/>
<path d="M273.015 239.572C273.294 239.572 273.561 239.683 273.758 239.881C273.955 240.079 274.065 240.347 274.065 240.626C274.065 240.906 273.955 241.174 273.758 241.372C273.561 241.569 273.294 241.681 273.015 241.681C272.737 241.681 272.469 241.569 272.272 241.372C272.076 241.174 271.965 240.906 271.965 240.626C271.965 240.347 272.076 240.079 272.272 239.881C272.469 239.683 272.737 239.572 273.015 239.572Z" fill="#FFB802"/>
<path d="M125.707 94.1829L129.083 94.8103L129.842 98.3911L130.6 94.8103L133.984 94.1829L130.617 93.3546L129.842 89.9746L129.075 93.3546L125.707 94.1829Z" fill="#FFB802"/>
<path d="M267.957 122.922L271.341 123.55L272.1 127.13L272.85 123.55L276.234 122.922L272.867 122.094L272.1 118.714L271.325 122.094L267.957 122.922Z" fill="#FFB802"/>
<path d="M21.0117 208.816L32.3108 210.759L34.8496 221.85L37.3884 210.759L48.7154 208.816L37.4442 206.251L34.8496 195.782L32.2829 206.251L21.0117 208.816Z" fill="#FFB802"/>
<path d="M299.781 38.5079L311.816 40.7104L314.484 53.2795L317.182 40.7104L329.216 38.4786L317.241 35.6006L314.484 23.7363L311.757 35.6006L299.781 38.5079Z" fill="#FFB802"/>
<path d="M199.352 46.3284L207.835 47.8869L209.74 56.7554L211.646 47.8869L220.129 46.3284L211.684 44.2875L209.74 35.9014L207.797 44.2875L199.352 46.3284Z" fill="#FFB802"/>
<path d="M25.6289 113.158L27.5211 113.509L27.9462 115.508L28.363 113.509L30.2552 113.158L28.3714 112.697L27.9462 110.807L27.5128 112.697L25.6289 113.158Z" fill="#FFB802"/>
<path d="M60.3666 109.837C60.5125 109.837 60.6524 109.895 60.7556 109.999C60.8588 110.102 60.9167 110.243 60.9167 110.389C60.9167 110.536 60.8588 110.676 60.7556 110.78C60.6524 110.883 60.5125 110.941 60.3666 110.941C60.2207 110.941 60.0807 110.883 59.9775 110.78C59.8744 110.676 59.8164 110.536 59.8164 110.389C59.8164 110.243 59.8744 110.102 59.9775 109.999C60.0807 109.895 60.2207 109.837 60.3666 109.837Z" fill="#FFB802"/>
<path d="M18.6791 306.929C18.825 306.929 18.9649 306.987 19.0681 307.09C19.1713 307.194 19.2292 307.334 19.2292 307.481C19.2292 307.627 19.1713 307.768 19.0681 307.871C18.9649 307.975 18.825 308.033 18.6791 308.033C18.5332 308.033 18.3932 307.975 18.29 307.871C18.1869 307.768 18.1289 307.627 18.1289 307.481C18.1289 307.334 18.1869 307.194 18.29 307.09C18.3932 306.987 18.5332 306.929 18.6791 306.929Z" fill="#FFB802"/>
<path d="M63.6505 287.955C63.7837 287.972 63.9063 288.036 63.9952 288.137C64.084 288.238 64.1331 288.368 64.1331 288.503C64.1331 288.638 64.084 288.768 63.9952 288.869C63.9063 288.97 63.7837 289.035 63.6505 289.051C63.5173 289.035 63.3948 288.97 63.3059 288.869C63.217 288.768 63.168 288.638 63.168 288.503C63.168 288.368 63.217 288.238 63.3059 288.137C63.3948 288.036 63.5173 287.972 63.6505 287.955Z" fill="#FFB802"/>
<path d="M19.2091 148.639C19.3423 148.655 19.4649 148.72 19.5538 148.821C19.6426 148.922 19.6917 149.052 19.6917 149.187C19.6917 149.321 19.6426 149.451 19.5538 149.552C19.4649 149.653 19.3423 149.718 19.2091 149.735C19.0759 149.718 18.9534 149.653 18.8645 149.552C18.7756 149.451 18.7266 149.321 18.7266 149.187C18.7266 149.052 18.7756 148.922 18.8645 148.821C18.9534 148.72 19.0759 148.655 19.2091 148.639Z" fill="#FFB802"/>
<path d="M63.6478 65.9043C63.7937 65.9043 63.9337 65.9625 64.0368 66.066C64.14 66.1696 64.198 66.31 64.198 66.4565C64.198 66.6029 64.14 66.7434 64.0368 66.8469C63.9337 66.9505 63.7937 67.0086 63.6478 67.0086C63.5019 67.0086 63.362 66.9505 63.2588 66.8469C63.1556 66.7434 63.0977 66.6029 63.0977 66.4565C63.0977 66.31 63.1556 66.1696 63.2588 66.066C63.362 65.9625 63.5019 65.9043 63.6478 65.9043Z" fill="#FFB802"/>
<path d="M135.432 37.6934C135.565 37.7099 135.688 37.7747 135.776 37.8757C135.865 37.9766 135.914 38.1067 135.914 38.2414C135.914 38.376 135.865 38.5061 135.776 38.607C135.688 38.708 135.565 38.7728 135.432 38.7893C135.299 38.7728 135.176 38.708 135.087 38.607C134.998 38.5061 134.949 38.376 134.949 38.2414C134.949 38.1067 134.998 37.9766 135.087 37.8757C135.176 37.7747 135.299 37.7099 135.432 37.6934Z" fill="#FFB802"/>
<path d="M113.413 234.436C113.506 234.449 113.591 234.496 113.652 234.568C113.714 234.639 113.748 234.73 113.748 234.825C113.748 234.919 113.714 235.01 113.652 235.082C113.591 235.153 113.506 235.2 113.413 235.214C113.32 235.2 113.235 235.153 113.173 235.082C113.112 235.01 113.078 234.919 113.078 234.825C113.078 234.73 113.112 234.639 113.173 234.568C113.235 234.496 113.32 234.449 113.413 234.436Z" fill="#FFB802"/>
<path d="M113.042 334.69C113.135 334.704 113.22 334.751 113.281 334.822C113.343 334.894 113.377 334.985 113.377 335.079C113.377 335.174 113.343 335.265 113.281 335.336C113.22 335.408 113.135 335.455 113.042 335.468C112.949 335.455 112.864 335.408 112.802 335.336C112.741 335.265 112.707 335.174 112.707 335.079C112.707 334.985 112.741 334.894 112.802 334.822C112.864 334.751 112.949 334.704 113.042 334.69Z" fill="#FFB802"/>
<path d="M303.238 97.5938L311.737 99.2821L313.608 108.89L315.518 99.2821L324.016 97.5938L315.555 95.3828L313.608 86.2979L311.699 95.3828L303.238 97.5938Z" fill="#FFB802"/>
<path d="M353.465 205.304L355.357 205.655L355.782 207.655L356.207 205.655L358.091 205.295L356.216 204.835L355.782 202.944L355.349 204.835L353.465 205.304Z" fill="#FFB802"/>
<path d="M305.869 107.846C306.002 107.862 306.125 107.927 306.214 108.028C306.303 108.129 306.352 108.259 306.352 108.394C306.352 108.528 306.303 108.658 306.214 108.759C306.125 108.86 306.002 108.925 305.869 108.942C305.736 108.925 305.614 108.86 305.525 108.759C305.436 108.658 305.387 108.528 305.387 108.394C305.387 108.259 305.436 108.129 305.525 108.028C305.614 107.927 305.736 107.862 305.869 107.846Z" fill="#FFB802"/>
<path d="M249.878 52.8457C249.971 52.8594 250.056 52.9063 250.117 52.9777C250.179 53.0491 250.213 53.1404 250.213 53.2347C250.213 53.3291 250.179 53.4203 250.117 53.4918C250.056 53.5632 249.971 53.61 249.878 53.6238C249.785 53.61 249.7 53.5632 249.638 53.4918C249.577 53.4203 249.543 53.3291 249.543 53.2347C249.543 53.1404 249.577 53.0491 249.638 52.9777C249.7 52.9063 249.785 52.8594 249.878 52.8457Z" fill="#FFB802"/>
<path d="M167.393 370.805C167.486 370.818 167.571 370.865 167.633 370.937C167.694 371.008 167.728 371.099 167.728 371.194C167.728 371.288 167.694 371.379 167.633 371.451C167.571 371.522 167.486 371.569 167.393 371.583C167.3 371.569 167.215 371.522 167.154 371.451C167.092 371.379 167.059 371.288 167.059 371.194C167.059 371.099 167.092 371.008 167.154 370.937C167.215 370.865 167.3 370.818 167.393 370.805Z" fill="#FFB802"/>
<path d="M345.038 117.141C345.131 117.154 345.216 117.201 345.277 117.273C345.339 117.344 345.373 117.435 345.373 117.53C345.373 117.624 345.339 117.715 345.277 117.787C345.216 117.858 345.131 117.905 345.038 117.919C344.945 117.905 344.86 117.858 344.798 117.787C344.737 117.715 344.703 117.624 344.703 117.53C344.703 117.435 344.737 117.344 344.798 117.273C344.86 117.201 344.945 117.154 345.038 117.141Z" fill="#FFB802"/>
<path d="M267.018 98.0059C267.111 98.0196 267.196 98.0664 267.258 98.1379C267.319 98.2093 267.353 98.3005 267.353 98.3949C267.353 98.4893 267.319 98.5805 267.258 98.6519C267.196 98.7233 267.111 98.7702 267.018 98.7839C266.925 98.7702 266.84 98.7233 266.779 98.6519C266.717 98.5805 266.684 98.4893 266.684 98.3949C266.684 98.3005 266.717 98.2093 266.779 98.1379C266.84 98.0664 266.925 98.0196 267.018 98.0059Z" fill="#FFB802"/>
<path d="M268.132 38.4053C268.225 38.419 268.31 38.4659 268.371 38.5373C268.433 38.6087 268.466 38.6999 268.466 38.7943C268.466 38.8887 268.433 38.9799 268.371 39.0513C268.31 39.1228 268.225 39.1696 268.132 39.1833C268.039 39.1696 267.954 39.1228 267.892 39.0513C267.831 38.9799 267.797 38.8887 267.797 38.7943C267.797 38.6999 267.831 38.6087 267.892 38.5373C267.954 38.4659 268.039 38.419 268.132 38.4053Z" fill="#FFB802"/>
<path d="M159.496 220.605C159.774 220.605 160.041 220.717 160.238 220.914C160.435 221.112 160.546 221.38 160.546 221.66C160.546 221.939 160.435 222.207 160.238 222.405C160.041 222.603 159.774 222.714 159.496 222.714C159.217 222.714 158.95 222.603 158.753 222.405C158.556 222.207 158.445 221.939 158.445 221.66C158.445 221.38 158.556 221.112 158.753 220.914C158.95 220.717 159.217 220.605 159.496 220.605Z" fill="#FFB802"/>
<path d="M302.926 166.617C303.189 166.641 303.434 166.762 303.613 166.958C303.792 167.154 303.891 167.41 303.891 167.676C303.891 167.941 303.792 168.197 303.613 168.393C303.434 168.589 303.189 168.71 302.926 168.734C302.662 168.71 302.417 168.589 302.239 168.393C302.06 168.197 301.961 167.941 301.961 167.676C301.961 167.41 302.06 167.154 302.239 166.958C302.417 166.762 302.662 166.641 302.926 166.617Z" fill="#FFB802"/>
<path d="M65.4331 167.673C65.7117 167.673 65.9788 167.784 66.1758 167.982C66.3728 168.179 66.4834 168.447 66.4834 168.727C66.4834 169.007 66.3728 169.275 66.1758 169.472C65.9788 169.67 65.7117 169.781 65.4331 169.781C65.1546 169.781 64.8874 169.67 64.6904 169.472C64.4935 169.275 64.3828 169.007 64.3828 168.727C64.3828 168.447 64.4935 168.179 64.6904 167.982C64.8874 167.784 65.1546 167.673 65.4331 167.673Z" fill="#FFB802"/>
<path d="M354.601 174.039C354.88 174.039 355.147 174.15 355.344 174.348C355.541 174.546 355.651 174.814 355.651 175.093C355.651 175.373 355.541 175.641 355.344 175.839C355.147 176.036 354.88 176.147 354.601 176.147C354.323 176.147 354.055 176.036 353.858 175.839C353.661 175.641 353.551 175.373 353.551 175.093C353.551 174.814 353.661 174.546 353.858 174.348C354.055 174.15 354.323 174.039 354.601 174.039Z" fill="#FFB802"/>
<path d="M50.7886 270.578C51.0671 270.578 51.3343 270.689 51.5313 270.887C51.7282 271.085 51.8389 271.353 51.8389 271.632C51.8389 271.912 51.7282 272.18 51.5313 272.378C51.3343 272.575 51.0671 272.686 50.7886 272.686C50.51 272.686 50.2429 272.575 50.0459 272.378C49.8489 272.18 49.7383 271.912 49.7383 271.632C49.7383 271.353 49.8489 271.085 50.0459 270.887C50.2429 270.689 50.51 270.578 50.7886 270.578Z" fill="#FFB802"/>
<path d="M103.793 64.6591L105.677 65.0021L106.102 67.01L106.527 65.0021L108.419 64.6507L106.535 64.1906L106.102 62.2998L105.677 64.1906L103.793 64.6591Z" fill="#FFB802"/>
<path d="M206.91 263.575L208.794 263.926L209.219 265.926L209.644 263.926L211.536 263.575L209.653 263.107L209.219 261.216L208.794 263.107L206.91 263.575Z" fill="#FFB802"/>
<path d="M267.96 355.027C268.106 355.027 268.246 355.086 268.349 355.189C268.452 355.293 268.51 355.433 268.51 355.58C268.51 355.726 268.452 355.866 268.349 355.97C268.246 356.074 268.106 356.132 267.96 356.132C267.814 356.132 267.674 356.074 267.571 355.97C267.468 355.866 267.41 355.726 267.41 355.58C267.41 355.433 267.468 355.293 267.571 355.189C267.674 355.086 267.814 355.027 267.96 355.027Z" fill="#FFB802"/>
<path d="M231.62 349.839C231.766 349.839 231.906 349.897 232.009 350.001C232.113 350.104 232.171 350.245 232.171 350.391C232.171 350.537 232.113 350.678 232.009 350.782C231.906 350.885 231.766 350.943 231.62 350.943C231.475 350.943 231.335 350.885 231.231 350.782C231.128 350.678 231.07 350.537 231.07 350.391C231.07 350.245 231.128 350.104 231.231 350.001C231.335 349.897 231.475 349.839 231.62 349.839Z" fill="#FFB802"/>
<path d="M243.32 202.811L245.204 203.162L245.629 205.162L246.054 203.162L247.947 202.811L246.063 202.351L245.629 200.46L245.196 202.351L243.32 202.811Z" fill="#FFB802"/>
<path d="M308.125 316.869L310.017 317.221L310.442 319.22L310.859 317.221L312.751 316.869L310.867 316.409L310.442 314.519L310.009 316.409L308.125 316.869Z" fill="#FFB802"/>
<path d="M325.371 364.824L327.263 365.176L327.688 367.175L328.114 365.176L329.997 364.824L328.122 364.356L327.688 362.465L327.255 364.356L325.371 364.824Z" fill="#FFB802"/>
<path d="M251.295 97.2959C251.428 97.3124 251.551 97.3773 251.64 97.4782C251.729 97.5791 251.778 97.7092 251.778 97.8439C251.778 97.9786 251.729 98.1086 251.64 98.2096C251.551 98.3105 251.428 98.3753 251.295 98.3919C251.162 98.3753 251.039 98.3105 250.95 98.2096C250.862 98.1086 250.812 97.9786 250.812 97.8439C250.812 97.7092 250.862 97.5791 250.95 97.4782C251.039 97.3773 251.162 97.3124 251.295 97.2959Z" fill="#FFB802"/>
<path d="M312.753 342.127C312.846 342.141 312.931 342.188 312.992 342.259C313.054 342.33 313.088 342.422 313.088 342.516C313.088 342.61 313.054 342.702 312.992 342.773C312.931 342.844 312.846 342.891 312.753 342.905C312.66 342.891 312.575 342.844 312.513 342.773C312.452 342.702 312.418 342.61 312.418 342.516C312.418 342.422 312.452 342.33 312.513 342.259C312.575 342.188 312.66 342.141 312.753 342.127Z" fill="#FFB802"/>
<path d="M39.6602 220.607L41.5524 220.958L41.9775 222.958L42.3943 220.958L44.2865 220.607L42.4026 220.138L41.9775 218.256L41.544 220.138L39.6602 220.607Z" fill="#FFB802"/>
<path d="M17.7951 261.375C17.9283 261.392 18.0508 261.456 18.1397 261.557C18.2286 261.658 18.2776 261.788 18.2776 261.923C18.2776 262.058 18.2286 262.188 18.1397 262.289C18.0508 262.39 17.9283 262.454 17.7951 262.471C17.6619 262.454 17.5393 262.39 17.4504 262.289C17.3616 262.188 17.3125 262.058 17.3125 261.923C17.3125 261.788 17.3616 261.658 17.4504 261.557C17.5393 261.456 17.6619 261.392 17.7951 261.375Z" fill="#FFB802"/>
<path d="M153.234 174.542C153.38 174.542 153.52 174.6 153.623 174.704C153.726 174.807 153.784 174.948 153.784 175.094C153.784 175.241 153.726 175.381 153.623 175.485C153.52 175.588 153.38 175.646 153.234 175.646C153.088 175.646 152.948 175.588 152.845 175.485C152.742 175.381 152.684 175.241 152.684 175.094C152.684 174.948 152.742 174.807 152.845 174.704C152.948 174.6 153.088 174.542 153.234 174.542Z" fill="#FFB802"/>
<path d="M113.042 113.643C113.135 113.656 113.22 113.703 113.281 113.775C113.343 113.846 113.377 113.937 113.377 114.032C113.377 114.126 113.343 114.217 113.281 114.289C113.22 114.36 113.135 114.407 113.042 114.421C112.949 114.407 112.864 114.36 112.802 114.289C112.741 114.217 112.707 114.126 112.707 114.032C112.707 113.937 112.741 113.846 112.802 113.775C112.864 113.703 112.949 113.656 113.042 113.643Z" fill="#FFB802"/>
<path d="M49.773 45.2646C50.0515 45.2646 50.3187 45.3757 50.5156 45.5734C50.7126 45.7711 50.8233 46.0392 50.8233 46.3188C50.8233 46.5984 50.7126 46.8665 50.5156 47.0642C50.3187 47.2619 50.0515 47.373 49.773 47.373C49.4944 47.373 49.2272 47.2619 49.0303 47.0642C48.8333 46.8665 48.7227 46.5984 48.7227 46.3188C48.7227 46.0392 48.8333 45.7711 49.0303 45.5734C49.2272 45.3757 49.4944 45.2646 49.773 45.2646Z" fill="#FFB802"/>
<path d="M298.917 68.8164C299.196 68.8164 299.463 68.9275 299.66 69.1252C299.857 69.3229 299.968 69.591 299.968 69.8706C299.968 70.1501 299.857 70.4183 299.66 70.616C299.463 70.8137 299.196 70.9247 298.917 70.9247C298.639 70.9247 298.372 70.8137 298.175 70.616C297.978 70.4183 297.867 70.1501 297.867 69.8706C297.867 69.591 297.978 69.3229 298.175 69.1252C298.372 68.9275 298.639 68.8164 298.917 68.8164Z" fill="#FFB802"/>
<path d="M198.469 266.423C198.469 262.154 198.469 257.931 198.743 253.707C198.743 239.615 199.063 225.522 199.521 211.429C199.841 200.274 201.076 171.675 201.121 168.6H201.396H201.716C201.716 171.629 203.82 217.672 204.003 237.457C204.003 241.497 204.003 245.536 204.003 249.576C204.231 262.567 204.323 275.512 204.231 288.503C204.231 290.569 204.231 292.635 204.231 294.701C204.231 306.544 204.231 365.945 204.231 377.834C204.231 378.477 203.042 378.798 201.716 378.798C200.39 378.798 198.697 378.523 198.697 377.788C198.697 364.706 198.697 304.065 198.697 290.982C198.423 282.903 198.377 274.686 198.469 266.423Z" fill="#263238"/>
<path d="M221.012 189.732C221.012 189.732 243.011 156.818 276.72 161.73C310.428 166.642 335.355 222.922 335.355 222.922C335.355 222.922 295.792 243.762 260.712 228.063C226.866 212.914 221.012 189.732 221.012 189.732Z" fill="#57BBAF"/>
<path d="M213.375 194C218.091 189.848 223.767 186.944 229.886 185.554C231.015 184.911 232.192 184.358 233.408 183.901L237.478 182.065L245.985 178.347C251.748 175.776 257.511 173.343 263.183 170.635C263.411 170.635 263.549 170.864 263.183 171.002C257.603 173.802 252.114 176.694 246.489 179.403C243.607 180.78 240.68 182.157 237.753 183.442L235.649 184.452L238.53 184.131C243.709 183.832 248.904 184.063 254.035 184.819C256.551 184.406 259.112 184.269 261.628 183.947C265.607 183.534 269.632 183.167 273.656 182.845C281.615 182.157 289.527 181.744 297.485 181.239V181.652C289.664 182.478 281.889 183.396 274.068 184.269L262.634 185.508L259.661 185.829C269.457 187.963 278.847 191.668 287.469 196.801C295.783 201.894 303.46 207.966 310.338 214.887C310.338 214.887 310.338 215.392 310.109 215.208C302.156 208.364 293.345 202.593 283.902 198.04C284.176 198.407 284.45 198.729 284.679 199.096L288.247 203.686C290.579 206.808 292.82 209.929 295.29 213.097C295.29 213.326 295.29 213.51 294.924 213.326C292.454 210.342 290.076 207.359 287.652 204.145L284.039 199.555L282.255 197.214L281.66 196.525C277.209 194.46 272.625 192.696 267.939 191.246C261.731 189.373 255.334 188.203 248.867 187.757L249.69 189.18L252.023 192.99C253.624 195.607 255.179 198.27 256.596 200.932C259.798 206.303 262.542 211.949 265.744 217.366C265.744 217.595 265.744 217.825 265.424 217.596C261.993 212.225 258.243 207.083 254.859 201.712C253.166 199.004 251.474 196.342 249.827 193.633C249.096 192.348 248.318 191.063 247.541 189.777C246.763 188.492 246.672 188.4 246.306 187.665H244.476C235.457 187.061 226.445 188.934 218.406 193.082C210.436 198.381 204.739 206.491 202.444 215.805C202.215 216.54 201.437 214.107 201.575 213.418C203.15 205.77 207.321 198.907 213.375 194Z" fill="#263238"/>
<path d="M267.85 202.633L274.436 213.099C276.662 216.419 278.663 219.885 280.427 223.474C280.427 223.474 280.427 223.703 280.199 223.474C277.817 220.205 275.648 216.785 273.704 213.237L267.53 202.633C267.392 202.633 267.713 202.174 267.85 202.633Z" fill="#263238"/>
<path d="M300.187 201.694C304.761 202.291 309.334 203.163 313.908 203.347C314.183 203.347 314.183 203.76 313.908 203.76C309.379 203.384 304.875 202.756 300.416 201.878C300.416 201.878 300.05 201.694 300.187 201.694Z" fill="#263238"/>
<path d="M191.966 156.083C191.966 156.083 165.804 191.475 129.809 189.318C93.8142 187.16 65.7773 154.752 65.7773 154.752C65.7773 154.752 124.458 79.146 191.966 156.083Z" fill="#2A9D8F"/>
<path d="M99.2635 140.512C102.053 141.614 104.935 142.578 107.816 143.542L112.116 144.919L114.311 145.607L117.833 144.689C125.868 142.827 134.061 141.735 142.302 141.43C146.786 141.246 151.276 141.338 155.749 141.706L155.2 141.43L145.504 136.84C139.055 133.718 132.652 130.459 126.157 127.429C125.882 127.429 126.157 126.97 126.157 127.062C132.697 130.092 139.375 132.8 146.007 135.692L155.657 139.824L160.597 141.981L161.878 142.532L167.778 143.496C177.078 145.036 185.77 149.136 192.887 155.339C196.222 158.056 198.778 161.612 200.297 165.644C201.816 169.676 202.242 174.041 201.532 178.292C201.532 178.567 200.937 178.567 200.983 178.292C201.715 170.442 196.409 163.419 190.692 158.599C186.843 155.44 182.479 152.971 177.794 151.3C176.439 153.116 174.907 154.792 173.22 156.303L166.497 163.097C161.923 167.688 157.35 172.003 152.776 176.547C152.776 176.547 152.319 176.547 152.502 176.226C156.755 171.636 160.78 166.77 164.988 162.041L171.208 155.156C172.623 153.519 174.151 151.985 175.782 150.565C173.027 149.624 170.216 148.858 167.366 148.27C162.223 147.174 157.012 146.423 151.77 146.021C149.849 148.5 147.791 150.887 145.732 153.228C143.674 155.569 140.427 159.103 137.591 161.812L137.317 161.536L137.774 160.986C140.107 158.185 142.348 155.431 144.818 152.677C147.287 149.923 148.568 148.086 150.489 145.929C145.915 145.607 141.342 145.47 137.134 145.562C136.631 146.296 136.036 147.031 135.533 147.673L132.743 151.254C130.593 153.916 128.169 156.533 126.111 159.058C121.838 164.027 117.255 168.719 112.39 173.105C112.41 173.139 112.421 173.179 112.421 173.219C112.421 173.26 112.41 173.299 112.39 173.334H112.116C112.116 173.334 111.841 173.105 112.116 172.967C116.689 168.009 121.263 163.189 125.379 158.185L131.828 150.611L134.938 146.755L135.807 145.562C130.707 145.736 125.622 146.211 120.577 146.985C111.869 148.301 103.308 150.453 95.0099 153.411C94.9505 153.387 94.8995 153.346 94.8637 153.293C94.8278 153.24 94.8086 153.177 94.8086 153.113C94.8086 153.049 94.8278 152.986 94.8637 152.933C94.8995 152.88 94.9505 152.838 95.0099 152.815C98.7604 151.116 102.465 149.463 106.353 148.224C108.64 147.49 110.926 146.801 113.259 146.158H112.756L108.182 144.552C105.347 143.496 102.557 142.302 99.7209 141.155C98.8976 140.787 99.0348 140.374 99.2635 140.512Z" fill="#263238"/>
<path d="M112.476 164.476L113.162 163.558C113.482 163.19 113.894 162.869 114.168 162.502C116.135 160.299 118.01 157.911 119.885 155.616C119.885 155.616 120.251 155.616 120.16 155.846C118.138 159.189 115.572 162.169 112.567 164.659C112.293 164.659 112.567 164.659 112.567 164.659L112.476 164.476Z" fill="#263238"/>
<path d="M107.813 130.889C113.484 133 119.11 135.066 124.735 137.269C124.735 137.269 124.735 137.774 124.735 137.683C119.064 135.617 113.438 133.413 107.813 131.256C107.493 131.164 107.584 130.797 107.813 130.889Z" fill="#263238"/>
<path d="M27.6723 394.093C79.6054 395.558 131.596 395.731 183.529 395.731C235.462 395.731 287.682 397.426 339.443 393.719C339.633 393.719 339.816 393.644 339.951 393.509C340.085 393.374 340.161 393.192 340.161 393.001C340.161 392.811 340.085 392.628 339.951 392.493C339.816 392.359 339.633 392.283 339.443 392.283C334.703 391.938 329.964 391.708 325.253 391.45C312.787 380.847 295.064 371.998 281.248 382.83C276.652 367.688 260.509 364.326 245.257 365.246C254.132 345.363 238.736 323.785 217.394 320.452C195.478 317.033 170.632 329.675 166.208 351.914C157.074 349.041 149.347 353.638 142.396 360.246C131.854 348.983 117.09 361.913 110.627 374.44C105.788 371.266 99.9517 369.978 94.2259 370.82C91.5322 371.262 89.0043 372.412 86.9013 374.153C85.0917 375.647 83.2533 380.503 81.5012 380.962C79.749 381.422 73.6882 378.29 71.4478 378.089C67.2819 377.604 63.0625 378.259 59.24 379.985C56.8537 381.086 54.7269 382.679 52.9993 384.66C51.2716 386.641 49.9821 388.964 49.2154 391.478C42.0343 391.622 34.8533 391.766 27.6723 391.967C27.4493 392.041 27.2552 392.184 27.1177 392.375C26.9802 392.565 26.9062 392.795 26.9062 393.03C26.9062 393.265 26.9802 393.494 27.1177 393.685C27.2552 393.876 27.4493 394.019 27.6723 394.093Z" fill="#FFC727"/>
<path opacity="0.4" d="M27.6723 394.093C79.6054 395.558 131.596 395.731 183.529 395.731C235.462 395.731 287.682 397.426 339.443 393.719C339.633 393.719 339.816 393.644 339.951 393.509C340.085 393.374 340.161 393.192 340.161 393.001C340.161 392.811 340.085 392.628 339.951 392.493C339.816 392.359 339.633 392.283 339.443 392.283C334.703 391.938 329.964 391.708 325.253 391.45C312.787 380.847 295.064 371.998 281.248 382.83C276.652 367.688 260.509 364.326 245.257 365.246C254.132 345.363 238.736 323.785 217.394 320.452C195.478 317.033 170.632 329.675 166.208 351.914C157.074 349.041 149.347 353.638 142.396 360.246C131.854 348.983 117.09 361.913 110.627 374.44C105.788 371.266 99.9517 369.978 94.2259 370.82C91.5322 371.262 89.0043 372.412 86.9013 374.153C85.0917 375.647 83.2533 380.503 81.5012 380.962C79.749 381.422 73.6882 378.29 71.4478 378.089C67.2819 377.604 63.0625 378.259 59.24 379.985C56.8537 381.086 54.7269 382.679 52.9993 384.66C51.2716 386.641 49.9821 388.964 49.2154 391.478C42.0343 391.622 34.8533 391.766 27.6723 391.967C27.4493 392.041 27.2552 392.184 27.1177 392.375C26.9802 392.565 26.9062 392.795 26.9062 393.03C26.9062 393.265 26.9802 393.494 27.1177 393.685C27.2552 393.876 27.4493 394.019 27.6723 394.093Z" fill="black"/>
</svg>
