<svg width="81" height="81" viewBox="0 0 81 81" fill="none" xmlns="http://www.w3.org/2000/svg">
<path d="M0.333313 40.9575C0.333313 22.1013 0.333313 12.6732 6.19118 6.81532C12.049 0.957458 21.4771 0.957458 40.3333 0.957458C59.1895 0.957458 68.6176 0.957458 74.4754 6.81532C80.3333 12.6732 80.3333 22.1013 80.3333 40.9575C80.3333 59.8136 80.3333 69.2417 74.4754 75.0996C68.6176 80.9575 59.1895 80.9575 40.3333 80.9575C21.4771 80.9575 12.049 80.9575 6.19118 75.0996C0.333313 69.2417 0.333313 59.8136 0.333313 40.9575Z" fill="#FEFAEC"/>
<path d="M35.3333 57.6241H45.3333C53.6667 57.6241 57 54.2908 57 45.9575V35.9575C57 27.6241 53.6667 24.2908 45.3333 24.2908H35.3333C27 24.2908 23.6667 27.6241 23.6667 35.9575V45.9575C23.6667 54.2908 27 57.6241 35.3333 57.6241Z" stroke="#FFB802" stroke-width="3" stroke-linecap="round" stroke-linejoin="round"/>
<path d="M32 34.7075C33.6666 36.3741 36.3833 36.3741 38.0666 34.7075" stroke="#FFB802" stroke-width="3" stroke-miterlimit="10" stroke-linecap="round" stroke-linejoin="round"/>
<path d="M42.6 34.7075C44.2666 36.3741 46.9833 36.3741 48.6666 34.7075" stroke="#FFB802" stroke-width="3" stroke-miterlimit="10" stroke-linecap="round" stroke-linejoin="round"/>
<path d="M34.3333 42.6241H46.3333C47.1666 42.6241 47.8333 43.2908 47.8333 44.1241C47.8333 48.2741 44.4833 51.6241 40.3333 51.6241C36.1833 51.6241 32.8333 48.2741 32.8333 44.1241C32.8333 43.2908 33.5 42.6241 34.3333 42.6241Z" fill="#FAE598" stroke="#FFB802" stroke-width="3" stroke-miterlimit="10" stroke-linecap="round" stroke-linejoin="round"/>
</svg>
