<svg width="80" height="81" viewBox="0 0 80 81" fill="none" xmlns="http://www.w3.org/2000/svg">
<path d="M1.52588e-05 40.9575C1.52588e-05 22.1013 1.52588e-05 12.6732 5.85788 6.81532C11.7157 0.957458 21.1438 0.957458 40 0.957458C58.8562 0.957458 68.2843 0.957458 74.1422 6.81532C80 12.6732 80 22.1013 80 40.9575C80 59.8136 80 69.2417 74.1422 75.0996C68.2843 80.9575 58.8562 80.9575 40 80.9575C21.1438 80.9575 11.7157 80.9575 5.85788 75.0996C1.52588e-05 69.2417 1.52588e-05 59.8136 1.52588e-05 40.9575Z" fill="#FF6250" fill-opacity="0.2"/>
<path d="M41.0334 55.6408C40.4667 55.8408 39.5334 55.8408 38.9667 55.6408C34.1334 53.9908 23.3334 47.1075 23.3334 35.4408C23.3334 30.2908 27.4834 26.1241 32.6 26.1241C35.6334 26.1241 38.3167 27.5908 40 29.8575C41.6834 27.5908 44.3834 26.1241 47.4 26.1241C52.5167 26.1241 56.6667 30.2908 56.6667 35.4408C56.6667 47.1075 45.8667 53.9908 41.0334 55.6408Z" fill="#FFB9B9" stroke="#FF3B30" stroke-width="3" stroke-linecap="round" stroke-linejoin="round"/>
</svg>
