<svg width="374" viewBox="0 0 374 396" fill="none" xmlns="http://www.w3.org/2000/svg">
<path d="M221.324 271.129L223.106 284.44L244.956 394.008H251.211L233.962 284.44L232.556 271.129H221.324Z" fill="#FFC727"/>
<path opacity="0.3" d="M221.324 271.129L223.106 284.44L244.956 394.008H251.211L233.962 284.44L232.556 271.129H221.324Z" fill="black"/>
<path d="M162.137 394.008H168.401L190.262 284.44L192.033 271.129H180.801L179.406 284.44L162.137 394.008Z" fill="#FFC727"/>
<path opacity="0.3" d="M162.137 394.008H168.401L190.262 284.44L192.033 271.129H180.801L179.406 284.44L162.137 394.008Z" fill="black"/>
<path d="M172.32 362.531H242.078V359.403H172.32V362.531Z" fill="#FFC727"/>
<path opacity="0.3" d="M172.32 362.531H242.078V359.403H172.32V362.531Z" fill="black"/>
<path opacity="0.3" d="M233.962 283.966H223.106L221.324 271.129H232.556L233.962 283.966Z" fill="black"/>
<path opacity="0.3" d="M179.402 283.966H190.258L192.03 271.129H180.798L179.402 283.966Z" fill="black"/>
<path d="M173.495 275.145H239.859V262.288H173.495V275.145Z" fill="#FFC727"/>
<path opacity="0.3" d="M173.495 275.145H239.859V262.288H173.495V275.145Z" fill="black"/>
<path d="M133.474 392.547C135.81 392.547 197.681 372.595 199.512 370.395C199.729 370.148 198.037 364.534 195.553 356.886V356.729C194.029 351.884 175.177 314.358 175.177 314.358L135.236 328.972L154.038 363.586C154.038 363.586 146.785 369.744 140.609 375.526C137.866 377.943 135.272 380.523 132.841 383.252C131.069 385.887 131.148 392.528 133.474 392.547Z" fill="#AD6359"/>
<path d="M199.565 370.395C197.744 372.595 135.853 392.577 133.517 392.538C131.182 392.498 131.122 385.877 132.854 383.282C135.283 380.551 137.874 377.967 140.613 375.546C142.978 373.336 145.492 371.056 147.718 369.112C140.128 377.569 136.011 389.637 194.814 354.962C195.106 355.547 195.357 356.15 195.567 356.768V356.916C198.041 364.534 199.743 370.148 199.565 370.395Z" fill="#FFC727"/>
<path d="M149.816 362.136L194.033 350.029C194.033 350.029 159.594 273.981 160.821 270.182C161.642 267.636 215.923 268.722 232.153 254.848C248.976 240.491 236.814 211.244 236.814 211.244L191.192 209.951C191.192 209.951 191.756 219.463 189.985 220.904C188.807 221.891 126.293 225.887 113.784 248.483C102.493 268.988 149.816 362.136 149.816 362.136Z" fill="#37474F"/>
<path d="M160.819 270.172C160.611 270.813 161.423 273.537 162.937 277.622L129.211 317.032C118.137 290.183 107.855 259.269 113.812 248.483C126.301 225.887 188.806 221.841 190.013 220.904C191.785 219.463 191.22 209.951 191.22 209.951L220.177 210.77L170.696 268.603C164.837 269.106 161.037 269.511 160.819 270.172Z" fill="#263238"/>
<path d="M148.945 352.851C150.119 352.353 151.326 351.937 152.557 351.608L156.387 350.423C158.921 349.683 161.454 348.973 163.997 348.312C169.133 346.99 174.27 345.707 179.435 344.523C182.137 343.901 187.907 342.549 188.263 342.618C188.431 342.618 188.461 342.934 188.263 342.983C183.315 344.641 178.189 346.042 173.112 347.453C168.035 348.864 162.968 350.266 157.842 351.4C156.417 351.726 154.992 352.012 153.567 352.318C152.074 352.707 150.556 352.994 149.024 353.176C148.915 353.216 148.787 352.93 148.945 352.851Z" fill="#263238"/>
<path d="M234.198 219.848C234.1 218.329 233.961 216.809 233.822 215.289C233.822 215.112 233.535 215.112 233.545 215.289C234.01 221.457 234.535 227.772 233.209 233.87C232.038 239.506 229.058 244.609 224.718 248.405C215.465 256.614 202.758 258.805 190.912 260.532C184.134 261.518 177.315 262.239 170.487 262.752C167.132 262.998 163.787 263.186 160.432 263.324C157.077 263.462 153.772 263.403 150.457 263.512C149.408 263.512 148.477 264.005 148.596 265.199C148.749 265.932 148.999 266.642 149.338 267.31L150.328 269.748C151.582 272.774 152.848 275.806 154.128 278.845C156.767 285.082 159.442 291.305 162.154 297.515C167.538 309.842 173.145 322.075 178.978 334.212L181.145 338.721C181.145 338.82 181.333 338.721 181.293 338.642C175.751 326.36 170.285 314.046 164.895 301.698C162.223 295.571 159.541 289.443 156.899 283.306C155.58 280.234 154.26 277.161 152.941 274.089C152.281 272.55 151.621 271.011 150.961 269.471C150.635 268.692 150.318 267.922 149.972 267.153C149.625 266.383 148.705 264.972 149.428 264.4C149.912 264.015 150.902 264.173 151.476 264.163H154.118C155.801 264.163 157.473 264.113 159.155 264.074C162.55 263.975 165.954 263.827 169.339 263.61C175.989 263.196 182.619 262.505 189.22 261.637C200.977 260.028 213.773 258.203 223.332 250.575C227.613 247.266 230.843 242.795 232.635 237.698C234.604 231.946 234.575 225.788 234.198 219.848Z" fill="#263238"/>
<path d="M35.8589 332.494C37.472 334.172 95.167 364.12 98.0171 363.873C98.3536 363.873 101.174 358.712 104.944 351.608L105.024 351.469C107.418 346.98 129.062 309.227 129.062 309.227L93.1877 290.055L70.9608 326.811C70.9608 326.811 61.4802 325.972 53.0091 325.637C49.3559 325.388 45.6912 325.355 42.0342 325.538C38.9367 326.11 34.2359 330.827 35.8589 332.494Z" fill="#AD6359"/>
<path d="M105.361 350.838C105.213 351.085 105.094 351.302 105.005 351.469L104.926 351.617C101.175 358.722 98.3545 363.863 97.9982 363.873C95.1481 364.119 37.4532 334.182 35.85 332.484C34.2468 330.787 38.9079 326.1 41.9856 325.518C45.6455 325.32 49.3142 325.349 52.9704 325.607C56.5825 325.755 60.3629 325.982 63.5099 326.209C51.9115 326.169 37.3245 331.152 105.361 350.838Z" fill="#FFC727"/>
<path d="M70.7656 320.371L114.042 343.204C114.042 343.204 149.826 274.715 153.686 270.333C158.822 264.502 223.722 274.409 239.526 255.532C255.865 236.024 242.841 211.02 242.841 211.02L193.281 209.846C193.281 209.846 193.014 215.323 195.676 223.404C195.676 223.404 139.099 218.727 122.701 233.903C110.113 245.566 70.7656 320.371 70.7656 320.371Z" fill="#37474F"/>
<path d="M205.104 229.005C202.607 227.202 200.014 225.535 197.336 224.012C195.446 222.973 193.457 222.123 191.398 221.476C189.963 221.092 189.33 220.973 190.676 221.644L194.278 223.45L193.516 223.4L190.656 223.203C188.746 223.114 186.836 223.085 184.936 223.026C181.066 222.917 177.227 223.193 173.367 223.292C173.268 223.292 173.268 223.45 173.367 223.45C177.227 223.45 181.086 223.716 184.936 223.785C186.846 223.785 188.746 223.923 190.656 224.002L193.447 224.111C194.233 224.17 195.023 224.19 195.812 224.17L196.861 224.693C199.632 226.084 202.393 227.515 205.065 229.094C205.104 229.124 205.183 229.055 205.104 229.005Z" fill="#263238"/>
<path d="M192.634 208.402C193.089 210.751 193.465 213.099 194 215.428C194.237 216.493 194.484 217.579 194.821 218.625C195.108 219.503 195.563 220.509 196.543 220.766C197.681 221.052 198.067 220.085 198.027 219.138C197.946 218.066 197.811 216.999 197.622 215.941C197.453 214.727 197.275 213.513 197.127 212.3C197.048 211.698 196.968 211.086 196.899 210.474C196.899 210.326 196.84 209.162 196.78 208.826C196.78 208.826 196.78 208.886 196.711 208.826C196.711 208.826 196.642 208.826 196.642 208.767C196.632 208.734 196.634 208.699 196.647 208.667C196.659 208.635 196.682 208.608 196.711 208.59C196.728 208.58 196.746 208.575 196.766 208.575C196.785 208.575 196.803 208.58 196.82 208.59C197.028 208.728 197.028 209.024 197.087 209.251C197.236 209.843 197.394 210.445 197.533 211.037C197.79 212.162 198.037 213.286 198.255 214.411C198.473 215.536 198.69 216.671 198.898 217.796C199.142 218.637 199.169 219.526 198.977 220.381C198.848 220.784 198.593 221.134 198.249 221.381C197.905 221.628 197.491 221.758 197.067 221.753C197.108 221.83 197.144 221.909 197.176 221.99C197.265 222.216 197.335 222.463 197.404 222.7C197.473 222.937 197.542 223.193 197.602 223.44C197.612 223.562 197.612 223.684 197.602 223.805C197.602 223.933 197.602 224.062 197.602 224.2C197.603 224.243 197.589 224.286 197.564 224.321C197.538 224.356 197.502 224.381 197.46 224.394C197.419 224.406 197.374 224.404 197.333 224.389C197.293 224.374 197.259 224.345 197.236 224.308C197.177 224.192 197.111 224.08 197.038 223.973C196.983 223.845 196.936 223.713 196.899 223.578C196.83 223.341 196.78 223.105 196.731 222.868C196.681 222.631 196.632 222.394 196.602 222.147C196.592 222.006 196.592 221.864 196.602 221.723C196.122 221.652 195.67 221.451 195.296 221.141C194.673 220.546 194.233 219.786 194.029 218.95C193.732 217.964 193.525 216.977 193.307 215.99C192.735 213.516 192.384 210.997 192.258 208.461C192.268 208.422 192.289 208.387 192.319 208.36C192.349 208.333 192.387 208.315 192.426 208.309C192.466 208.303 192.507 208.308 192.544 208.325C192.581 208.341 192.612 208.368 192.634 208.402Z" fill="#263238"/>
<path d="M216.385 215.566C216.533 216.72 216.593 217.884 216.8 219.039C217.008 220.193 217.236 221.298 217.533 222.394C217.807 223.465 218.226 224.494 218.78 225.453C219.369 226.353 220.082 227.167 220.898 227.87C222.462 229.258 224.244 230.381 226.172 231.196C227.138 231.612 228.129 231.965 229.141 232.251C229.666 232.399 230.2 232.528 230.744 232.626C231.192 232.66 231.627 232.788 232.021 233.001C232.058 233.028 232.087 233.064 232.106 233.105C232.124 233.147 232.131 233.193 232.126 233.238C232.121 233.283 232.104 233.326 232.077 233.362C232.05 233.399 232.013 233.427 231.971 233.445C231.178 233.633 230.35 233.613 229.567 233.386C228.706 233.248 227.856 233.051 227.023 232.794C225.339 232.247 223.74 231.466 222.273 230.475C220.791 229.521 219.483 228.324 218.404 226.933C217.408 225.473 216.758 223.806 216.504 222.058C216.092 219.92 215.976 217.735 216.157 215.566C216.165 215.541 216.18 215.52 216.2 215.504C216.221 215.489 216.246 215.481 216.271 215.481C216.297 215.481 216.322 215.489 216.342 215.504C216.363 215.52 216.378 215.541 216.385 215.566Z" fill="#263238"/>
<path d="M80.3535 312.997C81.5489 313.44 82.7128 313.965 83.837 314.565C85.0444 315.148 86.2418 315.73 87.4393 316.332C89.7847 317.516 92.1202 318.73 94.426 320.002C99.0673 322.558 103.689 325.133 108.281 327.817C110.666 329.209 115.792 332.179 116.01 332.475C116.109 332.613 115.93 332.84 115.782 332.771C111.012 330.551 106.351 328.094 101.69 325.647C97.0287 323.199 92.3774 320.713 87.8351 318.078C86.5783 317.338 85.3512 316.569 84.1042 315.819C82.7481 315.087 81.4482 314.255 80.215 313.332C80.0864 313.263 80.1853 312.997 80.3535 312.997Z" fill="#263238"/>
<path d="M243.047 222.916C243.047 222.873 243.03 222.832 242.999 222.801C242.969 222.771 242.927 222.753 242.884 222.753C242.84 222.753 242.799 222.771 242.768 222.801C242.738 222.832 242.72 222.873 242.72 222.916C242.562 233.642 240.622 245.611 232.161 253.101C222.888 261.33 209.756 262.041 197.97 261.666C191.211 261.448 184.451 261.123 177.682 261.182C170.913 261.241 164.006 261.409 157.237 262.119C154.601 262.3 152.117 263.413 150.23 265.257C148.407 267.233 146.813 269.407 145.48 271.74C141.95 277.286 138.536 282.894 135.238 288.564C128.64 299.839 122.501 311.368 116.821 323.149C116.118 324.61 115.425 326.11 114.733 327.54C114.683 327.639 114.832 327.728 114.871 327.629C120.631 315.788 126.836 304.214 133.387 292.827C136.686 287.137 140.074 281.502 143.55 275.924C145.193 273.309 146.786 270.625 148.607 268.119C150.211 265.909 152.21 263.846 154.921 263.096C156.585 262.72 158.283 262.515 159.988 262.485C161.72 262.366 163.452 262.258 165.184 262.169C168.558 262.001 171.943 261.902 175.327 261.853C182.156 261.764 188.964 262.011 195.783 262.287C207.658 262.771 220.523 262.672 230.568 255.38C234.844 252.196 238.116 247.858 239.999 242.878C241.844 237.767 242.846 232.392 242.968 226.962C243.027 225.62 243.047 224.268 243.047 222.916Z" fill="#263238"/>
<path d="M171.032 268.268C168.617 268.268 166.203 268.268 163.788 268.317C161.774 268.24 159.758 268.373 157.771 268.712C155.93 269.126 154.476 269.314 152.932 271.317C150.953 273.823 140.374 293.183 135.901 301.758C134.667 304.132 133.443 306.517 132.229 308.911C130.992 311.388 129.884 313.934 128.637 316.411C128.637 316.499 128.726 316.578 128.775 316.49C129.874 314.417 131.081 312.405 132.209 310.352C133.337 308.3 134.446 306.228 135.544 304.165C137.761 299.981 139.981 295.801 142.204 291.624C144.421 287.489 147.083 283.463 149.32 279.349C151.21 275.885 153.773 271.159 155.515 270.468C157.935 269.582 160.466 269.03 163.036 268.83C165.698 268.702 168.37 268.603 171.042 268.435C171.056 268.426 171.067 268.413 171.074 268.397C171.082 268.382 171.085 268.365 171.084 268.349C171.083 268.332 171.078 268.316 171.069 268.301C171.06 268.287 171.047 268.276 171.032 268.268Z" fill="#263238"/>
<path d="M206.69 163.219C202.405 182.046 193.478 204.662 189.658 208.303C184.829 212.95 154.814 219.157 153.211 219.285C149.252 219.69 143.651 194.479 145.977 194.439C152.459 194.36 173.201 190.818 174.596 189.387C175.992 187.956 185.858 175.474 195.952 161.462C202.919 151.772 209.352 151.536 206.69 163.219Z" fill="#AD6359"/>
<path d="M155.454 218.901C152.207 220.567 148.848 222.004 145.4 223.203C142.658 224.002 134.682 226.104 133.524 223.203C132.723 221.23 137.255 219.424 140.452 218.092C142.134 217.391 144.192 215.635 143.697 214.559C142.827 212.684 138.512 214.559 135.672 216.237C130.189 219.434 122.876 225.177 119.511 222.404C118.244 221.358 119.719 219.444 121.866 217.559C118.373 219.759 114.642 221.506 113.187 220.45C112.814 220.164 112.564 219.747 112.486 219.283C112.409 218.82 112.511 218.345 112.772 217.954C112.331 218.161 111.839 218.232 111.357 218.158C110.876 218.084 110.428 217.869 110.07 217.539C108.932 216.355 109.486 214.579 110.723 212.813C110.517 212.781 110.321 212.704 110.15 212.586C109.979 212.468 109.836 212.313 109.734 212.132C107.309 208.481 119.343 197.942 123.499 196.956C131.763 195.141 140.216 194.326 148.675 194.528C153.425 198.308 155.464 218.891 155.454 218.901Z" fill="#AD6359"/>
<path d="M137.406 207.681C134.489 208.15 131.704 209.226 129.232 210.839C126.124 212.891 124.076 215.299 121.473 217.746C121.404 217.805 121.473 217.914 121.572 217.854C122.809 216.7 127.945 212.378 129.271 211.401C131.674 209.586 134.459 208.341 137.416 207.76C137.416 207.76 137.436 207.681 137.406 207.681Z" fill="#263238"/>
<path d="M135.101 202.481C131.829 203.263 128.646 204.374 125.6 205.797C122.334 207.464 119.771 210.178 117.268 212.793C115.75 214.359 114.276 215.964 112.844 217.608C112.785 217.677 112.844 217.786 112.943 217.717C115.483 215.013 118.122 212.382 120.86 209.823C123.357 207.448 126.3 205.587 129.519 204.346C131.37 203.646 133.26 203.083 135.15 202.521C135.15 202.551 135.14 202.481 135.101 202.481Z" fill="#263238"/>
<path d="M131.655 197.972C128.518 198.623 125.797 199.176 123.026 200.863C119.917 202.928 117.081 205.374 114.584 208.145C113.219 209.612 111.899 211.112 110.626 212.645C110.576 212.714 110.685 212.802 110.735 212.743C113.706 209.393 116.889 206.235 120.265 203.29C121.852 201.864 123.651 200.693 125.599 199.817C127.57 199.035 129.607 198.427 131.685 198.001C131.685 198.001 131.665 197.972 131.655 197.972Z" fill="#263238"/>
<path d="M148.875 191.528L158.771 222.65C158.771 222.65 185.491 214.993 190.31 209.734C195.13 204.475 204.165 177.369 206.738 164.235C209.311 151.102 202.7 151.408 196.595 159.736C190.489 168.064 175.318 188.124 174.467 188.558C173.616 188.993 148.875 191.528 148.875 191.528Z" fill="#FFC727"/>
<path d="M161.137 190.473L160.484 190.305L162.671 190.058C163.459 190.295 164.285 190.382 165.106 190.315C165.816 190.227 166.495 189.97 167.085 189.565L168.441 189.407C167.898 189.974 167.245 190.424 166.521 190.729C164.759 191.479 162.948 190.946 161.137 190.473ZM179.158 205.076C177.644 204.398 175.998 204.059 174.337 204.084C172.677 204.11 171.042 204.499 169.549 205.224C168.111 205.922 166.85 206.934 165.858 208.185C164.872 209.518 164.22 211.068 163.958 212.704C163.621 214.51 163.344 216.513 161.731 217.638C160.502 218.471 159.008 218.823 157.535 218.624L157.783 219.394C158.819 219.543 159.877 219.417 160.848 219.027C161.82 218.637 162.671 217.998 163.315 217.174C164.393 215.694 164.502 213.819 164.888 212.092C165.268 210.397 166.139 208.849 167.392 207.642C168.675 206.424 170.252 205.557 171.97 205.124C173.689 204.692 175.49 204.71 177.199 205.175C178.983 205.698 180.639 206.58 182.066 207.769C183.493 208.957 184.659 210.425 185.492 212.082C185.611 212.309 185.72 212.536 185.828 212.763L186.521 212.398C185.039 209.148 182.422 206.546 179.158 205.076ZM187.62 205.974C187.286 207.685 187.641 209.457 188.609 210.908L188.708 211.066C188.936 210.908 189.144 210.76 189.342 210.602C188.849 209.837 188.512 208.982 188.352 208.086C187.976 205.965 189.124 204.09 190.529 202.59C192.411 200.748 194.44 199.062 196.595 197.548L197.16 196.107C194.86 197.787 192.647 199.582 190.529 201.485C189.15 202.674 188.14 204.232 187.62 205.974ZM202.098 176.727C199.841 174.862 196.447 175.425 194.112 176.836C191.044 178.681 189.599 182.204 188.174 185.282C186.62 188.539 184.522 192.19 180.781 193.226C177.436 194.153 174.586 191.805 173.696 188.736L172.904 188.854C173.167 189.96 173.688 190.988 174.423 191.855C175.159 192.723 176.09 193.405 177.14 193.847C180.445 195.12 183.819 193.058 185.908 190.591C188.322 187.749 189.322 184.059 191.291 180.941C193.023 178.207 195.923 175.918 199.357 176.382C200.153 176.486 200.905 176.805 201.533 177.304C202.16 177.803 202.64 178.463 202.919 179.214C203.038 178.839 203.147 178.464 203.256 178.089C202.963 177.564 202.57 177.101 202.098 176.727ZM206.492 165.261C204.404 165.834 202.306 166.386 200.217 167.018C196.081 168.281 191.974 169.702 187.966 171.35C187.649 171.754 187.343 172.169 187.026 172.583L188.49 171.981C192.637 170.304 196.863 168.843 201.148 167.57C202.88 167.047 204.641 166.584 206.383 166.11C206.452 165.814 206.512 165.528 206.571 165.242L206.492 165.261Z" fill="white"/>
<path d="M161.334 208.806C160.126 205.145 158.899 201.485 157.831 197.765C157.227 195.653 156.603 193.551 156.02 191.43C156.02 191.351 156.138 191.301 156.168 191.38C157.514 195.021 158.87 198.662 160.047 202.363C161.225 206.063 162.442 209.704 163.58 213.404C164.224 215.506 164.797 217.608 165.312 219.749C165.312 219.749 165.253 219.818 165.243 219.749C163.758 216.187 162.541 212.506 161.334 208.806Z" fill="#263238"/>
<path opacity="0.1" d="M206.767 164.245C204.154 177.369 195.208 204.474 190.339 209.734C185.47 214.993 158.81 222.65 158.81 222.65L155.316 211.717C170.378 193.67 192.991 167.403 204.659 153.894C206.965 154.19 208.133 157.367 206.767 164.245Z" fill="black"/>
<path d="M187.125 220.716L248.808 219.957C248.808 219.957 231.925 168.814 218.842 155.71C212.904 149.789 207.293 150.865 202.642 154.96C201.484 155.947 187.461 175.563 186.422 182.105C185.492 187.897 190.212 193.699 190.212 193.699L187.125 220.716Z" fill="#FFC727"/>
<path d="M189.439 220.687H188.618C188.232 219.542 187.886 218.388 187.52 217.233L187.727 215.398C188.341 217.154 188.836 218.94 189.439 220.687Z" fill="white"/>
<path d="M241.246 219.671C241.916 219.724 242.579 219.843 243.225 220.026L236.516 220.105C238.062 219.729 239.656 219.583 241.246 219.671Z" fill="white"/>
<path d="M201.136 167.57C197.996 168.498 194.898 169.534 191.844 170.678L192.507 169.583C195.05 168.656 197.623 167.807 200.206 167.018C202.294 166.386 204.392 165.834 206.48 165.261C208.49 164.775 210.425 164.018 212.23 163.011C215.199 161.216 217.613 157.723 216.188 154.131C216.053 153.79 215.891 153.46 215.704 153.144C216.149 153.415 216.578 153.712 216.99 154.032C217.148 154.453 217.261 154.89 217.327 155.335C217.841 158.759 215.565 161.827 212.774 163.554C211.066 164.544 209.227 165.292 207.312 165.774C205.283 166.426 203.195 166.958 201.136 167.57Z" fill="white"/>
<path d="M191.252 180.941C189.728 183.358 188.778 186.121 187.294 188.558C187.165 188.233 187.046 187.897 186.938 187.572C187.363 186.812 187.759 186.042 188.115 185.292C189.58 182.214 191.025 178.691 194.053 176.846C196.388 175.435 199.783 174.872 202.039 176.737C203.295 177.965 204.058 179.607 204.187 181.355C204.497 183.252 204.48 185.187 204.137 187.078C203.361 190.602 201.373 193.744 198.516 195.959C195.874 198.219 192.855 200.074 190.461 202.619C189.844 203.255 189.318 203.973 188.897 204.751L189.095 202.994C189.513 202.468 189.966 201.97 190.451 201.504C192.915 199.077 195.894 197.261 198.467 194.962C199.786 193.828 200.921 192.497 201.831 191.015C202.863 189.245 203.463 187.257 203.583 185.213C203.811 181.918 203.336 176.925 199.258 176.382C195.884 175.918 192.984 178.207 191.252 180.941Z" fill="white"/>
<path d="M211.636 169.632C209.202 172.543 209.657 176.687 211.577 179.727C213.497 182.766 216.366 184.562 219.296 186.279C222.038 187.694 224.617 189.404 226.985 191.38C228.061 192.364 228.958 193.525 229.637 194.814C230.37 196.274 230.924 198.05 230.122 199.6C229.753 200.212 229.249 200.733 228.65 201.124C228.05 201.516 227.369 201.767 226.659 201.859C224.946 202.051 223.217 201.706 221.71 200.872C219.923 199.866 218.083 198.957 216.198 198.149C214.269 197.368 212.147 197.185 210.112 197.626C207.143 198.406 204.441 202.076 206.342 204.987C208.242 207.898 212.853 208.174 213.744 211.894C214.605 215.437 210.449 217.025 207.727 217.568C204.212 218.275 200.574 218.075 197.158 216.986C193.862 215.92 190.508 213.927 188.627 210.937C188.509 210.75 188.4 210.552 188.301 210.355L188.479 208.757C189.037 210.376 190.038 211.808 191.369 212.891C194.253 215.322 197.827 216.795 201.591 217.104C203.437 217.276 205.298 217.199 207.123 216.877C208.861 216.686 210.517 216.039 211.923 215.003C213.467 213.651 213.269 211.736 211.923 210.296C210.577 208.855 208.954 208.322 207.499 207.247C206.838 206.843 206.27 206.305 205.832 205.667C205.394 205.03 205.095 204.307 204.956 203.547C204.815 202.113 205.221 200.679 206.094 199.53C208.252 196.57 211.973 196.126 215.317 197.064C217.204 197.669 219.016 198.483 220.721 199.491C222.373 200.399 224.234 201.376 226.184 201.159C227.797 200.991 229.538 199.975 229.697 198.198C229.855 196.422 228.766 194.676 227.717 193.393C225.738 190.956 222.967 189.357 220.305 187.818C217.643 186.279 214.615 184.591 212.388 182.193C210.053 179.638 208.558 176.204 209.271 172.711C209.526 171.173 210.28 169.762 211.417 168.693C212.554 167.623 214.011 166.955 215.565 166.79C217.036 166.675 218.499 167.088 219.692 167.955C220.952 169.019 221.768 170.515 221.978 172.148C222.314 173.925 222.324 175.799 223.036 177.497C223.729 179.117 224.894 180.493 226.381 181.443C227.487 182.203 228.786 182.635 230.127 182.69C231.469 182.744 232.799 182.418 233.962 181.749L234.289 182.499C233.382 183.038 232.369 183.374 231.32 183.486C229.721 183.576 228.127 183.24 226.701 182.514C225.275 181.787 224.069 180.696 223.205 179.352C222.294 177.906 221.738 176.266 221.582 174.566C221.334 172.81 221.206 170.846 220.097 169.376C218.029 166.593 213.685 167.165 211.636 169.632Z" fill="white"/>
<path d="M236.178 195.238C235.755 194.052 235.582 192.79 235.671 191.534C235.76 190.277 236.107 189.053 236.693 187.937C236.841 188.272 236.98 188.598 237.108 188.923L237.059 189.042C235.941 191.834 236.168 195.949 239.038 197.616C239.601 197.959 240.233 198.171 240.889 198.238L241.186 198.998C240.073 198.931 239.004 198.539 238.114 197.871C237.223 197.202 236.55 196.286 236.178 195.238Z" fill="white"/>
<path d="M245.086 209.211L239.267 209.013C235.259 208.875 230.915 208.382 227.075 209.823C224.027 210.957 221.494 213.888 221.761 217.282C221.854 218.421 222.382 219.481 223.235 220.243H222.157C221.511 219.352 221.113 218.307 221.004 217.213C220.894 216.12 221.077 215.017 221.533 214.016C222.82 210.839 225.729 209.083 229.005 208.421C232.963 207.632 237.268 208.116 241.316 208.254L244.799 208.372C244.859 208.678 244.958 208.944 245.086 209.211Z" fill="white"/>
<path d="M207.747 193.275C205.199 193.151 202.646 193.211 200.107 193.453C198.85 193.591 197.603 193.788 196.356 194.015C195.733 194.124 195.119 194.212 194.486 194.301C193.833 194.415 193.167 194.445 192.507 194.39C192.493 194.39 192.481 194.395 192.472 194.404C192.462 194.414 192.457 194.426 192.457 194.439C192.457 194.452 192.462 194.465 192.472 194.474C192.481 194.483 192.493 194.489 192.507 194.489C193.121 194.601 193.743 194.673 194.367 194.706C194.972 194.724 195.577 194.697 196.178 194.627C197.455 194.498 198.721 194.311 199.998 194.163C202.581 193.877 205.154 193.591 207.747 193.492C207.776 193.492 207.803 193.481 207.824 193.46C207.844 193.44 207.856 193.412 207.856 193.383C207.856 193.355 207.844 193.327 207.824 193.307C207.803 193.286 207.776 193.275 207.747 193.275Z" fill="#263238"/>
<path d="M213.645 196.374C211.604 195.864 209.536 195.472 207.45 195.199C206.411 195.061 205.362 194.992 204.313 194.943H202.809C202.254 194.943 201.7 195.002 201.146 194.992C201.087 194.992 201.077 195.071 201.146 195.081C201.661 195.081 202.136 195.219 202.7 195.288L204.263 195.466C205.253 195.584 206.341 195.713 207.39 195.821C209.479 196.048 211.557 196.295 213.635 196.581C213.734 196.561 213.744 196.403 213.645 196.374Z" fill="#263238"/>
<path d="M220.788 156.667C232.793 165.39 264.777 201.071 258.523 209.951C252.268 218.832 207.745 217.066 194.672 213.681C190.793 212.694 200.046 187.937 204.123 186.615C207.527 185.52 226.884 190.226 227.231 189.101C227.577 187.977 223.114 179.856 215.85 165.252C207.478 148.359 215.484 152.809 220.788 156.667Z" fill="#AD6359"/>
<path d="M185.068 182.826C176.161 183.28 173.964 184.799 166.265 181.178C161.208 178.829 157.526 181.04 161.049 185.638C166.799 193.167 178.388 194.972 182.584 194.45L185.068 182.826Z" fill="#AD6359"/>
<path d="M209.649 186.693C209.649 186.693 198.892 183.181 189.371 182.746C182.79 182.44 168.401 183.358 157.624 199.768C155.071 203.655 154.19 211.007 160.682 206.162C165.294 202.718 167.174 199.156 170.222 197.636C170.222 197.636 170.222 207.119 174.181 209.477C177.673 211.577 181.311 213.427 185.067 215.013C185.516 214.383 185.923 213.724 186.284 213.039C186.284 213.039 190.242 214.934 196.645 213.039L209.649 186.693Z" fill="#AD6359"/>
<path d="M183.045 183.457C180.333 185.598 174.682 190.236 171.377 195.624C167.706 201.623 162.253 214.145 166.716 216.809C169.992 218.782 172.495 214.155 172.495 214.155C172.495 214.155 171.328 219.809 174.673 220.924C177.721 221.91 179.443 218.259 179.443 218.259C179.443 218.259 179.334 221.812 182.411 222.206C186.172 222.7 185.786 215.181 190.032 212.408C191.031 211.806 183.045 183.457 183.045 183.457Z" fill="#AD6359"/>
<path d="M178.375 198.436C174.855 202.911 172.784 208.349 172.438 214.026C172.437 214.174 172.546 214.253 172.576 214.115C173.89 208.684 175.861 203.432 178.444 198.475L178.375 198.436Z" fill="#263238"/>
<path d="M184.333 202.313C182.641 204.603 179.237 211.776 179.326 218.22C179.326 218.368 179.435 218.437 179.464 218.309C180.501 212.817 182.161 207.46 184.413 202.343L184.333 202.313Z" fill="#263238"/>
<path d="M170.2 197.548C167.548 198.919 165.974 200.656 163.916 202.758C162.91 203.807 161.843 204.796 160.719 205.718C159.73 206.557 158.186 207.82 156.761 207.09C156.412 206.846 156.136 206.513 155.961 206.126C155.787 205.738 155.721 205.311 155.771 204.889C155.893 203.683 156.207 202.504 156.702 201.396C156.702 201.347 156.642 201.317 156.622 201.396C156.135 202.414 155.754 203.478 155.484 204.573C155.311 205.32 155.37 206.101 155.653 206.813C156.365 208.284 158.235 208.136 159.453 207.465C160.161 207.032 160.824 206.529 161.432 205.965C162.036 205.442 162.62 204.889 163.184 204.327C164.351 203.162 165.45 201.939 166.598 200.765C167.726 199.652 168.923 198.611 170.18 197.647C170.309 197.637 170.259 197.548 170.2 197.548Z" fill="#263238"/>
<path d="M166.213 208.619C167.324 204.877 168.679 201.212 170.271 197.646C170.271 197.646 170.271 197.558 170.202 197.646C168.41 200.143 165.946 206.34 165.461 208.264C164.839 210.29 164.633 212.422 164.858 214.53C165.422 217.49 167.48 217.648 168.232 217.648C169.122 217.64 169.982 217.327 170.667 216.76C171.454 216.038 172.087 215.166 172.527 214.194C172.527 214.194 172.527 214.105 172.458 214.194C171.656 215.546 170.182 217.016 168.499 217.154C167.782 217.212 167.071 216.985 166.52 216.523C165.945 215.899 165.615 215.09 165.59 214.243C165.466 212.347 165.677 210.443 166.213 208.619Z" fill="#263238"/>
<path d="M209.648 186.693L201.543 217.944C201.543 217.944 257.189 219.641 260.01 209.497C262.83 199.353 235.101 167.067 223.73 158.334C210.549 148.211 209.975 152.611 214.408 163.012C219.099 173.866 227.085 189.368 227.085 189.368L209.648 186.693Z" fill="#FFC727"/>
<path d="M214.259 162.548C214.14 162.282 214.041 162.025 213.932 161.778C216.04 159.805 217.336 157.042 216.218 154.19C216.079 153.83 215.906 153.483 215.703 153.154C216.06 153.302 216.446 153.49 216.861 153.707C217.102 154.244 217.268 154.812 217.356 155.394C217.49 156.751 217.276 158.119 216.734 159.37C216.193 160.622 215.341 161.715 214.259 162.548ZM229.637 194.815C228.958 193.526 228.061 192.364 226.985 191.381C225.931 190.42 224.787 189.561 223.571 188.815L221.592 188.509C223.932 189.744 226.028 191.392 227.777 193.374C228.766 194.657 229.885 196.482 229.756 198.179C229.627 199.877 227.856 200.962 226.243 201.14C224.264 201.357 222.433 200.38 220.78 199.472C219.076 198.464 217.263 197.65 215.377 197.045C212.19 196.147 208.657 196.512 206.47 199.117L205.164 204.169C205.59 205.433 206.439 206.514 207.569 207.228C209.033 208.214 210.755 208.935 211.992 210.277C213.229 211.619 213.516 213.632 211.992 214.984C210.587 216.02 208.931 216.667 207.193 216.858C205.42 217.174 203.613 217.253 201.819 217.095L201.621 217.865C203.684 218.061 205.764 217.955 207.796 217.549C210.518 217.006 214.724 215.418 213.813 211.875C212.923 208.175 208.281 207.859 206.411 204.968C204.54 202.077 207.242 198.387 210.181 197.607C212.217 197.166 214.338 197.349 216.267 198.13C218.153 198.938 219.993 199.847 221.78 200.853C223.286 201.687 225.016 202.032 226.728 201.84C227.438 201.748 228.119 201.497 228.719 201.105C229.319 200.714 229.822 200.193 230.191 199.581C230.924 198.051 230.37 196.275 229.637 194.815ZM223.244 179.333C224.108 180.677 225.315 181.768 226.741 182.495C228.167 183.221 229.76 183.557 231.359 183.467C232.873 183.277 234.3 182.66 235.473 181.688C236.646 180.716 237.516 179.43 237.98 177.981C239.82 172.198 233.794 168.873 229.835 166.209C227.856 164.877 225.699 163.249 224.966 160.92C224.786 160.339 224.699 159.732 224.709 159.124L223.996 158.542C223.83 159.939 224.126 161.353 224.838 162.568C227.42 167.018 233.279 168.153 236.238 172.267C237.074 173.376 237.519 174.729 237.505 176.116C237.417 177.755 236.739 179.307 235.595 180.487C234.437 181.708 232.877 182.474 231.201 182.644C229.524 182.814 227.842 182.378 226.461 181.415C224.973 180.464 223.808 179.088 223.116 177.468C222.403 175.77 222.393 173.896 222.057 172.119C221.847 170.486 221.031 168.99 219.771 167.926C218.708 167.144 217.42 166.728 216.099 166.742L216.465 167.551C217.176 167.559 217.875 167.727 218.511 168.043C219.147 168.359 219.703 168.815 220.137 169.376C221.245 170.847 221.374 172.81 221.621 174.567C221.78 176.26 222.336 177.893 223.244 179.333ZM236.179 195.239C236.417 195.939 236.794 196.585 237.286 197.138C237.779 197.691 238.378 198.14 239.048 198.459C239.718 198.777 240.445 198.958 241.186 198.991C241.927 199.025 242.667 198.91 243.363 198.653C246.886 197.37 249.103 193.897 250.657 190.7C250.904 190.187 251.142 189.713 251.35 189.151L250.825 188.391C250.126 190.15 249.255 191.836 248.222 193.423C246.392 196.216 242.582 199.738 239.029 197.617C236.169 195.9 235.941 191.835 237.05 189.042C237.851 187.253 238.911 185.591 240.197 184.108C241.424 182.579 242.68 181.079 243.828 179.49L243.918 179.372L243.393 178.741C242.661 179.727 241.909 180.714 241.117 181.701C239.9 183.128 238.757 184.617 237.693 186.161C235.981 188.855 234.991 192.111 236.179 195.239ZM259.999 206.162C258.396 207.381 256.497 208.154 254.497 208.402C252.393 208.632 250.274 208.675 248.163 208.53L241.236 208.293C237.188 208.155 232.933 207.672 228.925 208.461C225.649 209.112 222.74 210.879 221.453 214.056C220.939 215.27 220.788 216.607 221.018 217.904H221.77C221.73 217.707 221.7 217.51 221.681 217.312C221.413 213.918 223.947 210.987 226.995 209.852C230.835 208.412 235.179 208.866 239.187 209.043L246.114 209.28C248.262 209.349 250.429 209.487 252.577 209.389C254.534 209.361 256.467 208.952 258.267 208.185C258.925 207.884 259.549 207.513 260.128 207.08C260.117 206.772 260.087 206.466 260.038 206.162H259.999Z" fill="white"/>
<path d="M209.777 186.605C210.064 186.605 225.611 188.628 226.096 188.756C225.997 188.549 221.88 181.316 221.276 180.26L221.098 179.935C220.732 179.481 220.366 179.037 220.019 178.563L218.703 176.757L220.099 178.494L220.712 179.323L219.505 177.063C218.862 175.85 218.258 174.626 217.664 173.393H217.723C218.931 175.504 220.207 177.566 221.425 179.678C222.642 181.79 227.244 189.546 227.224 189.496C227.204 189.447 210.064 186.931 209.727 186.862C209.693 186.855 209.663 186.835 209.644 186.807C209.624 186.778 209.617 186.743 209.623 186.709C209.63 186.675 209.65 186.645 209.679 186.625C209.707 186.606 209.743 186.599 209.777 186.605Z" fill="#263238"/>
<path d="M212.427 205.441C213.308 201.958 214.169 198.475 215.178 195.021C215.762 193.048 216.326 191.074 216.92 189.15C216.92 189.071 217.068 189.101 217.058 189.15C216.306 192.673 215.544 196.215 214.634 199.708C213.723 203.201 212.852 206.675 211.902 210.138C211.358 212.112 210.764 214.085 210.101 215.99C210.101 215.99 210.022 215.99 210.032 215.99C210.626 212.457 211.507 208.954 212.427 205.441Z" fill="#263238"/>
<path d="M200.938 218.516C201.304 217.529 201.729 216.138 202.135 215.171C202.244 214.914 202.422 214.924 202.353 215.171C202.095 216.049 201.937 217.016 201.69 217.904H204.025H206.727C208.488 217.904 210.25 217.904 212.011 217.904C215.574 217.904 219.147 217.776 222.709 217.598C229.867 217.307 237.005 216.648 244.095 215.625C246.074 215.319 248.053 214.974 250.033 214.569C252.012 214.164 254.169 213.701 255.782 213.178C255.782 213.178 255.861 213.247 255.782 213.267C254.178 213.937 252.524 214.482 250.834 214.895C249.073 215.319 247.291 215.704 245.51 216.02C241.957 216.661 238.365 217.115 234.773 217.47C227.647 218.167 220.502 218.569 213.337 218.674C211.358 218.674 209.349 218.674 207.311 218.674C206.321 218.674 205.331 218.674 204.282 218.625C203.166 218.684 202.047 218.648 200.938 218.516Z" fill="#263238"/>
<path d="M199.157 223.677H133.516V226.607H199.157V223.677Z" fill="#C7C7C7"/>
<path d="M133.516 223.677V226.607H178.148L175.891 223.677H133.516Z" fill="#A6A6A6"/>
<path d="M173.061 226.607H109.082L103.758 183.289H167.737L173.061 226.607Z" fill="#C7C7C7"/>
<path d="M142.305 204.948C142.315 205.455 142.224 205.96 142.036 206.431C141.848 206.902 141.567 207.331 141.21 207.693C140.853 208.054 140.427 208.341 139.958 208.535C139.488 208.73 138.984 208.829 138.475 208.826C137.437 208.826 136.44 208.42 135.7 207.695C134.96 206.969 134.535 205.983 134.516 204.948C134.506 204.441 134.597 203.936 134.785 203.464C134.973 202.992 135.253 202.563 135.61 202.2C135.967 201.838 136.393 201.551 136.863 201.355C137.333 201.159 137.837 201.059 138.346 201.061C139.386 201.06 140.384 201.468 141.125 202.196C141.865 202.923 142.289 203.912 142.305 204.948Z" fill="white"/>
<path d="M213.587 154.269C213.379 155.355 208.511 162.578 203.553 162.558C201.939 162.558 201.573 153.756 201.573 153.756L201.405 153.115L198.98 144.116L209.461 136.824L210.975 135.837C210.975 135.837 211.47 138.343 212.063 141.471L212.152 141.915C212.152 142.093 212.222 142.261 212.251 142.418C212.35 142.892 212.439 143.405 212.528 143.839C212.617 144.274 212.657 144.56 212.707 144.935C212.756 145.31 212.825 145.694 212.895 146.079C213.31 148.791 213.541 151.527 213.587 154.269Z" fill="#AD6359"/>
<path d="M212.021 141.481C211.209 144.074 209.842 146.46 208.013 148.474C206.185 150.488 203.939 152.081 201.432 153.144L199.008 144.145L209.458 136.824L210.972 135.837C210.972 135.837 211.437 138.343 212.021 141.481Z" fill="#263238"/>
<path d="M220.158 128.989C220.517 129.107 220.896 129.15 221.272 129.116C221.648 129.082 222.013 128.972 222.345 128.791C222.543 128.653 222.711 128.486 222.909 128.357C223.207 128.18 223.552 128.098 223.899 128.121C224.3 128.134 224.701 128.107 225.096 128.042C225.718 127.992 226.312 127.763 226.806 127.383C227.3 127.003 227.672 126.488 227.877 125.9C228.758 126.128 229.69 126.046 230.517 125.669C231.345 125.291 232.016 124.641 232.419 123.828C232.522 123.607 232.602 123.375 232.657 123.137C232.68 122.793 232.774 122.457 232.934 122.151C233.201 121.902 233.509 121.702 233.844 121.559C234.089 121.414 234.317 121.246 234.527 121.055C234.815 120.811 235.003 120.47 235.054 120.097C235.105 119.724 235.016 119.345 234.804 119.033C235.257 118.828 235.64 118.496 235.906 118.077C236.172 117.658 236.308 117.17 236.299 116.674C236.331 116.046 236.226 115.418 235.992 114.834C235.758 114.25 235.4 113.723 234.943 113.29C235.192 112.985 235.377 112.634 235.488 112.258C235.599 111.881 235.634 111.486 235.591 111.096C235.548 110.706 235.427 110.328 235.236 109.984C235.045 109.641 234.787 109.339 234.478 109.096C234.662 108.765 234.773 108.398 234.804 108.02C234.835 107.642 234.784 107.262 234.656 106.905C234.527 106.549 234.324 106.223 234.06 105.951C233.795 105.679 233.476 105.466 233.122 105.327C233.169 104.684 233.057 104.039 232.797 103.449C232.536 102.859 232.135 102.342 231.628 101.942C231.422 101.785 231.256 101.582 231.143 101.35C231.218 100.915 231.195 100.469 231.076 100.043C230.956 99.6183 230.742 99.2253 230.45 98.8932C230.126 98.5476 229.703 98.3114 229.238 98.2176C228.773 98.1238 228.29 98.1772 227.857 98.3702C227.462 97.7585 226.922 97.2535 226.284 96.9C225.837 96.6343 225.329 96.4883 224.808 96.4762C224.288 96.4641 223.774 96.5863 223.315 96.8309C222.933 96.3593 222.456 95.9738 221.914 95.6999C221.372 95.426 220.777 95.2699 220.17 95.2419C219.563 95.2139 218.957 95.3147 218.392 95.5376C217.827 95.7605 217.316 96.1004 216.892 96.5349C216.53 96.0447 216.03 95.6719 215.457 95.463C214.883 95.2542 214.26 95.2186 213.666 95.3607C212.261 95.7676 211.055 96.6777 210.282 97.9163C209.917 97.5548 209.436 97.3336 208.923 97.2921C208.41 97.2505 207.899 97.3913 207.481 97.6894C207.165 97.9342 206.916 98.2538 206.755 98.619C206.594 98.9843 206.527 99.3838 206.561 99.7813C205.696 99.9923 204.949 100.535 204.482 101.291C204.295 101.625 204.21 102.007 204.236 102.389C204.262 102.77 204.399 103.137 204.631 103.442C204.167 103.632 203.759 103.937 203.445 104.327C203.131 104.717 202.922 105.18 202.836 105.672C202.75 106.165 202.79 106.671 202.954 107.144C203.117 107.617 203.398 108.041 203.77 108.376C203.087 108.493 202.453 108.808 201.947 109.28C201.442 109.753 201.086 110.364 200.925 111.036C200.764 111.708 200.804 112.413 201.041 113.062C201.277 113.712 201.7 114.278 202.256 114.691C201.746 115.032 201.347 115.515 201.107 116.079C200.868 116.644 200.8 117.266 200.91 117.868C201.068 118.575 201.391 119.235 201.851 119.796C202.312 120.356 202.898 120.801 203.562 121.095C203.285 121.65 203.178 122.275 203.253 122.89C203.329 123.506 203.584 124.086 203.988 124.558C204.365 124.97 204.823 125.301 205.334 125.53C205.845 125.759 206.397 125.882 206.956 125.89C206.405 126.111 205.8 126.16 205.219 126.034C204.639 125.907 204.11 125.61 203.701 125.18C203.212 124.618 202.927 123.908 202.893 123.165C202.859 122.422 203.077 121.689 203.513 121.085C202.982 121.677 202.688 122.442 202.688 123.236C202.688 124.03 202.982 124.796 203.513 125.387C204.04 125.921 204.731 126.265 205.476 126.365C206.221 126.465 206.979 126.315 207.629 125.94C207.521 126.634 207.615 127.345 207.899 127.989C208.183 128.632 208.646 129.181 209.233 129.57C209.82 129.959 210.507 130.173 211.212 130.185C211.917 130.198 212.61 130.008 213.211 129.64C214.943 132.255 219.198 132.334 220.158 128.989ZM231.044 100.916V100.817C230.973 100.556 230.87 100.304 230.737 100.067C230.422 99.5402 229.957 99.1179 229.401 98.8537C229.134 98.7267 228.851 98.6371 228.56 98.5873C228.402 98.5873 228.075 98.5873 228.075 98.5873C228.059 98.5494 228.039 98.513 228.016 98.4788C228.496 98.3522 229.003 98.3793 229.467 98.5564C229.93 98.7335 230.326 99.0516 230.598 99.4655C230.867 99.9023 231.011 100.404 231.014 100.916H231.044ZM206.867 99.6925C206.817 99.346 206.861 98.9926 206.993 98.6683C207.125 98.3441 207.341 98.0607 207.619 97.8473C208.006 97.5668 208.479 97.4301 208.956 97.4607C209.433 97.4913 209.885 97.6874 210.232 98.015V98.0742C209.807 97.8712 209.331 97.8022 208.866 97.8762C208.401 97.9503 207.97 98.1639 207.629 98.4887C207.253 98.8037 206.977 99.2224 206.838 99.6925H206.867ZM214.408 130.449C215.348 130.975 216.456 131.116 217.498 130.842C218.54 130.567 219.433 129.899 219.99 128.979C218.872 131.712 216.388 131.732 214.408 130.449Z" fill="#263238"/>
<path d="M187.429 126.986C182.58 142.606 191.387 147.273 194.792 148.309C197.859 149.296 208.429 152.079 214.871 137.041C221.313 122.003 215.564 114.819 208.666 112.283C201.768 109.748 192.278 111.366 187.429 126.986Z" fill="#AD6359"/>
<path d="M190.478 124.973C190.852 125.024 191.229 125.05 191.606 125.052C192 125.136 192.411 125.088 192.774 124.914C192.878 124.838 192.953 124.73 192.989 124.607C193.025 124.483 193.019 124.352 192.972 124.233C192.843 124.011 192.656 123.828 192.431 123.703C192.207 123.578 191.953 123.516 191.695 123.522C191.17 123.449 190.637 123.576 190.201 123.877C190.108 123.952 190.039 124.052 190.001 124.164C189.963 124.277 189.959 124.398 189.988 124.514C190.017 124.629 190.079 124.733 190.165 124.815C190.252 124.896 190.361 124.951 190.478 124.973Z" fill="#263238"/>
<path d="M201.304 128.022C200.964 127.863 200.633 127.685 200.314 127.489C199.928 127.282 199.602 127.163 199.394 126.759C199.345 126.639 199.338 126.507 199.374 126.384C199.41 126.26 199.487 126.153 199.592 126.078C199.82 125.958 200.076 125.901 200.333 125.913C200.591 125.925 200.841 126.006 201.056 126.147C201.535 126.364 201.916 126.751 202.125 127.232C202.353 127.726 201.769 128.219 201.304 128.022Z" fill="#263238"/>
<path d="M197.693 131.169C197.693 131.169 197.762 131.248 197.752 131.288C197.386 132.344 197.148 133.607 197.999 134.248C197.999 134.248 197.999 134.327 197.999 134.307C196.842 133.784 197.178 132.107 197.693 131.169Z" fill="#263238"/>
<path d="M199.001 130.35C200.753 130.755 199.823 134.228 198.19 133.853C196.557 133.478 197.527 130.015 199.001 130.35Z" fill="#263238"/>
<path d="M199.631 130.715C199.879 131.002 200.087 131.426 200.443 131.554C200.799 131.682 201.274 131.436 201.64 131.159C201.64 131.159 201.709 131.159 201.64 131.219C201.472 131.89 201.037 132.501 200.294 132.403C199.552 132.304 199.305 131.603 199.305 130.893C199.374 130.765 199.562 130.607 199.631 130.715Z" fill="#263238"/>
<path d="M191.764 129.334C191.764 129.334 191.665 129.334 191.655 129.413C191.407 130.498 190.942 131.702 189.874 131.801C189.874 131.801 189.824 131.86 189.874 131.86C191.101 132.008 191.704 130.449 191.764 129.334Z" fill="#263238"/>
<path d="M191.092 127.963C189.39 127.381 188.341 130.814 189.925 131.357C191.508 131.9 192.517 128.476 191.092 127.963Z" fill="#263238"/>
<path d="M190.299 127.972C189.973 128.071 189.607 128.318 189.31 128.239C189.013 128.16 188.766 127.696 188.627 127.252C188.627 127.252 188.627 127.252 188.568 127.252C188.35 127.903 188.36 128.653 188.954 128.969C189.547 129.285 190.092 128.821 190.448 128.209C190.478 128.14 190.438 127.923 190.299 127.972Z" fill="#263238"/>
<path d="M192.04 134.89C192.04 134.89 191.367 136.429 191.149 137.189C191.149 137.258 191.308 137.347 191.555 137.426C192.172 137.726 192.861 137.852 193.545 137.79C194.229 137.727 194.883 137.478 195.435 137.07C195.444 137.065 195.452 137.058 195.458 137.05C195.464 137.042 195.469 137.032 195.472 137.022C195.475 137.012 195.475 137.002 195.474 136.991C195.473 136.981 195.469 136.971 195.464 136.962C195.459 136.953 195.452 136.945 195.444 136.938C195.436 136.932 195.426 136.927 195.416 136.925C195.406 136.922 195.395 136.921 195.385 136.922C195.375 136.924 195.364 136.927 195.355 136.932C194.202 137.312 192.956 137.312 191.803 136.932C191.803 136.705 193.04 134.337 192.921 134.288C192.317 134.176 191.702 134.146 191.09 134.199C192.406 130.953 194.227 127.943 195.484 124.687C195.491 124.663 195.489 124.638 195.479 124.615C195.469 124.592 195.452 124.574 195.43 124.562C195.408 124.551 195.383 124.547 195.358 124.552C195.334 124.556 195.312 124.569 195.296 124.588C193.248 127.756 191.517 131.117 190.13 134.623C189.982 135.067 191.704 134.939 192.04 134.89Z" fill="#263238"/>
<path d="M213.922 136.37C210.874 136.37 210.953 129.403 210.953 129.403C210.953 129.403 198.444 125.604 198.702 115.086C196.543 119.09 192.927 122.116 188.598 123.542C188.598 123.542 190.518 112.224 199.85 111.168C199.85 111.168 211.596 108.534 216.772 118.223C221.948 127.913 215.971 136.37 213.922 136.37Z" fill="#263238"/>
<path d="M198.783 114.336C198.437 115.922 198.437 117.565 198.783 119.151C199.092 120.763 199.729 122.294 200.654 123.651C200.884 123.995 201.135 124.324 201.406 124.638L201.802 125.111L202.237 125.545C202.544 125.822 202.831 126.108 203.138 126.374L204.127 127.085C204.295 127.193 204.454 127.321 204.632 127.43L205.166 127.716L206.235 128.288C206.977 128.604 207.739 128.881 208.491 129.137C207.799 128.723 207.076 128.387 206.403 127.973L205.414 127.331L204.919 127.006L204.464 126.631C204.167 126.374 203.87 126.128 203.553 125.891C203.237 125.654 203.009 125.338 202.732 125.062L202.326 124.647L201.96 124.184C201.707 123.889 201.472 123.579 201.257 123.256C200.377 121.972 199.725 120.547 199.328 119.043C199.121 118.286 198.979 117.514 198.902 116.734C198.792 115.939 198.752 115.137 198.783 114.336Z" fill="#263238"/>
<path d="M212.647 142.113C212.388 142.146 212.125 142.146 211.865 142.113C211.606 142.106 211.349 142.059 211.103 141.975C210.785 141.868 210.492 141.696 210.242 141.471C210.047 141.299 209.877 141.099 209.738 140.879C209.547 140.576 209.41 140.242 209.332 139.893L211.143 135.807C211.143 135.807 215.735 131.584 217.724 133.321C219.713 135.058 215.527 141.708 212.647 142.113Z" fill="#AD6359"/>
<path d="M216.475 135.185V135.254C214.446 135.609 213.081 137.119 212.002 138.767C212.152 138.603 212.335 138.474 212.54 138.388C212.745 138.302 212.966 138.261 213.188 138.268C213.41 138.276 213.628 138.331 213.826 138.431C214.025 138.531 214.199 138.672 214.337 138.846C214.337 138.846 214.337 138.955 214.258 138.935C213.952 138.751 213.595 138.669 213.24 138.701C212.884 138.733 212.547 138.877 212.279 139.112C211.835 139.499 211.433 139.933 211.082 140.405C210.953 140.553 210.676 140.405 210.775 140.218C211.289 137.79 213.872 134.869 216.475 135.185Z" fill="#263238"/>
<path d="M212.578 141.392C212.544 141.491 212.489 141.581 212.418 141.657C212.347 141.733 212.26 141.794 212.165 141.836C212.069 141.878 211.965 141.899 211.861 141.899C211.756 141.9 211.653 141.878 211.557 141.837C211.461 141.796 211.375 141.735 211.303 141.659C211.232 141.583 211.177 141.493 211.142 141.395C211.107 141.297 211.092 141.192 211.099 141.088C211.106 140.984 211.135 140.883 211.183 140.79C211.218 140.692 211.272 140.602 211.344 140.526C211.415 140.449 211.501 140.388 211.597 140.347C211.692 140.305 211.796 140.283 211.9 140.283C212.005 140.283 212.108 140.304 212.204 140.346C212.3 140.387 212.386 140.448 212.458 140.524C212.529 140.6 212.584 140.69 212.619 140.788C212.655 140.886 212.669 140.99 212.662 141.094C212.655 141.198 212.626 141.3 212.578 141.392Z" fill="white"/>
<path d="M214.337 140.603C214.295 140.699 214.225 140.782 214.136 140.839C214.048 140.896 213.944 140.925 213.838 140.924C213.732 140.922 213.629 140.889 213.543 140.829C213.456 140.769 213.389 140.684 213.35 140.586C213.311 140.488 213.302 140.381 213.325 140.278C213.347 140.175 213.4 140.081 213.476 140.008C213.552 139.934 213.648 139.885 213.752 139.866C213.856 139.848 213.963 139.86 214.06 139.902C214.125 139.929 214.184 139.969 214.234 140.019C214.283 140.069 214.322 140.128 214.348 140.194C214.374 140.259 214.386 140.329 214.384 140.399C214.382 140.47 214.366 140.539 214.337 140.603Z" fill="white"/>
<path d="M213.864 141.698C213.715 142.428 216.288 140.297 216.457 139.932C216.625 139.567 218.278 138.738 218.782 138.067C219.466 137.067 220.049 136.003 220.524 134.889C220.663 134.386 221.82 133.251 221.969 132.353C222.117 131.455 223.057 123.315 218.505 117.029C213.953 110.744 209.183 109.619 209.183 109.619C206.817 108.857 204.375 108.354 201.899 108.119C197.891 107.754 190.687 116.102 190.637 116.309C190.683 116.779 190.629 117.253 190.479 117.7C190.202 118.233 189.489 118.687 189.727 119.289C189.964 119.891 188.935 121.114 188.856 121.697C188.777 122.279 188.856 122.437 188.737 122.812C188.619 123.187 192.053 113.438 204.749 111.898C204.749 111.898 217.1 125.94 213.864 141.698Z" fill="#FFC727"/>
<path d="M188.768 122.704C188.772 122.74 188.772 122.776 188.768 122.812C188.768 122.812 188.728 122.802 188.768 122.704Z" fill="#FFC727"/>
<path d="M188.776 122.703C188.776 122.703 188.776 122.772 188.776 122.812C188.776 122.851 188.726 122.802 188.776 122.703Z" fill="#FFC727"/>
<path opacity="0.3" d="M196.021 113.201C195.897 113.45 195.68 113.639 195.416 113.728C195.153 113.817 194.865 113.798 194.615 113.675C194.431 113.585 194.277 113.444 194.172 113.269C194.067 113.094 194.014 112.892 194.022 112.688C194.368 112.363 194.724 112.047 195.09 111.701C195.237 111.709 195.381 111.743 195.516 111.8C195.769 111.92 195.964 112.134 196.058 112.397C196.153 112.659 196.139 112.949 196.021 113.201ZM200.791 111.84C200.6 111.751 200.386 111.721 200.178 111.755C199.97 111.789 199.777 111.885 199.624 112.029C199.472 112.174 199.366 112.362 199.322 112.567C199.277 112.773 199.296 112.987 199.376 113.181C200.023 112.935 200.684 112.724 201.355 112.55C201.321 112.397 201.252 112.253 201.155 112.13C201.057 112.007 200.933 111.908 200.791 111.84ZM193.072 116.092C192.834 116.001 192.57 115.999 192.331 116.087C192.091 116.175 191.892 116.347 191.771 116.571C191.649 116.795 191.614 117.055 191.671 117.303C191.729 117.551 191.875 117.77 192.082 117.918C192.55 117.436 193.042 116.979 193.557 116.546C193.452 116.344 193.281 116.183 193.072 116.092ZM215.041 113.132C214.892 113.23 214.772 113.367 214.695 113.527C214.579 113.778 214.568 114.065 214.662 114.325C214.756 114.586 214.949 114.798 215.2 114.918C215.42 115.034 215.675 115.062 215.915 114.998C216.156 114.934 216.363 114.782 216.496 114.573C216.001 114.05 215.516 113.566 215.041 113.142V113.132ZM214.388 121.845C214.201 121.755 213.99 121.722 213.784 121.751C213.578 121.78 213.385 121.87 213.23 122.008C213.075 122.147 212.965 122.329 212.914 122.53C212.863 122.731 212.873 122.943 212.943 123.138C213.013 123.334 213.14 123.504 213.308 123.628C213.475 123.751 213.675 123.822 213.883 123.831C214.091 123.841 214.298 123.788 214.476 123.681C214.653 123.573 214.795 123.415 214.883 123.227C214.997 122.981 215.011 122.701 214.923 122.445C214.834 122.189 214.65 121.978 214.408 121.855L214.388 121.845ZM204.492 108.465C203.868 108.356 203.205 108.258 202.513 108.179C202.447 108.325 202.417 108.485 202.425 108.645C202.432 108.805 202.476 108.962 202.555 109.102C202.633 109.242 202.742 109.362 202.875 109.453C203.008 109.543 203.159 109.602 203.319 109.624C203.478 109.647 203.64 109.632 203.793 109.581C203.945 109.53 204.084 109.444 204.197 109.331C204.311 109.218 204.397 109.08 204.448 108.928C204.499 108.776 204.514 108.614 204.492 108.455V108.465ZM209.113 110.922C208.926 110.831 208.716 110.799 208.51 110.828C208.303 110.857 208.111 110.946 207.956 111.085C207.801 111.224 207.691 111.405 207.64 111.607C207.588 111.808 207.599 112.02 207.669 112.215C207.739 112.411 207.865 112.581 208.033 112.704C208.2 112.828 208.401 112.899 208.609 112.908C208.817 112.918 209.023 112.865 209.201 112.757C209.379 112.65 209.521 112.492 209.608 112.303C209.725 112.061 209.743 111.784 209.66 111.529C209.577 111.274 209.399 111.06 209.163 110.932L209.113 110.922ZM211.251 116.359C211.064 116.268 210.853 116.236 210.647 116.265C210.441 116.294 210.248 116.383 210.093 116.522C209.938 116.661 209.828 116.842 209.777 117.043C209.726 117.245 209.736 117.457 209.806 117.652C209.876 117.848 210.003 118.018 210.17 118.141C210.338 118.265 210.538 118.336 210.746 118.345C210.954 118.355 211.16 118.302 211.338 118.194C211.516 118.087 211.658 117.929 211.746 117.74C211.862 117.498 211.881 117.221 211.798 116.966C211.715 116.71 211.537 116.497 211.3 116.369L211.251 116.359ZM218.792 118.757C218.605 118.667 218.395 118.635 218.189 118.665C217.984 118.694 217.792 118.784 217.637 118.922C217.483 119.061 217.373 119.242 217.322 119.442C217.271 119.643 217.281 119.854 217.35 120.049C217.419 120.245 217.545 120.415 217.712 120.539C217.878 120.662 218.078 120.734 218.285 120.745C218.493 120.755 218.699 120.704 218.877 120.598C219.055 120.492 219.198 120.335 219.287 120.148C219.406 119.905 219.426 119.625 219.343 119.368C219.26 119.11 219.08 118.895 218.841 118.766L218.792 118.757ZM217.585 126.591C217.459 126.518 217.319 126.471 217.174 126.455C217.03 126.438 216.883 126.451 216.744 126.494C216.605 126.537 216.476 126.609 216.366 126.704C216.256 126.799 216.167 126.916 216.105 127.048C216.043 127.179 216.009 127.322 216.005 127.467C216.002 127.613 216.028 127.757 216.084 127.891C216.139 128.026 216.222 128.147 216.327 128.248C216.432 128.348 216.557 128.426 216.694 128.476C216.816 128.542 216.951 128.581 217.089 128.592C217.227 128.602 217.366 128.583 217.497 128.537C217.627 128.49 217.747 128.417 217.847 128.322C217.948 128.226 218.027 128.111 218.079 127.983C218.199 127.74 218.219 127.46 218.136 127.202C218.053 126.945 217.873 126.729 217.634 126.601L217.585 126.591ZM214.873 138.047C214.694 137.965 214.495 137.934 214.299 137.959C214.299 138.63 214.2 139.31 214.101 139.932C214.364 140.034 214.656 140.028 214.914 139.915C215.172 139.802 215.374 139.592 215.477 139.33C215.579 139.068 215.573 138.777 215.46 138.52C215.346 138.262 215.135 138.061 214.873 137.959V138.047ZM213.755 129.384C213.681 129.353 213.605 129.33 213.527 129.315C213.666 129.927 213.794 130.548 213.903 131.18C214.054 131.079 214.173 130.939 214.25 130.775C214.369 130.532 214.389 130.252 214.306 129.995C214.223 129.737 214.043 129.522 213.804 129.394L213.755 129.384ZM221.543 124.174C221.307 124.172 221.078 124.248 220.891 124.392C220.705 124.536 220.572 124.738 220.515 124.966C220.458 125.194 220.48 125.435 220.576 125.649C220.673 125.863 220.839 126.039 221.048 126.147C221.179 126.207 221.32 126.239 221.464 126.239C221.607 126.239 221.749 126.207 221.879 126.147C221.85 125.516 221.741 124.874 221.593 124.184L221.543 124.174ZM217.931 132.729C217.809 132.663 217.674 132.624 217.536 132.613C217.398 132.603 217.259 132.621 217.128 132.668C216.997 132.714 216.878 132.788 216.778 132.883C216.677 132.979 216.598 133.094 216.545 133.222C216.472 133.348 216.425 133.487 216.408 133.631C216.392 133.775 216.405 133.922 216.448 134.06C216.491 134.199 216.563 134.328 216.658 134.437C216.754 134.547 216.871 134.636 217.003 134.697C217.135 134.759 217.278 134.793 217.424 134.797C217.57 134.801 217.714 134.774 217.849 134.719C217.984 134.663 218.106 134.581 218.207 134.476C218.308 134.371 218.386 134.247 218.436 134.11C218.501 133.991 218.541 133.86 218.554 133.725C218.566 133.59 218.55 133.454 218.508 133.326C218.465 133.197 218.396 133.078 218.305 132.977C218.215 132.876 218.104 132.795 217.98 132.739L217.931 132.729ZM219.257 136.429C219.194 136.562 219.161 136.707 219.161 136.853C219.161 137 219.194 137.145 219.257 137.278C219.524 136.834 219.821 136.291 220.059 135.847C219.902 135.882 219.757 135.953 219.634 136.057C219.512 136.16 219.416 136.291 219.356 136.439L219.257 136.429ZM222.087 129.897C221.938 129.859 221.782 129.855 221.631 129.884C221.48 129.914 221.337 129.976 221.212 130.066C221.088 130.157 220.985 130.274 220.911 130.409C220.837 130.543 220.794 130.693 220.784 130.846C220.774 130.999 220.799 131.153 220.855 131.296C220.912 131.438 221 131.567 221.112 131.672C221.224 131.778 221.358 131.857 221.504 131.905C221.651 131.953 221.806 131.968 221.959 131.949C222.058 131.273 222.118 130.591 222.137 129.907L222.087 129.897Z" fill="white"/>
<path opacity="0.1" d="M216.456 139.932C216.66 139.223 216.796 138.496 216.862 137.761C216.951 137.031 217.01 136.291 217.069 135.561C217.178 134.081 217.287 132.6 217.327 131.13C217.327 130.765 217.327 130.39 217.327 130.035C217.285 129.679 217.206 129.328 217.089 128.989C216.862 128.288 216.584 127.598 216.327 126.907C216.07 126.216 215.773 125.535 215.486 124.855L214.625 122.812C215.298 124.134 215.921 125.476 216.505 126.838C216.802 127.496 217.069 128.186 217.307 128.91C217.442 129.269 217.532 129.644 217.574 130.025C217.574 130.4 217.574 130.765 217.574 131.14C217.515 132.62 217.416 134.1 217.257 135.571C217.178 136.311 217.089 137.051 216.97 137.781C216.911 138.146 216.852 138.511 216.773 138.876C216.706 139.239 216.6 139.593 216.456 139.932Z" fill="#050400"/>
<path opacity="0.1" d="M218.188 124.795C218.654 125.549 219.068 126.333 219.425 127.144C219.788 127.953 220.092 128.787 220.335 129.64C220.584 130.493 220.74 131.369 220.8 132.255C220.867 133.143 220.773 134.035 220.523 134.89C220.523 134.673 220.582 134.456 220.622 134.239C220.632 134.13 220.632 134.021 220.622 133.913V133.577C220.622 133.469 220.622 133.36 220.622 133.252V132.926C220.622 132.709 220.622 132.492 220.622 132.275L220.543 131.624L220.414 130.982C220.414 130.765 220.325 130.558 220.266 130.341C220.206 130.124 220.167 129.917 220.107 129.709C219.87 128.861 219.573 128.042 219.256 127.213C219.108 126.808 218.93 126.404 218.752 125.999C218.573 125.595 218.366 125.19 218.188 124.795Z" fill="#050400"/>
<path opacity="0.1" d="M190.656 117.267C191.171 116.599 191.751 115.984 192.388 115.431C192.992 114.849 193.635 114.296 194.268 113.754C194.902 113.211 195.555 112.678 196.248 112.205C196.967 111.765 197.747 111.433 198.563 111.218C198.172 111.373 197.792 111.554 197.425 111.76C197.052 111.949 196.695 112.167 196.356 112.412C196.03 112.649 195.703 112.915 195.367 113.191L194.377 113.991L192.457 115.619C192.131 115.885 191.824 116.161 191.468 116.438C191.183 116.699 190.912 116.976 190.656 117.267Z" fill="#050400"/>
<path opacity="0.1" d="M189.734 119.674C190.059 119.162 190.42 118.674 190.813 118.213C191.192 117.74 191.599 117.288 192.03 116.862C192.258 116.654 192.476 116.437 192.723 116.25L193.465 115.727L194.207 115.204L194.969 114.71C194.752 114.918 194.514 115.115 194.287 115.312L193.584 115.885L192.881 116.447C192.647 116.632 192.425 116.833 192.218 117.049C191.783 117.463 191.377 117.907 190.961 118.342C190.754 118.559 190.546 118.776 190.348 119.003C190.15 119.23 189.942 119.447 189.734 119.674Z" fill="#050400"/>
<path opacity="0.1" d="M217.543 115.786C215.375 116.339 210.398 117.523 209.349 117.276C209.009 117.174 208.678 117.045 208.359 116.891C207.298 115.138 206.103 113.469 204.787 111.898C203.312 112.07 201.858 112.38 200.442 112.826C199.393 111.885 198.435 110.848 197.582 109.727C199.116 108.682 200.65 107.961 201.887 108.08C204.362 108.315 206.804 108.818 209.171 109.579C209.171 109.579 213.307 110.596 217.543 115.786Z" fill="#050400"/>
<path d="M205.819 109.787C205.819 109.787 202.543 103.866 196.754 102.978C196.754 102.978 196.754 108.75 198.733 110.744C199.723 111.73 204.255 112.332 204.819 111.602C205.215 111.033 205.55 110.425 205.819 109.787Z" fill="#FFC727"/>
<path opacity="0.3" d="M201.6 105.1C201.449 105.21 201.271 105.277 201.084 105.294C200.898 105.312 200.71 105.278 200.541 105.198C200.333 105.098 200.163 104.934 200.058 104.729C199.953 104.524 199.917 104.29 199.957 104.063C200.532 104.363 201.082 104.71 201.6 105.1ZM197.82 107.073C197.602 106.965 197.352 106.94 197.117 107.004C197.245 107.674 197.423 108.334 197.652 108.977C197.798 108.937 197.933 108.866 198.049 108.769C198.165 108.672 198.259 108.551 198.324 108.415C198.439 108.166 198.45 107.882 198.356 107.625C198.261 107.368 198.069 107.159 197.82 107.043V107.073ZM203.955 107.724C203.768 107.637 203.558 107.606 203.353 107.637C203.148 107.668 202.956 107.76 202.803 107.899C202.65 108.038 202.542 108.22 202.492 108.421C202.442 108.622 202.453 108.833 202.524 109.027C202.595 109.222 202.721 109.391 202.888 109.514C203.055 109.636 203.255 109.707 203.462 109.716C203.67 109.726 203.875 109.674 204.053 109.567C204.23 109.46 204.372 109.303 204.46 109.116C204.523 108.99 204.56 108.852 204.569 108.712C204.578 108.572 204.558 108.431 204.511 108.298C204.464 108.165 204.39 108.044 204.295 107.94C204.199 107.836 204.084 107.753 203.955 107.695V107.724Z" fill="white"/>
<path opacity="0.1" d="M205.817 109.787C205.527 110.422 205.176 111.026 204.768 111.593C204.749 111.629 204.717 111.657 204.679 111.672C204.64 111.711 204.593 111.742 204.541 111.761H204.422C203.589 111.929 202.731 111.929 201.898 111.761C202.066 110.917 202.314 110.09 202.641 109.294C203.066 108.612 203.701 108.086 204.452 107.794C204.968 108.415 205.425 109.082 205.817 109.787Z" fill="#050400"/>
<path d="M207.213 110.636C207.213 110.636 215.397 109.728 219.198 111.701C219.198 111.701 216.882 115.826 212.775 116.684C210.934 117.069 205.759 113.537 206.085 112.589C206.37 111.89 206.749 111.232 207.213 110.636Z" fill="#FFC727"/>
<path opacity="0.3" d="M216.584 114.435C216.532 114.562 216.453 114.678 216.352 114.773C216.252 114.869 216.132 114.942 216.002 114.989C215.871 115.035 215.732 115.054 215.594 115.043C215.455 115.033 215.321 114.994 215.199 114.928C215.062 114.878 214.937 114.8 214.832 114.7C214.727 114.599 214.644 114.478 214.589 114.343C214.533 114.209 214.507 114.064 214.51 113.919C214.514 113.774 214.548 113.631 214.61 113.5C214.672 113.368 214.761 113.251 214.871 113.156C214.981 113.061 215.11 112.989 215.249 112.946C215.388 112.903 215.535 112.89 215.679 112.906C215.824 112.923 215.964 112.97 216.09 113.043C216.34 113.163 216.532 113.376 216.625 113.637C216.718 113.898 216.703 114.184 216.584 114.435ZM209.162 110.932C208.975 110.841 208.765 110.808 208.558 110.837C208.352 110.867 208.159 110.956 208.005 111.095C207.85 111.233 207.739 111.415 207.688 111.616C207.637 111.817 207.647 112.029 207.717 112.225C207.787 112.42 207.914 112.591 208.082 112.714C208.249 112.838 208.45 112.909 208.658 112.918C208.866 112.927 209.072 112.875 209.25 112.767C209.428 112.659 209.569 112.501 209.657 112.313C209.773 112.064 209.786 111.78 209.693 111.521C209.601 111.263 209.41 111.051 209.162 110.932ZM211.3 116.369C211.139 116.293 210.962 116.259 210.785 116.27C211.036 116.378 211.293 116.467 211.557 116.536C211.483 116.464 211.396 116.407 211.3 116.369Z" fill="white"/>
<path opacity="0.1" d="M209.062 110.497C209.236 111.395 209.143 112.325 208.795 113.171C208.515 113.669 208.134 114.102 207.676 114.444C206.687 113.684 205.964 112.934 206.083 112.569C206.365 111.862 206.744 111.198 207.211 110.596C207.211 110.596 207.934 110.556 209.062 110.497Z" fill="#050400"/>
<path d="M207.976 112.51C207.713 112.967 207.32 113.335 206.847 113.569C206.373 113.803 205.841 113.892 205.317 113.824C204.794 113.756 204.302 113.536 203.904 113.189C203.506 112.843 203.219 112.387 203.081 111.879C202.943 111.37 202.959 110.833 203.127 110.333C203.296 109.834 203.608 109.396 204.026 109.074C204.444 108.752 204.948 108.56 205.475 108.524C206.002 108.488 206.528 108.608 206.987 108.869C207.294 109.041 207.563 109.272 207.78 109.549C207.996 109.827 208.155 110.144 208.247 110.483C208.339 110.822 208.363 111.176 208.316 111.524C208.27 111.872 208.154 112.207 207.976 112.51Z" fill="#FFC727"/>
<path d="M198.008 157.999C198.008 157.999 198.542 164.442 204.559 165.113C210.576 165.784 220.492 155.957 220.492 155.957C220.492 155.957 215.544 151.161 208.617 151.408C203.005 151.615 198.008 157.999 198.008 157.999Z" fill="#AD6359"/>
<path d="M312.046 49.7775C312.05 57.4466 309.916 64.9658 305.881 71.4954C301.847 78.0249 296.072 83.3077 289.2 86.7536C282.329 90.1995 274.632 91.6729 266.97 91.0092C259.307 90.3456 251.98 87.571 245.808 82.9953L225.465 88.1723L233.977 69.2974C231.002 63.7503 229.335 57.6001 229.102 51.3142C228.869 45.0283 230.076 38.7721 232.632 33.0213C235.188 27.2704 239.025 22.1761 243.851 18.1256C248.678 14.0751 254.367 11.1749 260.486 9.64556C266.605 8.11622 272.994 7.9979 279.166 9.29963C285.338 10.6014 291.131 13.2889 296.105 17.1579C301.079 21.0269 305.103 25.9756 307.871 31.6279C310.639 37.2802 312.079 43.4873 312.08 49.7775H312.046Z" fill="white"/>
<path d="M312.048 49.7771C312.049 57.4458 309.922 64.9653 305.903 71.5036C304.909 73.1337 303.812 74.6985 302.617 76.1884C301.379 77.6463 300.054 79.0293 298.651 80.33C292.986 85.5511 285.989 89.1159 278.427 90.6331C276.54 91.0063 274.628 91.2445 272.707 91.346C270.786 91.4988 268.857 91.4988 266.936 91.346C259.175 90.7469 251.735 88.0018 245.453 83.4193L245.963 83.5211L225.654 88.9357L224.156 89.3261L224.786 87.9003L233.196 68.9915V69.7214C230.157 64.0692 228.459 57.7976 228.232 51.3887C228.005 44.9798 229.254 38.6043 231.885 32.7523C234.533 26.9137 238.473 21.7489 243.41 17.6456C248.322 13.5591 254.112 10.6551 260.331 9.15869C266.495 7.6523 272.925 7.5775 279.123 8.94006C285.321 10.3026 291.122 13.0661 296.08 17.0176C301.061 20.9113 305.087 25.8847 307.854 31.5607C310.621 37.2367 312.055 43.4663 312.048 49.7771ZM312.048 49.7771C312.058 43.518 310.628 37.3399 307.869 31.7182C305.109 26.0965 301.092 21.1809 296.128 17.3495C291.164 13.5181 285.385 10.8731 279.235 9.61792C273.086 8.36273 266.729 8.53081 260.654 10.1092C254.627 11.6525 249.035 14.5562 244.312 18.5961C239.636 22.6516 235.901 27.6733 233.366 33.3125C230.882 38.9642 229.717 45.1048 229.961 51.2708C230.216 57.4262 231.851 63.4466 234.745 68.8896L234.932 69.2461L234.762 69.6195L226.25 88.4605L225.382 87.442L245.81 82.3499H246.099L246.321 82.5196C252.331 87.078 259.49 89.8864 267.004 90.6331C268.891 90.7775 270.786 90.7775 272.673 90.6331C274.569 90.5696 276.457 90.3711 278.325 90.039C282.06 89.3552 285.681 88.1555 289.083 86.4745C292.519 84.8219 295.686 82.6649 298.48 80.0754C299.893 78.8026 301.224 77.442 302.464 76.0017C303.668 74.5267 304.771 72.9729 305.766 71.3508C309.813 64.8736 311.987 57.4079 312.048 49.7771Z" fill="#263238"/>
<path d="M278.465 359.315C282.747 358.234 287.155 357.732 291.571 357.822C295.501 358.021 304.359 359.732 307.055 360.221C309.75 360.71 313.335 360.148 313.127 361.298C312.918 362.448 300.211 366.304 294.702 365.507C289.193 364.711 278.465 359.315 278.465 359.315Z" fill="#37474F"/>
<path d="M296.68 334.331C296.68 332.521 296.616 330.656 296.589 328.81C296.589 322.699 296.48 316.589 296.335 310.47C296.214 305.642 296.066 300.79 295.89 295.914C295.89 295.914 295.89 295.868 295.836 295.85V291.876C295.836 291.876 295.781 291.822 295.727 291.831C295.673 291.84 295.627 291.831 295.627 291.876C295.627 293.207 295.627 294.538 295.627 295.859C295.627 295.859 295.627 295.859 295.627 295.923C295.3 304.559 295.019 313.194 294.946 321.83C294.946 323.586 294.946 325.343 294.946 327.099C294.862 332.741 294.832 338.375 294.856 343.999C294.856 344.904 294.856 345.81 294.856 346.715C294.856 351.875 294.919 377.655 294.928 382.806C294.928 383.087 295.328 383.223 295.754 383.241C296.181 383.259 296.771 383.105 296.771 382.788C296.771 377.103 296.825 350.788 296.825 345.104C296.698 341.501 296.753 337.916 296.68 334.331Z" fill="#263238"/>
<path d="M287.549 301.091C287.549 301.091 277.039 293.298 267.064 298.566C257.09 303.834 255.52 324.075 255.52 324.075C255.52 324.075 270.168 326.166 279.399 317.404C288.294 308.94 287.549 301.091 287.549 301.091Z" fill="#2A9D8F"/>
<path d="M290.399 301.571C288.466 300.809 286.374 300.536 284.309 300.774C283.883 300.705 283.452 300.663 283.02 300.648L281.559 300.539L278.491 300.322C276.422 300.168 274.335 300.041 272.265 299.833C272.193 299.833 272.183 299.96 272.265 299.969C274.307 300.222 276.349 300.521 278.41 300.72C279.463 300.829 280.515 300.937 281.577 301.01L282.349 301.091L281.441 301.318C279.777 301.793 278.168 302.443 276.64 303.255C275.814 303.4 274.988 303.626 274.18 303.825C272.873 304.124 271.584 304.459 270.287 304.803C267.736 305.463 265.213 306.215 262.672 306.948C262.655 306.948 262.639 306.955 262.627 306.967C262.615 306.979 262.608 306.995 262.608 307.011C262.608 307.028 262.615 307.044 262.627 307.056C262.639 307.068 262.655 307.075 262.672 307.075C265.204 306.459 267.745 305.889 270.287 305.264C271.512 304.975 272.746 304.685 273.981 304.359L274.97 304.16C272.145 305.903 269.622 308.092 267.5 310.641C265.45 313.141 263.707 315.876 262.309 318.788C262.309 318.861 262.372 318.933 262.418 318.861C264.144 315.856 266.259 313.089 268.707 310.632C268.707 310.768 268.607 310.913 268.571 311.049C268.371 311.664 268.181 312.289 267.981 312.859C267.591 314.09 267.201 315.33 266.829 316.571C266.829 316.652 266.928 316.679 266.956 316.571C267.4 315.376 267.863 314.172 268.244 312.95L268.871 311.139C268.98 310.841 269.079 310.533 269.188 310.234C269.216 310.139 269.249 310.045 269.288 309.953C270.459 308.815 271.705 307.756 273.018 306.785C274.757 305.566 276.63 304.548 278.6 303.753L278.491 304.287C278.382 304.766 278.283 305.246 278.183 305.726C277.974 306.713 277.783 307.708 277.584 308.704C277.194 310.732 276.948 312.787 276.567 314.824C276.567 314.84 276.574 314.856 276.586 314.868C276.598 314.88 276.614 314.887 276.631 314.887C276.648 314.887 276.664 314.88 276.676 314.868C276.688 314.856 276.694 314.84 276.694 314.824C277.166 312.787 277.774 310.777 278.228 308.731C278.455 307.708 278.691 306.686 278.9 305.663C279 305.183 279.1 304.703 279.19 304.223C279.245 303.952 279.308 303.689 279.345 303.418C279.535 303.345 279.717 303.255 279.916 303.182C282.639 302.168 285.716 301.426 288.657 301.987C290.051 302.245 291.36 302.842 292.468 303.725C293.576 304.607 294.449 305.749 295.01 307.048C295.101 307.274 295.464 307.129 295.409 306.903C295.053 305.684 294.413 304.566 293.543 303.64C292.672 302.714 291.596 302.005 290.399 301.571Z" fill="#263238"/>
<path d="M274.326 310.208C274.027 311.538 273.727 312.869 273.419 314.2C273.088 315.474 272.843 316.768 272.684 318.074C272.684 318.128 272.756 318.128 272.774 318.074C273.164 316.792 273.467 315.486 273.682 314.163C273.936 312.86 274.199 311.547 274.453 310.235C274.472 310.162 274.345 310.126 274.326 310.208Z" fill="#263238"/>
<path d="M264.154 313.585C262.82 314.264 261.522 315.033 260.124 315.585C260.113 315.587 260.102 315.59 260.092 315.596C260.083 315.602 260.075 315.611 260.069 315.621C260.063 315.63 260.059 315.641 260.059 315.653C260.058 315.664 260.06 315.676 260.064 315.686C260.069 315.697 260.076 315.706 260.085 315.713C260.093 315.72 260.104 315.726 260.115 315.728C260.126 315.731 260.138 315.731 260.149 315.728C260.16 315.725 260.17 315.72 260.179 315.712C261.551 315.09 262.89 314.398 264.191 313.639C264.191 313.639 264.191 313.567 264.154 313.585Z" fill="#263238"/>
<path d="M295.848 289.315C295.848 289.315 307.938 284.916 310.007 274.777C312.076 264.639 305.977 254.129 305.977 254.129C305.977 254.129 294.278 261.045 291.818 268.748C289.359 276.452 295.848 289.315 295.848 289.315Z" fill="#2A9D8F"/>
<path d="M295.429 303.318C295.274 301.879 295.238 300.421 295.166 298.973C295.093 297.524 295.075 296.203 295.084 294.818C295.094 291.993 295.255 289.171 295.565 286.363C295.765 284.553 296.046 282.797 296.364 281.031C296.291 280.814 296.237 280.588 296.182 280.37C296.073 279.981 295.964 279.592 295.864 279.203C295.656 278.415 295.456 277.619 295.256 276.822C294.812 275.084 294.439 273.328 293.977 271.59C293.977 271.508 294.085 271.454 294.104 271.535C294.576 273.246 295.12 274.921 295.601 276.623C295.837 277.465 296.082 278.298 296.309 279.13C296.391 279.438 296.473 279.737 296.545 280.036C297.195 276.631 298.031 273.265 299.05 269.951L299.486 268.621C299.486 268.521 299.486 268.412 299.486 268.304C299.486 268.041 299.486 267.779 299.486 267.516L299.377 265.896C299.304 264.837 299.186 263.778 299.023 262.728C299.019 262.717 299.017 262.705 299.019 262.693C299.02 262.682 299.025 262.671 299.031 262.661C299.038 262.652 299.047 262.644 299.057 262.638C299.068 262.633 299.079 262.63 299.091 262.63C299.103 262.63 299.114 262.633 299.125 262.638C299.135 262.644 299.144 262.652 299.151 262.661C299.157 262.671 299.162 262.682 299.163 262.693C299.164 262.705 299.163 262.717 299.159 262.728C299.341 263.796 299.513 264.864 299.649 265.941C299.722 266.457 299.767 266.973 299.803 267.498C299.803 267.589 299.803 267.679 299.803 267.761C300.584 265.471 301.464 263.235 302.363 260.953C302.363 260.872 302.508 260.953 302.481 261.008C300.819 265.507 299.511 270.129 298.569 274.831C298.814 274.616 299.071 274.416 299.341 274.233C300.176 273.663 301.029 273.129 301.891 272.613C303.706 271.535 305.521 270.449 307.282 269.318C307.355 269.272 307.437 269.372 307.364 269.417C305.703 270.576 304.078 271.78 302.445 272.984C301.682 273.554 300.893 274.097 300.112 274.649C299.473 275.102 298.867 275.598 298.297 276.134C298.224 276.496 298.143 276.849 298.079 277.202C297.761 278.832 297.498 280.47 297.253 282.118L298.351 281.357C299.186 280.787 300.021 280.226 300.874 279.673C302.535 278.587 304.196 277.492 305.794 276.315C305.857 276.261 305.939 276.369 305.875 276.415C304.26 277.628 302.69 278.904 301.12 280.162C300.357 280.76 299.577 281.357 298.796 281.927L297.607 282.778C297.457 282.905 297.292 283.015 297.117 283.104C296.627 286.635 296.264 290.192 296.055 293.75C295.955 295.307 295.901 296.873 295.855 298.439C295.81 300.005 295.855 301.643 295.855 303.255C295.937 303.571 295.456 303.653 295.429 303.318Z" fill="#263238"/>
<path d="M295.583 271.075C295.323 269.868 295.068 268.646 294.82 267.408C294.82 267.327 294.929 267.309 294.947 267.408C295.211 268.603 295.483 269.798 295.773 270.984C296.064 272.17 296.39 273.365 296.554 274.605C296.147 273.453 295.822 272.273 295.583 271.075Z" fill="#263238"/>
<path d="M301.516 323.732C301.516 323.732 303.594 338.097 314.431 343.131C325.268 348.164 338.474 343.131 338.474 343.131C338.474 343.131 333.282 312.036 301.516 323.732Z" fill="#2A9D8F"/>
<path d="M331.015 333.781C330.007 333.663 329.018 333.5 328.029 333.319L326.567 333.039L325.814 332.894C325.524 332.622 325.233 332.342 324.907 332.079C322.854 330.279 320.635 328.676 318.281 327.29C316.999 326.531 315.671 325.851 314.306 325.254H314.514L318.081 325.408C320.459 325.516 322.837 325.571 325.215 325.724C325.297 325.724 325.297 325.598 325.215 325.589C322.828 325.426 320.459 325.172 318.072 324.964L314.614 324.656L312.799 324.502L312.345 324.448C311.719 324.222 311.102 324.004 310.475 323.814C307.52 322.798 304.34 322.623 301.29 323.307C298.568 324.004 295.845 325.779 295.137 328.648C295.137 328.748 295.273 328.82 295.309 328.721C296.326 326.322 298.994 325.1 301.399 324.62C303.019 324.311 304.679 324.277 306.309 324.52C306.419 325.261 306.601 325.988 306.854 326.693C307.154 327.707 307.453 328.721 307.762 329.725C308.37 331.744 309.05 333.745 309.65 335.772C309.65 335.854 309.795 335.772 309.777 335.727C309.268 333.718 308.869 331.681 308.361 329.653C308.125 328.666 307.871 327.671 307.626 326.684C307.483 325.992 307.301 325.309 307.081 324.638C307.989 324.81 308.969 325.036 309.895 325.299C311.567 325.801 313.207 326.406 314.805 327.109C314.959 328.141 315.186 329.155 315.422 330.16C315.721 331.436 316.048 332.686 316.457 333.926C316.453 333.935 316.451 333.946 316.452 333.956C316.454 333.966 316.457 333.976 316.463 333.985C316.469 333.993 316.477 334 316.486 334.005C316.495 334.01 316.505 334.013 316.516 334.013C316.526 334.013 316.536 334.01 316.545 334.005C316.555 334 316.562 333.993 316.568 333.985C316.574 333.976 316.578 333.966 316.579 333.956C316.58 333.946 316.578 333.935 316.575 333.926C316.575 333.853 316.575 333.772 316.575 333.69C316.33 332.514 316.066 331.346 315.821 330.169C315.622 329.264 315.431 328.277 315.231 327.327C316.575 327.933 317.9 328.594 319.179 329.327C319.179 329.617 319.279 329.916 319.316 330.187C319.397 330.676 319.488 331.165 319.579 331.654C319.779 332.767 320.005 333.871 320.269 334.967C320.741 337.085 321.348 339.171 322.084 341.213C322.075 341.226 322.07 341.242 322.07 341.258C322.07 341.274 322.075 341.29 322.084 341.303C322.11 341.323 322.131 341.348 322.147 341.376C322.147 341.43 322.274 341.376 322.256 341.303C321.757 339.176 321.185 337.067 320.713 334.922C320.477 333.853 320.241 332.794 320.033 331.717C319.924 331.183 319.824 330.649 319.724 330.115C319.724 329.961 319.67 329.798 319.651 329.626C321.107 330.487 322.516 331.423 323.872 332.432C326.204 334.186 328.365 336.156 330.325 338.316C330.407 338.407 330.561 338.316 330.488 338.189C329.682 337.098 328.818 336.05 327.902 335.048C327.357 334.46 326.794 333.899 326.214 333.346H326.395C326.903 333.428 327.412 333.509 327.92 333.573C328.927 333.708 329.926 333.808 330.933 333.917C331.06 333.917 331.097 333.79 331.015 333.781Z" fill="#263238"/>
<path d="M323.402 338.65C323.402 338.524 323.402 338.406 323.348 338.279C323.294 338.152 323.239 337.971 323.212 337.808C322.985 336.84 322.803 335.88 322.622 334.903C322.622 334.839 322.504 334.903 322.504 334.903C322.573 336.191 322.852 337.46 323.33 338.659H323.412L323.402 338.65Z" fill="#263238"/>
<path d="M314.324 338.424C314.326 338.415 314.326 338.406 314.323 338.398C314.32 338.389 314.316 338.382 314.309 338.375C314.303 338.369 314.296 338.364 314.287 338.362C314.279 338.359 314.27 338.359 314.261 338.36C313.961 337.093 313.662 335.817 313.353 334.531L312.945 332.513C312.881 332.15 312.809 331.788 312.745 331.417C312.714 331.105 312.635 330.8 312.509 330.512C312.505 330.5 312.496 330.49 312.486 330.483C312.475 330.476 312.463 330.472 312.45 330.472C312.438 330.472 312.425 330.476 312.415 330.483C312.404 330.49 312.396 330.5 312.391 330.512C312.382 331.165 312.474 331.815 312.664 332.44C312.8 333.146 312.936 333.843 313.09 334.54C313.399 335.961 313.762 337.374 314.161 338.768C314.161 338.849 314.306 338.831 314.306 338.768L314.324 338.424Z" fill="#263238"/>
<path d="M330.024 329.643C328.046 329.372 326.067 329.082 324.079 328.847C323.998 328.847 323.961 328.964 324.079 328.973C326.049 329.263 328.037 329.508 330.015 329.77C330.07 329.779 330.106 329.652 330.024 329.643Z" fill="#263238"/>
<path d="M278.465 359.316C277.231 359.696 276.096 364.503 276.895 367.001C277.694 369.5 273.074 377.275 272.13 380.471C271.186 383.666 271.876 384.563 272.13 385.16C272.384 385.757 269.816 386.853 270.151 387.45C270.487 388.048 273.219 388.355 274.454 388.147C275.688 387.939 282.232 391.062 288.694 391.84C299.404 393.135 310.94 389.903 313.136 389.125C313.853 388.853 316.431 389.686 317.42 389.288C318.409 388.889 317.357 387.115 317.257 386.518C317.157 385.92 317.947 384.092 318.083 380.181C318.219 376.271 311.276 367.897 311.602 366.621C311.929 365.345 313.218 361.986 313.127 361.316C313.036 360.646 302.009 364.521 294.702 364.032C287.396 363.543 280.417 358.718 278.465 359.316Z" fill="#455A64"/>
</svg>
