<svg width="230" height="74" viewBox="0 0 230 74" fill="none" xmlns="http://www.w3.org/2000/svg">
<g clip-path="url(#clip0_2173_60082)">
<path fill-rule="evenodd" clip-rule="evenodd" d="M203.46 38.0631C203.46 25.4069 197.366 15.4204 185.719 15.4204C174.022 15.4204 166.945 25.4069 166.945 37.9642C166.945 52.8451 175.3 60.3597 187.291 60.3597C193.14 60.3597 197.563 59.0249 200.905 57.1463V47.2586C197.563 48.9395 193.729 49.9777 188.864 49.9777C184.097 49.9777 179.871 48.2968 179.33 42.4631H203.362C203.362 41.8204 203.46 39.2496 203.46 38.0631ZM179.182 33.3665C179.182 27.78 182.574 25.4564 185.67 25.4564C188.668 25.4564 191.862 27.78 191.862 33.3665H179.182Z" fill="#0A2540"/>
<path fill-rule="evenodd" clip-rule="evenodd" d="M147.978 15.4204C143.162 15.4204 140.065 17.6946 138.345 19.2766L137.706 16.2114H126.895V73.8564L139.181 71.2361L139.23 57.2451C140.999 58.5305 143.604 60.3597 147.929 60.3597C156.726 60.3597 164.736 53.2406 164.736 37.5687C164.687 23.2316 156.578 15.4204 147.978 15.4204ZM145.029 49.4833C142.13 49.4833 140.409 48.4451 139.23 47.1597L139.181 28.8182C140.459 27.3845 142.228 26.3957 145.029 26.3957C149.501 26.3957 152.598 31.4384 152.598 37.9148C152.598 44.5395 149.551 49.4833 145.029 49.4833Z" fill="#0A2540"/>
<path fill-rule="evenodd" clip-rule="evenodd" d="M109.988 12.5035L122.324 9.83381V-0.202148L109.988 2.41808V12.5035Z" fill="#0A2540"/>
<path d="M122.324 16.2607H109.988V59.5192H122.324V16.2607Z" fill="#0A2540"/>
<path fill-rule="evenodd" clip-rule="evenodd" d="M96.7689 19.9192L95.9826 16.2608H85.3672V59.5192H97.6535V30.2023C100.553 26.3956 105.468 27.0877 106.991 27.6316V16.2608C105.418 15.6675 99.6685 14.5799 96.7689 19.9192Z" fill="#0A2540"/>
<path fill-rule="evenodd" clip-rule="evenodd" d="M72.1968 5.53271L60.2054 8.1035L60.1562 47.7035C60.1562 55.0204 65.6114 60.4091 72.8849 60.4091C76.9148 60.4091 79.8635 59.6676 81.4853 58.7777V48.7417C79.9127 49.3844 72.1477 51.6586 72.1477 44.3417V26.7911H81.4853V16.2608H72.1477L72.1968 5.53271Z" fill="#0A2540"/>
<path fill-rule="evenodd" clip-rule="evenodd" d="M38.9728 28.8182C38.9728 26.8901 40.5455 26.1485 43.1502 26.1485C46.8852 26.1485 51.6032 27.2856 55.3382 29.3125V17.6946C51.2591 16.0631 47.2292 15.4204 43.1502 15.4204C33.1737 15.4204 26.5391 20.6609 26.5391 29.4114C26.5391 43.0564 45.2143 40.8811 45.2143 46.7642C45.2143 49.0384 43.2485 49.78 40.4963 49.78C36.4173 49.78 31.2079 48.0991 27.0797 45.8249V57.5912C31.6502 59.5687 36.2698 60.4092 40.4963 60.4092C50.7185 60.4092 57.7463 55.317 57.7463 46.4676C57.6972 31.735 38.9728 34.3552 38.9728 28.8182Z" fill="#0A2540"/>
</g>
<defs>
<clipPath id="clip0_2173_60082">
<rect width="230" height="74" fill="white"/>
</clipPath>
</defs>
</svg>
