<svg width="354" height="470" viewBox="0 0 354 470" fill="none" xmlns="http://www.w3.org/2000/svg">
<path d="M4.93318 378.722C4.88012 391.204 7.26528 403.577 11.9547 415.145C16.707 426.541 24.2219 436.637 33.9567 442.985C36.3309 444.558 38.8402 445.917 41.4551 447.046C44.025 448.108 46.69 448.923 49.414 449.48C54.7228 450.575 60.1911 450.653 65.529 449.71C76.1189 447.885 85.8866 442.639 94.5361 435.733C95.0624 435.289 95.6543 434.845 96.1805 434.434L97.3974 433.266C98.1867 432.444 99.0418 431.622 99.7324 430.75C101.311 428.953 102.746 427.034 104.024 425.011C106.822 420.639 109.216 416.021 111.177 411.215C115.444 400.61 118.945 389.713 121.652 378.607C127.523 355.585 132.193 331.199 137.751 306.434C139.132 300.229 140.607 294.003 142.174 287.754C143.687 281.489 145.364 275.207 147.107 268.876C150.651 255.709 155.203 242.834 160.723 230.365C162.236 227.076 163.897 223.787 165.87 220.383C166.84 218.739 167.942 216.979 169.159 215.302C170.376 213.625 171.559 212.013 172.859 210.55C177.833 204.763 183.595 199.704 189.977 195.52C202.047 187.413 214.445 182.365 226.351 177.234C238.256 172.104 249.997 167.368 261.097 161.695C272.085 156.182 282.417 149.446 291.896 141.617C301.067 133.932 308.887 124.767 315.033 114.501C321.084 104.322 325.491 93.2223 326.757 82.4187C327.448 77.2674 327.376 72.0424 326.544 66.9121C325.751 62.3251 324.076 57.9356 321.61 53.9871C319.403 50.497 316.5 47.4997 313.082 45.1825C309.664 42.8652 305.805 41.2778 301.746 40.5195C297.603 39.7102 293.36 39.5438 289.166 40.0262C284.664 40.5837 280.246 41.6881 276.011 43.315C274.91 43.7261 273.824 44.1865 272.723 44.647L268.842 46.2914C266.277 47.4424 263.728 48.6428 261.245 49.9255C256.311 52.4743 251.378 55.2204 246.593 58.2954C237.006 64.3632 227.584 71.7137 217.093 79.6725C206.092 88.1374 194.484 95.7824 182.363 102.546C169.728 109.297 156.473 114.82 142.783 119.039C141.138 119.598 139.395 120.042 137.701 120.536L133.146 121.835C130.631 122.575 128.082 123.38 125.549 124.252C120.501 126.028 115.502 128.051 110.635 130.303C91.1816 139.38 74.1786 152.108 62.0758 168.651C55.816 177.086 50.6395 186.273 46.6679 195.997C44.5312 201.083 42.7241 206.301 41.2578 211.619C39.6806 217.127 38.3962 222.715 37.4099 228.359C36.4233 234.097 35.6504 239.984 35.1736 245.97C34.9269 248.782 34.746 252.449 34.5158 255.836C34.2856 259.224 33.9403 262.595 33.5456 265.949C31.9736 279.214 29.4735 292.352 26.0636 305.267C22.7748 318.044 18.6967 330.41 14.5529 342.562C12.4645 348.646 10.3761 354.681 8.51795 360.65C6.51687 366.486 5.3111 372.564 4.93318 378.722ZM0 378.722C0.0173166 375.359 0.358741 372.005 1.01953 368.707C1.59507 365.419 2.35148 362.311 3.09146 359.186C4.57141 352.921 6.16648 346.738 7.48199 340.523C8.79751 334.307 9.96502 328.107 10.7708 321.875C11.5765 315.643 12.1027 309.394 12.4152 303.162C12.8605 290.808 12.0672 278.441 10.0472 266.245C9.58681 263.22 8.99483 260.227 8.40285 257.251C7.81087 254.274 7.10378 251.512 6.41313 247.976C5.00777 241.165 3.98119 234.281 3.33812 227.355C1.94266 212.962 2.61268 198.443 5.32784 184.239C8.2172 169.394 13.6229 155.151 21.3113 142.127C29.1878 129.063 39.0456 117.303 50.5322 107.265C61.7929 97.4049 74.332 89.1081 87.8106 82.5996C94.4422 79.349 101.275 76.5258 108.267 74.1474C111.753 72.9141 115.305 71.8452 118.922 70.8586L127.704 68.5071C138.485 65.5664 148.998 61.7157 159.128 56.9964C169.639 51.9804 179.787 46.2386 189.5 39.8125C199.942 33.2349 211.239 25.5556 223.769 18.8958C230.055 15.5143 236.515 12.4679 243.123 9.7694C246.412 8.40456 249.701 7.17126 253.154 5.9873L258.219 4.34291C260.143 3.76737 262.083 3.20828 264.04 2.69851C272.063 0.659879 280.334 -0.231475 288.607 0.0510417C297.196 0.323445 305.671 2.09306 313.651 5.28021C321.797 8.55681 329.197 13.4453 335.407 19.6522C341.539 25.7741 346.294 33.1352 349.351 41.2431C352.224 48.9104 353.635 57.0479 353.512 65.2348C353.425 72.8605 352.229 80.4329 349.96 87.7136C345.56 101.147 338.854 113.711 330.145 124.844C326.01 130.274 321.51 135.417 316.677 140.236C311.871 144.968 306.792 149.415 301.467 153.555C280.27 169.999 256.196 180.918 234.441 193.629C223.588 199.911 213.245 206.784 205.401 214.71C201.725 218.409 198.602 222.618 196.127 227.207C195.568 228.304 195.058 229.4 194.597 230.496C194.153 231.565 193.742 232.65 193.331 233.785C192.526 236.153 191.786 238.718 191.111 241.448C189.779 246.858 188.743 252.696 187.823 258.648C186.902 264.601 186.079 270.702 185.241 276.852L182.807 295.499C181.985 301.764 181.163 308.079 180.176 314.426C176.295 339.75 171.362 365.583 162.088 391.301C157.417 404.669 151.18 417.436 143.506 429.336C141.418 432.395 139.247 435.421 136.83 438.38C134.408 441.412 131.782 444.275 128.97 446.948C126.071 449.745 122.96 452.313 119.662 454.627C117.98 455.816 116.234 456.914 114.433 457.916L111.671 459.396C110.783 459.856 110.026 460.185 109.155 460.58C102.479 463.68 95.4882 466.05 88.3039 467.651C80.9943 469.266 73.49 469.82 66.0224 469.295C58.5967 468.766 51.3192 466.952 44.5137 463.934C41.1897 462.458 38.0082 460.68 35.0091 458.623C32.0899 456.627 29.34 454.394 26.7872 451.947C17.1304 442.324 10.0065 430.46 6.05137 417.414C2.15625 404.927 0.117348 391.934 0 378.853V378.722Z" fill="white"/>
</svg>
