<svg width="526" height="469" viewBox="0 0 526 469" fill="none" xmlns="http://www.w3.org/2000/svg">
<path d="M70.9622 184.727C77.7658 171.746 82.8249 157.923 86.0084 143.617C89.4451 129.36 91.6322 114.807 93.7699 100.09C94.9045 92.7394 95.924 85.2903 97.2725 77.8412C98.532 70.1795 100.234 62.5971 102.37 55.1322C104.636 47.0856 107.895 39.3523 112.072 32.1107C116.904 23.8542 123.537 16.7944 131.476 11.4571C133.597 10.0594 135.883 8.89184 138.053 7.6421C140.224 6.39236 142.756 5.60306 145.157 4.66576C147.558 3.72845 150.09 3.1858 152.491 2.56094C154.892 1.93607 157.424 1.65651 159.874 1.24542C169.32 -0.00964341 178.897 0.117782 188.306 1.62364C197.534 3.09373 206.546 5.68929 215.143 9.35228C223.194 12.8328 230.944 16.9744 238.312 21.7346C251.69 30.5955 264.408 40.4165 276.363 51.1198L293.202 65.9194C295.948 68.3366 298.727 70.6388 301.424 72.9574L305.518 76.3942L309.613 79.683C314.934 83.9439 320.466 87.9338 326.188 91.6377C331.597 95.1733 337.296 98.2429 343.224 100.813C349.525 103.386 356.04 105.4 362.694 106.832C369.633 108.476 376.869 109.693 384.285 110.778C399.084 112.965 414.542 114.347 430.18 116.156L441.937 117.619C445.9 118.195 449.83 118.787 453.81 119.51C461.885 120.861 469.846 122.829 477.62 125.397C485.755 128.026 493.416 131.94 500.313 136.99C507.285 142.22 512.976 148.968 516.954 156.723C518.855 160.468 520.386 164.389 521.526 168.431L523.006 174.4C523.417 176.373 523.68 178.281 524.025 180.238C525.185 188.058 525.631 195.967 525.357 203.868C524.961 211.822 523.793 219.719 521.871 227.448C521.345 229.372 520.95 231.345 520.325 233.236L518.484 238.942C517.069 242.675 515.639 246.424 513.945 250.042C507.159 264.627 498.242 278.121 487.487 290.083C482.192 296.12 476.548 301.842 470.582 307.218C464.696 312.693 458.414 317.676 452.034 322.527C448.745 324.862 445.588 327.312 442.25 329.516L437.316 332.903L432.268 336.192C425.482 340.445 418.554 344.447 411.483 348.196C407.948 350.054 404.379 351.846 400.811 353.655C397.243 355.464 393.592 357.076 389.958 358.704C386.324 360.331 382.673 361.992 378.973 363.456C375.273 364.919 371.606 366.481 367.857 367.846L346.48 375.838C342.994 377.137 339.574 378.535 336.137 379.883L330.974 381.922L325.859 384.044C298.723 395.255 272.297 408.117 246.731 422.555C233.889 429.807 221.161 437.355 207.348 444.985C200.458 448.849 193.157 452.598 185.165 456.167C176.698 459.982 167.889 462.988 158.855 465.145C149.158 467.407 139.209 468.407 129.256 468.121C119.789 467.83 110.38 466.535 101.186 464.257C96.7133 463.287 92.553 461.988 88.327 460.754C86.2386 460.097 84.2324 459.373 82.1934 458.699C80.1543 458.025 78.1482 457.334 76.0433 456.463L69.8275 453.963L66.7361 452.681L63.6611 451.184C59.5022 449.255 55.4559 447.092 51.5419 444.705C49.5686 443.488 47.5953 442.304 45.6385 441.038L39.9489 436.845L37.1534 434.724C36.2161 434 35.361 433.162 34.4566 432.372L29.1946 427.571C27.5502 425.926 25.9058 424.019 24.3601 422.259L21.9921 419.562C21.2357 418.642 20.5615 417.655 19.838 416.685C18.4402 414.744 17.0261 412.82 15.6777 410.864C14.3293 408.907 13.2933 406.753 12.1422 404.681C7.81123 396.563 4.73423 387.837 3.01585 378.798L2.34164 375.509C2.16076 374.407 2.04566 373.322 1.91411 372.22C1.65101 370.05 1.37146 367.879 1.19057 365.643C0.949848 361.399 0.922402 357.146 1.10835 352.899C1.48003 344.722 2.54727 336.591 4.29848 328.595C6.01755 320.904 8.16965 313.317 10.7445 305.869C15.8209 291.441 21.7907 277.344 28.6191 263.658C30.2635 260.287 31.9078 256.866 33.6838 253.545C35.4597 250.223 36.9726 246.835 38.8307 243.53C40.6889 240.225 42.3497 236.953 44.1257 233.664L49.437 223.798L70.9622 184.727ZM75.3362 186.963C68.2982 199.987 61.7535 213.273 55.9324 226.84L53.7618 231.921L51.7228 237.051C50.325 240.455 49.0917 243.925 47.842 247.378C45.2932 254.268 43.0897 261.273 41.0507 268.295C36.9878 282.16 34.1918 296.366 32.6971 310.737C31.9705 317.69 31.6575 324.68 31.7598 331.67C31.9069 338.358 32.5943 345.023 33.8153 351.6C34.2593 354.889 35.2624 357.865 35.9859 360.923L37.4823 365.314C37.7454 366.037 37.9592 366.761 38.2223 367.468L39.1596 369.54C41.3887 374.859 44.3498 379.84 47.9571 384.34C48.8615 385.425 49.7659 386.477 50.6046 387.628L53.5645 390.588C54.0578 391.082 54.5182 391.608 55.028 392.068L56.6724 393.4C57.7741 394.272 58.7937 395.209 59.9612 396.064L63.4966 398.498C64.0886 398.909 64.6313 399.353 65.2561 399.715L67.1801 400.816L70.9786 403.036L75.0732 404.993C80.7476 407.683 86.6119 409.953 92.6188 411.785C94.0988 412.311 95.7596 412.755 97.404 413.199C99.0484 413.643 100.693 414.136 102.337 414.531C105.544 415.238 108.767 416.093 111.858 416.57C117.686 417.711 123.614 418.262 129.552 418.214C134.979 418.132 140.377 417.409 145.634 416.06C156.273 413.347 168.146 407.558 181.021 400.668C187.451 397.264 194.012 393.647 200.754 389.98C207.496 386.313 214.386 382.744 221.309 379.16C249.406 364.832 278.48 352.507 308.314 342.276L313.806 340.336L319.413 338.494C323.146 337.277 326.879 336.011 330.628 334.86L352.581 328.167C359.57 326.013 366.492 323.727 373.382 321.376L383.627 317.676C387.014 316.377 390.402 315.094 393.773 313.762C400.433 311 407.158 308.286 413.637 305.195L418.57 302.926L423.388 300.541C426.677 298.996 429.719 297.253 432.893 295.608C445.341 288.859 457.104 280.918 468.017 271.896C473.344 267.412 478.35 262.56 482.998 257.376C487.624 252.297 491.759 246.791 495.347 240.932C502.61 229.305 507.209 216.215 508.815 202.601C509.53 195.75 509.497 188.841 508.716 181.997C508.469 180.353 508.305 178.544 508.009 176.867L506.989 171.933C506.138 168.796 504.993 165.746 503.569 162.823C500.733 157.041 496.507 152.052 491.269 148.303C485.677 144.425 479.441 141.569 472.852 139.868C465.847 138.033 458.693 136.822 451.475 136.25C444.141 135.642 436.675 135.428 429.111 135.494C414.015 135.576 398.624 136.513 382.755 136.842C374.797 136.957 366.706 136.842 358.386 136.349C349.752 135.864 341.175 134.643 332.749 132.698C314.809 128.308 299.352 120.267 285.358 111.321C257.568 93.3314 235.681 71.8556 213.449 56.053C202.382 48.1764 191.43 41.8948 180.15 38.4416C174.479 36.7027 168.612 35.6861 162.686 35.4159C157.303 34.9387 151.883 35.7315 146.862 37.7308C141.841 39.73 137.36 42.8797 133.778 46.9267C129.31 51.7677 125.48 57.1614 122.382 62.9759C119.021 69.1963 116.018 75.6034 113.387 82.166C110.74 88.9244 108.224 95.8473 105.938 102.852C101.235 116.863 97.108 131.185 92.3886 145.344C87.9149 159.678 82.2209 173.602 75.3691 186.963H75.3362Z" fill="white"/>
</svg>
