<svg width="290" height="271" viewBox="0 0 290 271" fill="none" xmlns="http://www.w3.org/2000/svg">
<path d="M282.761 78.1092C280.695 82.5364 278.327 86.8164 275.674 90.9191C274.457 92.8923 273.174 94.7505 271.892 96.6251C270.609 98.4997 269.261 100.259 267.912 101.986C265.248 105.505 262.453 108.744 259.69 111.984C248.41 124.728 236.126 135.663 224.089 146.516L219.83 150.38L217.956 152.025L216.13 153.949C214.897 155.182 213.812 156.596 212.661 157.945C211.51 159.293 210.49 160.839 209.372 162.351C208.254 163.864 207.3 165.41 206.346 167.054C205.392 168.699 204.422 170.343 203.518 171.988C201.758 175.276 199.966 178.845 198.404 182.43C191.826 196.802 186.893 212.242 179.312 227.716C175.341 235.95 170.085 243.499 163.74 250.08C160.268 253.561 156.406 256.629 152.229 259.223C150.103 260.525 147.907 261.711 145.652 262.775C144.517 263.301 143.382 263.86 142.231 264.32L138.745 265.619C134.11 267.222 129.346 268.421 124.505 269.204C122.071 269.648 119.44 269.78 116.858 270.01C114.277 270.24 111.761 270.01 109.179 270.01C106.597 270.01 104.246 269.566 101.631 269.286C100.399 269.14 99.1753 268.931 97.9642 268.661L94.3137 267.921L92.4884 267.527L90.7289 267.017L87.2099 265.965C84.8831 265.297 82.5988 264.49 80.3693 263.547C71.6447 260.061 63.3957 255.487 55.8184 249.932C48.5161 244.517 41.7784 238.38 35.7075 231.613C29.79 224.907 24.567 217.618 20.1187 209.858C19.0169 207.918 17.9645 205.961 16.9286 204.02C15.8926 202.08 15.021 199.992 14.0837 197.985C13.1464 195.979 12.2914 193.94 11.5021 191.868C10.7128 189.796 9.85764 187.774 9.19989 185.636C6.36646 177.3 4.21081 168.749 2.7539 160.066C1.27506 151.537 0.483202 142.904 0.385966 134.249C0.223795 125.794 0.862482 117.342 2.29347 109.007C3.70796 100.777 6.32302 92.7989 10.055 85.3281C13.9978 77.7543 19.6229 71.1841 26.4989 66.1216C33.5025 61.1059 41.1597 57.0726 49.2573 54.134C65.4237 48.2856 82.1468 44.109 99.1646 41.6695C107.567 40.3869 115.921 39.5318 124.192 39.0056C124.995 38.9696 125.792 38.8651 126.577 38.6932L128.501 38.3478C129.816 37.9532 131.066 37.8381 132.365 37.3776L134.272 36.835C134.914 36.6048 135.555 36.3417 136.196 36.1608C137.479 35.8155 138.827 35.1413 140.126 34.7302C146.06 32.3115 151.837 29.5271 157.425 26.3931L167.177 20.9173L172.389 17.9738L177.98 15.0303C181.697 12.9913 185.857 11.0345 190.132 9.09409C194.775 7.06606 199.543 5.33594 204.406 3.91425C209.891 2.3083 215.529 1.28315 221.228 0.855684C227.449 0.379503 233.706 0.755712 239.826 1.97387L242.161 2.41785L244.43 3.02628C245.927 3.45382 247.456 3.86492 248.952 4.34179C251.824 5.35181 254.63 6.53803 257.355 7.89368L261.318 9.94917L264.952 12.202C267.301 13.7255 269.568 15.3722 271.744 17.1352C272.319 17.5627 272.763 17.8916 273.388 18.4342C274.013 18.9769 275.032 19.8813 275.871 20.6377C277.58 22.178 279.148 23.8674 280.558 25.686C280.903 26.13 281.281 26.5904 281.626 27.0673L282.63 28.5966C283.271 29.6326 283.879 30.6521 284.488 31.7045C285.577 33.8247 286.506 36.0233 287.267 38.2821C287.596 39.4003 287.892 40.502 288.171 41.5709C288.319 42.1299 288.451 42.7055 288.549 43.2152L288.812 44.8596C288.96 45.912 289.076 46.9809 289.191 48.0497C289.306 49.1186 289.273 50.0395 289.306 51.0425C289.339 52.0456 289.306 53.0323 289.306 53.986L289.076 56.6828C288.977 57.5543 288.911 58.5081 288.763 59.3303L288.286 61.8626C287.081 67.4741 285.227 72.9263 282.761 78.1092Z" fill="white"/>
</svg>
