<svg width="231" height="129" viewBox="0 0 231 129" fill="none" xmlns="http://www.w3.org/2000/svg">
<path d="M114.356 45.8182C122.247 43.3545 129.777 39.8593 136.752 35.4233C143.809 31.108 150.485 26.1762 157.208 21.1591C160.592 18.6801 163.969 16.1158 167.478 13.6827C171.036 11.1293 174.739 8.78412 178.568 6.6588C182.681 4.35349 187.065 2.56905 191.619 1.34662C196.839 -0.0191446 202.3 -0.189521 207.595 0.848184C208.998 1.13675 210.375 1.58271 211.74 1.94996C213.104 2.31723 214.428 3.01241 215.76 3.5961C217.091 4.17978 218.318 4.97333 219.524 5.68162C220.731 6.38991 221.852 7.28839 222.994 8.10161C227.261 11.3681 231.03 15.2387 234.182 19.5917C237.276 23.8582 239.835 28.4879 241.803 33.3771C243.626 37.9766 245.065 42.7191 246.105 47.5561C247.907 56.4257 249.062 65.4145 249.561 74.4515L250.374 87.0696C250.505 89.1289 250.696 91.1554 250.846 93.1557L251.109 96.1593L251.43 99.104C251.853 102.925 252.468 106.723 253.273 110.483C254.02 114.05 255.069 117.547 256.408 120.936C257.895 124.475 259.69 127.877 261.773 131.102C263.884 134.525 266.285 137.896 268.81 141.287C273.84 148.061 279.454 154.777 284.969 161.735L289.075 167.008C290.426 168.818 291.757 170.622 293.055 172.497C295.737 176.257 298.127 180.217 300.204 184.342C302.399 188.634 303.894 193.251 304.631 198.016C305.326 202.882 304.904 207.843 303.398 212.522C302.662 214.774 301.709 216.949 300.552 219.015L298.761 221.986C298.138 222.937 297.482 223.803 296.84 224.721C294.183 228.302 291.207 231.634 287.947 234.676C284.616 237.691 281.001 240.374 277.152 242.69C276.174 243.248 275.23 243.877 274.227 244.383L271.216 245.924C269.164 246.848 267.098 247.773 264.98 248.54C256.456 251.651 247.518 253.476 238.458 253.958C233.938 254.254 229.405 254.284 224.882 254.049C220.351 253.885 215.858 253.367 211.379 252.757C209.136 252.377 206.9 252.095 204.689 251.643L201.371 251.026L198.046 250.324C193.643 249.314 189.284 248.147 184.969 246.822C182.818 246.153 180.68 245.445 178.535 244.743C176.391 244.041 174.292 243.228 172.193 242.428C170.095 241.628 167.976 240.834 165.917 239.943C163.858 239.051 161.772 238.211 159.733 237.26L148.02 231.922C146.111 231.05 144.19 230.243 142.281 229.41L139.409 228.164L136.523 226.97C121.229 220.619 105.56 215.209 89.6052 210.771C81.591 208.542 73.5046 206.476 64.9527 204.01C60.6636 202.803 56.2564 201.387 51.646 199.622C46.7472 197.767 42.0348 195.453 37.572 192.71C32.8024 189.745 28.4356 186.176 24.5801 182.092C20.9204 178.2 17.6843 173.931 14.9263 169.356C13.5294 167.185 12.3882 165.008 11.1946 162.831C10.6241 161.735 10.1125 160.647 9.56818 159.565C9.02386 158.482 8.49921 157.407 8.00733 156.22L6.52516 152.744L5.80375 150.999L5.17417 149.176C4.28478 146.748 3.53374 144.272 2.92468 141.759C2.623 140.487 2.30822 139.227 2.03277 137.942L1.43596 134L1.16707 132.04C1.08182 131.377 1.07526 130.702 1.02934 130.026L0.845722 126.013C0.84572 124.701 0.950645 123.284 1.0359 121.966L1.16706 119.946C1.23265 119.277 1.35725 118.615 1.45562 117.939C1.67205 116.608 1.87535 115.277 2.118 113.958C2.36066 112.64 2.80662 111.368 3.17389 110.083C4.68404 105.118 6.93719 100.41 9.85674 96.12L10.8995 94.5395C11.2668 94.0279 11.6537 93.5492 12.0406 93.0573C12.8014 92.0867 13.5556 91.1095 14.3754 90.1454C15.972 88.3568 17.6574 86.6495 19.4252 85.03C22.8348 81.9169 26.5032 79.0998 30.3907 76.6092C34.1434 74.2276 38.0277 72.0599 42.025 70.1165C49.8038 66.3869 57.8072 63.1452 65.9889 60.4103C67.9891 59.7217 70.0091 59.0134 72.0421 58.3969C74.0752 57.7804 76.0296 57.0328 78.0889 56.4556C80.1481 55.8785 82.1156 55.2358 84.1356 54.6325L90.1888 52.8158L114.356 45.8182ZM115.209 48.4546C107.208 50.8418 99.2982 53.5307 91.5661 56.6196L88.6739 57.7804L85.8145 59.0134C83.8995 59.8135 82.0238 60.7054 80.1481 61.5842C76.3837 63.3156 72.7111 65.2306 69.0975 67.2178C61.9472 71.1272 55.1666 75.6776 48.839 80.813C45.7762 83.2963 42.8636 85.9592 40.1165 88.7879C37.5079 91.5138 35.1239 94.4462 32.9877 97.5562C31.8531 99.045 31.0662 100.632 30.1349 102.14L28.9806 104.488C28.797 104.882 28.5937 105.256 28.4166 105.643L27.9641 106.843C26.7319 109.853 25.9262 113.021 25.5703 116.254C25.4982 117.047 25.4392 117.828 25.3146 118.621L25.3146 120.982C25.3146 121.376 25.2883 121.769 25.308 122.156L25.4326 123.343C25.5244 124.13 25.5572 124.911 25.6818 125.717L26.1212 128.098C26.1934 128.498 26.2327 128.892 26.3377 129.285L26.6656 130.492L27.2952 132.892L28.1477 135.306C29.3379 138.642 30.7714 141.886 32.4368 145.012C32.8172 145.812 33.3025 146.651 33.7813 147.484C34.26 148.317 34.7191 149.17 35.2175 149.983C36.2144 151.544 37.1588 153.17 38.2015 154.593C40.0707 157.373 42.2151 159.957 44.6024 162.306C46.7994 164.438 49.2407 166.302 51.8755 167.861C57.2008 171.022 64.2444 173.448 72.1274 175.836C76.0492 177.042 80.1088 178.216 84.2602 179.443C88.4115 180.669 92.5826 181.994 96.7733 183.325C113.693 188.817 130.204 195.497 146.183 203.315L149.148 204.731L152.118 206.233C154.093 207.237 156.086 208.22 158.041 209.256L169.465 215.343C173.111 217.271 176.784 219.12 180.47 220.93L186.031 223.54C187.9 224.373 189.763 225.213 191.639 226.026C195.396 227.58 199.161 229.18 202.978 230.531L205.85 231.594L208.723 232.565C210.651 233.26 212.559 233.778 214.481 234.388C222.137 236.661 229.996 238.185 237.946 238.939C241.859 239.275 245.791 239.337 249.712 239.123C253.583 238.942 257.428 238.396 261.195 237.49C268.729 235.749 275.784 232.363 281.854 227.574C284.872 225.126 287.614 222.358 290.032 219.317C290.589 218.563 291.245 217.776 291.796 216.989L293.357 214.615C294.269 213.024 295.029 211.351 295.626 209.617C296.801 206.18 297.106 202.505 296.512 198.921C295.828 195.144 294.48 191.517 292.531 188.211C290.469 184.685 288.099 181.35 285.448 178.242C282.765 175.075 279.873 172.012 276.83 169.022C270.777 163.034 264.265 157.269 257.805 151.072C254.585 147.943 251.404 144.671 248.282 141.156C245.032 137.519 242.099 133.611 239.514 129.475C234.11 120.569 231.152 111.197 229.139 102.049C225.23 83.7905 225.066 66.4963 222.502 51.3271C221.229 43.772 219.367 36.8989 216.245 31.0227C214.677 28.0676 212.742 25.322 210.487 22.8512C208.53 20.5139 206.052 18.6684 203.253 17.4633C200.453 16.2582 197.409 15.727 194.367 15.9125C190.654 16.0611 186.975 16.6848 183.421 17.7685C179.6 18.9089 175.847 20.2665 172.18 21.8346C168.429 23.4742 164.664 25.2318 160.959 27.114C153.496 30.826 146.137 34.8921 138.608 38.6566C131.107 42.589 123.283 45.8714 115.222 48.4677L115.209 48.4546Z" fill="#FFB802"/>
</svg>
