<svg width="296" height="265" viewBox="0 0 296 265" fill="none" xmlns="http://www.w3.org/2000/svg">
<path d="M39.4678 104.617C43.3052 97.2952 46.1587 89.4987 47.9542 81.4298C49.8926 73.3886 51.1262 65.1804 52.3319 56.8795C52.9719 52.7337 53.5469 48.5322 54.3074 44.3307C55.0179 40.0093 55.9778 35.7327 57.1826 31.5222C58.4609 26.9838 60.2991 22.622 62.6547 18.5376C65.3801 13.8807 69.1211 9.8988 73.599 6.88844C74.7954 6.10008 76.0846 5.44157 77.3089 4.73669C78.5331 4.0318 79.9615 3.58662 81.3156 3.05795C82.6697 2.52929 84.098 2.22322 85.4521 1.87078C86.8063 1.51834 88.2346 1.36067 89.6165 1.1288C94.9439 0.420914 100.346 0.492785 105.653 1.34213C110.857 2.17129 115.941 3.63525 120.789 5.70127C125.33 7.66438 129.701 10.0003 133.857 12.6852C141.403 17.683 148.576 23.2222 155.319 29.2592L164.816 37.6065C166.365 38.9699 167.933 40.2684 169.454 41.5761L171.763 43.5145L174.073 45.3695C177.074 47.7727 180.194 50.0232 183.422 52.1122C186.472 54.1064 189.687 55.8378 193.03 57.2876C196.584 58.7385 200.259 59.8744 204.012 60.6821C207.926 61.6096 212.006 62.2959 216.189 62.9081C224.537 64.1416 233.255 64.9207 242.075 65.9409L248.707 66.7664C250.942 67.091 253.159 67.4249 255.403 67.833C259.958 68.5951 264.448 69.7051 268.833 71.1534C273.421 72.6363 277.742 74.8437 281.632 77.6921C285.565 80.6418 288.775 84.4478 291.018 88.8218C292.09 90.9341 292.954 93.1457 293.597 95.4254L294.431 98.7922C294.663 99.9052 294.812 100.981 295.006 102.085C295.661 106.495 295.912 110.956 295.758 115.413C295.534 119.899 294.875 124.353 293.791 128.713C293.495 129.798 293.272 130.911 292.92 131.977L291.881 135.196C291.083 137.301 290.276 139.416 289.321 141.456C285.493 149.682 280.464 157.293 274.398 164.04C271.412 167.445 268.228 170.672 264.863 173.705C261.543 176.793 258 179.603 254.401 182.339C252.547 183.656 250.766 185.038 248.883 186.281L246.101 188.192L243.253 190.047C239.426 192.446 235.518 194.703 231.53 196.817C229.536 197.865 227.523 198.876 225.511 199.897C223.498 200.917 221.439 201.826 219.389 202.744C217.339 203.662 215.28 204.599 213.194 205.424C211.107 206.25 209.039 207.131 206.924 207.901L194.867 212.408C192.9 213.141 190.971 213.929 189.033 214.69L186.121 215.84L183.236 217.036C167.93 223.36 153.026 230.614 138.606 238.758C131.362 242.848 124.184 247.105 116.393 251.409C112.507 253.588 108.389 255.703 103.881 257.715C99.1053 259.868 94.1366 261.563 89.0415 262.779C83.5721 264.055 77.9608 264.62 72.3469 264.458C67.0073 264.294 61.7002 263.564 56.5148 262.279C53.9921 261.731 51.6456 260.999 49.262 260.303C48.0841 259.932 46.9525 259.524 45.8025 259.144C44.6524 258.764 43.5209 258.374 42.3337 257.882L38.8278 256.473L37.0842 255.749L35.3498 254.905C33.0041 253.817 30.7219 252.597 28.5143 251.251C27.4013 250.565 26.2883 249.897 25.1846 249.183L21.9756 246.818L20.3989 245.621C19.8702 245.213 19.3879 244.74 18.8778 244.295L15.9099 241.587C14.9824 240.659 14.0549 239.583 13.1831 238.591L11.8475 237.07C11.4209 236.55 11.0406 235.994 10.6325 235.447C9.84416 234.352 9.04653 233.267 8.286 232.163C7.52547 231.06 6.94116 229.845 6.29193 228.676C3.84914 224.098 2.11363 219.176 1.14443 214.078L0.764156 212.223C0.662134 211.601 0.597215 210.989 0.523017 210.368C0.374621 209.143 0.216947 207.919 0.114925 206.658C-0.0208512 204.264 -0.0363315 201.865 0.0685478 199.47C0.278187 194.858 0.880132 190.272 1.86786 185.762C2.83746 181.424 4.05129 177.145 5.50357 172.944C8.36679 164.806 11.7339 156.855 15.5853 149.136C16.5127 147.234 17.4402 145.305 18.4419 143.432C19.4436 141.558 20.2968 139.648 21.3449 137.783C22.3929 135.919 23.3297 134.073 24.3314 132.218L27.3271 126.654L39.4678 104.617ZM41.9349 105.878C37.9653 113.224 34.2739 120.718 30.9906 128.369L29.7664 131.235L28.6163 134.129C27.828 136.049 27.1323 138.006 26.4275 139.954C24.9899 143.84 23.7471 147.791 22.597 151.751C20.3054 159.572 18.7284 167.584 17.8854 175.689C17.4756 179.611 17.299 183.554 17.3567 187.496C17.4397 191.268 17.8274 195.028 18.5161 198.737C18.7665 200.592 19.3323 202.271 19.7404 203.996L20.5844 206.472C20.7328 206.88 20.8533 207.289 21.0017 207.687L21.5304 208.856C22.7876 211.856 24.4578 214.665 26.4924 217.203C27.0025 217.815 27.5126 218.409 27.9856 219.058L29.6551 220.728C29.9333 221.006 30.193 221.303 30.4805 221.562L31.408 222.314C32.0294 222.805 32.6045 223.334 33.263 223.816L35.257 225.189C35.5909 225.421 35.897 225.671 36.2495 225.875L37.3346 226.497L39.4771 227.749L41.7865 228.852C44.987 230.37 48.2946 231.65 51.6827 232.683C52.5174 232.98 53.4542 233.23 54.3816 233.48C55.3091 233.731 56.2366 234.009 57.1641 234.232C58.9726 234.631 60.7905 235.113 62.5342 235.382C65.8211 236.025 69.1646 236.336 72.5138 236.309C75.5747 236.263 78.6194 235.855 81.5845 235.094C87.5853 233.564 94.2817 230.299 101.544 226.413C105.17 224.493 108.871 222.453 112.674 220.385C116.476 218.316 120.362 216.304 124.267 214.282C140.115 206.201 156.513 199.249 173.34 193.478L176.438 192.384L179.6 191.345C181.706 190.659 183.811 189.945 185.926 189.295L198.308 185.521C202.249 184.306 206.154 183.016 210.04 181.69L215.818 179.603C217.729 178.871 219.64 178.147 221.541 177.396C225.297 175.838 229.091 174.307 232.745 172.564L235.527 171.284L238.245 169.939C240.1 169.067 241.816 168.084 243.606 167.157C250.626 163.35 257.261 158.871 263.417 153.782C266.421 151.253 269.244 148.517 271.866 145.593C274.475 142.728 276.808 139.623 278.831 136.318C282.927 129.76 285.522 122.377 286.427 114.698C286.831 110.834 286.812 106.937 286.372 103.077C286.232 102.15 286.14 101.129 285.973 100.183L285.398 97.401C284.918 95.6314 284.272 93.911 283.469 92.2627C281.869 89.0011 279.485 86.1872 276.531 84.0731C273.377 81.8855 269.86 80.2745 266.143 79.3152C262.192 78.2801 258.158 77.5973 254.086 77.2747C249.95 76.9316 245.739 76.811 241.472 76.8481C232.958 76.8944 224.277 77.4231 215.327 77.6086C210.838 77.6735 206.275 77.6086 201.582 77.3304C196.712 77.0572 191.875 76.3684 187.122 75.2714C177.003 72.795 168.285 68.2596 160.392 63.2142C144.718 53.0675 132.373 40.9547 119.834 32.0416C113.592 27.599 107.415 24.0561 101.052 22.1084C97.8539 21.1276 94.5445 20.5542 91.2025 20.4018C88.1663 20.1326 85.1092 20.5798 82.2773 21.7074C79.4454 22.835 76.9176 24.6116 74.8974 26.8941C72.3771 29.6246 70.2171 32.6668 68.47 35.9463C66.5744 39.4547 64.8805 43.0685 63.3967 46.77C61.9035 50.5819 60.4844 54.4866 59.1952 58.4376C56.5427 66.3398 54.2147 74.4181 51.5528 82.4037C49.0295 90.4884 45.818 98.3419 41.9534 105.878H41.9349Z" fill="#F8D760"/>
</svg>
