<svg width="24" height="25" viewBox="0 0 24 25" fill="none" xmlns="http://www.w3.org/2000/svg">
<path d="M21.97 19.2875C21.97 19.6475 21.89 20.0175 21.72 20.3775C21.55 20.7375 21.33 21.0775 21.04 21.3975C20.55 21.9375 20.01 22.3275 19.4 22.5775C18.8 22.8275 18.15 22.9575 17.45 22.9575C16.43 22.9575 15.34 22.7175 14.19 22.2275C13.04 21.7375 11.89 21.0775 10.75 20.2475C9.6 19.4075 8.51 18.4775 7.47 17.4475C6.44 16.4075 5.51 15.3175 4.68 14.1775C3.86 13.0375 3.2 11.8975 2.72 10.7675C2.24 9.62752 2 8.53752 2 7.49752C2 6.81752 2.12 6.16752 2.36 5.56752C2.6 4.95752 2.98 4.39752 3.51 3.89752C4.15 3.26752 4.85 2.95752 5.59 2.95752C5.87 2.95752 6.15 3.01752 6.4 3.13752C6.66 3.25752 6.89 3.43752 7.07 3.69752L9.39 6.96752C9.57 7.21752 9.7 7.44752 9.79 7.66752C9.88 7.87752 9.93 8.08752 9.93 8.27752C9.93 8.51752 9.86 8.75752 9.72 8.98752C9.59 9.21752 9.4 9.45752 9.16 9.69752L8.4 10.4875C8.29 10.5975 8.24 10.7275 8.24 10.8875C8.24 10.9675 8.25 11.0375 8.27 11.1175C8.3 11.1975 8.33 11.2575 8.35 11.3175C8.53 11.6475 8.84 12.0775 9.28 12.5975C9.73 13.1175 10.21 13.6475 10.73 14.1775C11.27 14.7075 11.79 15.1975 12.32 15.6475C12.84 16.0875 13.27 16.3875 13.61 16.5675C13.66 16.5875 13.72 16.6175 13.79 16.6475C13.87 16.6775 13.95 16.6875 14.04 16.6875C14.21 16.6875 14.34 16.6275 14.45 16.5175L15.21 15.7675C15.46 15.5175 15.7 15.3275 15.93 15.2075C16.16 15.0675 16.39 14.9975 16.64 14.9975C16.83 14.9975 17.03 15.0375 17.25 15.1275C17.47 15.2175 17.7 15.3475 17.95 15.5175L21.26 17.8675C21.52 18.0475 21.7 18.2575 21.81 18.5075C21.91 18.7575 21.97 19.0075 21.97 19.2875Z" stroke="currentColor" stroke-width="1.5" stroke-miterlimit="10"/>
</svg>
