<svg width="32" viewBox="0 0 32 32" fill="none" xmlns="http://www.w3.org/2000/svg">
<path d="M9.01225 29.3333H22.9856C26.6656 29.3333 28.1323 27.08 28.3056 24.3333L28.9989 13.32C29.1856 10.44 26.8923 8 23.9989 8C23.1856 8 22.4389 7.53333 22.0656 6.81333L21.1056 4.88C20.4923 3.66666 18.8923 2.66666 17.5323 2.66666H14.4789C13.1056 2.66666 11.5056 3.66666 10.8923 4.88L9.93225 6.81333C9.55892 7.53333 8.81225 8 7.99892 8C5.10559 8 2.81225 10.44 2.99892 13.32L3.69225 24.3333C3.85225 27.08 5.33225 29.3333 9.01225 29.3333Z" stroke="#292D32" stroke-width="2" stroke-linecap="round" stroke-linejoin="round"/>
<path d="M14 10.6667H18" stroke="#292D32" stroke-width="2" stroke-linecap="round" stroke-linejoin="round"/>
<path d="M16.0013 24C18.388 24 20.3346 22.0533 20.3346 19.6667C20.3346 17.28 18.388 15.3333 16.0013 15.3333C13.6146 15.3333 11.668 17.28 11.668 19.6667C11.668 22.0533 13.6146 24 16.0013 24Z" stroke="#292D32" stroke-width="2" stroke-linecap="round" stroke-linejoin="round"/>
</svg>
