<svg width="32" viewBox="0 0 32 32" fill="none" xmlns="http://www.w3.org/2000/svg">
<path d="M24.0014 9.54675C23.9214 9.53342 23.8281 9.53342 23.7481 9.54675C21.9081 9.48009 20.4414 7.97342 20.4414 6.10675C20.4414 4.20008 21.9747 2.66675 23.8814 2.66675C25.7881 2.66675 27.3214 4.21342 27.3214 6.10675C27.3081 7.97342 25.8414 9.48009 24.0014 9.54675Z" stroke="currentColor" stroke-width="2" stroke-linecap="round" stroke-linejoin="round"/>
<path d="M22.6298 19.2534C24.4565 19.5601 26.4699 19.2401 27.8832 18.2934C29.7632 17.0401 29.7632 14.9867 27.8832 13.7334C26.4565 12.7867 24.4165 12.4667 22.5898 12.7867" stroke="currentColor" stroke-width="2" stroke-linecap="round" stroke-linejoin="round"/>
<path d="M7.96063 9.54675C8.04063 9.53342 8.13396 9.53342 8.21396 9.54675C10.054 9.48009 11.5206 7.97342 11.5206 6.10675C11.5206 4.20008 9.98729 2.66675 8.08063 2.66675C6.17396 2.66675 4.64062 4.21342 4.64062 6.10675C4.65396 7.97342 6.12063 9.48009 7.96063 9.54675Z" stroke="currentColor" stroke-width="2" stroke-linecap="round" stroke-linejoin="round"/>
<path d="M9.33521 19.2534C7.50854 19.5601 5.49521 19.2401 4.08188 18.2934C2.20188 17.0401 2.20188 14.9867 4.08188 13.7334C5.50854 12.7867 7.54854 12.4667 9.3752 12.7867" stroke="currentColor" stroke-width="2" stroke-linecap="round" stroke-linejoin="round"/>
<path d="M16.0014 19.5067C15.9214 19.4934 15.8281 19.4934 15.7481 19.5067C13.9081 19.44 12.4414 17.9334 12.4414 16.0667C12.4414 14.16 13.9747 12.6267 15.8814 12.6267C17.7881 12.6267 19.3214 14.1734 19.3214 16.0667C19.3081 17.9334 17.8414 19.4534 16.0014 19.5067Z" stroke="currentColor" stroke-width="2" stroke-linecap="round" stroke-linejoin="round"/>
<path d="M12.1209 23.7067C10.2409 24.9601 10.2409 27.0134 12.1209 28.2667C14.2543 29.6934 17.7476 29.6934 19.8809 28.2667C21.7609 27.0134 21.7609 24.9601 19.8809 23.7067C17.7609 22.2934 14.2543 22.2934 12.1209 23.7067Z" stroke="currentColor" stroke-width="2" stroke-linecap="round" stroke-linejoin="round"/>
</svg>
