<svg viewBox="0 0 32 32" fill="none" xmlns="http://www.w3.org/2000/svg">
<path d="M16.2031 22V24.8" stroke="currentColor" stroke-width="2" stroke-linecap="round" stroke-linejoin="round"/>
<path d="M9.53125 29.3335H22.8646V28.0002C22.8646 26.5335 21.6646 25.3335 20.1979 25.3335H12.1979C10.7312 25.3335 9.53125 26.5335 9.53125 28.0002V29.3335V29.3335Z" stroke="currentColor" stroke-width="2" stroke-miterlimit="10"/>
<path d="M8.20312 29.3335H24.2031" stroke="currentColor" stroke-width="2" stroke-linecap="round" stroke-linejoin="round"/>
<path d="M15.9974 21.3332C10.8374 21.3332 6.66406 17.1598 6.66406 11.9998V7.99984C6.66406 5.05317 9.05073 2.6665 11.9974 2.6665H19.9974C22.9441 2.6665 25.3307 5.05317 25.3307 7.99984V11.9998C25.3307 17.1598 21.1574 21.3332 15.9974 21.3332Z" stroke="currentColor" stroke-width="2" stroke-linecap="round" stroke-linejoin="round"/>
<path d="M7.29208 15.5331C6.29208 15.2131 5.41208 14.6265 4.71875 13.9331C3.51875 12.5998 2.71875 10.9998 2.71875 9.13314C2.71875 7.26647 4.18542 5.7998 6.05208 5.7998H6.91875C6.65208 6.41314 6.51875 7.09314 6.51875 7.7998V11.7998C6.51875 13.1331 6.79875 14.3865 7.29208 15.5331Z" stroke="currentColor" stroke-width="2" stroke-linecap="round" stroke-linejoin="round"/>
<path d="M24.7031 15.5331C25.7031 15.2131 26.5831 14.6265 27.2765 13.9331C28.4765 12.5998 29.2765 10.9998 29.2765 9.13314C29.2765 7.26647 27.8098 5.7998 25.9431 5.7998H25.0765C25.3431 6.41314 25.4765 7.09314 25.4765 7.7998V11.7998C25.4765 13.1331 25.1965 14.3865 24.7031 15.5331Z" stroke="currentColor" stroke-width="2" stroke-linecap="round" stroke-linejoin="round"/>
</svg>
