<svg width="25" height="25" viewBox="0 0 25 25" fill="none" xmlns="http://www.w3.org/2000/svg">
<path d="M9.5 22.9575H15.5C20.5 22.9575 22.5 20.9575 22.5 15.9575V9.95746C22.5 4.95746 20.5 2.95746 15.5 2.95746H9.5C4.5 2.95746 2.5 4.95746 2.5 9.95746V15.9575C2.5 20.9575 4.5 22.9575 9.5 22.9575Z" stroke="white" stroke-width="2" stroke-linecap="round" stroke-linejoin="round"/>
<path d="M7.5 9.20746C8.5 10.2075 10.13 10.2075 11.14 9.20746" stroke="white" stroke-width="1.5" stroke-miterlimit="10" stroke-linecap="round" stroke-linejoin="round"/>
<path d="M13.86 9.20746C14.86 10.2075 16.49 10.2075 17.5 9.20746" stroke="white" stroke-width="1.5" stroke-miterlimit="10" stroke-linecap="round" stroke-linejoin="round"/>
<path d="M8.9 13.9575H16.1C16.6 13.9575 17 14.3575 17 14.8575C17 17.3475 14.99 19.3575 12.5 19.3575C10.01 19.3575 8 17.3475 8 14.8575C8 14.3575 8.4 13.9575 8.9 13.9575Z" stroke="white" stroke-width="1.5" stroke-miterlimit="10" stroke-linecap="round" stroke-linejoin="round"/>
</svg>
