<svg width="32" height="32" viewBox="0 0 32 32" fill="none" xmlns="http://www.w3.org/2000/svg">
<path d="M24.052 18.0668C23.492 18.6135 23.172 19.4002 23.252 20.2402C23.372 21.6802 24.692 22.7335 26.132 22.7335H28.6654V24.3202C28.6654 27.0802 26.412 29.3335 23.652 29.3335H8.34536C5.58536 29.3335 3.33203 27.0802 3.33203 24.3202V15.3468C3.33203 12.5868 5.58536 10.3335 8.34536 10.3335H23.652C26.412 10.3335 28.6654 12.5868 28.6654 15.3468V17.2668H25.972C25.2254 17.2668 24.5454 17.5601 24.052 18.0668Z" stroke="#9CA3AF" stroke-width="2" stroke-linecap="round" stroke-linejoin="round"/>
<path d="M3.33203 16.5467V10.4535C3.33203 8.86681 4.30536 7.45341 5.78536 6.89341L16.372 2.89341C18.0254 2.26675 19.7987 3.49345 19.7987 5.26679V10.3334" stroke="#9CA3AF" stroke-width="2" stroke-linecap="round" stroke-linejoin="round"/>
<path d="M30.0771 18.627V21.3738C30.0771 22.1071 29.4904 22.7071 28.7438 22.7337H26.1304C24.6904 22.7337 23.3704 21.6804 23.2504 20.2404C23.1704 19.4004 23.4904 18.6137 24.0504 18.0671C24.5438 17.5604 25.2238 17.2671 25.9704 17.2671H28.7438C29.4904 17.2938 30.0771 17.8937 30.0771 18.627Z" stroke="#9CA3AF" stroke-width="2" stroke-linecap="round" stroke-linejoin="round"/>
<path d="M9.33203 16H18.6654" stroke="#9CA3AF" stroke-width="2" stroke-linecap="round" stroke-linejoin="round"/>
</svg>
