<svg width="32" height="32" viewBox="0 0 32 32" fill="none" xmlns="http://www.w3.org/2000/svg">
<path d="M5.3613 7.96008C3.66797 10.2001 2.66797 12.9867 2.66797 16.0001C2.66797 23.3601 8.6413 29.3334 16.0013 29.3334C23.3613 29.3334 29.3346 23.3601 29.3346 16.0001C29.3346 8.64008 23.3613 2.66675 16.0013 2.66675" stroke="currentColor" stroke-width="2" stroke-linecap="round" stroke-linejoin="round"/>
<path d="M6.66797 16.0001C6.66797 21.1601 10.8413 25.3334 16.0013 25.3334C21.1613 25.3334 25.3346 21.1601 25.3346 16.0001C25.3346 10.8401 21.1613 6.66675 16.0013 6.66675" stroke="currentColor" stroke-width="2" stroke-linecap="round" stroke-linejoin="round"/>
<path d="M16 21.3334C18.9467 21.3334 21.3333 18.9467 21.3333 16.0001C21.3333 13.0534 18.9467 10.6667 16 10.6667" stroke="currentColor" stroke-width="2" stroke-linecap="round" stroke-linejoin="round"/>
</svg>
