<svg width="25" height="25" viewBox="0 0 25 25" fill="none" xmlns="http://www.w3.org/2000/svg">
<path d="M15.459 3.78125C18.1241 3.78125 20.3748 5.80973 20.375 8.41895V11.9902C20.3749 13.3824 19.5397 14.4891 18.6035 15.2373C17.6695 15.9837 16.5137 16.475 15.585 16.6162L15.5859 16.6172H15.585C15.5842 16.6173 15.5831 16.618 15.582 16.6182C15.5805 16.6184 15.5784 16.6178 15.5762 16.6182C15.5739 16.6185 15.5717 16.6198 15.5693 16.6201L15.5684 16.6191C15.5614 16.6203 15.5528 16.6233 15.542 16.625C15.5154 16.6292 15.4772 16.6345 15.4287 16.6416C15.3317 16.6558 15.192 16.6752 15.0186 16.6953C14.6722 16.7355 14.1862 16.7809 13.623 16.8008C12.5111 16.84 11.0337 16.7835 9.73047 16.3564C9.44181 16.2619 9.28993 16.2679 9.21973 16.2832C9.25736 16.3579 9.33134 16.4702 9.47852 16.6094C9.71223 16.8303 10.006 17.0027 10.2139 17.0762C11.5388 17.5445 13.0572 17.6199 14.2568 17.377C14.5076 17.3262 14.7493 17.2832 14.9805 17.252C16.042 17.1085 16.9049 17.7183 17.2363 18.4863C17.4034 18.8738 17.4541 19.3475 17.2676 19.7969C17.0743 20.2623 16.6741 20.5899 16.1611 20.751C14.5093 21.2695 13.275 21.2656 11.6699 21.2656C9.48748 21.2656 7.73963 20.7762 6.52148 19.8223C5.27959 18.8496 4.67188 17.4583 4.67188 15.8643L4.67285 13.1611L4.67188 10.96V8.41895C4.67208 5.80973 6.92276 3.78125 9.58789 3.78125H15.459Z" stroke="currentColor" stroke-width="1.5"/>
<path d="M16.7656 13.1094V9.0422C16.7656 6.51178 13.1928 5.96386 12.4297 8.37726M8.28125 13.1094L8.28125 8.98713C8.28125 6.55541 11.7254 6.04908 12.4297 8.37726M12.4297 8.37726L12.4297 11.404" stroke="currentColor" stroke-width="1.5" stroke-linecap="round" stroke-linejoin="round"/>
</svg>
