<svg width="32" height="32" viewBox="0 0 32 32" fill="none" xmlns="http://www.w3.org/2000/svg">
<path d="M21.3307 2.6665H10.6641C5.33073 2.6665 2.66406 5.33317 2.66406 10.6665V27.9998C2.66406 28.7332 3.26406 29.3332 3.9974 29.3332H21.3307C26.6641 29.3332 29.3307 26.6665 29.3307 21.3332V10.6665C29.3307 5.33317 26.6641 2.6665 21.3307 2.6665Z" stroke="#111827" stroke-width="2" stroke-linecap="round" stroke-linejoin="round"/>
<path d="M17.2118 10.4535L10.2918 17.3735C10.0251 17.6402 9.77176 18.1602 9.71843 18.5335L9.3451 21.1735C9.21176 22.1335 9.87842 22.8002 10.8384 22.6669L13.4784 22.2935C13.8517 22.2402 14.3718 21.9869 14.6384 21.7202L21.5584 14.8002C22.7451 13.6135 23.3184 12.2269 21.5584 10.4669C19.7984 8.69353 18.4118 9.25354 17.2118 10.4535Z" stroke="#111827" stroke-width="2" stroke-miterlimit="10" stroke-linecap="round" stroke-linejoin="round"/>
<path d="M16.2266 11.4404C16.8132 13.5338 18.4532 15.1871 20.5599 15.7738" stroke="#111827" stroke-width="2" stroke-miterlimit="10" stroke-linecap="round" stroke-linejoin="round"/>
</svg>
