<svg width="25" height="25" viewBox="0 0 25 25" fill="none" xmlns="http://www.w3.org/2000/svg">
<path fill-rule="evenodd" clip-rule="evenodd" d="M4.24855 8.73865V17.4026C4.24855 18.1118 4.79441 18.6867 5.46776 18.6867H5.53328C6.20663 18.6867 6.75249 18.1118 6.75249 17.4026V11.9647L7.62995 13.0777V17.4026C7.62995 18.6222 6.69124 19.6109 5.53328 19.6109H5.46776C4.3098 19.6109 3.37109 18.6222 3.37109 17.4026V7.59701C3.37109 6.37738 4.3098 5.38867 5.46776 5.38867H5.53328C6.38213 5.38867 7.11316 5.91998 7.44296 6.68407L7.29435 6.49556C6.74399 5.79745 5.76051 5.70143 5.0977 6.28111L4.87946 6.47197C4.7305 6.55857 4.60058 6.67703 4.49797 6.81863C4.02433 7.33539 3.92881 8.11601 4.24855 8.73865ZM12.0854 13.1024V17.4026C12.0854 18.6222 13.0241 19.6109 14.182 19.6109H14.2476C15.4055 19.6109 16.3442 18.6222 16.3442 17.4026V7.59701C16.3442 6.37738 15.4055 5.38867 14.2476 5.38867H14.182C13.3139 5.38867 12.569 5.94438 12.2505 6.7365L12.4404 6.49556C12.9908 5.79745 13.9743 5.70143 14.6371 6.28111L14.9048 6.51523C14.9904 6.57302 15.0686 6.64176 15.1378 6.71958C15.7064 7.24083 15.8319 8.10622 15.4668 8.77545V17.4026C15.4668 18.1118 14.9209 18.6867 14.2476 18.6867H14.182C13.5087 18.6867 12.9628 18.1118 12.9628 17.4026V11.9894L12.0854 13.1024Z" fill="currentColor" stroke="currentColor" stroke-width="0.5"/>
<path fill-rule="evenodd" clip-rule="evenodd" d="M9.70966 9.45101C9.73432 9.48236 9.76561 9.50379 9.79935 9.51532C9.87229 9.54023 9.95664 9.5188 10.01 9.45101L12.5774 6.18717C13.3163 5.24785 14.6367 5.11866 15.5265 5.89862L15.5679 5.93484C16.4577 6.7148 16.5801 8.10856 15.8412 9.04789L11.7833 14.2065C10.5945 15.8895 9.12191 15.8549 7.9122 14.1759L3.89555 9.0697C3.14717 8.11832 3.27113 6.70669 4.17242 5.91673C5.0737 5.12677 6.41102 5.25761 7.15939 6.20898L9.70966 9.45101ZM11.2012 13.498L11.093 13.6355L11.0794 13.6548C10.5799 14.3619 10.1498 14.5313 9.86575 14.5278C9.57251 14.5242 9.12746 14.3338 8.61119 13.6172L8.59984 13.6014L4.57122 8.48007C4.13134 7.92087 4.20458 7.09087 4.73368 6.62712C5.26165 6.16437 6.04477 6.24061 6.48372 6.79861L9.03399 10.0406C9.09013 10.112 9.15252 10.174 9.21953 10.2267L11.1147 12.6342C11.2808 12.8451 11.3279 13.1331 11.2385 13.3904L11.2012 13.498ZM12.0265 12.4487L15.1656 8.45826C15.596 7.9111 15.5243 7.09898 15.0066 6.64523L14.9653 6.60901C14.4487 6.15626 13.6825 6.23085 13.2531 6.7768L10.6856 10.0406C10.6049 10.1432 10.5113 10.2265 10.4096 10.2905L11.7902 12.0443C11.888 12.1685 11.967 12.3048 12.0265 12.4487Z" fill="currentColor"/>
<path d="M9.03399 10.0406L6.48372 6.79861C6.04477 6.24061 5.26165 6.16437 4.73368 6.62712C4.20458 7.09087 4.13134 7.92087 4.57122 8.48007L8.59984 13.6014L8.61119 13.6172C9.12746 14.3338 9.57251 14.5242 9.86575 14.5278C10.1498 14.5313 10.5799 14.3619 11.0794 13.6548L11.093 13.6355L11.2012 13.498L11.2385 13.3904C11.3279 13.1331 11.2808 12.8451 11.1147 12.6342L9.21953 10.2267C9.15252 10.174 9.09013 10.112 9.03399 10.0406ZM9.03399 10.0406L9.05714 10.0204M15.0066 6.64523C15.5243 7.09898 15.596 7.9111 15.1656 8.45826L12.0265 12.4487C11.967 12.3048 11.888 12.1685 11.7902 12.0443L10.4096 10.2905C10.5113 10.2265 10.6049 10.1432 10.6856 10.0406L13.2531 6.7768C13.6825 6.23085 14.4487 6.15626 14.9653 6.60901L15.0066 6.64523ZM15.0066 6.64523L15.5668 5.93615M9.32907 9.64189L11.4525 12.3393C11.7181 12.6768 11.7936 13.1375 11.6506 13.5492L11.5216 13.9206M9.70966 9.45102C9.73432 9.48236 9.76561 9.50379 9.79935 9.51532C9.87229 9.54023 9.95664 9.5188 10.01 9.45101L12.5774 6.18717C13.3163 5.24785 14.6367 5.11866 15.5265 5.89862L15.5679 5.93484C16.4577 6.7148 16.5801 8.10856 15.8412 9.04789L11.7833 14.2065C10.5945 15.8895 9.12191 15.8549 7.9122 14.1759L3.89555 9.0697C3.14717 8.11832 3.27113 6.70669 4.17242 5.91673C5.0737 5.12677 6.41102 5.25761 7.15939 6.20898L9.70966 9.45102Z" stroke="currentColor" stroke-width="0.5"/>
<path fill-rule="evenodd" clip-rule="evenodd" d="M20.7531 17.6599V11.6527C20.7531 11.0856 20.3166 10.6258 19.7782 10.6258C19.2397 10.6258 18.8032 11.0856 18.8032 11.6527V17.6599C18.8032 18.2271 19.2397 18.6868 19.7782 18.6868C20.3166 18.6868 20.7531 18.2271 20.7531 17.6599ZM19.7782 9.70166C18.7551 9.70166 17.9258 10.5752 17.9258 11.6527V17.6599C17.9258 18.7375 18.7551 19.611 19.7782 19.611C20.8012 19.611 21.6306 18.7375 21.6306 17.6599V11.6527C21.6306 10.5752 20.8012 9.70166 19.7782 9.70166Z" fill="currentColor" stroke="currentColor" stroke-width="0.5"/>
<path fill-rule="evenodd" clip-rule="evenodd" d="M19.8271 8.41837C20.3167 8.41837 20.7533 7.98201 20.7533 7.39149C20.7533 6.80098 20.3167 6.36462 19.8271 6.36462C19.3375 6.36462 18.9009 6.80098 18.9009 7.39149C18.9009 7.98201 19.3375 8.41837 19.8271 8.41837ZM19.8271 9.34256C20.8232 9.34256 21.6308 8.46903 21.6308 7.39149C21.6308 6.31395 20.8232 5.44043 19.8271 5.44043C18.831 5.44043 18.0234 6.31395 18.0234 7.39149C18.0234 8.46903 18.831 9.34256 19.8271 9.34256Z" fill="currentColor" stroke="currentColor" stroke-width="0.5"/>
</svg>
