<svg width="25" height="24" viewBox="0 0 25 24" fill="none" xmlns="http://www.w3.org/2000/svg">
<path fill-rule="evenodd" clip-rule="evenodd" d="M4.24696 8.23865V16.9026C4.24696 17.6118 4.79282 18.1867 5.46617 18.1867H5.53169C6.20505 18.1867 6.75091 17.6118 6.75091 16.9026V11.4647L7.62836 12.5777V16.9026C7.62836 18.1222 6.68965 19.1109 5.53169 19.1109H5.46617C4.30822 19.1109 3.36951 18.1222 3.36951 16.9026V7.09701C3.36951 5.87738 4.30822 4.88867 5.46617 4.88867H5.53169C6.38054 4.88867 7.11158 5.41998 7.44137 6.18407L7.29276 5.99556C6.7424 5.29745 5.75893 5.20143 5.09612 5.78111L4.87788 5.97197C4.72891 6.05857 4.59899 6.17703 4.49638 6.31863C4.02274 6.83539 3.92723 7.61601 4.24696 8.23865ZM12.0838 12.6024V16.9026C12.0838 18.1222 13.0225 19.1109 14.1804 19.1109H14.246C15.4039 19.1109 16.3426 18.1222 16.3426 16.9026V7.09701C16.3426 5.87738 15.4039 4.88867 14.246 4.88867H14.1804C13.3123 4.88867 12.5674 5.44438 12.2489 6.2365L12.4389 5.99556C12.9892 5.29745 13.9727 5.20143 14.6355 5.78111L14.9032 6.01523C14.9888 6.07302 15.067 6.14176 15.1362 6.21958C15.7048 6.74083 15.8303 7.60622 15.4652 8.27545V16.9026C15.4652 17.6118 14.9193 18.1867 14.246 18.1867H14.1804C13.5071 18.1867 12.9612 17.6118 12.9612 16.9026V11.4894L12.0838 12.6024Z" fill="#2A9D8F" stroke="#2A9D8F" stroke-width="0.5"/>
<path fill-rule="evenodd" clip-rule="evenodd" d="M9.71015 8.95101C9.73481 8.98236 9.7661 9.00379 9.79983 9.01532C9.87278 9.04023 9.95713 9.0188 10.0105 8.95101L12.5779 5.68717C13.3168 4.74785 14.6372 4.61866 15.527 5.39862L15.5684 5.43484C16.4582 6.2148 16.5806 7.60856 15.8417 8.54789L11.7838 13.7065C10.595 15.3895 9.1224 15.3549 7.91269 13.6759L3.89604 8.5697C3.14766 7.61832 3.27162 6.20669 4.1729 5.41673C5.07419 4.62677 6.4115 4.75761 7.15988 5.70898L9.71015 8.95101ZM11.2017 12.998L11.0935 13.1355L11.0798 13.1548C10.5804 13.8619 10.1503 14.0313 9.86623 14.0278C9.573 14.0242 9.12795 13.8338 8.61167 13.1172L8.60033 13.1014L4.57171 7.98007C4.13183 7.42087 4.20507 6.59087 4.73417 6.12712C5.26213 5.66437 6.04526 5.74061 6.4842 6.29861L9.03448 9.54064C9.09062 9.61201 9.15301 9.67404 9.22002 9.72672L11.1152 12.1342C11.2813 12.3451 11.3284 12.6331 11.239 12.8904L11.2017 12.998ZM12.027 11.9487L15.166 7.95826C15.5965 7.4111 15.5248 6.59898 15.0071 6.14523L14.9658 6.10901C14.4492 5.65626 13.683 5.73085 13.2536 6.2768L10.6861 9.54064C10.6054 9.64325 10.5118 9.72654 10.4101 9.79052L11.7907 11.5443C11.8884 11.6685 11.9675 11.8048 12.027 11.9487Z" fill="#2A9D8F"/>
<path d="M9.03448 9.54064L6.4842 6.29861C6.04526 5.74061 5.26213 5.66437 4.73417 6.12712C4.20507 6.59087 4.13183 7.42087 4.57171 7.98007L8.60033 13.1014L8.61167 13.1172C9.12795 13.8338 9.573 14.0242 9.86623 14.0278C10.1503 14.0313 10.5804 13.8619 11.0798 13.1548L11.0935 13.1355L11.2017 12.998L11.239 12.8904C11.3284 12.6331 11.2813 12.3451 11.1152 12.1342L9.22002 9.72672C9.15301 9.67404 9.09062 9.61201 9.03448 9.54064ZM9.03448 9.54064L9.05763 9.52043M15.0071 6.14523C15.5248 6.59898 15.5965 7.4111 15.166 7.95826L12.027 11.9487C11.9675 11.8048 11.8884 11.6685 11.7907 11.5443L10.4101 9.79052C10.5118 9.72654 10.6054 9.64325 10.6861 9.54064L13.2536 6.2768C13.683 5.73085 14.4492 5.65626 14.9658 6.10901L15.0071 6.14523ZM15.0071 6.14523L15.5673 5.43615M9.32956 9.14189L11.453 11.8393C11.7186 12.1768 11.7941 12.6375 11.651 13.0492L11.522 13.4206M9.71015 8.95102C9.73481 8.98236 9.7661 9.00379 9.79983 9.01532C9.87278 9.04023 9.95713 9.0188 10.0105 8.95101L12.5779 5.68717C13.3168 4.74785 14.6372 4.61866 15.527 5.39862L15.5684 5.43484C16.4582 6.2148 16.5806 7.60856 15.8417 8.54789L11.7838 13.7065C10.595 15.3895 9.1224 15.3549 7.91269 13.6759L3.89604 8.5697C3.14766 7.61832 3.27162 6.20669 4.1729 5.41673C5.07419 4.62677 6.4115 4.75761 7.15988 5.70898L9.71015 8.95102Z" stroke="#2A9D8F" stroke-width="0.5"/>
<path fill-rule="evenodd" clip-rule="evenodd" d="M20.753 17.1599V11.1527C20.753 10.5856 20.3165 10.1258 19.7781 10.1258C19.2396 10.1258 18.8031 10.5856 18.8031 11.1527V17.1599C18.8031 17.7271 19.2396 18.1868 19.7781 18.1868C20.3165 18.1868 20.753 17.7271 20.753 17.1599ZM19.7781 9.20166C18.755 9.20166 17.9257 10.0752 17.9257 11.1527V17.1599C17.9257 18.2375 18.755 19.111 19.7781 19.111C20.8011 19.111 21.6305 18.2375 21.6305 17.1599V11.1527C21.6305 10.0752 20.8011 9.20166 19.7781 9.20166Z" fill="#2A9D8F" stroke="#2A9D8F" stroke-width="0.5"/>
<path fill-rule="evenodd" clip-rule="evenodd" d="M19.8267 7.91837C20.3163 7.91837 20.7529 7.48201 20.7529 6.89149C20.7529 6.30098 20.3163 5.86462 19.8267 5.86462C19.3371 5.86462 18.9005 6.30098 18.9005 6.89149C18.9005 7.48201 19.3371 7.91837 19.8267 7.91837ZM19.8267 8.84256C20.8229 8.84256 21.6304 7.96903 21.6304 6.89149C21.6304 5.81395 20.8229 4.94043 19.8267 4.94043C18.8306 4.94043 18.0231 5.81395 18.0231 6.89149C18.0231 7.96903 18.8306 8.84256 19.8267 8.84256Z" fill="#2A9D8F" stroke="#2A9D8F" stroke-width="0.5"/>
</svg>
