<svg width="24" height="24" viewBox="0 0 24 24" fill="none" xmlns="http://www.w3.org/2000/svg">
<path fill-rule="evenodd" clip-rule="evenodd" d="M19.4543 9.30087C21.5152 10.5006 21.5152 13.4994 19.4543 14.6991L7.63806 21.5776C5.5768 22.7775 3 21.278 3 18.8785L3 5.12149C3 2.72203 5.57681 1.22245 7.63807 2.42236L19.4543 9.30087ZM18.9573 13.8316C20.3558 13.0174 20.3558 10.9826 18.9573 10.1684L13.794 7.16277L13.794 16.8372L18.9573 13.8316ZM12.8002 16.8372L12.8002 7.16277L4.49059 12L12.8002 16.8372ZM3.99382 11.1323L12.3034 6.29507L7.14108 3.28994C5.74237 2.47571 3.99382 3.49328 3.99382 5.12149L3.99382 11.1323ZM3.99382 12.8677L12.3034 17.7049L7.14108 20.7101C5.74236 21.5243 3.99382 20.5067 3.99382 18.8785V12.8677Z" fill="#2A9D8F" stroke="#2A9D8F" stroke-width="0.5"/>
</svg>
