<svg width="24" height="24" viewBox="0 0 24 24" fill="none" xmlns="http://www.w3.org/2000/svg">
<path fill-rule="evenodd" clip-rule="evenodd" d="M12 20.095C16.4707 20.095 20.095 16.4707 20.095 12C20.095 7.52927 16.4707 3.90503 12 3.90503C7.52927 3.90503 3.90503 7.52927 3.90503 12C3.90503 16.4707 7.52927 20.095 12 20.095ZM12 21C16.9706 21 21 16.9706 21 12C21 7.02944 16.9706 3 12 3C7.02944 3 3 7.02944 3 12C3 16.9706 7.02944 21 12 21Z" fill="#2A9D8F" stroke="#2A9D8F" stroke-width="0.5"/>
<path fill-rule="evenodd" clip-rule="evenodd" d="M9.02489 3.56396C9.2612 3.67401 9.49541 3.79476 9.7252 3.92699C11.6595 5.03996 13.2972 6.98266 13.1914 10.157C13.1858 10.325 13.1834 10.4888 13.184 10.6485C14.5331 10.8131 15.5151 10.5755 16.231 10.1267C17.0147 9.63535 17.5383 8.85399 17.8625 7.91809C18.1163 7.18544 18.2407 6.3774 18.2747 5.58373C18.5722 5.87236 18.8497 6.1814 19.105 6.50861C19.0315 7.09067 18.9068 7.66834 18.7177 8.2143C18.3473 9.28355 17.7184 10.2623 16.7117 10.8935C15.8151 11.4556 14.6648 11.7131 13.2264 11.564C13.3493 12.8479 13.7379 13.8072 14.2767 14.5152C14.8885 15.3192 15.719 15.8321 16.6552 16.1187C17.6846 16.4339 18.829 16.4706 19.9062 16.3225C19.7219 16.6597 19.5167 16.9837 19.2922 17.2929C18.3208 17.3534 17.3215 17.2692 16.3902 16.9841C15.3052 16.6519 14.3021 16.0431 13.5565 15.0633C12.9431 14.2572 12.521 13.2224 12.3566 11.9299C11.251 12.9311 10.1288 14.5132 9.70817 16.2759C9.45877 17.3211 9.45799 18.4194 9.84133 19.5005C10.0044 19.9603 10.2389 20.4227 10.5594 20.8808C10.1381 20.8116 9.72668 20.7131 9.3273 20.5874C9.19435 20.3281 9.08175 20.0664 8.98834 19.8029C8.53745 18.5314 8.5448 17.2521 8.82785 16.0659C9.3027 14.076 10.5589 12.3197 11.8019 11.2119C10.3823 10.8497 8.41265 10.8104 6.56801 11.3603C5.27974 11.7443 4.07344 12.408 3.16027 13.4342C3.09982 13.0509 3.06364 12.6595 3.05334 12.2617C4.00026 11.4139 5.13648 10.8426 6.30946 10.4929C8.40615 9.86791 10.6664 9.93389 12.2803 10.4045C12.2816 10.313 12.2838 10.2204 12.2869 10.1268C12.3793 7.35456 10.9819 5.69421 9.27384 4.71143C8.81931 4.44989 8.34401 4.23757 7.87122 4.06732C8.24135 3.87372 8.62666 3.70518 9.02489 3.56396Z" fill="#2A9D8F" stroke="#2A9D8F" stroke-width="0.5" stroke-linecap="round"/>
<path d="M8.63123 9.48589C8.63123 8.5973 9.35157 7.87695 10.2402 7.87695H13.7094C15.2089 7.87695 16.4245 9.09254 16.4245 10.592V11.3848C16.4245 12.8982 15.1977 14.125 13.6843 14.125H12.5279H11.8975H11.5824H11.4248C11.3239 14.125 11.2271 14.1651 11.1558 14.2365L11.1168 14.2755L10.9663 14.426L10.6655 14.7269L10.0638 15.3288L9.34752 16.0023L8.98937 16.3391L8.8103 16.5075C8.74247 16.5712 8.63123 16.5231 8.63123 16.43V12.563V11.001V9.48589Z" fill="#2A9D8F"/>
</svg>
