<svg width="24" height="25" viewBox="0 0 24 25" fill="none" xmlns="http://www.w3.org/2000/svg">
<path fill-rule="evenodd" clip-rule="evenodd" d="M12 20.595C16.4707 20.595 20.095 16.9707 20.095 12.5C20.095 8.02927 16.4707 4.40503 12 4.40503C7.52927 4.40503 3.90503 8.02927 3.90503 12.5C3.90503 16.9707 7.52927 20.595 12 20.595ZM12 21.5C16.9706 21.5 21 17.4706 21 12.5C21 7.52944 16.9706 3.5 12 3.5C7.02944 3.5 3 7.52944 3 12.5C3 17.4706 7.02944 21.5 12 21.5Z" fill="currentColor" stroke="currentColor" stroke-width="0.5"/>
<path fill-rule="evenodd" clip-rule="evenodd" d="M9.02623 4.06396C9.26254 4.17401 9.49675 4.29476 9.72655 4.42699C11.6608 5.53996 13.2986 7.48266 13.1928 10.657C13.1872 10.825 13.1848 10.9888 13.1854 11.1485C14.5344 11.3131 15.5164 11.0755 16.2323 10.6267C17.016 10.1354 17.5397 9.35399 17.8638 8.41809C18.1176 7.68544 18.2421 6.8774 18.2761 6.08373C18.5735 6.37236 18.851 6.6814 19.1063 7.00861C19.0328 7.59067 18.9081 8.16834 18.719 8.7143C18.3487 9.78355 17.7198 10.7623 16.7131 11.3935C15.8164 11.9556 14.6661 12.2131 13.2277 12.064C13.3506 13.3479 13.7393 14.3072 14.2781 15.0152C14.8899 15.8192 15.7203 16.3321 16.6565 16.6187C17.686 16.9339 18.8303 16.9706 19.9075 16.8225C19.7233 17.1597 19.518 17.4837 19.2935 17.7929C18.3221 17.8534 17.3229 17.7692 16.3916 17.4841C15.3066 17.1519 14.3034 16.5431 13.5578 15.5633C12.9445 14.7572 12.5223 13.7224 12.358 12.4299C11.2523 13.4311 10.1301 15.0132 9.70951 16.7759C9.46011 17.8211 9.45933 18.9194 9.84267 20.0005C10.0057 20.4603 10.2403 20.9227 10.5608 21.3808C10.1395 21.3116 9.72802 21.2131 9.32864 21.0874C9.19569 20.8281 9.0831 20.5664 8.98969 20.3029C8.53879 19.0314 8.54614 17.7521 8.8292 16.5659C9.30404 14.576 10.5602 12.8197 11.8033 11.7119C10.3836 11.3497 8.41399 11.3104 6.56936 11.8603C5.28109 12.2443 4.07478 12.908 3.16161 13.9342C3.10116 13.5509 3.06498 13.1595 3.05469 12.7617C4.0016 11.9139 5.13783 11.3426 6.3108 10.9929C8.40749 10.3679 10.6678 10.4339 12.2816 10.9045C12.2829 10.813 12.2851 10.7204 12.2883 10.6268C12.3807 7.85456 10.9832 6.19421 9.27518 5.21143C8.82065 4.94989 8.34535 4.73757 7.87257 4.56732C8.24269 4.37372 8.628 4.20518 9.02623 4.06396Z" fill="currentColor" stroke="currentColor" stroke-width="0.5" stroke-linecap="round"/>
<path d="M8.63281 9.98589C8.63281 9.0973 9.35316 8.37695 10.2418 8.37695H13.711C15.2105 8.37695 16.4261 9.59254 16.4261 11.092V11.8848C16.4261 13.3982 15.1993 14.625 13.6859 14.625H12.5295H11.8991H11.584H11.4264C11.3255 14.625 11.2287 14.6651 11.1574 14.7365L11.1184 14.7755L10.9679 14.926L10.6671 15.2269L10.0654 15.8288L9.34911 16.5023L8.99096 16.8391L8.81189 17.0075C8.74405 17.0712 8.63281 17.0231 8.63281 16.93V13.063V11.501V9.98589Z" fill="currentColor"/>
</svg>
