<svg width="40" height="40" viewBox="0 0 40 40" fill="none" xmlns="http://www.w3.org/2000/svg">
<mask id="mask0_4754_86193" style="mask-type:luminance" maskUnits="userSpaceOnUse" x="0" y="0" width="40" height="40">
<path d="M40 0.0898438H0V39.9105H40V0.0898438Z" fill="white"/>
</mask>
<g mask="url(#mask0_4754_86193)">
<path fill-rule="evenodd" clip-rule="evenodd" d="M19.9934 19.9658C16.7405 15.5157 10.52 14.4958 6.09954 17.6878C1.67904 20.8799 0.732467 27.0751 3.98532 31.5253L4.23142 31.862C-1.07325 24.9239 -1.33424 15.1913 3.95401 8.05935L4.04817 7.93422C7.32448 3.58054 13.5499 2.74456 17.9531 6.06699C22.3562 9.38943 23.2697 15.6122 19.9934 19.9658Z" fill="url(#paint0_linear_4754_86193)"/>
<path fill-rule="evenodd" clip-rule="evenodd" d="M19.9938 19.9657C14.8154 21.7172 12.0915 27.3436 13.9098 32.5325C15.7281 37.7215 21.4 40.5081 26.5784 38.7567L26.9215 38.6406C20.4816 40.9448 12.9791 39.8366 7.31102 35.0805C6.14539 34.1024 5.11822 33.0212 4.23187 31.8619L3.98577 31.5252C0.73292 27.075 1.67949 20.8798 6.09999 17.6877C10.5205 14.4957 16.741 15.5156 19.9938 19.9657Z" fill="url(#paint1_linear_4754_86193)"/>
<path fill-rule="evenodd" clip-rule="evenodd" d="M19.9935 19.9661C20.0268 25.4425 24.5029 29.9091 29.9911 29.9424C35.4794 29.9757 39.9015 25.5632 39.8682 20.0867L39.8674 19.9613C39.926 24.5046 38.429 29.0724 35.2959 32.8063C32.9892 35.5554 30.0833 37.5095 26.9212 38.6409L26.5781 38.757C21.3997 40.5085 15.7278 37.7218 13.9095 32.5329C12.0912 27.3439 14.8151 21.7175 19.9935 19.9661Z" fill="url(#paint2_linear_4754_86193)"/>
<path fill-rule="evenodd" clip-rule="evenodd" d="M19.9953 19.9659C25.2252 21.6899 30.8141 18.8736 32.4784 13.6754C34.1427 8.47725 31.2522 2.86572 26.0222 1.14171L25.5941 1.00057C28.114 1.76776 30.528 3.047 32.6781 4.85115C37.3492 8.77063 39.7968 14.3472 39.8692 19.9611L39.87 20.0865C39.9033 25.563 35.4812 29.9756 29.993 29.9423C24.5047 29.909 20.0286 25.4424 19.9953 19.9659Z" fill="url(#paint3_linear_4754_86193)"/>
<path d="M19.9937 19.9663C23.2701 15.6126 22.3566 9.3899 17.9534 6.06746C13.5503 2.74503 7.32485 3.58101 4.04854 7.93469L3.95438 8.05982C4.18908 7.74328 4.43472 7.43187 4.69133 7.12605C9.91382 0.902129 18.2076 -1.24741 25.5925 1.00094L26.0207 1.14208C31.2506 2.86608 34.1411 8.47761 32.4768 13.6758C30.8125 18.8739 25.2237 21.6903 19.9937 19.9663Z" fill="url(#paint4_linear_4754_86193)"/>
<path style="mix-blend-mode:multiply" d="M19.9937 19.9663C23.2701 15.6126 22.3566 9.3899 17.9534 6.06746C13.5503 2.74503 7.32485 3.58101 4.04854 7.93469L3.95438 8.05982C4.18908 7.74328 4.43472 7.43187 4.69133 7.12605C9.91382 0.902129 18.2076 -1.24741 25.5925 1.00094L26.0207 1.14208C31.2506 2.86608 34.1411 8.47761 32.4768 13.6758C30.8125 18.8739 25.2237 21.6903 19.9937 19.9663Z" fill="url(#paint5_linear_4754_86193)" fill-opacity="0.1"/>
<g opacity="0.504911">
<path d="M25.8693 1.0912L26.0222 1.14162C31.2522 2.86562 34.1427 8.47715 32.4784 13.6753C30.8141 18.8735 25.2253 21.6898 19.9953 19.9658C20.4804 19.3212 20.8737 18.6356 21.1773 17.9246C24.2341 18.5505 27.5102 17.5406 29.637 15.006C32.7413 11.3064 32.2215 5.75962 28.476 2.61681C27.6758 1.94533 26.793 1.43791 25.8693 1.0912Z" fill="url(#paint6_linear_4754_86193)"/>
<g style="mix-blend-mode:overlay">
<path d="M25.8693 1.0912L26.0222 1.14162C31.2522 2.86562 34.1427 8.47715 32.4784 13.6753C30.8141 18.8735 25.2253 21.6898 19.9953 19.9658C20.4804 19.3212 20.8737 18.6356 21.1773 17.9246C24.2341 18.5505 27.5102 17.5406 29.637 15.006C32.7413 11.3064 32.2215 5.75962 28.476 2.61681C27.6758 1.94533 26.793 1.43791 25.8693 1.0912Z" fill="black" fill-opacity="0.496179"/>
</g>
</g>
<g opacity="0.544252">
<path d="M39.8426 19.7979L39.8419 19.9589C39.8184 25.4656 35.3747 29.9487 29.9167 29.9722C24.4587 29.9957 20.0531 25.5507 20.0766 20.044C20.8395 20.3062 21.6131 20.4683 22.3832 20.5374C22.7325 23.638 24.7054 26.4416 27.7731 27.6811C32.2509 29.4902 37.3656 27.2818 39.1972 22.7485C39.5885 21.7799 39.7983 20.7836 39.8426 19.7979Z" fill="url(#paint7_linear_4754_86193)"/>
<g style="mix-blend-mode:overlay">
<path d="M39.8426 19.7979L39.8419 19.9589C39.8184 25.4656 35.3747 29.9487 29.9167 29.9722C24.4587 29.9957 20.0531 25.5507 20.0766 20.044C20.8395 20.3062 21.6131 20.4683 22.3832 20.5374C22.7325 23.638 24.7054 26.4416 27.7731 27.6811C32.2509 29.4902 37.3656 27.2818 39.1972 22.7485C39.5885 21.7799 39.7983 20.7836 39.8426 19.7979Z" fill="black" fill-opacity="0.499887"/>
</g>
</g>
<g opacity="0.562221">
<path d="M26.7127 38.6242L26.5602 38.676C21.3459 40.4466 15.6603 37.7046 13.8611 32.5515C12.062 27.3985 14.8305 21.7858 20.0448 20.0152C20.0454 20.822 20.1439 21.6061 20.3293 22.3568C17.5114 23.6965 15.5028 26.4747 15.3296 29.7788C15.0768 34.6016 18.8301 38.7187 23.7128 38.9746C24.756 39.0292 25.7663 38.9032 26.7127 38.6242Z" fill="url(#paint8_linear_4754_86193)"/>
<g style="mix-blend-mode:overlay">
<path d="M26.7127 38.6242L26.5602 38.676C21.3459 40.4466 15.6603 37.7046 13.8611 32.5515C12.062 27.3985 14.8305 21.7858 20.0448 20.0152C20.0454 20.822 20.1439 21.6061 20.3293 22.3568C17.5114 23.6965 15.5028 26.4747 15.3296 29.7788C15.0768 34.6016 18.8301 38.7187 23.7128 38.9746C24.756 39.0292 25.7663 38.9032 26.7127 38.6242Z" fill="#111827"/>
</g>
</g>
<g opacity="0.584152">
<path d="M3.89348 31.4587L3.80166 31.3263C0.662396 26.802 1.73103 20.5809 6.18852 17.4311C10.646 14.2812 16.8044 15.3954 19.9437 19.9197C19.1683 20.1426 18.4417 20.4535 17.7712 20.8386C15.7067 18.4991 12.4825 17.3341 9.25859 18.0784C4.55297 19.1648 1.62993 23.9074 2.72979 28.6715C2.96478 29.6893 3.36441 30.6258 3.89348 31.4587Z" fill="url(#paint9_linear_4754_86193)"/>
<g style="mix-blend-mode:overlay">
<path d="M3.89348 31.4587L3.80166 31.3263C0.662396 26.802 1.73103 20.5809 6.18852 17.4311C10.646 14.2812 16.8044 15.3954 19.9437 19.9197C19.1683 20.1426 18.4417 20.4535 17.7712 20.8386C15.7067 18.4991 12.4825 17.3341 9.25859 18.0784C4.55297 19.1648 1.62993 23.9074 2.72979 28.6715C2.96478 29.6893 3.36441 30.6258 3.89348 31.4587Z" fill="black" fill-opacity="0.503085"/>
</g>
</g>
<g opacity="0.180134">
<path d="M3.9763 8.19212L4.07377 8.06391C7.40654 3.6802 13.6534 2.7741 18.0265 6.04007C22.3997 9.30604 23.243 15.5073 19.9103 19.891C19.4587 19.2225 18.9385 18.6275 18.365 18.1089C19.9521 15.4224 20.0637 11.996 18.3596 9.1599C15.8723 5.0203 10.4585 3.7059 6.26746 6.2241C5.37203 6.76213 4.60487 7.43158 3.9763 8.19212Z" fill="url(#paint10_linear_4754_86193)"/>
<g style="mix-blend-mode:multiply">
<path d="M3.9763 8.19212L4.07377 8.06391C7.40654 3.6802 13.6534 2.7741 18.0265 6.04007C22.3997 9.30604 23.243 15.5073 19.9103 19.891C19.4587 19.2225 18.9385 18.6275 18.365 18.1089C19.9521 15.4224 20.0637 11.996 18.3596 9.1599C15.8723 5.0203 10.4585 3.7059 6.26746 6.2241C5.37203 6.76213 4.60487 7.43158 3.9763 8.19212Z" fill="#111827"/>
</g>
</g>
<g filter="url(#filter0_d_4754_86193)">
<path d="M18.428 24.2179H22.0638C25.489 24.2179 28.2656 21.527 28.2656 18.2076C28.2656 14.8882 25.489 12.1973 22.0638 12.1973H16.8162C14.8402 12.1973 13.2383 13.7497 13.2383 15.6648V29.1607L18.428 24.2179Z" fill="#111827"/>
</g>
<path d="M18.428 24.2179H22.0638C25.489 24.2179 28.2656 21.527 28.2656 18.2076C28.2656 14.8882 25.489 12.1973 22.0638 12.1973H16.8162C14.8402 12.1973 13.2383 13.7497 13.2383 15.6648V29.1607L18.428 24.2179Z" fill="white"/>
</g>
<defs>
<filter id="filter0_d_4754_86193" x="10.2383" y="10.1973" width="21.0273" height="22.9634" filterUnits="userSpaceOnUse" color-interpolation-filters="sRGB">
<feFlood flood-opacity="0" result="BackgroundImageFix"/>
<feColorMatrix in="SourceAlpha" type="matrix" values="0 0 0 0 0 0 0 0 0 0 0 0 0 0 0 0 0 0 127 0" result="hardAlpha"/>
<feOffset dy="1"/>
<feGaussianBlur stdDeviation="1.5"/>
<feColorMatrix type="matrix" values="0 0 0 0 0 0 0 0 0 0 0 0 0 0 0 0 0 0 0.298687 0"/>
<feBlend mode="normal" in2="BackgroundImageFix" result="effect1_dropShadow_4754_86193"/>
<feBlend mode="normal" in="SourceGraphic" in2="effect1_dropShadow_4754_86193" result="shape"/>
</filter>
<linearGradient id="paint0_linear_4754_86193" x1="514.202" y1="2505.54" x2="-1055.12" y2="1267.22" gradientUnits="userSpaceOnUse">
<stop stop-color="#FF5C34"/>
<stop offset="1" stop-color="#EB0256"/>
</linearGradient>
<linearGradient id="paint1_linear_4754_86193" x1="-523.314" y1="2177.94" x2="1070.55" y2="1100.56" gradientUnits="userSpaceOnUse">
<stop stop-color="#A63FDB"/>
<stop offset="1" stop-color="#FF257E"/>
</linearGradient>
<linearGradient id="paint2_linear_4754_86193" x1="-622.604" y1="1273.8" x2="517.601" y2="2615.76" gradientUnits="userSpaceOnUse">
<stop stop-color="#00FFF0"/>
<stop offset="1" stop-color="#0087FF"/>
</linearGradient>
<linearGradient id="paint3_linear_4754_86193" x1="1466.19" y1="1511.68" x2="-646.386" y2="1866.5" gradientUnits="userSpaceOnUse">
<stop stop-color="#17C934"/>
<stop offset="1" stop-color="#03FF6E"/>
</linearGradient>
<linearGradient id="paint4_linear_4754_86193" x1="-432.029" y1="2567.53" x2="804.304" y2="617.695" gradientUnits="userSpaceOnUse">
<stop stop-color="#FFB000"/>
<stop offset="1" stop-color="#FF7725"/>
</linearGradient>
<linearGradient id="paint5_linear_4754_86193" x1="-432.029" y1="2567.53" x2="804.304" y2="617.695" gradientUnits="userSpaceOnUse">
<stop stop-color="#FFB000"/>
<stop offset="1" stop-color="#FF7725"/>
</linearGradient>
<linearGradient id="paint6_linear_4754_86193" x1="-809.81" y1="2076.82" x2="145.66" y2="170.109" gradientUnits="userSpaceOnUse">
<stop stop-color="#FFB000"/>
<stop offset="1" stop-color="#FF7725"/>
</linearGradient>
<linearGradient id="paint7_linear_4754_86193" x1="-587.517" y1="-1451.86" x2="-1760.91" y2="1115.43" gradientUnits="userSpaceOnUse">
<stop stop-color="#9EE85D"/>
<stop offset="1" stop-color="#0ED061"/>
</linearGradient>
<linearGradient id="paint8_linear_4754_86193" x1="-487.968" y1="-2211.94" x2="471.155" y2="-86.2949" gradientUnits="userSpaceOnUse">
<stop stop-color="#21EFE3"/>
<stop offset="1" stop-color="#2598FF"/>
</linearGradient>
<linearGradient id="paint9_linear_4754_86193" x1="769.303" y1="-1569.94" x2="1523.12" y2="967.007" gradientUnits="userSpaceOnUse">
<stop stop-color="#A63FDB"/>
<stop offset="1" stop-color="#FF257E"/>
</linearGradient>
<linearGradient id="paint10_linear_4754_86193" x1="1740.02" y1="202.168" x2="571.609" y2="955.229" gradientUnits="userSpaceOnUse">
<stop stop-color="#FF5C34"/>
<stop offset="1" stop-color="#EB0256"/>
</linearGradient>
</defs>
</svg>
