<svg width="32" height="32" viewBox="0 0 32 32" fill="none" xmlns="http://www.w3.org/2000/svg">
<path d="M11.5625 19.1064C11.5625 20.8264 12.8825 22.213 14.5225 22.213H17.8692C19.2958 22.213 20.4558 20.9997 20.4558 19.5064C20.4558 17.8797 19.7492 17.3064 18.6958 16.933L13.3225 15.0664C12.2692 14.693 11.5625 14.1197 11.5625 12.493C11.5625 10.9997 12.7225 9.78638 14.1492 9.78638H17.4958C19.1358 9.78638 20.4558 11.173 20.4558 12.893" stroke="currentColor" stroke-width="2" stroke-linecap="round" stroke-linejoin="round"/>
<path d="M16 8V24" stroke="currentColor" stroke-width="2" stroke-linecap="round" stroke-linejoin="round"/>
<path d="M20.0013 29.3334H12.0013C5.33464 29.3334 2.66797 26.6667 2.66797 20.0001V12.0001C2.66797 5.33341 5.33464 2.66675 12.0013 2.66675H20.0013C26.668 2.66675 29.3346 5.33341 29.3346 12.0001V20.0001C29.3346 26.6667 26.668 29.3334 20.0013 29.3334Z" stroke="currentColor" stroke-width="2" stroke-linecap="round" stroke-linejoin="round"/>
</svg>
