<svg width="24" height="24" viewBox="0 0 32 32" fill="none" xmlns="http://www.w3.org/2000/svg">
<path d="M22.6133 8.22656C25.2799 10.0799 27.1199 13.0266 27.4933 16.4266" stroke="currentColor" stroke-width="2" stroke-linecap="round" stroke-linejoin="round"/>
<path d="M4.65234 16.4935C4.99901 13.1068 6.81234 10.1601 9.45234 8.29346" stroke="currentColor" stroke-width="2" stroke-linecap="round" stroke-linejoin="round"/>
<path d="M10.9219 27.9199C12.4685 28.7066 14.2285 29.1466 16.0819 29.1466C17.8685 29.1466 19.5485 28.7466 21.0552 28.0133" stroke="currentColor" stroke-width="2" stroke-linecap="round" stroke-linejoin="round"/>
<path d="M16.0817 10.2668C18.1288 10.2668 19.7883 8.60732 19.7883 6.56018C19.7883 4.51305 18.1288 2.85352 16.0817 2.85352C14.0345 2.85352 12.375 4.51305 12.375 6.56018C12.375 8.60732 14.0345 10.2668 16.0817 10.2668Z" stroke="currentColor" stroke-width="2" stroke-linecap="round" stroke-linejoin="round"/>
<path d="M6.44104 26.5598C8.48818 26.5598 10.1477 24.9003 10.1477 22.8532C10.1477 20.806 8.48818 19.1465 6.44104 19.1465C4.39391 19.1465 2.73438 20.806 2.73438 22.8532C2.73438 24.9003 4.39391 26.5598 6.44104 26.5598Z" stroke="currentColor" stroke-width="2" stroke-linecap="round" stroke-linejoin="round"/>
<path d="M25.5582 26.5598C27.6054 26.5598 29.2649 24.9003 29.2649 22.8532C29.2649 20.806 27.6054 19.1465 25.5582 19.1465C23.5111 19.1465 21.8516 20.806 21.8516 22.8532C21.8516 24.9003 23.5111 26.5598 25.5582 26.5598Z" stroke="currentColor" stroke-width="2" stroke-linecap="round" stroke-linejoin="round"/>
</svg>
