<svg width="27" height="26" viewBox="0 0 27 26" fill="none" xmlns="http://www.w3.org/2000/svg">
<path d="M14.1743 21.1135L19.9893 24.8055C20.7392 25.2785 21.6622 24.5747 21.443 23.7094L19.7585 17.0868C19.713 16.9033 19.7202 16.7106 19.7794 16.5309C19.8386 16.3513 19.9474 16.1921 20.0931 16.0715L25.3081 11.7219C25.9888 11.1565 25.6427 10.0143 24.7543 9.95661L17.9471 9.51818C17.7614 9.50737 17.5828 9.44269 17.4333 9.33205C17.2837 9.22141 17.1696 9.06959 17.1049 8.89515L14.5666 2.50332C14.4994 2.3186 14.377 2.15904 14.216 2.04628C14.055 1.93353 13.8632 1.87305 13.6667 1.87305C13.4701 1.87305 13.2783 1.93353 13.1173 2.04628C12.9563 2.15904 12.8339 2.3186 12.7668 2.50332L10.2285 8.89515C10.1638 9.06959 10.0497 9.22141 9.90011 9.33205C9.75054 9.44269 9.57197 9.50737 9.38624 9.51818L2.57905 9.95661C1.69066 10.0143 1.34453 11.1565 2.02525 11.7219L7.24024 16.0715C7.386 16.1921 7.49475 16.3513 7.55394 16.5309C7.61314 16.7106 7.62038 16.9033 7.57483 17.0868L6.01726 23.2248C5.75189 24.2632 6.8595 25.1055 7.7479 24.5401L13.159 21.1135C13.3108 21.017 13.4869 20.9657 13.6667 20.9657C13.8465 20.9657 14.0226 21.017 14.1743 21.1135Z" fill="#FFB802" stroke="#FFB802" stroke-width="2" stroke-linecap="round" stroke-linejoin="round"/>
</svg>
