<svg width="32" viewBox="0 0 32 32" fill="none" xmlns="http://www.w3.org/2000/svg">
<path d="M20.0013 29.3334H12.0013C5.33464 29.3334 2.66797 26.6667 2.66797 20.0001V12.0001C2.66797 5.33341 5.33464 2.66675 12.0013 2.66675H20.0013C26.668 2.66675 29.3346 5.33341 29.3346 12.0001V20.0001C29.3346 26.6667 26.668 29.3334 20.0013 29.3334Z" stroke="currentColor" stroke-width="2" stroke-linecap="round" stroke-linejoin="round"/>
<path d="M15.9197 10.7923C15.3491 10.7923 14.8085 10.8672 14.3952 11.1027C14.1802 11.2252 13.9946 11.3942 13.8654 11.6189C13.7364 11.8431 13.6795 12.0953 13.6795 12.3604C13.6795 12.8084 13.8855 13.1605 14.1775 13.4273C14.4552 13.681 14.8238 13.8714 15.206 14.0309C15.593 14.1924 16.0389 14.34 16.4924 14.4891C16.5103 14.495 16.5282 14.5009 16.5462 14.5067C16.9895 14.6525 17.4466 14.8027 17.9025 14.9782C18.855 15.3449 19.7504 15.8035 20.4086 16.4895C21.0514 17.1596 21.4951 18.0748 21.5 19.4229C21.4998 21.038 20.8399 22.2834 19.7032 23.1393C18.5506 24.0072 16.8708 24.5 14.8142 24.5C13.211 24.5 11.4643 24.2108 9.7252 23.5347V19.969C11.3526 20.7177 13.2505 21.2473 14.8142 21.2473C15.4132 21.2473 16.0057 21.1728 16.4643 20.9251C16.7018 20.7969 16.9122 20.6174 17.0609 20.3728C17.2101 20.1274 17.2795 19.8455 17.2795 19.5407C17.2795 18.6155 16.4986 18.1093 15.7725 17.7761C15.3842 17.5979 14.9384 17.4367 14.4835 17.2772C14.404 17.2493 14.3242 17.2214 14.244 17.1934C13.8584 17.0588 13.4654 16.9217 13.0716 16.768C12.1166 16.3953 11.2224 15.9488 10.5675 15.2997C9.93036 14.6681 9.5 13.8257 9.5 12.5978C9.5 10.9922 10.1271 9.73985 11.2124 8.87745C12.3106 8.00487 13.9199 7.5 15.9197 7.5C17.4585 7.5 18.9713 7.71727 20.4969 8.25819V11.77C19.0165 11.1391 17.3187 10.7923 15.9197 10.7923Z" fill="currentColor" stroke="#F7F7F9"/>
</svg>
