<svg viewBox="0 0 32 32" fill="none" xmlns="http://www.w3.org/2000/svg">
<path d="M28 7.97331C23.56 7.53331 19.0933 7.30664 14.64 7.30664C12 7.30664 9.36 7.43997 6.72 7.70664L4 7.97331" stroke="currentColor" stroke-width="2" stroke-linecap="round" stroke-linejoin="round"/>
<path d="M11.332 6.62675L11.6254 4.88008C11.8387 3.61341 11.9987 2.66675 14.252 2.66675H17.7454C19.9987 2.66675 20.172 3.66675 20.372 4.89341L20.6654 6.62675" stroke="currentColor" stroke-width="2" stroke-linecap="round" stroke-linejoin="round"/>
<path d="M25.1339 12.1868L24.2672 25.6134C24.1205 27.7068 24.0005 29.3334 20.2805 29.3334H11.7205C8.00052 29.3334 7.88052 27.7068 7.73385 25.6134L6.86719 12.1868" stroke="currentColor" stroke-width="2" stroke-linecap="round" stroke-linejoin="round"/>
<path d="M13.7734 22H18.2134" stroke="currentColor" stroke-width="2" stroke-linecap="round" stroke-linejoin="round"/>
<path d="M12.668 16.6667H19.3346" stroke="currentColor" stroke-width="2" stroke-linecap="round" stroke-linejoin="round"/>
</svg>
