<svg width="25" height="25" viewBox="0 0 25 25" fill="none" xmlns="http://www.w3.org/2000/svg">
<path d="M18.1951 19.7076H17.4351C16.6351 19.7076 15.8751 20.0176 15.3151 20.5776L13.6051 22.2676C12.8251 23.0376 11.5551 23.0376 10.7751 22.2676L9.06512 20.5776C8.50512 20.0176 7.73513 19.7076 6.94513 19.7076H6.19513C4.53513 19.7076 3.19513 18.3777 3.19513 16.7377V5.82764C3.19513 4.18764 4.53513 2.85767 6.19513 2.85767H18.1951C19.8551 2.85767 21.1951 4.18764 21.1951 5.82764V16.7377C21.1951 18.3677 19.8551 19.7076 18.1951 19.7076Z" stroke="#2A9D8F" stroke-width="1.5" stroke-miterlimit="10" stroke-linecap="round" stroke-linejoin="round"/>
<path d="M12.1951 10.8477C13.482 10.8477 14.5251 9.80452 14.5251 8.5177C14.5251 7.23088 13.482 6.18774 12.1951 6.18774C10.9083 6.18774 9.86511 7.23088 9.86511 8.5177C9.86511 9.80452 10.9083 10.8477 12.1951 10.8477Z" stroke="#2A9D8F" stroke-width="1.5" stroke-linecap="round" stroke-linejoin="round"/>
<path d="M16.1951 16.5078C16.1951 14.7078 14.4051 13.2478 12.1951 13.2478C9.98513 13.2478 8.19513 14.7078 8.19513 16.5078" stroke="#2A9D8F" stroke-width="1.5" stroke-linecap="round" stroke-linejoin="round"/>
</svg>
