<svg width="32" height="32" viewBox="0 0 32 32" fill="none" xmlns="http://www.w3.org/2000/svg">
<path d="M24.1858 28.8265C23.0125 29.1732 21.6258 29.3332 19.9992 29.3332H11.9992C10.3725 29.3332 8.98583 29.1732 7.8125 28.8265C8.10583 25.3598 11.6658 22.6265 15.9992 22.6265C20.3325 22.6265 23.8925 25.3598 24.1858 28.8265Z" stroke="#111827" stroke-width="2" stroke-linecap="round" stroke-linejoin="round"/>
<path d="M19.9974 2.6665H11.9974C5.33073 2.6665 2.66406 5.33317 2.66406 11.9998V19.9998C2.66406 25.0398 4.18406 27.7998 7.81073 28.8265C8.10406 25.3598 11.6641 22.6265 15.9974 22.6265C20.3307 22.6265 23.8907 25.3598 24.1841 28.8265C27.8107 27.7998 29.3307 25.0398 29.3307 19.9998V11.9998C29.3307 5.33317 26.6641 2.6665 19.9974 2.6665ZM15.9974 18.8931C13.3574 18.8931 11.2241 16.7465 11.2241 14.1065C11.2241 11.4665 13.3574 9.33317 15.9974 9.33317C18.6374 9.33317 20.7707 11.4665 20.7707 14.1065C20.7707 16.7465 18.6374 18.8931 15.9974 18.8931Z" stroke="#111827" stroke-width="2" stroke-linecap="round" stroke-linejoin="round"/>
<path d="M20.7732 14.1069C20.7732 16.7469 18.6399 18.8935 15.9999 18.8935C13.3599 18.8935 11.2266 16.7469 11.2266 14.1069C11.2266 11.4669 13.3599 9.3335 15.9999 9.3335C18.6399 9.3335 20.7732 11.4669 20.7732 14.1069Z" stroke="#111827" stroke-width="2" stroke-linecap="round" stroke-linejoin="round"/>
</svg>
